<svg width="20" height="19" viewBox="0 0 20 19" fill="none" xmlns="http://www.w3.org/2000/svg">
<path d="M10 8.59375C8.79167 8.59375 7.79688 8.20312 7.01562 7.42188C6.23438 6.64062 5.84375 5.64583 5.84375 4.4375C5.84375 3.22917 6.23438 2.23958 7.01562 1.46875C7.79688 0.697916 8.79167 0.3125 10 0.3125C11.2083 0.3125 12.2031 0.697916 12.9844 1.46875C13.7656 2.23958 14.1562 3.22917 14.1562 4.4375C14.1562 5.64583 13.7656 6.64062 12.9844 7.42188C12.2031 8.20312 11.2083 8.59375 10 8.59375ZM0.625 18.125V15.75C0.625 15.0833 0.802084 14.5 1.15625 14C1.51042 13.5 1.96875 13.1146 2.53125 12.8438C3.86458 12.2604 5.14062 11.8229 6.35937 11.5312C7.57812 11.2396 8.79167 11.0938 10 11.0938C11.2083 11.0938 12.4219 11.2448 13.6406 11.5469C14.8594 11.849 16.125 12.2917 17.4375 12.875C18.0208 13.1458 18.4896 13.526 18.8438 14.0156C19.1979 14.5052 19.375 15.0833 19.375 15.75V18.125H0.625ZM2.03125 16.7187H17.9688V15.75C17.9688 15.4375 17.8646 15.1302 17.6562 14.8281C17.4479 14.526 17.1771 14.2917 16.8438 14.125C15.6146 13.5208 14.4531 13.099 13.3594 12.8594C12.2656 12.6198 11.1458 12.5 10 12.5C8.85417 12.5 7.72396 12.6198 6.60938 12.8594C5.49479 13.099 4.33333 13.5208 3.125 14.125C2.8125 14.2917 2.55208 14.526 2.34375 14.8281C2.13542 15.1302 2.03125 15.4375 2.03125 15.75V16.7187ZM10 7.1875C10.7708 7.1875 11.4167 6.92708 11.9375 6.40625C12.4583 5.88542 12.7188 5.22917 12.7188 4.4375C12.7188 3.66667 12.4583 3.02083 11.9375 2.5C11.4167 1.97917 10.7708 1.71875 10 1.71875C9.22917 1.71875 8.58333 1.97917 8.0625 2.5C7.54167 3.02083 7.28125 3.66667 7.28125 4.4375C7.28125 5.22917 7.54167 5.88542 8.0625 6.40625C8.58333 6.92708 9.22917 7.1875 10 7.1875Z" fill="#2962FF" stroke="#2962FF" stroke-width="0.5"/>
</svg>
