<svg width="28" height="28" viewBox="0 0 28 28" fill="none" xmlns="http://www.w3.org/2000/svg">
<path d="M5.99944 0C2.68699 0 0 2.68699 0 6.00169V18.0006C0 21.3153 2.68699 24 5.99944 24C9.31188 24 11.9989 21.313 11.9989 18.0006V6.00169C12.0011 2.68699 9.31414 0 5.99944 0ZM10.4996 17.9983C10.4996 20.4843 8.48547 22.4984 5.99944 22.4984C3.51341 22.4984 1.49929 20.4843 1.49929 17.9983V11.9989H10.5018V17.9983H10.4996ZM16.499 9.00254C15.431 9.00254 14.4172 9.22834 13.4959 9.63251V18.1654C13.4959 18.1654 13.4959 18.1812 13.4959 18.1902L21.0985 10.5876C19.8273 9.59865 18.2354 9.00254 16.499 9.00254ZM22.1823 11.6173L12.9969 20.8027C12.7576 21.4214 12.4347 21.9972 12.044 22.521C13.2904 23.4445 14.8281 23.9977 16.4968 23.9977C20.6379 23.9977 23.9955 20.6401 23.9955 16.499C23.9955 14.6317 23.3091 12.9292 22.1801 11.6173H22.1823Z" fill="#2962FF"/>
<circle cx="22" cy="22" r="5.25" fill="#2962FF" stroke="#E3F2FD" stroke-width="1.5"/>
<path d="M22.7564 21.2577H25.4286V22.7705H22.7564V25.4286H21.2436V22.7705H18.5714V21.2577H21.2436V18.5714H22.7564V21.2577Z" fill="white"/>
</svg>
