<svg width="40" height="40" viewBox="0 0 40 40" fill="none" xmlns="http://www.w3.org/2000/svg">
<path d="M0 20C0 8.95431 8.95431 0 20 0C31.0457 0 40 8.95431 40 20C40 31.0457 31.0457 40 20 40C8.95431 40 0 31.0457 0 20Z" fill="#E3F2FD"/>
<path d="M30.146 9.85456C28.9508 8.65866 27.3608 8 25.6698 8C23.9786 8 22.3892 8.65866 21.1934 9.85456L15.5239 15.5239L9.8542 21.194C8.65866 22.3899 8 23.9799 8 25.6705C8 27.3612 8.65866 28.9512 9.8542 30.1464C11.0494 31.3423 12.6393 32.0009 14.3304 32.0009C16.0214 32.0009 17.611 31.3423 18.8066 30.1464L24.4763 24.477L30.146 18.8069C31.3415 17.611 32 16.0211 32 14.3304C32 12.6397 31.3415 11.0497 30.146 9.85456ZM17.613 28.9528C16.7359 29.8298 15.5701 30.313 14.3304 30.313C13.0902 30.313 11.9246 29.8299 11.0477 28.9528C10.1708 28.0757 9.68811 26.9104 9.68811 25.6707C9.68811 24.431 10.1712 23.2646 11.0477 22.3877L16.1207 17.3144L22.686 23.8804L17.613 28.9528ZM28.9525 17.6134L23.8795 22.6867L17.3142 16.1207L22.3871 11.0481C23.2641 10.1712 24.4299 9.68793 25.6698 9.68793C26.9098 9.68793 28.0753 10.171 28.9523 11.0481C29.8292 11.9252 30.3119 13.0905 30.3119 14.3302C30.3119 15.5699 29.829 16.7363 28.9525 17.6134Z" fill="#2962FF"/>
</svg>
