<svg width="40" height="40" viewBox="0 0 40 40" fill="none" xmlns="http://www.w3.org/2000/svg">
<path d="M0 20C0 8.95431 8.95431 0 20 0C31.0457 0 40 8.95431 40 20C40 31.0457 31.0457 40 20 40C8.95431 40 0 31.0457 0 20Z" fill="#E3F2FD"/>
<path d="M20.1232 19.5975C21.5791 19.5975 22.8396 19.0754 23.8698 18.0451C24.8998 17.015 25.4221 15.7547 25.4221 14.2986C25.4221 12.843 24.8999 11.5825 23.8697 10.5521C22.8394 9.52217 21.5789 9 20.1232 9C18.6671 9 17.4067 9.52217 16.3766 10.5523C15.3466 11.5823 14.8242 12.8429 14.8242 14.2986C14.8242 15.7547 15.3466 17.0152 16.3766 18.0453C17.4071 19.0752 18.6676 19.5975 20.1232 19.5975ZM17.2884 11.4638C18.0788 10.6734 19.006 10.2892 20.1232 10.2892C21.2402 10.2892 22.1675 10.6734 22.9581 11.4638C23.7485 12.2544 24.1329 13.1817 24.1329 14.2986C24.1329 15.4158 23.7485 16.343 22.9581 17.1335C22.1675 17.9241 21.2402 18.3083 20.1232 18.3083C19.0063 18.3083 18.0791 17.9239 17.2884 17.1335C16.4978 16.3431 16.1135 15.4158 16.1135 14.2986C16.1135 13.1817 16.4978 12.2544 17.2884 11.4638Z" fill="#2962FF" stroke="#2962FF" stroke-width="0.5"/>
<path d="M29.3948 25.917C29.365 25.4883 29.305 25.0207 29.2165 24.5269C29.1272 24.0294 29.0122 23.5591 28.8746 23.1293C28.7323 22.685 28.5391 22.2462 28.2999 21.8258C28.052 21.3893 27.7606 21.0093 27.4336 20.6966C27.0917 20.3695 26.6731 20.1065 26.189 19.9146C25.7067 19.7238 25.1721 19.6271 24.6002 19.6271C24.3756 19.6271 24.1584 19.7193 23.739 19.9924C23.4808 20.1607 23.1789 20.3554 22.8418 20.5708C22.5536 20.7544 22.1632 20.9264 21.681 21.0822C21.2105 21.2344 20.7328 21.3116 20.2612 21.3116C19.7899 21.3116 19.3122 21.2344 18.8414 21.0822C18.3596 20.9266 17.9691 20.7546 17.6814 20.5709C17.3475 20.3576 17.0454 20.1629 16.7834 19.9922C16.3643 19.7191 16.1471 19.627 15.9225 19.627C15.3505 19.627 14.8161 19.7238 14.3338 19.9148C13.8501 20.1063 13.4313 20.3693 13.0891 20.6968C12.7621 21.0097 12.4707 21.3895 12.223 21.8258C11.9841 22.2462 11.7908 22.6848 11.6484 23.1294C11.511 23.5593 11.396 24.0294 11.3067 24.5269C11.2181 25.0201 11.1582 25.4878 11.1284 25.9175C11.0992 26.3377 11.0845 26.7749 11.0845 27.2167C11.0845 28.3651 11.4495 29.2948 12.1694 29.9804C12.8804 30.657 13.8211 31.0001 14.9653 31.0001H25.5584C26.7023 31.0001 27.6429 30.657 28.3541 29.9804C29.0742 29.2953 29.4392 28.3652 29.4392 27.2165C29.4391 26.7732 29.4241 26.336 29.3948 25.917ZM27.4652 29.0464C26.9954 29.4935 26.3717 29.7109 25.5583 29.7109H14.9653C14.1517 29.7109 13.528 29.4935 13.0584 29.0465C12.5976 28.608 12.3737 28.0092 12.3737 27.2167C12.3737 26.8044 12.3873 26.3974 12.4145 26.0067C12.441 25.6233 12.4952 25.2022 12.5756 24.7547C12.655 24.3127 12.7561 23.898 12.8762 23.5225C12.9916 23.1625 13.1488 22.806 13.3439 22.4626C13.53 22.1353 13.7442 21.8545 13.9805 21.6282C14.2016 21.4165 14.4802 21.2433 14.8085 21.1134C15.1121 20.9932 15.4534 20.9274 15.8238 20.9175C15.869 20.9415 15.9494 20.9874 16.0796 21.0723C16.3446 21.245 16.6501 21.4421 16.9878 21.6577C17.3685 21.9004 17.859 22.1197 18.4449 22.3088C19.044 22.5025 19.6549 22.6009 20.2614 22.6009C20.8678 22.6009 21.4789 22.5025 22.0776 22.309C22.6641 22.1195 23.1544 21.9004 23.5355 21.6574C23.8811 21.4365 24.1781 21.2452 24.4431 21.0723C24.5733 20.9875 24.6537 20.9415 24.6989 20.9175C25.0695 20.9274 25.4107 20.9932 25.7145 21.1134C26.0427 21.2433 26.3213 21.4167 26.5424 21.6282C26.7787 21.8543 26.9929 22.1351 27.179 22.4627C27.3742 22.806 27.5317 23.1627 27.6468 23.5224C27.7671 23.8983 27.8684 24.3129 27.9476 24.7545C28.0278 25.2028 28.0822 25.6241 28.1087 26.0068V26.0072C28.1361 26.3964 28.1498 26.8033 28.15 27.2167C28.1498 28.0094 27.9259 28.608 27.4652 29.0464Z" fill="#2962FF" stroke="#2962FF" stroke-width="0.5"/>
</svg>
