<svg xmlns="http://www.w3.org/2000/svg" width="42" height="39.464" viewBox="0 0 42 39.464">
  <g id="_360CareAnalytics" data-name="360CareAnalytics" transform="translate(0.017 -1)">
    <g id="Group_5827" data-name="Group 5827" transform="translate(-0.017 1)">
      <path id="Path_272" d="M28.057,36.863a1.189,1.189,0,0,1,0,1.71l-.121.127a17.328,17.328,0,0,1-9.979,3.42C8.34,42.12.477,34.266-.007,24.2c-.3-9.5,6.23-17.67,15.241-19a1.221,1.221,0,0,1,1.331,1.077V24.767Z" transform="translate(0.017 -2.656)" fill="#339b9b"/>
      <path id="Path_971" data-name="Path 971" d="M34.47,1h-.06A1.213,1.213,0,0,0,33.2,2.21V18.721H49.772a1.2,1.2,0,0,0,1.149-1.21A17.7,17.7,0,0,0,34.47,1ZM47.776,12.733H43.119a.744.744,0,0,1-.665-.423l-.06-.181-.968,1.935a.744.744,0,0,1-.665.423h0A.656.656,0,0,1,40.095,14l-1.149-2.722-.484.968a.82.82,0,0,1-.665.423H34.773a.786.786,0,1,1,0-1.573h2.54l1.028-2.117a.76.76,0,0,1,1.391.06l1.089,2.722.907-1.754a.8.8,0,0,1,1.028-.363.706.706,0,0,1,.363.363l.544,1.149h4.173a.8.8,0,0,1,.786.786A.856.856,0,0,1,47.776,12.733Z" transform="translate(-11.34 -1)" fill="#f88630"/>
      <path id="Path_274" d="M54.189,37.531a17.749,17.749,0,0,1-5.383,10.4,1.15,1.15,0,0,1-1.633-.06L35.5,36.2H53.04a1.2,1.2,0,0,1,1.21,1.149.222.222,0,0,0-.06.181" transform="translate(-12.249 -13.248)" fill="#a00b46"/>
    </g>
  </g>
</svg>