<svg width="367" height="426" viewBox="0 0 367 426" fill="none" xmlns="http://www.w3.org/2000/svg">
<path d="M366.175 363.852H303.352V425.235H366.175V363.852Z" fill="#006AD4" fill-opacity="0.09"/>
<path d="M366.249 212.958V275.307H303.396V215.066C303.396 214.354 303.396 213.671 303.396 212.958C303.396 212.246 303.396 211.786 303.396 211.207C302.007 170.936 284.974 132.792 255.915 104.877C226.857 76.962 188.06 61.4738 147.766 61.7018C107.472 61.9298 68.8536 77.8561 40.1124 106.098C11.3713 134.341 -5.2286 172.674 -6.16199 212.958C-5.71462 252.516 10.0474 290.361 37.8124 318.542C65.5775 346.722 103.184 363.044 142.731 364.078C144.676 364.182 146.665 364.197 148.669 364.197C150.673 364.197 152.766 364.197 154.8 364.078H213.199V425.58H148.669C146.69 425.58 144.711 425.551 142.731 425.491C86.6998 424.644 33.2135 401.953 -6.33482 362.252C-45.8832 322.551 -68.368 268.978 -69 212.944C-67.764 156.196 -44.4117 102.176 -3.9211 62.3979C36.5695 22.6198 90.9958 0.230216 147.756 0.00176546C204.517 -0.226685 259.121 21.7241 299.931 61.1749C340.74 100.626 364.527 154.456 366.219 211.192C366.219 211.771 366.219 212.365 366.219 212.944" fill="#006AD4" fill-opacity="0.09"/>
<path d="M303.279 302.482H240.456V363.866H303.279V302.482Z" fill="#006AD4" fill-opacity="0.09"/>
</svg>
