<svg width="130" height="85" viewBox="0 0 130 85" fill="none" xmlns="http://www.w3.org/2000/svg">
<rect width="130" height="85" fill="#E5E5E5"/>
<rect width="375" height="1277" transform="translate(-205 -652)" fill="#F5F6FA"/>
<rect x="-12.3984" y="-51.5" width="154.5" height="207" rx="7.5" stroke="#E0E0E0"/>
<rect x="0.6875" y="30.6641" width="42.1583" height="42.127" rx="21.0635" transform="rotate(-15 0.6875 30.6641)" fill="#FBE9E7"/>
<path d="M26.08 49.0763L26.7162 48.9058L26.8867 49.542C26.9319 49.7108 27.0423 49.8547 27.1936 49.942C27.3449 50.0294 27.5247 50.053 27.6935 50.0078C27.8622 49.9626 28.0061 49.8522 28.0935 49.7009C28.1808 49.5496 28.2045 49.3698 28.1593 49.2011L27.9888 48.5648L28.6251 48.3943C28.7938 48.3491 28.9377 48.2387 29.0251 48.0874C29.1124 47.9361 29.1361 47.7563 29.0909 47.5875C29.0456 47.4188 28.9352 47.2749 28.7839 47.1875C28.6326 47.1002 28.4528 47.0765 28.2841 47.1217L27.6478 47.2922L27.4773 46.6559C27.4321 46.4872 27.3217 46.3433 27.1704 46.256C27.0191 46.1686 26.8393 46.1449 26.6706 46.1902C26.5018 46.2354 26.3579 46.3458 26.2706 46.4971C26.1832 46.6484 26.1595 46.8282 26.2048 46.9969L26.3753 47.6332L25.739 47.8037C25.5702 47.8489 25.4263 47.9593 25.339 48.1106C25.2516 48.2619 25.228 48.4417 25.2732 48.6105C25.3184 48.7792 25.4288 48.9231 25.5801 49.0104C25.7314 49.0978 25.9112 49.1215 26.08 49.0763ZM29.9311 40.5428L28.6585 40.8838L28.488 40.2475C28.3524 39.7412 28.0212 39.3096 27.5673 39.0475C27.1134 38.7855 26.574 38.7145 26.0677 38.8501L23.5226 39.5321C23.0163 39.6677 22.5847 39.9989 22.3227 40.4528C22.0606 40.9067 21.9896 41.4461 22.1252 41.9524L22.2957 42.5887L21.0232 42.9296C20.5169 43.0653 20.0853 43.3965 19.8232 43.8504C19.5612 44.3043 19.4902 44.8437 19.6258 45.3499L21.3307 51.7127C21.4664 52.219 21.7976 52.6506 22.2515 52.9127C22.7054 53.1747 23.2448 53.2457 23.751 53.1101L32.6589 50.7232C33.1652 50.5876 33.5968 50.2564 33.8589 49.8025C34.1209 49.3486 34.1919 48.8092 34.0563 48.3029L32.3514 41.9401C32.2157 41.4339 31.8845 41.0023 31.4306 40.7402C30.9767 40.4781 30.4373 40.4071 29.9311 40.5428ZM23.3978 41.6114C23.3526 41.4426 23.3762 41.2628 23.4636 41.1115C23.551 40.9602 23.6948 40.8498 23.8636 40.8046L26.4087 40.1227C26.5774 40.0775 26.7573 40.1011 26.9085 40.1885C27.0598 40.2758 27.1702 40.4197 27.2155 40.5885L27.386 41.2247L23.5683 42.2477L23.3978 41.6114ZM32.7837 48.6439C32.8289 48.8127 32.8053 48.9925 32.7179 49.1438C32.6306 49.2951 32.4867 49.4055 32.3179 49.4507L23.41 51.8375C23.2413 51.8828 23.0615 51.8591 22.9102 51.7717C22.7589 51.6844 22.6485 51.5405 22.6033 51.3718L21.4098 46.9178L31.5903 44.19L32.7837 48.6439ZM31.2493 42.9174L21.0689 45.6452L20.8984 45.009C20.8531 44.8402 20.8768 44.6604 20.9642 44.5091C21.0515 44.3578 21.1954 44.2474 21.3642 44.2022L30.2721 41.8153C30.4408 41.7701 30.6206 41.7938 30.7719 41.8811C30.9232 41.9685 31.0336 42.1124 31.0788 42.2811L31.2493 42.9174Z" fill="#DD2C00"/>
<rect x="88.2942" y="19.7373" width="42.1583" height="42.1583" rx="21.0792" transform="rotate(15 88.2942 19.7373)" fill="#E0F2F1"/>
<path d="M109.594 42.4992C109.101 41.642 108.317 40.9896 107.385 40.6597C106.452 40.3298 105.433 40.3442 104.51 40.7003C103.861 39.881 102.927 39.3379 101.894 39.1802C100.861 39.0225 99.8068 39.262 98.9435 39.8504C98.0802 40.4389 97.4719 41.3326 97.2411 42.3516C97.0104 43.3706 97.1743 44.4392 97.6998 45.3422L100.591 50.3599C100.835 50.7743 101.232 51.0763 101.696 51.2007C102.161 51.3251 102.655 51.262 103.074 51.025L108.087 48.1253C109.03 47.5768 109.718 46.6773 110 45.6231C110.283 44.569 110.137 43.446 109.594 42.4992ZM107.425 47.0066L102.413 49.8999C102.356 49.9332 102.293 49.9549 102.227 49.9637C102.162 49.9725 102.095 49.9682 102.031 49.9511C101.967 49.934 101.907 49.9044 101.855 49.864C101.803 49.8236 101.759 49.7732 101.726 49.7157L98.8377 44.6853C98.4753 44.0413 98.3794 43.2811 98.5707 42.5673C98.7619 41.8536 99.225 41.2431 99.8609 40.8667C100.504 40.5008 101.265 40.403 101.98 40.5945C102.695 40.786 103.305 41.2514 103.68 41.8899C103.723 41.9654 103.78 42.0316 103.849 42.0847C103.918 42.1378 103.997 42.1767 104.081 42.1992C104.165 42.2217 104.253 42.2274 104.339 42.2158C104.425 42.2043 104.508 42.1758 104.583 42.132C105.226 41.7661 105.988 41.6684 106.703 41.8599C107.417 42.0514 108.028 42.5168 108.402 43.1552C108.773 43.7943 108.879 44.5533 108.697 45.2696C108.516 45.9859 108.06 46.6026 107.43 46.9875L107.425 47.0066Z" fill="#00BFA5"/>
<g filter="url(#filter0_d_0_1)">
<rect x="38.9082" y="12.6294" width="51.8872" height="51.8486" rx="25.9243" fill="white"/>
<path d="M62.2624 35.8691L62.2608 35.8704L62.2592 35.872L62.2624 35.8691ZM69.5591 35.7325C69.5081 35.6834 69.4515 35.6404 69.3905 35.6044C69.3041 35.5536 69.2082 35.5211 69.1088 35.5088C69.0093 35.4965 68.9084 35.5047 68.8123 35.533C68.7161 35.5612 68.6268 35.6088 68.5498 35.6729C68.4728 35.737 68.4098 35.8162 68.3647 35.9056C68.1122 36.4027 67.7639 36.8451 67.3399 37.2075C67.4047 36.8424 67.4374 36.4723 67.4376 36.1016C67.439 34.9736 67.1412 33.8655 66.5746 32.8899C66.008 31.9144 65.1928 31.1063 64.212 30.5479C64.104 30.4867 63.9821 30.4539 63.8579 30.4527C63.7337 30.4514 63.6113 30.4817 63.502 30.5407C63.3927 30.5997 63.3003 30.6854 63.2333 30.7899C63.1662 30.8944 63.1269 31.0142 63.1189 31.138C63.0779 31.8326 62.8962 32.5115 62.5848 33.1338C62.2734 33.7561 61.8389 34.3087 61.3075 34.7582L61.1385 34.8956C60.5828 35.2692 60.091 35.7298 59.6818 36.2597C59.0458 37.0603 58.6052 37.9981 58.3949 38.9985C58.1847 39.999 58.2106 41.0346 58.4707 42.0233C58.7307 43.012 59.2177 43.9266 59.893 44.6944C60.5683 45.4623 61.4134 46.0624 62.3612 46.4472C62.4725 46.4926 62.5933 46.51 62.7129 46.4978C62.8325 46.4855 62.9472 46.4441 63.047 46.3771C63.1468 46.3101 63.2285 46.2196 63.285 46.1135C63.3415 46.0075 63.371 45.8892 63.3709 45.769C63.3704 45.6913 63.3581 45.6142 63.3344 45.5401C63.1704 44.9241 63.1232 44.2829 63.1952 43.6496C63.8888 44.9568 65.0022 45.9931 66.3564 46.5916C66.5217 46.6655 66.7085 46.6755 66.8807 46.6195C67.9506 46.2745 68.9145 45.6618 69.6806 44.8397C70.4468 44.0175 70.9899 43.0133 71.2583 41.9224C71.5267 40.8314 71.5114 39.6901 71.214 38.6067C70.9166 37.5233 70.3469 36.5339 69.5591 35.7325ZM66.6967 45.131C66.0578 44.8074 65.4941 44.353 65.0424 43.7975C64.5907 43.2419 64.2611 42.5976 64.075 41.9064C64.0181 41.6736 63.9741 41.4379 63.9432 41.2003C63.9223 41.049 63.8546 40.9081 63.7495 40.7971C63.6445 40.6862 63.5073 40.6108 63.3573 40.5816C63.3111 40.5725 63.2641 40.5679 63.217 40.568C63.0882 40.568 62.9616 40.6019 62.8501 40.6663C62.7385 40.7307 62.646 40.8234 62.5817 40.935C61.9735 41.9832 61.6676 43.1793 61.698 44.3906C61.163 43.975 60.716 43.4575 60.3827 42.868C60.0494 42.2784 59.8365 41.6287 59.7564 40.9563C59.6763 40.284 59.7305 39.6024 59.9159 38.9512C60.1013 38.2999 60.4142 37.6919 60.8365 37.1624C61.1571 36.7462 61.5439 36.3855 61.9814 36.0945C62.0004 36.0822 62.0186 36.0689 62.0359 36.0544C62.0359 36.0544 62.2533 35.8746 62.2608 35.8705C63.3051 34.9878 64.0479 33.8016 64.3856 32.4771C65.1843 33.2149 65.7169 34.1955 65.9006 35.2668C66.0843 36.338 65.909 37.4399 65.4018 38.4013C65.3347 38.5296 65.3073 38.6749 65.3228 38.8188C65.3383 38.9627 65.3961 39.0987 65.4889 39.2098C65.5817 39.3209 65.7053 39.4021 65.8442 39.4431C65.9831 39.484 66.1311 39.4829 66.2694 39.44C67.3922 39.0883 68.3803 38.4013 69.1005 37.4715C69.5334 38.1104 69.8164 38.8387 69.9285 39.6021C70.0405 40.3656 69.9787 41.1444 69.7477 41.8807C69.5166 42.6169 69.1223 43.2915 68.594 43.8543C68.0658 44.4171 67.4172 44.8535 66.6967 45.131L66.6967 45.131Z" fill="#2962FF"/>
</g>
<g filter="url(#filter1_d_0_1)">
<rect x="-181" y="-52" width="155.5" height="208" rx="8" fill="white"/>
</g>
<rect x="-205" y="-37" width="375" height="52" fill="white"/>
<rect x="-51.4963" y="-37" width="68" height="52" fill="white"/>
<rect x="17.2537" y="-37" width="68" height="52" fill="white"/>
<rect x="86.0037" y="-37" width="68" height="52" fill="white"/>
<defs>
<filter id="filter0_d_0_1" x="22.9082" y="0.629395" width="83.8872" height="83.8486" filterUnits="userSpaceOnUse" color-interpolation-filters="sRGB">
<feFlood flood-opacity="0" result="BackgroundImageFix"/>
<feColorMatrix in="SourceAlpha" type="matrix" values="0 0 0 0 0 0 0 0 0 0 0 0 0 0 0 0 0 0 127 0" result="hardAlpha"/>
<feOffset dy="4"/>
<feGaussianBlur stdDeviation="8"/>
<feComposite in2="hardAlpha" operator="out"/>
<feColorMatrix type="matrix" values="0 0 0 0 0.14902 0 0 0 0 0.196078 0 0 0 0 0.219608 0 0 0 0.16 0"/>
<feBlend mode="normal" in2="BackgroundImageFix" result="effect1_dropShadow_0_1"/>
<feBlend mode="normal" in="SourceGraphic" in2="effect1_dropShadow_0_1" result="shape"/>
</filter>
<filter id="filter1_d_0_1" x="-213" y="-76" width="219.5" height="272" filterUnits="userSpaceOnUse" color-interpolation-filters="sRGB">
<feFlood flood-opacity="0" result="BackgroundImageFix"/>
<feColorMatrix in="SourceAlpha" type="matrix" values="0 0 0 0 0 0 0 0 0 0 0 0 0 0 0 0 0 0 127 0" result="hardAlpha"/>
<feOffset dy="8"/>
<feGaussianBlur stdDeviation="16"/>
<feComposite in2="hardAlpha" operator="out"/>
<feColorMatrix type="matrix" values="0 0 0 0 0 0 0 0 0 0 0 0 0 0 0 0 0 0 0.08 0"/>
<feBlend mode="normal" in2="BackgroundImageFix" result="effect1_dropShadow_0_1"/>
<feBlend mode="normal" in="SourceGraphic" in2="effect1_dropShadow_0_1" result="shape"/>
</filter>
</defs>
</svg>
