<svg width="40" height="40" viewBox="0 0 40 40" fill="none" xmlns="http://www.w3.org/2000/svg">
<rect width="40" height="40" rx="8" fill="#4DA3C9" fill-opacity="0.14"/>
<path d="M26.4509 20.9107L19.5938 27.7679C19.5045 27.8482 19.4018 27.8884 19.2857 27.8884C19.1696 27.8884 19.067 27.8482 18.9777 27.7679L15.1205 23.9107C15.0402 23.8214 15 23.7188 15 23.6027C15 23.4866 15.0402 23.3884 15.1205 23.308L15.7366 22.692C15.817 22.6116 15.9152 22.5714 16.0312 22.5714C16.1473 22.5714 16.25 22.6116 16.3393 22.692L19.2857 25.6384L25.2321 19.692C25.3214 19.6116 25.4241 19.5714 25.5402 19.5714C25.6562 19.5714 25.7545 19.6116 25.8348 19.692L26.4509 20.308C26.5312 20.3884 26.5714 20.4866 26.5714 20.6027C26.5714 20.7188 26.5312 20.8214 26.4509 20.9107ZM10.7143 30.2857H29.5714V16.5714H10.7143V30.2857ZM15.8571 14V10.1429C15.8571 10.0179 15.817 9.91518 15.7366 9.83482C15.6563 9.75447 15.5536 9.71429 15.4286 9.71429H14.5714C14.4464 9.71429 14.3438 9.75447 14.2634 9.83482C14.183 9.91518 14.1429 10.0179 14.1429 10.1429V14C14.1429 14.125 14.183 14.2277 14.2634 14.308C14.3438 14.3884 14.4464 14.4286 14.5714 14.4286H15.4286C15.5536 14.4286 15.6563 14.3884 15.7366 14.308C15.817 14.2277 15.8571 14.125 15.8571 14ZM26.1429 14V10.1429C26.1429 10.0179 26.1027 9.91518 26.0223 9.83482C25.942 9.75447 25.8393 9.71429 25.7143 9.71429H24.8571C24.7321 9.71429 24.6295 9.75447 24.5491 9.83482C24.4688 9.91518 24.4286 10.0179 24.4286 10.1429V14C24.4286 14.125 24.4688 14.2277 24.5491 14.308C24.6295 14.3884 24.7321 14.4286 24.8571 14.4286H25.7143C25.8393 14.4286 25.942 14.3884 26.0223 14.308C26.1027 14.2277 26.1429 14.125 26.1429 14ZM31.2857 13.1429V30.2857C31.2857 30.75 31.1161 31.1518 30.7768 31.4911C30.4375 31.8304 30.0357 32 29.5714 32H10.7143C10.25 32 9.84821 31.8304 9.50893 31.4911C9.16964 31.1518 9 30.75 9 30.2857V13.1429C9 12.6786 9.16964 12.2768 9.50893 11.9375C9.84821 11.5982 10.25 11.4286 10.7143 11.4286H12.4286V10.1429C12.4286 9.55357 12.6384 9.04911 13.058 8.62947C13.4777 8.20982 13.9821 8 14.5714 8H15.4286C16.0179 8 16.5223 8.20982 16.942 8.62947C17.3616 9.04911 17.5714 9.55357 17.5714 10.1429V11.4286H22.7143V10.1429C22.7143 9.55357 22.9241 9.04911 23.3438 8.62947C23.7634 8.20982 24.2679 8 24.8571 8H25.7143C26.3036 8 26.808 8.20982 27.2277 8.62947C27.6473 9.04911 27.8571 9.55357 27.8571 10.1429V11.4286H29.5714C30.0357 11.4286 30.4375 11.5982 30.7768 11.9375C31.1161 12.2768 31.2857 12.6786 31.2857 13.1429Z" fill="#4DA3C9"/>
</svg>
