<svg width="40" height="40" viewBox="0 0 40 40" fill="none" xmlns="http://www.w3.org/2000/svg">
<rect width="40" height="40" rx="10" fill="#B17E6A"/>
<path d="M27.4165 14.9333V14.7833H27.2665H22.0998C21.8012 14.7833 21.5688 14.6902 21.3892 14.5106C21.2096 14.331 21.1165 14.0986 21.1165 13.8V8.73334V8.58334H20.9665H10.0665H9.91647V8.73334V14.9333V18.3333V18.4333V31.2667V31.4167H10.0665H20.2985C20.7404 31.9163 21.2404 32.3575 21.7983 32.7404C22.159 32.9879 22.5436 33.2022 22.952 33.3833H10.0665C9.50939 33.3833 9.01892 33.1737 8.5892 32.7439C8.15948 32.3142 7.9498 31.8238 7.9498 31.2667V8.73334C7.9498 8.15257 8.16052 7.65765 8.58789 7.24071C9.01731 6.82176 9.50816 6.61667 10.0665 6.61667H21.1665C21.4573 6.61667 21.7375 6.67369 22.008 6.78815C22.2811 6.90367 22.5088 7.05448 22.6937 7.23941L28.7604 13.3061C28.9453 13.491 29.0961 13.7187 29.2117 13.9918C29.3261 14.2623 29.3831 14.5425 29.3831 14.8333V18.8731C29.0891 18.7513 28.7878 18.6404 28.4793 18.5406C28.1339 18.4289 27.7796 18.3489 27.4165 18.3005V14.9333ZM29.4392 30.8273L29.3522 30.7403L29.2499 30.8085C28.7944 31.1122 28.3064 31.3508 27.7857 31.5244C27.2687 31.6967 26.7181 31.7833 26.1331 31.7833C24.5497 31.7833 23.2159 31.2373 22.1225 30.1439C21.0291 29.0505 20.4831 27.7168 20.4831 26.1333C20.4831 24.5504 21.0343 23.2168 22.1387 22.1233C23.2438 21.0289 24.5725 20.4833 26.1331 20.4833C27.7161 20.4833 29.0497 21.0345 30.1432 22.1389C31.2375 23.244 31.7831 24.5727 31.7831 26.1333C31.7831 26.7183 31.6965 27.2689 31.5242 27.7859C31.3506 28.3066 31.112 28.7946 30.8083 29.2501L30.7401 29.3525L30.8271 29.4394L33.6271 32.2394C33.8215 32.4338 33.9165 32.6625 33.9165 32.9333C33.9165 33.2042 33.8215 33.4329 33.6271 33.6273C33.4327 33.8217 33.204 33.9167 32.9331 33.9167C32.6623 33.9167 32.4336 33.8217 32.2392 33.6273L29.4392 30.8273ZM19.4224 21.85H14.3331C14.0804 21.85 13.8735 21.7688 13.7028 21.6076C13.5369 21.4509 13.4498 21.2425 13.4498 20.9667C13.4498 20.7166 13.5347 20.5106 13.7059 20.3394C13.8771 20.1682 14.0831 20.0833 14.3331 20.0833H20.9771C20.719 20.3057 20.4778 20.545 20.2536 20.8012C19.9566 21.1407 19.6795 21.4903 19.4224 21.85ZM18.2858 27.5167H14.3331C14.0804 27.5167 13.8735 27.4355 13.7028 27.2743C13.5369 27.1176 13.4498 26.9091 13.4498 26.6333C13.4498 26.3833 13.5347 26.1773 13.7059 26.0061C13.8771 25.8349 14.0831 25.75 14.3331 25.75H18.1745C18.1614 26.0399 18.1644 26.3375 18.1834 26.6427C18.2021 26.9414 18.2362 27.2327 18.2858 27.5167ZM26.1331 29.8167C27.171 29.8167 28.0486 29.4633 28.7559 28.7561C29.4631 28.0488 29.8165 27.1712 29.8165 26.1333C29.8165 25.0955 29.4631 24.2178 28.7559 23.5106C28.0486 22.8034 27.171 22.45 26.1331 22.45C25.0953 22.45 24.2176 22.8034 23.5104 23.5106C22.8032 24.2178 22.4498 25.0955 22.4498 26.1333C22.4498 27.1712 22.8032 28.0488 23.5104 28.7561C24.2176 29.4633 25.0953 29.8167 26.1331 29.8167Z" fill="white" stroke="#B17E6A" stroke-width="0.3"/>
</svg>
