<svg width="14" height="14" viewBox="0 0 14 14" fill="none" xmlns="http://www.w3.org/2000/svg">
<path d="M9.40007 10.2333L10.2167 9.41661L7.60006 6.78328V3.46661H6.50006V7.21661L9.40007 10.2333ZM7.00006 13.7666C6.07784 13.7666 5.20284 13.5888 4.37507 13.2333C3.54729 12.8777 2.82784 12.3944 2.21673 11.7833C1.60562 11.1722 1.12229 10.4527 0.766732 9.62494C0.411176 8.79716 0.233398 7.92217 0.233398 6.99994C0.233398 6.07772 0.411176 5.20272 0.766732 4.37494C1.12229 3.54717 1.60562 2.82772 2.21673 2.21661C2.82784 1.6055 3.54729 1.12217 4.37507 0.76661C5.20284 0.411054 6.07784 0.233276 7.00006 0.233276C7.92229 0.233276 8.79729 0.411054 9.62506 0.76661C10.4528 1.12217 11.1723 1.6055 11.7834 2.21661C12.3945 2.82772 12.8778 3.54717 13.2334 4.37494C13.589 5.20272 13.7667 6.07772 13.7667 6.99994C13.7667 7.92217 13.589 8.79716 13.2334 9.62494C12.8778 10.4527 12.3945 11.1722 11.7834 11.7833C11.1723 12.3944 10.4556 12.8777 9.6334 13.2333C8.81118 13.5888 7.9334 13.7666 7.00006 13.7666ZM7.00006 12.6333C8.54451 12.6333 9.86951 12.0833 10.9751 10.9833C12.0806 9.88328 12.6334 8.5555 12.6334 6.99994C12.6334 5.4555 12.0806 4.1305 10.9751 3.02494C9.86951 1.91939 8.54451 1.36661 7.00006 1.36661C5.45562 1.36661 4.13062 1.91939 3.02507 3.02494C1.91951 4.1305 1.36673 5.4555 1.36673 6.99994C1.36673 8.5555 1.91951 9.88328 3.02507 10.9833C4.13062 12.0833 5.45562 12.6333 7.00006 12.6333Z" fill="#2962FF"/>
</svg>
