<svg height="398" viewBox="0 0 375 398" width="375" xmlns="http://www.w3.org/2000/svg" xmlns:xlink="http://www.w3.org/1999/xlink"><clipPath id="a"><path d="m0 188h375v398h-375z"/></clipPath><linearGradient id="b" gradientUnits="objectBoundingBox" x1="2.965" x2="3.745" y1="4.061" y2="3.435"><stop offset="0" stop-color="#4fc3f7"/><stop offset="1" stop-color="#03a9f4"/></linearGradient><linearGradient id="c" gradientUnits="objectBoundingBox" x1="1.189" x2="-.087" y1=".914" y2=".148"><stop offset="0" stop-color="#fff"/><stop offset="1" stop-color="#ededed"/></linearGradient><g clip-path="url(#a)" transform="translate(0 -188)"><path d="m0 0h375v388h-375z" fill="#fff" transform="translate(0 188)"/><text fill="#37474f" font-family="NunitoSans-Bold, Nunito Sans" font-size="16" font-weight="700" transform="translate(20 224)"><tspan x="0" y="0">Today Activities</tspan></text><path d="m0 0h375v10h-375z" fill="#f5f5f5" transform="translate(0 576)"/><path d="m85.034 0a85.034 85.034 0 1 1 -85.034 85.034" fill="none" stroke="#eee" stroke-linecap="round" stroke-width="8" transform="matrix(-1 0 0 -1 272.071 431.068)"/><path d="m85.034 0a85.034 85.034 0 1 1 -85.034 85.034" fill="none" stroke="#58cc02" stroke-linecap="round" stroke-width="8" transform="translate(102.929 261)"/><text fill="#58cc02" font-family="NunitoSans-Bold, Nunito Sans" font-size="45" font-weight="700" transform="translate(186.438 358.768)"><tspan x="-39.758" y="0">75</tspan><tspan font-size="27" y="0">%</tspan></text><g opacity=".3" transform="translate(-48.773 297.524)"><path d="m48.509 0a48.509 48.509 0 1 1 -48.509 48.509" fill="none" stroke="#eee" stroke-linecap="round" stroke-width="8" transform="matrix(-1 0 0 -1 97.019 97.019)"/><path d="m48.509 0a48.509 48.509 0 1 1 -48.509 48.509" fill="none" stroke="#ff4b4b" stroke-linecap="round" stroke-width="8" transform="translate(.528)"/><text fill="#ff4b4b" font-family="NunitoSans-ExtraBold, Nunito Sans" font-size="24" font-weight="800" transform="translate(46.349 54.103)"><tspan x="-21.078" y="0">75</tspan><tspan font-size="14" y="0">%</tspan></text></g><text fill="#ce82ff" font-family="NunitoSans-SemiBold, Nunito Sans" font-size="16" font-weight="600" transform="translate(354 224)"><tspan x="-57.536" y="0">View all</tspan></text><text fill="#58cc02" font-family="NunitoSans-Bold, Nunito Sans" font-size="20" font-weight="700" transform="translate(188 503)"><tspan x="-94.03" y="0">1246 Steps required</tspan></text><text fill="#777" font-family="NunitoSans-Bold, Nunito Sans" font-size="16" font-weight="700" transform="translate(188 477)"><tspan x="-47.304" y="0">Step counter</tspan></text><circle cx="5" cy="5" fill="#e0e0e0" r="5" transform="translate(153 543)"/><circle cx="5" cy="5" fill="#777" r="5" transform="translate(173 543)"/><circle cx="5" cy="5" fill="#e0e0e0" r="5" transform="translate(193 543)"/><circle cx="5" cy="5" fill="#e0e0e0" r="5" transform="translate(213 543)"/><path d="m-179.316 250.944a52.144 52.144 0 0 1 -69.254-25.33 52.148 52.148 0 0 1 25.342-69.254 52.137 52.137 0 0 1 69.253 25.34 52.129 52.129 0 0 1 -25.341 69.244z" fill="url(#b)" transform="translate(581.64 140.964)"/><path d="m-154.431 214.179-99.369-30.508 3.044-7.488 99.369 30.508z" fill="#e1e3de" transform="translate(581.516 150.796)"/><path d="m-153.021 212.482-99.364-30.511 3.043-7.487 99.364 30.516z" fill="#e1e3de" transform="translate(581.987 150.126)"/><path d="m0 0 2.673.024.926 104-2.673-.024z" fill="#e5e8e3" transform="matrix(.30185412 -.95335413 .95335413 .30185412 332.151 326.556)"/><path d="m-200.745 258.309a54.364 54.364 0 0 1 -49.142-31.352 54.21 54.21 0 0 1 26.313-71.91 53.652 53.652 0 0 1 22.767-5.052 54.362 54.362 0 0 1 49.143 31.364 53.774 53.774 0 0 1 1.737 41.4 53.78 53.78 0 0 1 -28.05 30.5 53.683 53.683 0 0 1 -22.768 5.05zm-.063-104.2a49.579 49.579 0 0 0 -21.033 4.669 50.09 50.09 0 0 0 -24.312 66.442 50.236 50.236 0 0 0 45.408 28.968 49.57 49.57 0 0 0 21.033-4.668 49.694 49.694 0 0 0 25.919-28.183 49.676 49.676 0 0 0 -1.606-38.247 50.229 50.229 0 0 0 -45.409-28.978z" fill="url(#c)" transform="translate(581.144 140.464)"/></g></svg>
