<svg height="322" viewBox="0 0 375 322" width="375" xmlns="http://www.w3.org/2000/svg"><path d="m0 0h375v312h-375z" fill="#fff"/><text fill="#37474f" font-family="NunitoSans-Bold, Nunito Sans" font-size="16" font-weight="700" transform="translate(20 36)"><tspan x="0" y="0">Notifications</tspan></text><path d="m0 312h375v10h-375z" fill="#f5f5f5"/><text fill="#ce82ff" font-family="NunitoSans-SemiBold, Nunito Sans" font-size="16" font-weight="600" transform="translate(354 36)"><tspan x="-57.536" y="0">View all</tspan></text><circle cx="41" cy="87" fill="#58cc02" r="25"/><path d="m29 75h24v24h-24z" fill="none"/><path d="m222.028 327.754c0 .69-.323 1.1-.854 1.1s-.837-.412-.849-1.11c0-.18 0-.36 0-.595h-20.589c0 .307.02.593 0 .877a.867.867 0 0 1 -.85.825.837.837 0 0 1 -.832-.838c-.012-2.1-.042-4.21.017-6.311a2.5 2.5 0 0 1 2.588-2.3c3.591-.011 7.184-.005 10.775-.005q3.891 0 7.781 0a2.579 2.579 0 0 1 2.815 2.8c.004 1.857 0 3.703-.002 5.557z" fill="#fff" transform="translate(-169.031 -232.824)"/><path d="m240.4 254.014c0 .14-.023.281-.038.45h-2.542c0-.278.009-.561 0-.843a1.683 1.683 0 0 0 -1.668-1.666c-.853-.021-1.705-.015-2.558-.007a1.686 1.686 0 0 0 -1.765 1.789v.718c-.176.015-.3.034-.42.035-.415 0-.829 0-1.313 0 0-.276 0-.505 0-.734a1.689 1.689 0 0 0 -1.8-1.81c-.781-.008-1.56 0-2.341 0a1.713 1.713 0 0 0 -1.851 1.871v.673h-2.586v-.565c0-1.416 0-2.831 0-4.247 0-.911.287-1.191 1.214-1.191q8.275 0 16.549 0c.806 0 1.123.31 1.126 1.117.003 1.47 0 2.94-.007 4.41z" fill="#fff" transform="translate(-189.957 -169.634)"/><text fill="#37474f" font-family="NunitoSans-Bold, Nunito Sans" font-size="16" font-weight="700" transform="translate(86 83)"><tspan x="0" y="0">Sleep 4 Hours 15 mins</tspan></text><text fill="#777" font-family="NunitoSans-Regular, Nunito Sans" font-size="14" transform="translate(86 103)"><tspan x="0" y="0">22 April, 9:50 AM</tspan></text><path d="m86.5 132h269" fill="none" stroke="#e0e0e0" stroke-linecap="round"/><circle cx="41" cy="177" fill="#58cc02" r="25"/><path d="m29 166h24v24h-24z" fill="none"/><path d="m14 25.02-1.74-1.584c-6.18-5.604-10.26-9.3-10.26-13.836a6.536 6.536 0 0 1 6.6-6.6 7.186 7.186 0 0 1 5.4 2.508 7.186 7.186 0 0 1 5.4-2.508 6.536 6.536 0 0 1 6.6 6.6c0 4.536-4.08 8.232-10.26 13.848z" fill="#fff" transform="translate(27 164)"/><text fill="#37474f" font-family="NunitoSans-Bold, Nunito Sans" font-size="16" font-weight="700" transform="translate(86 173)"><tspan x="0" y="0">Heart rate 100 BPM</tspan></text><text fill="#777" font-family="NunitoSans-Regular, Nunito Sans" font-size="14" transform="translate(86 193)"><tspan x="0" y="0">22 April, 9:50 AM</tspan></text><path d="m86.5 222h269" fill="none" stroke="#e0e0e0" stroke-linecap="round"/><circle cx="41" cy="267" fill="#58cc02" r="25"/><path d="m29 255h24v24h-24z" fill="none"/><g fill="#fff" transform="translate(12.166 255)"><path d="m35.434 0h-12.872a4.725 4.725 0 0 0 -4.7 5.211l1.514 14.554a4.726 4.726 0 0 0 4.7 4.235h4.224v-5.65a.7.7 0 0 1 1.406 0v5.65h4.214a4.726 4.726 0 0 0 4.7-4.235l1.516-14.554a4.725 4.725 0 0 0 -4.702-5.211zm1.54 7.7-3.831 4.4a.7.7 0 0 1 -.53.241h-7.229a.7.7 0 0 1 -.53-.241l-3.832-4.4a.7.7 0 0 1 0-.922 10.3 10.3 0 0 1 15.953 0 .7.7 0 0 1 0 .922z"/><path d="m129.017 96.117-.61.722a.7.7 0 0 1 -1.08-.9l.474-.579a8.7 8.7 0 0 0 -3.316-.963v.865a.7.7 0 0 1 -1.406 0v-.862a8.7 8.7 0 0 0 -3.316.963l.474.579a.7.7 0 0 1 -1.08.9l-.612-.72a10.156 10.156 0 0 0 -1.265 1.1l3.208 3.684h1.872l1.1-2.389a.35.35 0 0 1 .635 0l1.1 2.389h1.872l3.208-3.684a10.143 10.143 0 0 0 -1.258-1.105z" transform="translate(-94.783 -89.972)"/></g><text fill="#37474f" font-family="NunitoSans-Bold, Nunito Sans" font-size="16" font-weight="700" transform="translate(86 263)"><tspan x="0" y="0">Weight 55 Kg</tspan></text><text fill="#777" font-family="NunitoSans-Regular, Nunito Sans" font-size="14" transform="translate(86 283)"><tspan x="0" y="0">22 April, 9:50 AM</tspan></text></svg>