<svg width="71" height="70" viewBox="0 0 71 70" fill="none" xmlns="http://www.w3.org/2000/svg">
<g filter="url(#filter0_d_399_6678)">
<rect x="16.5" y="12" width="38" height="38" rx="19" fill="white" shape-rendering="crispEdges"/>
<path d="M30.6 35.2008H33.568C33.6601 35.2013 33.7514 35.1837 33.8367 35.1489C33.922 35.114 33.9996 35.0627 34.065 34.9979L38.909 30.1483L40.897 28.2028C40.9626 28.1378 41.0147 28.0604 41.0502 27.9751C41.0858 27.8898 41.1041 27.7984 41.1041 27.706C41.1041 27.6136 41.0858 27.5221 41.0502 27.4369C41.0147 27.3516 40.9626 27.2742 40.897 27.2091L37.929 24.207C37.8639 24.1414 37.7865 24.0893 37.7012 24.0538C37.6159 24.0183 37.5244 24 37.432 24C37.3396 24 37.2481 24.0183 37.1628 24.0538C37.0775 24.0893 37.0001 24.1414 36.935 24.207L34.961 26.1874L30.103 31.037C30.0381 31.1024 29.9868 31.18 29.952 31.2652C29.9171 31.3505 29.8995 31.4418 29.9 31.5339V34.501C29.9 34.6866 29.9737 34.8646 30.105 34.9958C30.2363 35.1271 30.4143 35.2008 30.6 35.2008ZM37.432 25.6906L39.413 27.671L38.419 28.6647L36.438 26.6843L37.432 25.6906ZM31.3 31.8208L35.451 27.671L37.432 29.6514L33.281 33.8012H31.3V31.8208ZM41.8 36.6004H29.2C29.0143 36.6004 28.8363 36.6741 28.705 36.8054C28.5737 36.9366 28.5 37.1146 28.5 37.3002C28.5 37.4858 28.5737 37.6638 28.705 37.795C28.8363 37.9263 29.0143 38 29.2 38H41.8C41.9857 38 42.1637 37.9263 42.295 37.795C42.4263 37.6638 42.5 37.4858 42.5 37.3002C42.5 37.1146 42.4263 36.9366 42.295 36.8054C42.1637 36.6741 41.9857 36.6004 41.8 36.6004Z" fill="black"/>
</g>
<defs>
<filter id="filter0_d_399_6678" x="0.5" y="0" width="70" height="70" filterUnits="userSpaceOnUse" color-interpolation-filters="sRGB">
<feFlood flood-opacity="0" result="BackgroundImageFix"/>
<feColorMatrix in="SourceAlpha" type="matrix" values="0 0 0 0 0 0 0 0 0 0 0 0 0 0 0 0 0 0 127 0" result="hardAlpha"/>
<feOffset dy="4"/>
<feGaussianBlur stdDeviation="8"/>
<feComposite in2="hardAlpha" operator="out"/>
<feColorMatrix type="matrix" values="0 0 0 0 0 0 0 0 0 0 0 0 0 0 0 0 0 0 0.08 0"/>
<feBlend mode="normal" in2="BackgroundImageFix" result="effect1_dropShadow_399_6678"/>
<feBlend mode="normal" in="SourceGraphic" in2="effect1_dropShadow_399_6678" result="shape"/>
</filter>
</defs>
</svg>
