<svg xmlns="http://www.w3.org/2000/svg" width="81.51" height="87.722">
    <defs>
        <style>
            .cls-2{fill:#cfd8dc}.cls-3{fill:#b0bec5}
        </style>
    </defs>
    <g id="illustration_empty_norecords" transform="translate(-213 -121)">
        <g id="Group_2" data-name="Group 2" transform="translate(-128.782 -23.151)">
            <path id="Path" d="M365.045 195.293a12.692 12.692 0 0 0-.118 1.728 11.928 11.928 0 0 0 23.856 0 12.7 12.7 0 0 0-.118-1.728h28.945v25.46a3.025 3.025 0 0 1-2.982 3.062h-75.546a3.023 3.023 0 0 1-2.982-3.062v-25.46z" transform="translate(5.682 8.058)" style="fill:#eceff1"/>
            <path id="Path-2" class="cls-2" d="M389.777 199.224a12.922 12.922 0 0 1-25.845 0c0-.232.006-.461.017-.689H336.1l9.5-28.1a2.983 2.983 0 0 1 2.823-2.027h56.858a2.981 2.981 0 0 1 2.822 2.027l9.5 28.1h-27.845c.012.229.019.458.019.689z" transform="translate(5.682 3.822)"/>
            <path id="Path-3" class="cls-3" d="M386.909 199.083a11.1 11.1 0 0 1-22.191 0c0-.18.006-1.357.016-1.535h-20.906l8.157-19.836a2.554 2.554 0 0 1 2.426-1.574h42.806a2.552 2.552 0 0 1 2.425 1.574l8.157 19.836h-20.908c.009.18.018 1.352.018 1.535z" transform="translate(6.576 5.04)"/>
            <path id="Rectangle" class="cls-3" d="M348.426 170.894a.5.5 0 0 0-.471.338l-9.369 27.712v26.124a.5.5 0 0 0 .5.5h75.545a.5.5 0 0 0 .5-.5v-26.124l-9.373-27.712a.5.5 0 0 0-.468-.338h-56.864m0-2.485h56.858a2.981 2.981 0 0 1 2.822 2.027l9.5 28.1v26.532a2.983 2.983 0 0 1-2.982 2.983h-75.542a2.982 2.982 0 0 1-2.982-2.983v-26.532l9.5-28.1a2.983 2.983 0 0 1 2.826-2.027z" transform="translate(5.682 3.822)"/>
            <path id="Shape" class="cls-3" d="M373.3 209.5a13.493 13.493 0 0 1-9.5-3.848 12.953 12.953 0 0 1-3.946-9.323 1.766 1.766 0 0 0-.071-.64c-.015-.028-.176-.105-.551-.105a1.241 1.241 0 0 1-1.246-1.239 1.241 1.241 0 0 1 1.242-1.242h28.044a1.242 1.242 0 0 1 .031 2.484c-.329.008-.476.078-.492.109a1.8 1.8 0 0 0-.071.637 12.947 12.947 0 0 1-3.948 9.323 13.5 13.5 0 0 1-9.492 3.844zm-11-13.916a5.724 5.724 0 0 1 .039.745 10.486 10.486 0 0 0 3.2 7.547 11.161 11.161 0 0 0 15.52 0 10.486 10.486 0 0 0 3.2-7.547 5.721 5.721 0 0 1 .037-.745z" transform="translate(9.132 7.712)"/>
            <path id="lines" class="cls-3" d="M374.234 144.151a1.242 1.242 0 0 1 1.243 1.242v16.656a1.243 1.243 0 0 1-2.485 0v-16.656a1.242 1.242 0 0 1 1.242-1.242zm25.845 4.274a1.242 1.242 0 0 1 .927 2.07l-11.034 12.379a1.243 1.243 0 1 1-1.887-1.617l.032-.036 11.034-12.379a1.238 1.238 0 0 1 .927-.413zm-51.788 0a1.239 1.239 0 0 1 .928.416l11.034 12.378a1.243 1.243 0 1 1-1.822 1.69l-.034-.037-11.033-12.372a1.242 1.242 0 0 1 .927-2.07z" transform="translate(7.407)"/>
        </g>
        <g id="Group_2931" data-name="Group 2931" transform="translate(78.258 3.358)">
            <rect id="Rectangle_2071" data-name="Rectangle 2071" class="cls-2" width="31.184" height="31.184" rx="15.592" transform="translate(160.1 161.503)"/>
            <path id="Path_1532" data-name="Path 1532" d="M64.571 20.118v3.412a.58.58 0 0 1-.563.58h-3.991v3.975a.58.58 0 0 1-.58.563h-3.412a.563.563 0 0 1-.58-.563v-4.027H51.47a.58.58 0 0 1-.58-.58v-3.36a.58.58 0 0 1 .58-.563h3.975v-4.06a.58.58 0 0 1 .58-.495h3.412a.58.58 0 0 1 .58.563v3.992h3.992a.563.563 0 0 1 .563.563z" transform="translate(117.961 155.323)" style="fill:#90a4ae"/>
        </g>
    </g>
</svg>
