<svg xmlns="http://www.w3.org/2000/svg" viewBox="0 0 24 24"><defs><style>.cls-1{fill:#fff;}.cls-2{fill:none;}</style></defs><g id="Layer_2" data-name="Layer 2"><g id="Layer_4" data-name="Layer 4"><path class="cls-1" d="M21.84,12.24a9.66,9.66,0,0,1-2.68,7,9.35,9.35,0,0,1-7,2.74,9.64,9.64,0,0,1-7.08-2.92A9.68,9.68,0,0,1,2.16,12,9.68,9.68,0,0,1,5.08,4.92,9.64,9.64,0,0,1,12.16,2a9.38,9.38,0,0,1,6.69,2.62l-2.7,2.62a5.28,5.28,0,0,0-3.08-1.47,6.39,6.39,0,0,0-3.35.44A6.45,6.45,0,0,0,7.06,8.43,6,6,0,0,0,6,12a6.18,6.18,0,0,0,1.82,4.48,5.93,5.93,0,0,0,4.39,1.85,6.47,6.47,0,0,0,2.52-.46,4.75,4.75,0,0,0,1.74-1.17,7,7,0,0,0,1-1.39A5.22,5.22,0,0,0,17.85,14H12.16V10.55h9.52A10.14,10.14,0,0,1,21.84,12.24Z"/><rect class="cls-2" width="24" height="24"/><rect class="cls-2" x="2" y="2" width="20" height="20"/></g></g></svg>