<svg xmlns="http://www.w3.org/2000/svg" viewBox="0 0 24 24"><defs><style>.cls-1{fill:#fff;}.cls-2{fill:none;}</style></defs><g id="Layer_2" data-name="Layer 2"><g id="Layer_4" data-name="Layer 4"><path class="cls-1" d="M22,12.06a9.68,9.68,0,0,1-2.42,6.51,9.7,9.7,0,0,1-6,3.37V15h2.34l.44-2.9H13.57V10.17c0-1,.54-1.54,1.62-1.54h1.25V6.17A13.18,13.18,0,0,0,14.22,6a4.13,4.13,0,0,0-2,.45,3.12,3.12,0,0,0-1.31,1.33,4.33,4.33,0,0,0-.48,2.09v2.22H7.89V15h2.54v7a9.7,9.7,0,0,1-6-3.37A9.68,9.68,0,0,1,2,12.06,9.64,9.64,0,0,1,4.92,5,9.64,9.64,0,0,1,12,2.06,9.64,9.64,0,0,1,19.08,5,9.64,9.64,0,0,1,22,12.06Z"/><rect class="cls-2" width="24" height="24"/><rect class="cls-2" x="2" y="2" width="20" height="20"/></g></g></svg>