<svg width="20" height="20" viewBox="0 0 20 20" fill="none" xmlns="http://www.w3.org/2000/svg">
<path d="M13.3333 20H6.66665C6.16665 20 5.83331 19.6669 5.83331 19.1673C5.83331 18.6677 6.16665 18.3346 6.66665 18.3346H13.3333C13.8333 18.3346 14.1666 18.6677 14.1666 19.1673C14.1666 19.6669 13.8333 20 13.3333 20Z" fill="black"/>
<path d="M19.1667 20C18.9167 20 18.75 19.9167 18.5833 19.7502L0.25 1.43134C-0.0833333 1.09827 -0.0833333 0.598666 0.25 0.265596C0.583333 -0.0674747 1.08333 -0.0674747 1.41667 0.265596L19.75 18.5845C20.0833 18.9175 20.0833 19.4171 19.75 19.7502C19.5833 19.9167 19.4167 20 19.1667 20Z" fill="black"/>
<path d="M10 13.3386C9.58335 13.3386 9.16669 13.2553 8.75002 13.0888C8.16669 12.839 7.58335 12.4226 7.25002 11.8398C6.83335 11.3402 6.66669 10.674 6.66669 10.0079V7.50986C6.66669 7.17679 6.83335 6.84372 7.16669 6.76045C7.50002 6.59392 7.83335 6.67719 8.08335 6.92699L12.3334 11.1736C12.5 11.3402 12.5834 11.5067 12.5834 11.7565C12.5834 12.0063 12.5 12.1728 12.3334 12.3394C11.8334 12.839 11.25 13.0888 10.6667 13.2553C10.4167 13.3386 10.25 13.3386 10 13.3386ZM8.33335 9.50828V10.0079C8.33335 10.341 8.41669 10.674 8.58335 10.9238C8.75002 11.1736 9.00002 11.4234 9.33335 11.5067C9.66669 11.6732 10 11.6732 10.3334 11.6732H10.4167L8.33335 9.50828ZM12.5 8.59234C12 8.59234 11.6667 8.25927 11.6667 7.75967V3.34648C11.6667 2.93014 11.5 2.51381 11.25 2.264C11 1.93093 10.5834 1.7644 10.1667 1.7644C9.75002 1.68113 9.33335 1.84767 9.00002 2.09747C8.66669 2.34727 8.41669 2.68034 8.33335 3.09668C8.25002 3.42975 7.83335 3.76282 7.41669 3.67955C6.91669 3.59629 6.66669 3.09668 6.75002 2.68034C6.91669 1.84767 7.33335 1.18153 8.00002 0.68192C8.66669 0.182314 9.50002 -0.0674883 10.3334 0.0157792C11.1667 0.0990468 11.9167 0.515385 12.5 1.09826C13 1.7644 13.3334 2.51381 13.3334 3.34648V7.75967C13.3334 8.25927 13 8.59234 12.5 8.59234Z" fill="black"/>
<path d="M9.99998 16.7526C9.16665 16.7526 8.24998 16.586 7.49998 16.253C6.24998 15.7534 5.24998 14.9207 4.49998 13.7549C3.74998 12.5892 3.33331 11.3402 3.33331 10.0079V8.34254C3.33331 7.84293 3.66665 7.50986 4.16665 7.50986C4.66665 7.50986 4.99998 7.84293 4.99998 8.34254V10.0079C4.99998 11.0071 5.24998 12.0063 5.83331 12.839C6.41665 13.6717 7.16665 14.3378 8.08331 14.6709C8.99998 15.0872 9.99998 15.1705 11 14.9207C12 14.7541 12.8333 14.2545 13.5833 13.5051C13.9166 13.1721 14.4166 13.1721 14.75 13.5051C15.0833 13.8382 15.0833 14.3378 14.75 14.6709C13.8333 15.5868 12.6666 16.253 11.3333 16.5028C10.9166 16.6693 10.4166 16.7526 9.99998 16.7526ZM15.75 11.8398C15.6666 11.8398 15.6666 11.8398 15.5833 11.8398C15.1666 11.7565 14.8333 11.3402 14.9166 10.8406C15 10.5908 15 10.341 15 10.0079V8.34254C15 7.84293 15.3333 7.50986 15.8333 7.50986C16.3333 7.50986 16.6666 7.84293 16.6666 8.34254V10.0079C16.6666 10.4242 16.6666 10.8406 16.5833 11.1736C16.5 11.59 16.1666 11.8398 15.75 11.8398Z" fill="black"/>
<path d="M10 20C9.50002 20 9.16669 19.6669 9.16669 19.1673V15.8366C9.16669 15.337 9.50002 15.0039 10 15.0039C10.5 15.0039 10.8334 15.337 10.8334 15.8366V19.1673C10.8334 19.6669 10.5 20 10 20Z" fill="black"/>
</svg>
