<svg width="21" height="21" viewBox="0 0 21 21" fill="none" xmlns="http://www.w3.org/2000/svg">
<rect width="21" height="21" fill="#E5E5E5"/>
<rect width="375" height="667" transform="translate(-177 -630)" fill="#F5F6FA"/>
<rect x="-177.5" y="-15" width="375" height="52" fill="white"/>
<rect x="-23.9963" y="-15" width="68" height="52" fill="white"/>
<path d="M12.0218 9.95895H11.0218V8.95895C11.0218 8.69374 10.9164 8.43938 10.7289 8.25185C10.5413 8.06431 10.287 7.95895 10.0218 7.95895C9.75654 7.95895 9.50219 8.06431 9.31465 8.25185C9.12712 8.43938 9.02176 8.69374 9.02176 8.95895V9.95895H8.02176C7.75654 9.95895 7.50219 10.0643 7.31465 10.2518C7.12712 10.4394 7.02176 10.6937 7.02176 10.959C7.02176 11.2242 7.12712 11.4785 7.31465 11.6661C7.50219 11.8536 7.75654 11.959 8.02176 11.959H9.02176V12.959C9.02176 13.2242 9.12712 13.4785 9.31465 13.6661C9.50219 13.8536 9.75654 13.959 10.0218 13.959C10.287 13.959 10.5413 13.8536 10.7289 13.6661C10.9164 13.4785 11.0218 13.2242 11.0218 12.959V11.959H12.0218C12.287 11.959 12.5413 11.8536 12.7289 11.6661C12.9164 11.4785 13.0218 11.2242 13.0218 10.959C13.0218 10.6937 12.9164 10.4394 12.7289 10.2518C12.5413 10.0643 12.287 9.95895 12.0218 9.95895ZM18.1818 3.95895C17.1155 2.90366 15.7071 2.26423 14.2108 2.15604C12.7145 2.04785 11.2288 2.47803 10.0218 3.36895C8.74942 2.42259 7.16575 1.99347 5.58968 2.16799C4.01361 2.34252 2.5622 3.10773 1.52773 4.30954C0.493267 5.51135 -0.0474178 7.06047 0.014561 8.64497C0.0765398 10.2295 0.736578 11.7316 1.86176 12.849L7.86176 18.899C8.42426 19.4608 9.18676 19.7763 9.98176 19.7763C10.7768 19.7763 11.5393 19.4608 12.1018 18.899L18.1018 12.849C18.6927 12.2716 19.1637 11.5832 19.4877 10.8232C19.8117 10.0632 19.9823 9.24671 19.9898 8.42058C19.9972 7.59446 19.8413 6.77501 19.531 6.00933C19.2207 5.24366 18.7622 4.54685 18.1818 3.95895ZM16.7718 11.419L10.7718 17.419C10.6788 17.5127 10.5682 17.5871 10.4463 17.6378C10.3245 17.6886 10.1938 17.7148 10.0618 17.7148C9.92975 17.7148 9.79904 17.6886 9.67718 17.6378C9.55532 17.5871 9.44472 17.5127 9.35176 17.419L3.35176 11.419C2.56752 10.6173 2.12837 9.54042 2.12837 8.41895C2.12837 7.29749 2.56752 6.22061 3.35176 5.41895C4.15092 4.62994 5.22873 4.18752 6.35176 4.18752C7.47479 4.18752 8.5526 4.62994 9.35176 5.41895C9.44472 5.51268 9.55532 5.58708 9.67718 5.63785C9.79904 5.68861 9.92975 5.71475 10.0618 5.71475C10.1938 5.71475 10.3245 5.68861 10.4463 5.63785C10.5682 5.58708 10.6788 5.51268 10.7718 5.41895C11.5709 4.62994 12.6487 4.18752 13.7718 4.18752C14.8948 4.18752 15.9726 4.62994 16.7718 5.41895C17.562 6.2215 18.005 7.30264 18.005 8.42895C18.005 9.55527 17.562 10.6364 16.7718 11.439V11.419Z" fill="#2962FF"/>
</svg>
