<svg width="24" height="24" viewBox="0 0 24 24" fill="none" xmlns="http://www.w3.org/2000/svg">
<path d="M2.16908 12.4176L2.16909 12.4176L2.17064 12.416L12.4874 2.09927C12.4874 2.09927 12.4874 2.09926 12.4874 2.09926C13.7358 0.851155 15.4288 0.15 17.1941 0.15C18.9593 0.15 20.6523 0.851151 21.9007 2.09925C23.1488 3.34763 23.85 5.04063 23.85 6.80592C23.85 8.5712 23.1488 10.2642 21.9007 11.5126C21.9007 11.5126 21.9007 11.5126 21.9007 11.5126L11.584 21.8294L11.5839 21.8293L11.5824 21.8309C10.9677 22.4639 10.2332 22.9684 9.42172 23.315C8.61025 23.6616 7.73796 23.8434 6.8556 23.8498C5.97323 23.8563 5.09839 23.6872 4.28193 23.3525C3.46548 23.0178 2.72372 22.5242 2.09977 21.9002C1.47583 21.2763 0.982157 20.5345 0.647462 19.7181C0.312767 18.9016 0.143729 18.0268 0.150178 17.1444C0.156626 16.262 0.338433 15.3898 0.685025 14.5783C1.03162 13.7668 1.53608 13.0323 2.16908 12.4176ZM9.90519 20.1699L9.90523 20.1699L9.90822 20.1669L14.136 15.9392L14.242 15.8331L14.136 15.727L8.27296 9.86402L8.16689 9.75795L8.06083 9.86402L3.83308 14.0918L3.83268 14.0922C3.03108 14.8998 2.58125 15.9915 2.58125 17.1293C2.58125 18.2672 3.03108 19.3589 3.83268 20.1665L3.83263 20.1666L3.8361 20.1699C4.65629 20.9451 5.74207 21.377 6.87065 21.377C7.99923 21.377 9.08501 20.9451 9.90519 20.1699ZM20.2383 9.83685L20.2384 9.8369L20.2417 9.83333C21.0044 9.01916 21.4207 7.94031 21.4025 6.82483C21.3843 5.70935 20.9331 4.64465 20.1442 3.85578C19.3553 3.06691 18.2906 2.61569 17.1752 2.5975C16.0597 2.57931 14.9808 2.99557 14.1667 3.7583L14.1666 3.75824L14.1632 3.7617L9.9354 7.98945L9.82933 8.09552L9.9354 8.20158L15.7984 14.0646L15.9045 14.1707L16.0105 14.0646L20.2383 9.83685Z" fill="#78909C" stroke="white" stroke-width="0.3"/>
</svg>
