<svg width="21" height="21" viewBox="0 0 21 21" fill="none" xmlns="http://www.w3.org/2000/svg">
<rect width="21" height="21" fill="#E5E5E5"/>
<rect width="375" height="667" transform="translate(-315 -630)" fill="#F5F6FA"/>
<rect x="-315" y="-15" width="375" height="52" fill="white"/>
<rect x="-23.9963" y="-15" width="68" height="52" fill="white"/>
<path d="M10.2336 0.953125C8.29043 0.956814 6.39022 1.52503 4.76448 2.58855C3.13874 3.65208 1.85763 5.16502 1.07719 6.94308C0.296755 8.72115 0.0506771 10.6876 0.368932 12.6029C0.687186 14.5182 1.55604 16.2998 2.86966 17.7305C3.80786 18.7466 4.94654 19.5575 6.21394 20.1121C7.48135 20.6668 8.85 20.9531 10.2336 20.9531C11.6173 20.9531 12.9859 20.6668 14.2533 20.1121C15.5207 19.5575 16.6594 18.7466 17.5976 17.7305C18.9112 16.2998 19.7801 14.5182 20.0984 12.6029C20.4166 10.6876 20.1705 8.72115 19.3901 6.94308C18.6097 5.16502 17.3285 3.65208 15.7028 2.58855C14.0771 1.52503 12.1769 0.956814 10.2336 0.953125ZM10.2336 18.9717C8.15816 18.9686 6.16483 18.1612 4.67308 16.7194C5.12598 15.6178 5.89644 14.6756 6.88654 14.0125C7.87664 13.3494 9.04169 12.9954 10.2336 12.9954C11.4256 12.9954 12.5906 13.3494 13.5807 14.0125C14.5708 14.6756 15.3413 15.6178 15.7942 16.7194C14.3025 18.1612 12.3091 18.9686 10.2336 18.9717ZM8.22984 8.9614C8.22984 8.56543 8.34736 8.17835 8.56754 7.84911C8.78772 7.51987 9.10067 7.26326 9.46682 7.11173C9.83297 6.9602 10.2359 6.92055 10.6246 6.9978C11.0133 7.07505 11.3703 7.26573 11.6505 7.54573C11.9308 7.82572 12.1216 8.18245 12.1989 8.57082C12.2763 8.95918 12.2366 9.36173 12.0849 9.72756C11.9333 10.0934 11.6764 10.4061 11.3469 10.6261C11.0174 10.8461 10.63 10.9635 10.2336 10.9635C9.7022 10.9635 9.19252 10.7525 8.81674 10.3771C8.44095 10.0016 8.22984 9.49238 8.22984 8.9614ZM17.1568 14.9676C16.2616 13.4378 14.8839 12.2478 13.2394 11.5841C13.7495 11.0062 14.0819 10.2934 14.1966 9.53143C14.3114 8.76942 14.2037 7.99051 13.8863 7.28817C13.569 6.58583 13.0556 5.98989 12.4077 5.57186C11.7598 5.15384 11.0049 4.93149 10.2336 4.93149C9.46239 4.93149 8.70751 5.15384 8.05961 5.57186C7.4117 5.98989 6.89828 6.58583 6.58095 7.28817C6.26363 7.99051 6.15588 8.76942 6.27064 9.53143C6.3854 10.2934 6.7178 11.0062 7.22793 11.5841C5.58341 12.2478 4.20566 13.4378 3.31049 14.9676C2.59708 13.7535 2.22014 12.3714 2.21842 10.9635C2.21842 8.83954 3.06288 6.80261 4.56602 5.30076C6.06917 3.79892 8.10787 2.95519 10.2336 2.95519C12.3594 2.95519 14.3981 3.79892 15.9013 5.30076C17.4044 6.80261 18.2489 8.83954 18.2489 10.9635C18.2471 12.3714 17.8702 13.7535 17.1568 14.9676Z" fill="#2962FF"/>
</svg>
