<svg width="72" height="72" viewBox="0 0 72 72" fill="none" xmlns="http://www.w3.org/2000/svg">
<rect width="72" height="72" rx="36" fill="#E3F2FD"/>
<g clip-path="url(#clip0_1486_3730)">
<path d="M21.9739 20.1038H50.0258C52.6085 20.1038 54.7012 22.1964 54.7012 24.7791V47.2206C54.7012 49.8033 52.6085 51.896 50.0258 51.896H21.9739C19.3913 51.896 17.2986 49.8033 17.2986 47.2206V24.7791C17.2986 22.1964 19.3913 20.1038 21.9739 20.1038ZM19.1687 47.2206C19.1687 48.7691 20.4254 50.0258 21.9739 50.0258H50.0258C51.5743 50.0258 52.831 48.7691 52.831 47.2206V24.7791C52.831 23.2306 51.5743 21.9739 50.0258 21.9739H21.9739C20.4254 21.9739 19.1687 23.2306 19.1687 24.7791V47.2206ZM49.0908 43.4804H38.8051V41.6103H49.0908V43.4804ZM49.0908 36.9349H38.8051V35.0648H49.0908V36.9349ZM49.0908 30.3895H38.8051V28.5193H49.0908V30.3895ZM26.4585 36.7573C25.4411 35.8989 24.7791 34.6309 24.7791 33.1947C24.7791 30.612 26.8718 28.5193 29.4544 28.5193C32.0371 28.5193 34.1297 30.612 34.1297 33.1947C34.1297 34.6309 33.4677 35.8989 32.4504 36.7573C34.5505 37.8476 35.9999 40.0169 35.9999 42.5453C35.9999 43.0615 35.581 43.4804 35.0648 43.4804C34.5487 43.4804 34.1297 43.0615 34.1297 42.5453C34.1297 39.9627 32.0371 37.87 29.4544 37.87C26.8718 37.87 24.7791 39.9627 24.7791 42.5453C24.7791 43.0615 24.3602 43.4804 23.844 43.4804C23.3279 43.4804 22.909 43.0615 22.909 42.5453C22.909 40.0169 24.3583 37.8476 26.4585 36.7573ZM29.4544 35.9999C31.0029 35.9999 32.2596 34.7431 32.2596 33.1947C32.2596 31.6462 31.0029 30.3895 29.4544 30.3895C27.906 30.3895 26.6492 31.6462 26.6492 33.1947C26.6492 34.7431 27.906 35.9999 29.4544 35.9999Z" fill="#2962FF"/>
</g>
<defs>
<clipPath id="clip0_1486_3730">
<rect width="41.1429" height="41.1429" fill="white" transform="matrix(-1 0 0 1 56.5713 15.4285)"/>
</clipPath>
</defs>
</svg>
