<svg width="21" height="20" viewBox="0 0 21 20" fill="none" xmlns="http://www.w3.org/2000/svg">
<rect width="21" height="20" fill="#E5E5E5"/>
<rect width="375" height="1277" transform="translate(-40 -631)" fill="#F5F6FA"/>
<g filter="url(#filter0_d_0_1)">
<rect x="-16" y="-31" width="155.5" height="208" rx="8" fill="white"/>
</g>
<path d="M1.411 1V-10.118H8.126V-8.452H3.383V-5.307H7.429V-3.641H3.383V1H1.411ZM11.811 1.204C11.1197 1.204 10.6267 0.994333 10.332 0.575C10.0487 0.155667 9.90702 -0.416667 9.90702 -1.142V-11.002H11.862V-1.04C11.862 -0.802 11.9073 -0.632 11.998 -0.53C12.0887 -0.439333 12.185 -0.394 12.287 -0.394C12.3323 -0.394 12.372 -0.394 12.406 -0.394C12.4513 -0.405333 12.5137 -0.416667 12.593 -0.428L12.848 1.034C12.7347 1.07933 12.5873 1.119 12.406 1.153C12.236 1.187 12.0377 1.204 11.811 1.204ZM14.5223 1V-7.347H16.4773V1H14.5223ZM15.5083 -8.809C15.1569 -8.809 14.8736 -8.911 14.6583 -9.115C14.4429 -9.319 14.3353 -9.591 14.3353 -9.931C14.3353 -10.2597 14.4429 -10.526 14.6583 -10.73C14.8736 -10.934 15.1569 -11.036 15.5083 -11.036C15.8596 -11.036 16.1429 -10.934 16.3583 -10.73C16.5736 -10.526 16.6813 -10.2597 16.6813 -9.931C16.6813 -9.591 16.5736 -9.319 16.3583 -9.115C16.1429 -8.911 15.8596 -8.809 15.5083 -8.809ZM21.8785 4.689C21.2211 4.689 20.6261 4.60967 20.0935 4.451C19.5721 4.29233 19.1585 4.04867 18.8525 3.72C18.5578 3.40267 18.4105 3.00033 18.4105 2.513C18.4105 1.82167 18.8071 1.22667 19.6005 0.728V0.66C19.3851 0.524 19.2038 0.342667 19.0565 0.116C18.9205 -0.110667 18.8525 -0.394 18.8525 -0.734C18.8525 -1.06267 18.9431 -1.35733 19.1245 -1.618C19.3171 -1.89 19.5325 -2.111 19.7705 -2.281V-2.349C19.4871 -2.56433 19.2321 -2.86467 19.0055 -3.25C18.7901 -3.63533 18.6825 -4.07167 18.6825 -4.559C18.6825 -5.205 18.8355 -5.749 19.1415 -6.191C19.4475 -6.633 19.8498 -6.96733 20.3485 -7.194C20.8585 -7.432 21.4025 -7.551 21.9805 -7.551C22.2071 -7.551 22.4225 -7.52833 22.6265 -7.483C22.8418 -7.449 23.0345 -7.40367 23.2045 -7.347H26.1965V-5.902H24.6665C24.8025 -5.74333 24.9158 -5.53933 25.0065 -5.29C25.0971 -5.052 25.1425 -4.78567 25.1425 -4.491C25.1425 -3.879 25.0008 -3.35767 24.7175 -2.927C24.4341 -2.50767 24.0545 -2.19033 23.5785 -1.975C23.1025 -1.75967 22.5698 -1.652 21.9805 -1.652C21.7991 -1.652 21.6121 -1.669 21.4195 -1.703C21.2268 -1.737 21.0341 -1.79367 20.8415 -1.873C20.7168 -1.75967 20.6148 -1.64633 20.5355 -1.533C20.4675 -1.41967 20.4335 -1.26667 20.4335 -1.074C20.4335 -0.836 20.5298 -0.649 20.7225 -0.513C20.9265 -0.377 21.2835 -0.309 21.7935 -0.309H23.2725C24.2811 -0.309 25.0405 -0.144667 25.5505 0.184C26.0718 0.501333 26.3325 1.02267 26.3325 1.748C26.3325 2.292 26.1511 2.785 25.7885 3.227C25.4258 3.68033 24.9101 4.03733 24.2415 4.298C23.5728 4.55867 22.7851 4.689 21.8785 4.689ZM21.9805 -2.876C22.3771 -2.876 22.7171 -3.02333 23.0005 -3.318C23.2838 -3.61267 23.4255 -4.02633 23.4255 -4.559C23.4255 -5.08033 23.2838 -5.48267 23.0005 -5.766C22.7285 -6.06067 22.3885 -6.208 21.9805 -6.208C21.5725 -6.208 21.2268 -6.06633 20.9435 -5.783C20.6601 -5.49967 20.5185 -5.09167 20.5185 -4.559C20.5185 -4.02633 20.6601 -3.61267 20.9435 -3.318C21.2268 -3.02333 21.5725 -2.876 21.9805 -2.876ZM22.1845 3.414C22.8531 3.414 23.3971 3.278 23.8165 3.006C24.2358 2.734 24.4455 2.42233 24.4455 2.071C24.4455 1.74233 24.3151 1.52133 24.0545 1.408C23.8051 1.29467 23.4425 1.238 22.9665 1.238H21.8275C21.3741 1.238 20.9945 1.19833 20.6885 1.119C20.2578 1.44767 20.0425 1.816 20.0425 2.224C20.0425 2.598 20.2351 2.887 20.6205 3.091C21.0058 3.30633 21.5271 3.414 22.1845 3.414ZM27.8035 1V-11.002H29.7585V-7.908L29.6905 -6.293C30.0418 -6.62167 30.4328 -6.91067 30.8635 -7.16C31.2942 -7.42067 31.7928 -7.551 32.3595 -7.551C33.2548 -7.551 33.9065 -7.262 34.3145 -6.684C34.7225 -6.106 34.9265 -5.29 34.9265 -4.236V1H32.9715V-3.981C32.9715 -4.67233 32.8695 -5.15967 32.6655 -5.443C32.4615 -5.72633 32.1272 -5.868 31.6625 -5.868C31.2998 -5.868 30.9768 -5.77733 30.6935 -5.596C30.4215 -5.426 30.1098 -5.171 29.7585 -4.831V1H27.8035ZM40.224 1.204C39.2607 1.204 38.575 0.926333 38.167 0.371C37.7703 -0.195667 37.572 -0.926667 37.572 -1.822V-5.8H36.382V-7.262L37.674 -7.347L37.912 -9.625H39.544V-7.347H41.669V-5.8H39.544V-1.822C39.544 -0.847333 39.935 -0.36 40.717 -0.36C40.8643 -0.36 41.0173 -0.377 41.176 -0.411C41.3347 -0.456333 41.4707 -0.501667 41.584 -0.547L41.924 0.898C41.6973 0.977333 41.4367 1.04533 41.142 1.102C40.8587 1.17 40.5527 1.204 40.224 1.204ZM51.4359 1.204C50.5066 1.204 49.6622 0.983 48.9029 0.541C48.1436 0.099 47.5372 -0.547 47.0839 -1.397C46.6419 -2.25833 46.4209 -3.301 46.4209 -4.525C46.4209 -5.73767 46.6476 -6.77467 47.1009 -7.636C47.5656 -8.50867 48.1832 -9.17167 48.9539 -9.625C49.7246 -10.0897 50.5746 -10.322 51.5039 -10.322C52.2066 -10.322 52.8299 -10.1803 53.3739 -9.897C53.9179 -9.61367 54.3656 -9.285 54.7169 -8.911L53.6629 -7.636C53.3796 -7.93067 53.0622 -8.163 52.7109 -8.333C52.3709 -8.51433 51.9856 -8.605 51.5549 -8.605C50.9542 -8.605 50.4159 -8.44067 49.9399 -8.112C49.4752 -7.79467 49.1069 -7.33567 48.8349 -6.735C48.5742 -6.13433 48.4439 -5.41467 48.4439 -4.576C48.4439 -3.30667 48.7216 -2.30933 49.2769 -1.584C49.8322 -0.87 50.5746 -0.513 51.5039 -0.513C52.0026 -0.513 52.4446 -0.615 52.8299 -0.819C53.2152 -1.03433 53.5666 -1.312 53.8839 -1.652L54.9379 -0.411C54.4846 0.110333 53.9632 0.512667 53.3739 0.796C52.7959 1.068 52.1499 1.204 51.4359 1.204ZM58.5278 1.204C57.8365 1.204 57.3435 0.994333 57.0488 0.575C56.7655 0.155667 56.6238 -0.416667 56.6238 -1.142V-11.002H58.5788V-1.04C58.5788 -0.802 58.6241 -0.632 58.7148 -0.53C58.8055 -0.439333 58.9018 -0.394 59.0038 -0.394C59.0491 -0.394 59.0888 -0.394 59.1228 -0.394C59.1681 -0.405333 59.2305 -0.416667 59.3098 -0.428L59.5648 1.034C59.4515 1.07933 59.3041 1.119 59.1228 1.153C58.9528 1.187 58.7545 1.204 58.5278 1.204ZM61.239 1V-7.347H63.194V1H61.239ZM62.225 -8.809C61.8737 -8.809 61.5904 -8.911 61.375 -9.115C61.1597 -9.319 61.052 -9.591 61.052 -9.931C61.052 -10.2597 61.1597 -10.526 61.375 -10.73C61.5904 -10.934 61.8737 -11.036 62.225 -11.036C62.5764 -11.036 62.8597 -10.934 63.075 -10.73C63.2904 -10.526 63.398 -10.2597 63.398 -9.931C63.398 -9.591 63.2904 -9.319 63.075 -9.115C62.8597 -8.911 62.5764 -8.809 62.225 -8.809ZM65.6883 1V-7.347H67.3033L67.4393 -6.208H67.5073C67.8586 -6.582 68.2383 -6.89933 68.6463 -7.16C69.0656 -7.42067 69.5359 -7.551 70.0573 -7.551C70.6693 -7.551 71.1566 -7.415 71.5193 -7.143C71.8933 -6.88233 72.1766 -6.51967 72.3693 -6.055C72.7659 -6.48567 73.1796 -6.84267 73.6103 -7.126C74.0523 -7.40933 74.5339 -7.551 75.0553 -7.551C75.9393 -7.551 76.5909 -7.262 77.0103 -6.684C77.4296 -6.106 77.6393 -5.29 77.6393 -4.236V1H75.6673V-3.981C75.6673 -4.67233 75.5596 -5.15967 75.3443 -5.443C75.1403 -5.72633 74.8229 -5.868 74.3923 -5.868C73.8709 -5.868 73.2873 -5.52233 72.6413 -4.831V1H70.6863V-3.981C70.6863 -4.67233 70.5786 -5.15967 70.3633 -5.443C70.1593 -5.72633 69.8363 -5.868 69.3943 -5.868C68.8729 -5.868 68.2893 -5.52233 67.6433 -4.831V1H65.6883ZM84.0614 1.204C83.2681 1.204 82.5087 0.841333 81.7834 0.116H81.7324L81.5624 1H80.0154V-11.002H81.9704V-7.908L81.9194 -6.514C82.2707 -6.82 82.6561 -7.06933 83.0754 -7.262C83.4947 -7.45467 83.9141 -7.551 84.3334 -7.551C85.3761 -7.551 86.1864 -7.16567 86.7644 -6.395C87.3424 -5.62433 87.6314 -4.59867 87.6314 -3.318C87.6314 -2.366 87.4614 -1.55 87.1214 -0.87C86.7814 -0.201333 86.3394 0.314333 85.7954 0.677C85.2627 1.02833 84.6847 1.204 84.0614 1.204ZM83.6534 -0.411C84.2087 -0.411 84.6734 -0.654667 85.0474 -1.142C85.4214 -1.62933 85.6084 -2.34333 85.6084 -3.284C85.6084 -4.12267 85.4667 -4.77433 85.1834 -5.239C84.9001 -5.70367 84.4411 -5.936 83.8064 -5.936C83.2171 -5.936 82.6051 -5.62433 81.9704 -5.001V-1.108C82.2651 -0.858667 82.5541 -0.677333 82.8374 -0.564C83.1321 -0.462 83.4041 -0.411 83.6534 -0.411ZM93.1645 1.204C92.3938 1.204 91.6968 1.034 91.0735 0.694C90.4502 0.342667 89.9572 -0.156 89.5945 -0.802C89.2318 -1.45933 89.0505 -2.247 89.0505 -3.165C89.0505 -4.07167 89.2318 -4.85367 89.5945 -5.511C89.9685 -6.16833 90.4502 -6.67267 91.0395 -7.024C91.6288 -7.37533 92.2465 -7.551 92.8925 -7.551C93.6518 -7.551 94.2865 -7.381 94.7965 -7.041C95.3065 -6.71233 95.6918 -6.24767 95.9525 -5.647C96.2132 -5.05767 96.3435 -4.372 96.3435 -3.59C96.3435 -3.182 96.3152 -2.86467 96.2585 -2.638H90.9545C91.0452 -1.90133 91.3115 -1.329 91.7535 -0.921C92.1955 -0.513 92.7508 -0.309 93.4195 -0.309C93.7822 -0.309 94.1165 -0.36 94.4225 -0.462C94.7398 -0.575333 95.0515 -0.728333 95.3575 -0.921L96.0205 0.303C95.6238 0.563667 95.1818 0.779 94.6945 0.949C94.2072 1.119 93.6972 1.204 93.1645 1.204ZM90.9375 -3.964H94.6435C94.6435 -4.61 94.5018 -5.11433 94.2185 -5.477C93.9352 -5.851 93.5102 -6.038 92.9435 -6.038C92.4562 -6.038 92.0198 -5.85667 91.6345 -5.494C91.2605 -5.14267 91.0282 -4.63267 90.9375 -3.964ZM101.135 1.204C100.092 1.204 99.2591 0.818667 98.6357 0.048C98.0124 -0.722667 97.7007 -1.79367 97.7007 -3.165C97.7007 -4.07167 97.8651 -4.85367 98.1937 -5.511C98.5337 -6.16833 98.9757 -6.67267 99.5197 -7.024C100.064 -7.37533 100.636 -7.551 101.237 -7.551C101.713 -7.551 102.115 -7.466 102.444 -7.296C102.784 -7.13733 103.112 -6.91633 103.43 -6.633L103.362 -7.976V-11.002H105.317V1H103.702L103.566 0.0989999H103.498C103.192 0.405 102.835 0.665667 102.427 0.881C102.019 1.09633 101.588 1.204 101.135 1.204ZM101.611 -0.411C102.234 -0.411 102.818 -0.722667 103.362 -1.346V-5.239C103.078 -5.49967 102.795 -5.681 102.512 -5.783C102.228 -5.885 101.945 -5.936 101.662 -5.936C101.129 -5.936 100.67 -5.69233 100.285 -5.205C99.9107 -4.729 99.7237 -4.05467 99.7237 -3.182C99.7237 -2.28667 99.8881 -1.601 100.217 -1.125C100.545 -0.649 101.01 -0.411 101.611 -0.411Z" fill="#90A4AE"/>
<rect y="13" width="11.4983" height="90.9999" rx="2" fill="white"/>
<rect x="18.6661" y="13" width="11.4983" height="90.9999" rx="2" fill="white"/>
<rect x="-40" y="-16" width="375" height="52" fill="white"/>
<rect x="-23.9963" y="-16" width="68" height="52" fill="white"/>
<path fill-rule="evenodd" clip-rule="evenodd" d="M10.6527 0.191498C10.3244 -0.0638327 9.86473 -0.0638327 9.53644 0.191498L1.35463 6.55513C1.13318 6.72737 1.00366 6.99219 1.00366 7.27273V17.2727C1.00366 17.996 1.291 18.6897 1.80246 19.2012C2.31392 19.7127 3.00762 20 3.73093 20H7.3673H12.8218H16.4582C17.1815 20 17.8752 19.7127 18.3867 19.2012C18.8981 18.6897 19.1855 17.996 19.1855 17.2727V7.27273C19.1855 6.99219 19.056 6.72737 18.8345 6.55513L10.6527 0.191498ZM13.7309 18.1818H16.4582C16.6993 18.1818 16.9305 18.086 17.101 17.9156C17.2715 17.7451 17.3673 17.5138 17.3673 17.2727V7.71735L10.0946 2.06078L2.82184 7.71735V17.2727C2.82184 17.5138 2.91762 17.7451 3.08811 17.9156C3.2586 18.086 3.48983 18.1818 3.73093 18.1818H6.45821V10C6.45821 9.49792 6.86522 9.09091 7.3673 9.09091H12.8218C13.3239 9.09091 13.7309 9.49792 13.7309 10V18.1818ZM8.27639 18.1818V10.9091H11.9128V18.1818H8.27639Z" fill="#2962FF"/>
<defs>
<filter id="filter0_d_0_1" x="-48" y="-55" width="219.5" height="272" filterUnits="userSpaceOnUse" color-interpolation-filters="sRGB">
<feFlood flood-opacity="0" result="BackgroundImageFix"/>
<feColorMatrix in="SourceAlpha" type="matrix" values="0 0 0 0 0 0 0 0 0 0 0 0 0 0 0 0 0 0 127 0" result="hardAlpha"/>
<feOffset dy="8"/>
<feGaussianBlur stdDeviation="16"/>
<feComposite in2="hardAlpha" operator="out"/>
<feColorMatrix type="matrix" values="0 0 0 0 0 0 0 0 0 0 0 0 0 0 0 0 0 0 0.08 0"/>
<feBlend mode="normal" in2="BackgroundImageFix" result="effect1_dropShadow_0_1"/>
<feBlend mode="normal" in="SourceGraphic" in2="effect1_dropShadow_0_1" result="shape"/>
</filter>
</defs>
</svg>
