<svg width="40" height="40" viewBox="0 0 40 40" fill="none" xmlns="http://www.w3.org/2000/svg">
<rect width="40" height="40" rx="20" fill="#E3F2FD"/>
<path d="M30.5 18.5C30.2365 18.4998 29.9777 18.5691 29.7495 18.7007C29.5213 18.8324 29.3318 19.0218 29.2 19.25H27.839C27.6904 17.6848 27.0744 16.2005 26.071 14.99L27.037 14.024C27.356 14.1094 27.6942 14.0872 27.9992 13.9608C28.3042 13.8344 28.559 13.6109 28.7241 13.3249C28.8891 13.039 28.9552 12.7065 28.9121 12.3792C28.869 12.0518 28.7191 11.7479 28.4856 11.5144C28.2522 11.2809 27.9482 11.131 27.6208 11.0879C27.2935 11.0448 26.9611 11.1109 26.6751 11.2759C26.3891 11.441 26.1656 11.6958 26.0392 12.0008C25.9128 12.3059 25.8906 12.6441 25.976 12.963L25.01 13.929C23.7995 12.9257 22.3152 12.3096 20.75 12.161V10.8C21.036 10.6349 21.2595 10.3801 21.3858 10.075C21.5122 9.76994 21.5344 9.4317 21.4489 9.11275C21.3634 8.7938 21.1751 8.51196 20.9132 8.31095C20.6512 8.10993 20.3302 8.00098 20 8.00098C19.6698 8.00098 19.3488 8.10993 19.0869 8.31095C18.8249 8.51196 18.6366 8.7938 18.5511 9.11275C18.4657 9.4317 18.4878 9.76994 18.6142 10.075C18.7406 10.3801 18.9641 10.6349 19.25 10.8V12.161C17.6848 12.3096 16.2005 12.9257 14.99 13.929L14.024 12.963C14.1094 12.6441 14.0872 12.3059 13.9608 12.0008C13.8344 11.6958 13.6109 11.441 13.3249 11.2759C13.039 11.1109 12.7065 11.0448 12.3792 11.0879C12.0518 11.131 11.7479 11.2809 11.5144 11.5144C11.2809 11.7479 11.131 12.0518 11.0879 12.3792C11.0448 12.7065 11.1109 13.039 11.2759 13.3249C11.441 13.6109 11.6958 13.8344 12.0008 13.9608C12.3059 14.0872 12.6441 14.1094 12.963 14.024L13.929 14.99C12.9257 16.2005 12.3096 17.6848 12.161 19.25H10.8C10.6349 18.9641 10.3801 18.7406 10.075 18.6142C9.76994 18.4878 9.4317 18.4657 9.11275 18.5511C8.7938 18.6366 8.51196 18.8249 8.31095 19.0869C8.10993 19.3488 8.00098 19.6698 8.00098 20C8.00098 20.3302 8.10993 20.6512 8.31095 20.9132C8.51196 21.1751 8.7938 21.3634 9.11275 21.4489C9.4317 21.5344 9.76994 21.5122 10.075 21.3858C10.3801 21.2595 10.6349 21.036 10.8 20.75H12.161C12.3096 22.3152 12.9257 23.7995 13.929 25.01L12.963 25.976C12.6441 25.8906 12.3059 25.9128 12.0008 26.0392C11.6958 26.1656 11.441 26.3891 11.2759 26.6751C11.1109 26.9611 11.0448 27.2935 11.0879 27.6208C11.131 27.9482 11.2809 28.2522 11.5144 28.4856C11.7479 28.7191 12.0518 28.869 12.3792 28.9121C12.7065 28.9552 13.039 28.8891 13.3249 28.7241C13.6109 28.559 13.8344 28.3042 13.9608 27.9992C14.0872 27.6942 14.1094 27.356 14.024 27.037L14.99 26.071C16.2005 27.0744 17.6848 27.6904 19.25 27.839V29.2C18.9641 29.3651 18.7406 29.62 18.6142 29.925C18.4878 30.2301 18.4657 30.5683 18.5511 30.8873C18.6366 31.2062 18.8249 31.4881 19.0869 31.6891C19.3488 31.8901 19.6698 31.9991 20 31.9991C20.3302 31.9991 20.6512 31.8901 20.9132 31.6891C21.1751 31.4881 21.3634 31.2062 21.4489 30.8873C21.5344 30.5683 21.5122 30.2301 21.3858 29.925C21.2595 29.62 21.036 29.3651 20.75 29.2V27.839C22.3152 27.6904 23.7995 27.0744 25.01 26.071L25.976 27.037C25.8906 27.356 25.9128 27.6942 26.0392 27.9992C26.1656 28.3042 26.3891 28.559 26.6751 28.7241C26.9611 28.8891 27.2935 28.9552 27.6208 28.9121C27.9482 28.869 28.2522 28.7191 28.4856 28.4856C28.7191 28.2522 28.869 27.9482 28.9121 27.6208C28.9552 27.2935 28.8891 26.9611 28.7241 26.6751C28.559 26.3891 28.3042 26.1656 27.9992 26.0392C27.6942 25.9128 27.356 25.8906 27.037 25.976L26.071 25.01C27.0744 23.7995 27.6904 22.3152 27.839 20.75H29.2C29.3316 20.978 29.521 21.1673 29.7489 21.299C29.9769 21.4306 30.2355 21.5 30.4988 21.5C30.7621 21.5001 31.0207 21.4308 31.2487 21.2992C31.4768 21.1677 31.6661 20.9784 31.7979 20.7504C31.9296 20.5225 31.9989 20.2639 31.9991 20.0006C31.9992 19.7374 31.93 19.4787 31.7985 19.2506C31.6669 19.0226 31.4777 18.8332 31.2498 18.7014C31.0219 18.5696 30.7633 18.5002 30.5 18.5ZM17.516 19.625C17.2563 19.625 17.0025 19.548 16.7866 19.4037C16.5706 19.2595 16.4023 19.0544 16.303 18.8145C16.2036 18.5746 16.1776 18.3106 16.2282 18.0559C16.2789 17.8012 16.404 17.5672 16.5876 17.3836C16.7712 17.2 17.0052 17.0749 17.2599 17.0242C17.5146 16.9736 17.7786 16.9996 18.0185 17.099C18.2584 17.1983 18.4635 17.3666 18.6077 17.5826C18.752 17.7985 18.829 18.0523 18.829 18.312C18.8287 18.6602 18.6903 18.994 18.4442 19.2402C18.198 19.4863 17.8642 19.6247 17.516 19.625ZM20.75 24.125C20.4533 24.125 20.1633 24.037 19.9167 23.8722C19.67 23.7074 19.4777 23.4731 19.3642 23.199C19.2507 22.925 19.221 22.6234 19.2788 22.3324C19.3367 22.0414 19.4796 21.7741 19.6894 21.5644C19.8991 21.3546 20.1664 21.2117 20.4574 21.1538C20.7484 21.096 21.05 21.1257 21.324 21.2392C21.5981 21.3527 21.8324 21.545 21.9972 21.7917C22.162 22.0383 22.25 22.3283 22.25 22.625C22.25 23.0228 22.092 23.4044 21.8107 23.6857C21.5294 23.967 21.1478 24.125 20.75 24.125ZM23.375 18.875C23.1525 18.875 22.935 18.809 22.75 18.6854C22.565 18.5618 22.4208 18.3861 22.3356 18.1805C22.2505 17.975 22.2282 17.7488 22.2716 17.5305C22.315 17.3123 22.4222 17.1119 22.5795 16.9545C22.7369 16.7972 22.9373 16.69 23.1555 16.6466C23.3738 16.6032 23.6 16.6255 23.8055 16.7106C24.0111 16.7958 24.1868 16.94 24.3104 17.125C24.434 17.31 24.5 17.5275 24.5 17.75C24.4998 18.0483 24.3811 18.3343 24.1702 18.5452C23.9593 18.7561 23.6733 18.8747 23.375 18.875Z" fill="#2962FF"/>
</svg>
