<svg width="18" height="20" viewBox="0 0 18 20" fill="none" xmlns="http://www.w3.org/2000/svg">
<rect width="18" height="20" fill="#E5E5E5"/>
<g clip-path="url(#clip0_0_1)">
<rect width="375" height="667" transform="translate(-289 -515)" fill="#F5F6FA"/>
<g filter="url(#filter0_d_0_1)">
<rect x="-40.3333" y="-16" width="98.3333" height="52" rx="8" fill="white"/>
<path d="M16.8267 15.5861C16.5242 16.2848 16.1662 16.928 15.7514 17.5193C15.186 18.3255 14.723 18.8835 14.3662 19.1934C13.8132 19.702 13.2206 19.9625 12.5861 19.9773C12.1305 19.9773 11.5811 19.8477 10.9417 19.5847C10.3001 19.323 9.71047 19.1934 9.17135 19.1934C8.60593 19.1934 7.99953 19.323 7.35091 19.5847C6.7013 19.8477 6.17799 19.9847 5.77787 19.9983C5.16938 20.0242 4.56285 19.7563 3.95744 19.1934C3.57103 18.8563 3.08771 18.2786 2.50872 17.4601C1.88751 16.586 1.37678 15.5725 0.976671 14.417C0.548167 13.1689 0.333359 11.9603 0.333359 10.7902C0.333359 9.44984 0.622979 8.29383 1.20308 7.32509C1.659 6.54696 2.26552 5.93316 3.02463 5.48255C3.78374 5.03195 4.60396 4.80233 5.48727 4.78763C5.97058 4.78763 6.60439 4.93714 7.39202 5.23096C8.17743 5.52576 8.68173 5.67526 8.90284 5.67526C9.06814 5.67526 9.62837 5.50045 10.5781 5.15195C11.4762 4.82874 12.2342 4.69492 12.8552 4.74764C14.5378 4.88343 15.802 5.54675 16.6427 6.74177C15.1378 7.6536 14.3934 8.93072 14.4082 10.5691C14.4218 11.8452 14.8847 12.9071 15.7946 13.7503C16.2069 14.1417 16.6674 14.4441 17.1797 14.6589C17.0686 14.9812 16.9513 15.2898 16.8267 15.5861ZM12.9675 0.400114C12.9675 1.40034 12.6021 2.33425 11.8737 3.19867C10.9947 4.22629 9.93157 4.8201 8.77864 4.7264C8.76395 4.60641 8.75543 4.48011 8.75543 4.3474C8.75543 3.38718 9.17344 2.35956 9.91577 1.51934C10.2864 1.09392 10.7577 0.74019 11.3293 0.458013C11.8997 0.180046 12.4391 0.0263242 12.9465 0C12.9613 0.133715 12.9675 0.267438 12.9675 0.400101V0.400114Z" fill="black"/>
</g>
</g>
<defs>
<filter id="filter0_d_0_1" x="-72.3333" y="-40" width="162.333" height="116" filterUnits="userSpaceOnUse" color-interpolation-filters="sRGB">
<feFlood flood-opacity="0" result="BackgroundImageFix"/>
<feColorMatrix in="SourceAlpha" type="matrix" values="0 0 0 0 0 0 0 0 0 0 0 0 0 0 0 0 0 0 127 0" result="hardAlpha"/>
<feOffset dy="8"/>
<feGaussianBlur stdDeviation="16"/>
<feComposite in2="hardAlpha" operator="out"/>
<feColorMatrix type="matrix" values="0 0 0 0 0 0 0 0 0 0 0 0 0 0 0 0 0 0 0.08 0"/>
<feBlend mode="normal" in2="BackgroundImageFix" result="effect1_dropShadow_0_1"/>
<feBlend mode="normal" in="SourceGraphic" in2="effect1_dropShadow_0_1" result="shape"/>
</filter>
<clipPath id="clip0_0_1">
<rect width="375" height="667" fill="white" transform="translate(-289 -515)"/>
</clipPath>
</defs>
</svg>
