<svg xmlns="http://www.w3.org/2000/svg" width="18" height="18" viewBox="0 0 18 18">
  <g id="icon_white_steps" transform="translate(-57 -116)">
    <rect id="Rectangle_2013" data-name="Rectangle 2013" width="18" height="18" transform="translate(57 116)" fill="none"/>
    <path id="Path_772" data-name="Path 772" d="M79.586,13.5c.971.333,1.828.544,3.06.923C82.173,20.407,76.519,18.032,79.586,13.5Zm5.048-5.493c-.064-1.8-.38-4.151-2.9-3.782-1.181.308-2.053,1.6-2.464,3.842a10.745,10.745,0,0,0,.172,3.992c.243.729.16.685.421.823,1.01.227,2.009.479,3.027.736C83.926,12.893,84.776,9.016,84.635,8.011Zm-7.774-.138a10.751,10.751,0,0,0,.171-3.992C76.622,1.644,75.75.347,74.569.039,72.05-.33,71.734,2.025,71.67,3.82c-.141,1,.709,4.882,1.743,5.612,1.018-.257,2.017-.508,3.027-.736C76.7,8.558,76.618,8.6,76.861,7.873Zm-3.2,2.363c.473,5.98,6.127,3.6,3.06-.923C75.747,9.646,74.89,9.858,73.658,10.236Z" transform="translate(-11.654 116)" fill="#fff"/>
  </g>
</svg>
