<svg xmlns="http://www.w3.org/2000/svg" width="24" height="24" viewBox="0 0 24 24">
  <g id="icon_dashboard_activity" transform="translate(-251 -610)">
    <g id="Group_316" data-name="Group 316">
      <rect id="Rectangle_78" data-name="Rectangle 78" width="24" height="24" transform="translate(251 610)" fill="none"/>
      <g id="Group_307" data-name="Group 307" transform="translate(251.258 610)">
        <ellipse id="Ellipse_43" data-name="Ellipse 43" cx="2.374" cy="2.374" rx="2.374" ry="2.374" transform="translate(13.475)" />
        <path id="Path_192" data-name="Path 192" d="M3.057,20.183c2.49,1.456,3.983-.68,5.107-2.737a2.77,2.77,0,0,1,.225-.6Q9.7,14.3,11.12,11.825a4.1,4.1,0,0,0-4.891,1.819C5.143,15.165,2.6,13.706,3.7,12.167,6.286,8.547,10.14,7.648,14,9.939a1.542,1.542,0,0,1,.392.327c.058.023.117.048.174.075a1.537,1.537,0,0,1,.482.189c2.4,1.424,4.628,1.154,6.292-1.178,1.087-1.522,3.627-.062,2.527,1.477-2.124,2.975-5.106,4.107-8.243,3.146q-1.477,2.536-2.817,5.151a18.352,18.352,0,0,1,3.7,2.517,1.786,1.786,0,0,1,.135.132,1.411,1.411,0,0,1,.622.662l2.3,4.76a1.464,1.464,0,0,1-2.65,1.243q-1.094-2.261-2.19-4.523a1.711,1.711,0,0,1-.291-.2,13.84,13.84,0,0,0-4.5-2.667,1.543,1.543,0,0,1-.227-.1c-2.035,2.582-4.873,4-8.272,2.018A1.611,1.611,0,0,1,3.057,20.183Z" transform="translate(-0.654 -5.251)" />
      </g>
    </g>
  </g>
</svg>
