<svg width="31" height="25" viewBox="0 0 31 25" fill="none" xmlns="http://www.w3.org/2000/svg">
<path d="M25.7004 4.27891C25.064 3.6589 24.3116 3.17042 23.4863 2.84141C22.661 2.51241 21.779 2.34933 20.8906 2.3615C20.0022 2.37367 19.1249 2.56086 18.3089 2.91236C17.493 3.26385 16.7543 3.77276 16.1351 4.40997L15.6079 4.95181L15.0661 4.42462C13.7761 3.18766 12.0495 2.51072 10.2626 2.54131C8.47568 2.5719 6.77327 3.30755 5.52641 4.58793C4.27954 5.86832 3.5893 7.58964 3.60611 9.37675C3.62292 11.1639 4.34542 12.8719 5.61615 14.1286L15.3522 23.5996C15.4884 23.7309 15.671 23.8031 15.8601 23.8005C16.0493 23.7979 16.2298 23.7207 16.3624 23.5858L25.8315 13.8516C26.4515 13.2145 26.94 12.4615 27.2689 11.6355C27.5979 10.8096 27.7609 9.92702 27.7487 9.03809C27.7366 8.14916 27.5494 7.27134 27.1979 6.45475C26.8465 5.63817 26.3376 4.89881 25.7004 4.27891V4.27891ZM24.8075 12.8553L15.8342 22.0779L6.60967 13.1046C6.10679 12.6149 5.70529 12.0308 5.42812 11.3859C5.15094 10.741 5.00351 10.0477 4.99424 9.34583C4.98497 8.64391 5.11404 7.94705 5.37409 7.29501C5.63414 6.64298 6.02006 6.04855 6.50984 5.54567C6.99961 5.04278 7.58364 4.64129 8.22858 4.36412C8.87351 4.08694 9.56673 3.93951 10.2686 3.93024C10.9706 3.92097 11.6674 4.05004 12.3195 4.31008C12.9715 4.57013 13.5659 4.95606 14.0688 5.44583L15.1231 6.47165C15.19 6.53779 15.2693 6.58996 15.3565 6.62512C15.4437 6.66029 15.5371 6.67773 15.6311 6.67644C15.7251 6.67515 15.818 6.65516 15.9042 6.61762C15.9904 6.58008 16.0683 6.52575 16.1333 6.4578L17.1591 5.40349C17.6483 4.90123 18.2316 4.50023 18.8757 4.2234C19.5199 3.94656 20.2122 3.79931 20.9133 3.79006C21.6143 3.7808 22.3103 3.90971 22.9615 4.16944C23.6128 4.42916 24.2065 4.81461 24.7087 5.30378C25.211 5.79295 25.612 6.37626 25.8888 7.0204C26.1656 7.66454 26.3129 8.3569 26.3222 9.05794C26.3314 9.75899 26.2025 10.455 25.9428 11.1062C25.683 11.7575 25.2976 12.3511 24.8084 12.8534L24.8075 12.8553Z" fill="#78909C" stroke="#78909C" stroke-width="0.5"/>
<path d="M4.48064 11.595L1.86693 11.6309C1.67783 11.6334 1.49751 11.711 1.36562 11.8466C1.23374 11.9821 1.16111 12.1645 1.1637 12.3536C1.16629 12.5427 1.2439 12.723 1.37944 12.8549C1.51499 12.9868 1.69737 13.0594 1.88647 13.0568L4.50298 13.021C4.69208 13.0184 4.87241 12.9408 5.00429 12.8053C5.13617 12.6697 5.20881 12.4873 5.20622 12.2982C5.20362 12.1091 5.12602 11.9288 4.99047 11.7969C4.85493 11.665 4.67254 11.5924 4.48345 11.595L4.48064 11.595Z" fill="#78909C" stroke="#78909C" stroke-width="0.5"/>
<path d="M26.821 11.3118L19.9993 11.4053L18.9058 9.08365C18.8658 8.99788 18.8006 8.92629 18.719 8.87834C18.6374 8.83039 18.5432 8.80834 18.4488 8.81513C18.3534 8.82069 18.2618 8.85466 18.1858 8.91265C18.1098 8.97065 18.0529 9.05004 18.0224 9.14062L15.9371 15.2752L13.2009 8.0038C13.1678 7.91621 13.1096 7.84038 13.0335 7.78587C12.9574 7.73135 12.8668 7.7006 12.7733 7.69749C12.6785 7.69221 12.5845 7.71638 12.504 7.76668C12.4235 7.81698 12.3606 7.89095 12.3238 7.97843L10.5999 11.7677L4.72303 11.8483C4.59712 11.8507 4.47726 11.9027 4.38943 11.993C4.30161 12.0832 4.25291 12.2045 4.2539 12.3304C4.25746 12.5902 4.57223 12.7794 4.83201 12.7758L11.0107 12.6911C11.1976 12.6886 11.2619 12.6064 11.3343 12.4344L12.7043 9.41444L15.5101 16.8531C15.5446 16.9442 15.6063 17.0224 15.6868 17.0772C15.7673 17.132 15.8628 17.1606 15.9601 17.1592C16.0586 17.1583 16.1544 17.1264 16.2336 17.0679C16.3129 17.0094 16.3716 16.9273 16.4015 16.8335L18.536 10.5421L19.2552 12.0772C19.317 12.16 19.3987 12.2259 19.4928 12.2687C19.5868 12.3115 19.6902 12.3299 19.7932 12.3222L26.9232 12.2245C27.183 12.2209 27.2943 12.0259 27.2908 11.7662C27.2916 11.7049 27.28 11.6441 27.2567 11.5874C27.2335 11.5307 27.199 11.4793 27.1554 11.4362C27.1117 11.3932 27.0599 11.3594 27.0029 11.3369C26.9459 11.3144 26.8849 11.3036 26.8237 11.3052L26.821 11.3118Z" fill="#78909C" stroke="#78909C" stroke-width="0.5"/>
<path d="M29.1947 11.0171L27.0557 11.0464C26.8666 11.049 26.6862 11.1266 26.5543 11.2621C26.4225 11.3977 26.3498 11.5801 26.3524 11.7692C26.355 11.9583 26.4326 12.1386 26.5682 12.2705C26.7037 12.4023 26.8861 12.475 27.0752 12.4724L29.2142 12.4431C29.4033 12.4405 29.5836 12.3629 29.7155 12.2273C29.8474 12.0918 29.92 11.9094 29.9174 11.7203C29.9148 11.5312 29.8372 11.3509 29.7017 11.219C29.5661 11.0871 29.3838 11.0145 29.1947 11.0171V11.0171Z" fill="#78909C" stroke="#78909C" stroke-width="0.5"/>
</svg>
