<svg width="22" height="24" viewBox="0 0 22 24" fill="none" xmlns="http://www.w3.org/2000/svg">
<path d="M19.7031 9.70312C19.901 9.50521 20 9.27083 20 9C20 8.72917 19.901 8.49479 19.7031 8.29687C19.5052 8.09896 19.2708 8 19 8C18.7292 8 18.4948 8.09896 18.2969 8.29687C18.099 8.49479 18 8.72917 18 9C18 9.27083 18.099 9.50521 18.2969 9.70312C18.4948 9.90104 18.7292 10 19 10C19.2708 10 19.5052 9.90104 19.7031 9.70312ZM22 9C22 9.64583 21.8125 10.224 21.4375 10.7344C21.0729 11.2448 20.5938 11.6094 20 11.8281V18C20 19.6562 19.3125 21.0677 17.9375 22.2344C16.5729 23.4115 14.9271 24 13 24C11.0729 24 9.42188 23.4115 8.04688 22.2344C6.68229 21.0677 6 19.6562 6 18V15.9375C4.29167 15.7292 2.86458 15.0625 1.71875 13.9375C0.572917 12.8125 0 11.5 0 10V2C0 1.72917 0.0989583 1.49479 0.296875 1.29687C0.494792 1.09896 0.729167 0.999998 1 0.999998C1.0625 0.999998 1.14583 1.01042 1.25 1.03125C1.42708 0.718749 1.67188 0.468748 1.98438 0.281249C2.29688 0.0937487 2.63542 -1.19209e-06 3 -1.19209e-06C3.55208 -1.19209e-06 4.02083 0.197916 4.40625 0.593749C4.80208 0.979166 5 1.44792 5 2C5 2.55208 4.80208 3.02604 4.40625 3.42187C4.02083 3.80729 3.55208 4 3 4C2.65625 4 2.32292 3.90625 2 3.71875V10C2 11.1042 2.48958 12.0469 3.46875 12.8281C4.44792 13.6094 5.625 14 7 14C8.375 14 9.55208 13.6094 10.5313 12.8281C11.5104 12.0469 12 11.1042 12 10V3.71875C11.6771 3.90625 11.3438 4 11 4C10.4479 4 9.97396 3.80729 9.57813 3.42187C9.19271 3.02604 9 2.55208 9 2C9 1.44792 9.19271 0.979166 9.57813 0.593749C9.97396 0.197916 10.4479 -1.19209e-06 11 -1.19209e-06C11.3646 -1.19209e-06 11.7031 0.0937487 12.0156 0.281249C12.3281 0.468748 12.5729 0.718749 12.75 1.03125C12.8542 1.01042 12.9375 0.999998 13 0.999998C13.2708 0.999998 13.5052 1.09896 13.7031 1.29687C13.901 1.49479 14 1.72917 14 2V10C14 11.5 13.4271 12.8125 12.2813 13.9375C11.1354 15.0625 9.70833 15.7292 8 15.9375V18C8 19.1042 8.48958 20.0469 9.46875 20.8281C10.4479 21.6094 11.625 22 13 22C14.375 22 15.5521 21.6094 16.5313 20.8281C17.5104 20.0469 18 19.1042 18 18V11.8281C17.4063 11.6094 16.9219 11.2448 16.5469 10.7344C16.1823 10.224 16 9.64583 16 9C16 8.16667 16.2917 7.45833 16.875 6.875C17.4583 6.29167 18.1667 6 19 6C19.8333 6 20.5417 6.29167 21.125 6.875C21.7083 7.45833 22 8.16667 22 9Z" fill="#2962FF"/>
</svg>
