<svg width="20" height="20" viewBox="0 0 20 20" fill="none" xmlns="http://www.w3.org/2000/svg">
<rect width="20" height="20" fill="#E5E5E5"/>
<g clip-path="url(#clip0_0_1)">
<rect width="375" height="667" transform="translate(-59 -515)" fill="#F5F6FA"/>
<g filter="url(#filter0_d_0_1)">
<rect x="-39" y="-16" width="98.3333" height="52" rx="8" fill="white"/>
<path d="M19.9688 10.2299C19.9688 9.55015 19.9137 8.86672 19.7961 8.198H10.3642V12.0487H15.7654C15.5413 13.2906 14.8211 14.3892 13.7666 15.0873V17.5859H16.989C18.8812 15.8443 19.9688 13.2722 19.9688 10.2299Z" fill="#4285F4"/>
<path d="M10.3641 20C13.0611 20 15.3355 19.1145 16.9926 17.586L13.7702 15.0874C12.8737 15.6974 11.7163 16.0428 10.3678 16.0428C7.75905 16.0428 5.54711 14.2828 4.75346 11.9165H1.4282V14.4922C3.12573 17.8689 6.58327 20 10.3641 20Z" fill="#34A853"/>
<path d="M4.74979 11.9165C4.33092 10.6746 4.33092 9.32982 4.74979 8.0879V5.51221H1.42821C0.00992262 8.33776 0.00992262 11.6667 1.42821 14.4922L4.74979 11.9165Z" fill="#FBBC04"/>
<path d="M10.3641 3.95791C11.7898 3.93587 13.1676 4.47232 14.2001 5.45704L17.0551 2.60209C15.2473 0.904556 12.848 -0.0287207 10.3641 0.000673865C6.58327 0.000673865 3.12573 2.13178 1.4282 5.51215L4.74978 8.08785C5.53976 5.71791 7.75538 3.95791 10.3641 3.95791Z" fill="#EA4335"/>
</g>
</g>
<defs>
<filter id="filter0_d_0_1" x="-71" y="-40" width="162.333" height="116" filterUnits="userSpaceOnUse" color-interpolation-filters="sRGB">
<feFlood flood-opacity="0" result="BackgroundImageFix"/>
<feColorMatrix in="SourceAlpha" type="matrix" values="0 0 0 0 0 0 0 0 0 0 0 0 0 0 0 0 0 0 127 0" result="hardAlpha"/>
<feOffset dy="8"/>
<feGaussianBlur stdDeviation="16"/>
<feComposite in2="hardAlpha" operator="out"/>
<feColorMatrix type="matrix" values="0 0 0 0 0 0 0 0 0 0 0 0 0 0 0 0 0 0 0.08 0"/>
<feBlend mode="normal" in2="BackgroundImageFix" result="effect1_dropShadow_0_1"/>
<feBlend mode="normal" in="SourceGraphic" in2="effect1_dropShadow_0_1" result="shape"/>
</filter>
<clipPath id="clip0_0_1">
<rect width="375" height="667" fill="white" transform="translate(-59 -515)"/>
</clipPath>
</defs>
</svg>
