<svg width="28" height="28" viewBox="0 0 28 28" fill="none" xmlns="http://www.w3.org/2000/svg">
<path d="M14.3723 5.45063L16.2819 7.34009C16.4002 7.45815 16.541 7.55186 16.6961 7.61581C16.8513 7.67976 17.0177 7.71268 17.1857 7.71268C17.3538 7.71268 17.5202 7.67976 17.6753 7.61581C17.8304 7.55186 17.9712 7.45815 18.0896 7.34009C18.2827 7.13943 18.4037 6.88134 18.4336 6.60578C18.4635 6.33023 18.4008 6.05261 18.255 5.81593H22.9143C23.2519 5.81593 23.5757 5.68322 23.8144 5.44699C24.0532 5.21076 24.1873 4.89037 24.1873 4.55629C24.1873 4.22222 24.0532 3.90182 23.8144 3.6656C23.5757 3.42937 23.2519 3.29666 22.9143 3.29666H18.255C18.4008 3.05998 18.4635 2.78235 18.4336 2.5068C18.4037 2.23125 18.2827 1.97315 18.0896 1.7725C17.9712 1.65444 17.8304 1.56073 17.6753 1.49678C17.5202 1.43283 17.3538 1.3999 17.1857 1.3999C17.0177 1.3999 16.8513 1.43283 16.6961 1.49678C16.541 1.56073 16.4002 1.65444 16.2819 1.7725L14.3723 3.66195C14.2565 3.78175 14.1656 3.92301 14.105 4.07763C13.9777 4.3843 13.9777 4.72828 14.105 5.03495C14.1656 5.18958 14.2565 5.33084 14.3723 5.45063ZM27.9045 10.3758C27.8439 10.2212 27.7531 10.0799 27.6372 9.96013L25.7276 8.07067C25.6093 7.95261 25.4685 7.8589 25.3134 7.79495C25.1583 7.731 24.9919 7.69808 24.8238 7.69808C24.6558 7.69808 24.4894 7.731 24.3342 7.79495C24.1791 7.8589 24.0383 7.95261 23.92 8.07067C23.7268 8.27133 23.6059 8.52943 23.5759 8.80498C23.546 9.08053 23.6088 9.35815 23.7545 9.59483H19.0952C18.7576 9.59483 18.4338 9.72754 18.1951 9.96377C17.9563 10.2 17.8222 10.5204 17.8222 10.8545C17.8222 11.1885 17.9563 11.5089 18.1951 11.7452C18.4338 11.9814 18.7576 12.1141 19.0952 12.1141H23.7545C23.6088 12.3508 23.546 12.6284 23.5759 12.904C23.6059 13.1795 23.7268 13.4376 23.92 13.6383C24.0383 13.7563 24.1791 13.85 24.3342 13.914C24.4894 13.9779 24.6558 14.0109 24.8238 14.0109C24.9919 14.0109 25.1583 13.9779 25.3134 13.914C25.4685 13.85 25.6093 13.7563 25.7276 13.6383L27.6372 11.7488C27.7531 11.629 27.8439 11.4878 27.9045 11.3331C28.0318 11.0265 28.0318 10.6825 27.9045 10.3758ZM12.7302 11.4843C11.723 11.4843 10.7385 11.7798 9.90116 12.3334C9.06377 12.8871 8.41111 13.674 8.0257 14.5947C7.6403 15.5153 7.53946 16.5284 7.73594 17.5058C7.93242 18.4832 8.41739 19.381 9.12953 20.0856C9.84166 20.7903 10.749 21.2701 11.7367 21.4646C12.7245 21.659 13.7484 21.5592 14.6788 21.1778C15.6093 20.7965 16.4045 20.1507 16.9641 19.3221C17.5236 18.4935 17.8222 17.5194 17.8222 16.5228C17.8222 15.1865 17.2857 13.9049 16.3308 12.96C15.3758 12.0151 14.0807 11.4843 12.7302 11.4843ZM12.7302 19.0421C12.2266 19.0421 11.7344 18.8943 11.3157 18.6175C10.897 18.3407 10.5706 17.9472 10.3779 17.4869C10.1852 17.0266 10.1348 16.52 10.233 16.0313C10.3313 15.5426 10.5738 15.0938 10.9298 14.7414C11.2859 14.3891 11.7396 14.1492 12.2335 14.052C12.7273 13.9548 13.2393 14.0046 13.7045 14.1953C14.1697 14.386 14.5673 14.7089 14.8471 15.1232C15.1269 15.5375 15.2762 16.0246 15.2762 16.5228C15.2762 17.191 15.0079 17.8318 14.5305 18.3042C14.053 18.7767 13.4054 19.0421 12.7302 19.0421ZM24.1873 15.2632C23.8497 15.2632 23.5259 15.3959 23.2871 15.6321C23.0484 15.8684 22.9143 16.1887 22.9143 16.5228V22.821C22.9143 23.1551 22.7802 23.4755 22.5414 23.7117C22.3027 23.9479 21.9789 24.0806 21.6413 24.0806H3.81905C3.48142 24.0806 3.15763 23.9479 2.91889 23.7117C2.68015 23.4755 2.54603 23.1551 2.54603 22.821V12.7439C2.54603 12.4098 2.68015 12.0895 2.91889 11.8532C3.15763 11.617 3.48142 11.4843 3.81905 11.4843H6.36508C6.64427 11.4978 6.9202 11.42 7.15027 11.2629C7.38035 11.1059 7.55177 10.8782 7.63809 10.6151L8.32552 8.57453C8.4051 8.33191 8.55724 8.11891 8.76182 7.96371C8.96641 7.80851 9.21379 7.71843 9.47124 7.70538H11.4571C11.7948 7.70538 12.1186 7.57267 12.3573 7.33644C12.596 7.10021 12.7302 6.77982 12.7302 6.44575C12.7302 6.11167 12.596 5.79128 12.3573 5.55505C12.1186 5.31882 11.7948 5.18611 11.4571 5.18611H9.47124C8.66746 5.18583 7.88409 5.43648 7.23267 5.90239C6.58125 6.36829 6.09499 7.02568 5.84314 7.78096L5.44851 8.96502H3.81905C2.80617 8.96502 1.83478 9.36315 1.11857 10.0718C0.402363 10.7805 0 11.7417 0 12.7439V22.821C0 23.8232 0.402363 24.7844 1.11857 25.4931C1.83478 26.2018 2.80617 26.5999 3.81905 26.5999H21.6413C22.6541 26.5999 23.6255 26.2018 24.3417 25.4931C25.058 24.7844 25.4603 23.8232 25.4603 22.821V16.5228C25.4603 16.1887 25.3262 15.8684 25.0875 15.6321C24.8487 15.3959 24.5249 15.2632 24.1873 15.2632Z" fill="white"/>
</svg>
