<svg width="32" height="32" viewBox="0 0 32 32" fill="none" xmlns="http://www.w3.org/2000/svg">
<path d="M9.64509 8.43123C11.147 8.43123 12.3547 7.22351 12.3547 5.7216C12.3547 4.21969 11.147 3.01196 9.64509 3.01196C8.14318 3.01196 6.93545 4.21969 6.93545 5.7216C6.93545 7.22351 8.14318 8.43123 9.64509 8.43123ZM12.7418 27.7858V20.044H14.2902V13.0763C14.2902 11.3731 12.8966 9.9796 11.1935 9.9796H8.09673C6.39353 9.9796 5 11.3731 5 13.0763V20.044H6.54836V27.7858H12.7418Z" fill="#208AEB"/>
<path d="M17 7.73218L17 25.7322C17 26.8322 17.9 27.7322 19 27.7322L27 27.7322C28.1 27.7322 29 26.8322 29 25.7322L29 7.73218C29 6.63218 28.1 5.73218 27 5.73218L19 5.73218C17.9 5.73218 17 6.63218 17 7.73218ZM27 7.73218L27 25.7322L19 25.7322L19 23.7322L23 23.7322L23 21.7322L19 21.7322L19 19.7322L23 19.7322L23 17.7322L19 17.7322L19 15.7322L23 15.7322L23 13.7322L19 13.7322L19 11.7322L23 11.7322L23 9.73218L19 9.73218L19 7.73218L27 7.73218Z" fill="#208AEB"/>
</svg>
