<svg width="21" height="21" viewBox="0 0 21 21" fill="none" xmlns="http://www.w3.org/2000/svg">
<rect width="21" height="21" fill="#E5E5E5"/>
<rect width="375" height="1277" transform="translate(-246 -630)" fill="#F5F6FA"/>
<rect x="-53.3984" y="-29.5" width="154.5" height="207" rx="7.5" stroke="#E0E0E0"/>
<path d="M-36.8904 2V0.402H-34.4764V-6.704H-36.4654V-7.928C-35.9328 -8.03 -35.4681 -8.149 -35.0714 -8.285C-34.6748 -8.43233 -34.3064 -8.608 -33.9664 -8.812H-32.5044V0.402H-30.3794V2H-36.8904ZM-25.0806 2.204C-26.2026 2.204 -27.098 1.71667 -27.7666 0.742C-28.424 -0.232667 -28.7526 -1.63233 -28.7526 -3.457C-28.7526 -5.28167 -28.424 -6.66433 -27.7666 -7.605C-27.098 -8.54567 -26.2026 -9.016 -25.0806 -9.016C-23.9586 -9.016 -23.069 -8.54567 -22.4116 -7.605C-21.743 -6.66433 -21.4086 -5.28167 -21.4086 -3.457C-21.4086 -1.63233 -21.743 -0.232667 -22.4116 0.742C-23.069 1.71667 -23.9586 2.204 -25.0806 2.204ZM-25.0806 0.674C-24.7293 0.674 -24.4176 0.543667 -24.1456 0.283C-23.8736 0.011 -23.664 -0.425333 -23.5166 -1.026C-23.358 -1.62667 -23.2786 -2.437 -23.2786 -3.457C-23.2786 -4.477 -23.358 -5.28167 -23.5166 -5.871C-23.664 -6.46033 -23.8736 -6.874 -24.1456 -7.112C-24.4176 -7.36133 -24.7293 -7.486 -25.0806 -7.486C-25.4206 -7.486 -25.7266 -7.36133 -25.9986 -7.112C-26.2706 -6.874 -26.486 -6.46033 -26.6446 -5.871C-26.8033 -5.28167 -26.8826 -4.477 -26.8826 -3.457C-26.8826 -2.437 -26.8033 -1.62667 -26.6446 -1.026C-26.486 -0.425333 -26.2706 0.011 -25.9986 0.283C-25.7266 0.543667 -25.4206 0.674 -25.0806 0.674ZM-17.0958 0.317V-2.896H-20.1388V-4.324H-17.0958V-7.537H-15.6168V-4.324H-12.5738V-2.896H-15.6168V0.317H-17.0958ZM-4.90866 -3.916L-5.29966 -2.556H-2.46066L-2.85166 -3.916C-3.03299 -4.50533 -3.20866 -5.11167 -3.37866 -5.735C-3.53732 -6.35833 -3.69599 -6.976 -3.85466 -7.588H-3.92266C-4.06999 -6.96467 -4.22866 -6.34133 -4.39866 -5.718C-4.55732 -5.106 -4.72732 -4.50533 -4.90866 -3.916ZM-8.63166 2L-5.01066 -9.118H-2.69866L0.922344 2H-1.15166L-2.01866 -1.009H-5.75866L-6.62566 2H-8.63166ZM5.60784 2.204C4.8485 2.204 4.16284 2.034 3.55084 1.694C2.95017 1.34267 2.4685 0.844 2.10584 0.198C1.7545 -0.459333 1.57884 -1.247 1.57884 -2.165C1.57884 -3.09433 1.7715 -3.882 2.15684 -4.528C2.54217 -5.18533 3.05217 -5.684 3.68684 -6.024C4.33284 -6.37533 5.02417 -6.551 5.76084 -6.551C6.2935 -6.551 6.75817 -6.46033 7.15484 -6.279C7.5515 -6.09767 7.90284 -5.87667 8.20884 -5.616L7.25684 -4.341C7.0415 -4.53367 6.8205 -4.681 6.59384 -4.783C6.36717 -4.89633 6.1235 -4.953 5.86284 -4.953C5.19417 -4.953 4.6445 -4.698 4.21384 -4.188C3.7945 -3.678 3.58484 -3.00367 3.58484 -2.165C3.58484 -1.33767 3.78884 -0.669 4.19684 -0.159C4.61617 0.351 5.1545 0.606 5.81184 0.606C6.1405 0.606 6.4465 0.538 6.72984 0.402C7.0245 0.254667 7.29084 0.0846665 7.52884 -0.108L8.32784 1.184C7.9425 1.524 7.51184 1.779 7.03584 1.949C6.55984 2.119 6.08384 2.204 5.60784 2.204ZM12.7504 2.204C11.787 2.204 11.1014 1.92633 10.6934 1.371C10.2967 0.804333 10.0984 0.0733332 10.0984 -0.822V-4.8H8.90836V-6.262L10.2004 -6.347L10.4384 -8.625H12.0704V-6.347H14.1954V-4.8H12.0704V-0.822C12.0704 0.152667 12.4614 0.64 13.2434 0.64C13.3907 0.64 13.5437 0.623 13.7024 0.589C13.861 0.543667 13.997 0.498333 14.1104 0.453L14.4504 1.898C14.2237 1.97733 13.963 2.04533 13.6684 2.102C13.385 2.17 13.079 2.204 12.7504 2.204ZM15.9519 2V-6.347H17.9069V2H15.9519ZM16.9379 -7.809C16.5866 -7.809 16.3033 -7.911 16.0879 -8.115C15.8726 -8.319 15.7649 -8.591 15.7649 -8.931C15.7649 -9.25967 15.8726 -9.526 16.0879 -9.73C16.3033 -9.934 16.5866 -10.036 16.9379 -10.036C17.2893 -10.036 17.5726 -9.934 17.7879 -9.73C18.0033 -9.526 18.1109 -9.25967 18.1109 -8.931C18.1109 -8.591 18.0033 -8.319 17.7879 -8.115C17.5726 -7.911 17.2893 -7.809 16.9379 -7.809ZM22.2712 2L19.3642 -6.347H21.3532L22.6792 -2.012C22.7925 -1.604 22.9058 -1.19033 23.0192 -0.771C23.1438 -0.351667 23.2628 0.0733333 23.3762 0.504H23.4442C23.5688 0.0733333 23.6878 -0.351667 23.8012 -0.771C23.9258 -1.19033 24.0448 -1.604 24.1582 -2.012L25.4842 -6.347H27.3712L24.5322 2H22.2712ZM28.8181 2V-6.347H30.7731V2H28.8181ZM29.8041 -7.809C29.4528 -7.809 29.1695 -7.911 28.9541 -8.115C28.7388 -8.319 28.6311 -8.591 28.6311 -8.931C28.6311 -9.25967 28.7388 -9.526 28.9541 -9.73C29.1695 -9.934 29.4528 -10.036 29.8041 -10.036C30.1555 -10.036 30.4388 -9.934 30.6541 -9.73C30.8695 -9.526 30.9771 -9.25967 30.9771 -8.931C30.9771 -8.591 30.8695 -8.319 30.6541 -8.115C30.4388 -7.911 30.1555 -7.809 29.8041 -7.809ZM36.2084 2.204C35.245 2.204 34.5594 1.92633 34.1514 1.371C33.7547 0.804333 33.5564 0.0733332 33.5564 -0.822V-4.8H32.3664V-6.262L33.6584 -6.347L33.8964 -8.625H35.5284V-6.347H37.6534V-4.8H35.5284V-0.822C35.5284 0.152667 35.9194 0.64 36.7014 0.64C36.8487 0.64 37.0017 0.623 37.1604 0.589C37.319 0.543667 37.455 0.498333 37.5684 0.453L37.9084 1.898C37.6817 1.97733 37.421 2.04533 37.1264 2.102C36.843 2.17 36.537 2.204 36.2084 2.204ZM39.4099 2V-6.347H41.3649V2H39.4099ZM40.3959 -7.809C40.0446 -7.809 39.7613 -7.911 39.5459 -8.115C39.3306 -8.319 39.2229 -8.591 39.2229 -8.931C39.2229 -9.25967 39.3306 -9.526 39.5459 -9.73C39.7613 -9.934 40.0446 -10.036 40.3959 -10.036C40.7473 -10.036 41.0306 -9.934 41.2459 -9.73C41.4613 -9.526 41.5689 -9.25967 41.5689 -8.931C41.5689 -8.591 41.4613 -8.319 41.2459 -8.115C41.0306 -7.911 40.7473 -7.809 40.3959 -7.809ZM47.4292 2.204C46.6585 2.204 45.9615 2.034 45.3382 1.694C44.7148 1.34267 44.2218 0.844 43.8592 0.198C43.4965 -0.459333 43.3152 -1.247 43.3152 -2.165C43.3152 -3.07167 43.4965 -3.85367 43.8592 -4.511C44.2332 -5.16833 44.7148 -5.67267 45.3042 -6.024C45.8935 -6.37533 46.5112 -6.551 47.1572 -6.551C47.9165 -6.551 48.5512 -6.381 49.0612 -6.041C49.5712 -5.71233 49.9565 -5.24767 50.2172 -4.647C50.4778 -4.05767 50.6082 -3.372 50.6082 -2.59C50.6082 -2.182 50.5798 -1.86467 50.5232 -1.638H45.2192C45.3098 -0.901333 45.5762 -0.329 46.0182 0.0789999C46.4602 0.487 47.0155 0.691 47.6842 0.691C48.0468 0.691 48.3812 0.64 48.6872 0.538C49.0045 0.424667 49.3162 0.271667 49.6222 0.0789999L50.2852 1.303C49.8885 1.56367 49.4465 1.779 48.9592 1.949C48.4718 2.119 47.9618 2.204 47.4292 2.204ZM45.2022 -2.964H48.9082C48.9082 -3.61 48.7665 -4.11433 48.4832 -4.477C48.1998 -4.851 47.7748 -5.038 47.2082 -5.038C46.7208 -5.038 46.2845 -4.85667 45.8992 -4.494C45.5252 -4.14267 45.2928 -3.63267 45.2022 -2.964ZM54.8044 2.204C54.2377 2.204 53.671 2.09633 53.1044 1.881C52.5377 1.65433 52.0504 1.37667 51.6424 1.048L52.5604 -0.21C52.9344 0.0733332 53.3084 0.3 53.6824 0.47C54.0564 0.64 54.453 0.725 54.8724 0.725C55.3257 0.725 55.66 0.628667 55.8754 0.436C56.0907 0.243333 56.1984 0.00533326 56.1984 -0.278C56.1984 -0.516 56.1077 -0.708667 55.9264 -0.856C55.7564 -1.01467 55.5354 -1.15067 55.2634 -1.264C54.9914 -1.38867 54.708 -1.50767 54.4134 -1.621C54.0507 -1.757 53.688 -1.92133 53.3254 -2.114C52.974 -2.318 52.685 -2.573 52.4584 -2.879C52.2317 -3.19633 52.1184 -3.58733 52.1184 -4.052C52.1184 -4.78867 52.3904 -5.38933 52.9344 -5.854C53.4784 -6.31867 54.215 -6.551 55.1444 -6.551C55.7337 -6.551 56.2607 -6.449 56.7254 -6.245C57.19 -6.041 57.5924 -5.80867 57.9324 -5.548L57.0314 -4.358C56.7367 -4.57333 56.4364 -4.74333 56.1304 -4.868C55.8357 -5.004 55.524 -5.072 55.1954 -5.072C54.776 -5.072 54.4644 -4.98133 54.2604 -4.8C54.0564 -4.63 53.9544 -4.41467 53.9544 -4.154C53.9544 -3.82533 54.1244 -3.576 54.4644 -3.406C54.8044 -3.236 55.201 -3.07167 55.6544 -2.913C56.0397 -2.777 56.4137 -2.607 56.7764 -2.403C57.139 -2.21033 57.4394 -1.95533 57.6774 -1.638C57.9267 -1.32067 58.0514 -0.901333 58.0514 -0.38C58.0514 0.334 57.7737 0.946 57.2184 1.456C56.663 1.95467 55.8584 2.204 54.8044 2.204Z" fill="#90A4AE"/>
<rect x="-246" y="-15" width="375" height="52" fill="white"/>
<rect x="-23.7463" y="-15" width="68" height="52" fill="white"/>
<path d="M16.268 12.1606V8.97277C16.2666 7.55242 15.7625 6.1784 14.8452 5.09404C13.9278 4.00969 12.6562 3.28498 11.2557 3.04826V1.95558C11.2557 1.68971 11.1501 1.43473 10.9621 1.24674C10.7741 1.05874 10.5192 0.953125 10.2533 0.953125C9.98742 0.953125 9.73244 1.05874 9.54445 1.24674C9.35645 1.43473 9.25083 1.68971 9.25083 1.95558V3.04826C7.85034 3.28498 6.57881 4.00969 5.66143 5.09404C4.74404 6.1784 4.23999 7.55242 4.23855 8.97277V12.1606C3.65357 12.3674 3.14688 12.7501 2.78794 13.2562C2.429 13.7623 2.23539 14.367 2.23364 14.9875V16.9924C2.23364 17.2583 2.33926 17.5133 2.52726 17.7013C2.71525 17.8893 2.97023 17.9949 3.2361 17.9949H6.38381C6.61466 18.8443 7.11861 19.5942 7.81792 20.1288C8.51723 20.6635 9.37303 20.9531 10.2533 20.9531C11.1336 20.9531 11.9894 20.6635 12.6887 20.1288C13.388 19.5942 13.8919 18.8443 14.1228 17.9949H17.2705C17.5363 17.9949 17.7913 17.8893 17.9793 17.7013C18.1673 17.5133 18.2729 17.2583 18.2729 16.9924V14.9875C18.2712 14.367 18.0776 13.7623 17.7186 13.2562C17.3597 12.7501 16.853 12.3674 16.268 12.1606ZM6.24347 8.97277C6.24347 7.9093 6.66593 6.88939 7.41792 6.1374C8.1699 5.38541 9.18982 4.96295 10.2533 4.96295C11.3168 4.96295 12.3367 5.38541 13.0887 6.1374C13.8407 6.88939 14.2631 7.9093 14.2631 8.97277V11.9801H6.24347V8.97277ZM10.2533 18.9973C9.90341 18.9952 9.56017 18.9016 9.25768 18.7257C8.9552 18.5499 8.704 18.2979 8.52907 17.9949H11.9775C11.8026 18.2979 11.5514 18.5499 11.2489 18.7257C10.9464 18.9016 10.6032 18.9952 10.2533 18.9973ZM16.268 15.99H4.23855V14.9875C4.23855 14.7216 4.34417 14.4667 4.53217 14.2787C4.72016 14.0907 4.97514 13.9851 5.24101 13.9851H15.2656C15.5314 13.9851 15.7864 14.0907 15.9744 14.2787C16.1624 14.4667 16.268 14.7216 16.268 14.9875V15.99Z" fill="#78909C"/>
</svg>
