<svg xmlns="http://www.w3.org/2000/svg" width="24" height="24" viewBox="0 0 24 24">
  <g id="icon_notification_off" transform="translate(-233 -396)">
    <path id="ic_notifications_off_24px" d="M18.769,17.445,7.545,5.86,5.172,3.414,4,4.586,6.585,7.171V7.18a6.777,6.777,0,0,0-.738,3.157v4.615L4,16.8v.923H16.674l1.846,1.846L19.692,18.4l-.923-.951ZM11.385,20.5a1.84,1.84,0,0,0,1.846-1.846H9.538A1.84,1.84,0,0,0,11.385,20.5Zm5.538-6.757v-3.4c0-2.843-1.514-5.206-4.154-5.834V3.885a1.385,1.385,0,1,0-2.769,0v.628a3.885,3.885,0,0,0-.388.111c-.092.028-.185.065-.277.1H9.326c-.009,0-.009,0-.018.009-.212.083-.425.185-.628.286a.009.009,0,0,0-.009.009Z" transform="translate(233 396.5)" fill="#78909c"/>
    <rect id="Rectangle_1844" data-name="Rectangle 1844" width="24" height="24" transform="translate(233 396)" fill="none"/>
  </g>
</svg>
