<svg width="23" height="24" viewBox="0 0 23 24" fill="none" xmlns="http://www.w3.org/2000/svg">
<path d="M13.4013 1.22096L1.48273 14.7097C0.754376 15.5341 0.832887 16.8044 1.6572 17.5328L7.65222 22.8299C8.47653 23.5583 9.7469 23.4798 10.4753 22.6555L22.3938 9.16668C23.1222 8.34236 23.0437 7.07199 22.2194 6.34364L16.2244 1.04649C15.4 0.318131 14.1297 0.396641 13.4013 1.22096ZM20.8951 7.84239L8.9765 21.3312L2.98149 16.034L4.30578 14.5353L7.30328 17.1838L8.62757 15.6851L5.63006 13.0365L6.95435 11.5378L9.95186 14.1863L11.2761 12.6876L8.27864 10.039L9.60292 8.54026L12.6004 11.1888L13.9247 9.69008L10.9272 7.0415L12.2515 5.54275L15.249 8.19132L16.5733 6.69257L13.5758 4.044L14.9001 2.54524L20.8951 7.84239Z" fill="white"/>
</svg>
