<svg width="21" height="21" viewBox="0 0 21 21" fill="none" xmlns="http://www.w3.org/2000/svg">
<rect width="21" height="21" fill="#E5E5E5"/>
<rect width="375" height="667" transform="translate(-314 -630)" fill="#F5F6FA"/>
<rect x="-314.5" y="-15" width="375" height="52" fill="white"/>
<rect x="-23.4963" y="-15" width="68" height="52" fill="white"/>
<path d="M10.7336 0.953125C8.79043 0.956814 6.89022 1.52503 5.26448 2.58855C3.63874 3.65208 2.35763 5.16502 1.57719 6.94308C0.796755 8.72115 0.550677 10.6876 0.868932 12.6029C1.18719 14.5182 2.05604 16.2998 3.36966 17.7305C4.30786 18.7466 5.44654 19.5575 6.71394 20.1121C7.98135 20.6668 9.35 20.9531 10.7336 20.9531C12.1173 20.9531 13.4859 20.6668 14.7533 20.1121C16.0207 19.5575 17.1594 18.7466 18.0976 17.7305C19.4112 16.2998 20.2801 14.5182 20.5984 12.6029C20.9166 10.6876 20.6705 8.72115 19.8901 6.94308C19.1097 5.16502 17.8285 3.65208 16.2028 2.58855C14.5771 1.52503 12.6769 0.956814 10.7336 0.953125ZM10.7336 18.9717C8.65816 18.9686 6.66483 18.1612 5.17308 16.7194C5.62598 15.6178 6.39644 14.6756 7.38654 14.0125C8.37664 13.3494 9.54169 12.9954 10.7336 12.9954C11.9256 12.9954 13.0906 13.3494 14.0807 14.0125C15.0708 14.6756 15.8413 15.6178 16.2942 16.7194C14.8025 18.1612 12.8091 18.9686 10.7336 18.9717ZM8.72984 8.9614C8.72984 8.56543 8.84736 8.17835 9.06754 7.84911C9.28772 7.51987 9.60067 7.26326 9.96682 7.11173C10.333 6.9602 10.7359 6.92055 11.1246 6.9978C11.5133 7.07505 11.8703 7.26573 12.1505 7.54573C12.4308 7.82572 12.6216 8.18245 12.6989 8.57082C12.7763 8.95918 12.7366 9.36173 12.5849 9.72756C12.4333 10.0934 12.1764 10.4061 11.8469 10.6261C11.5174 10.8461 11.13 10.9635 10.7336 10.9635C10.2022 10.9635 9.69252 10.7525 9.31674 10.3771C8.94095 10.0016 8.72984 9.49238 8.72984 8.9614ZM17.6568 14.9676C16.7616 13.4378 15.3839 12.2478 13.7394 11.5841C14.2495 11.0062 14.5819 10.2934 14.6966 9.53143C14.8114 8.76942 14.7037 7.99051 14.3863 7.28817C14.069 6.58583 13.5556 5.98989 12.9077 5.57186C12.2598 5.15384 11.5049 4.93149 10.7336 4.93149C9.96239 4.93149 9.20751 5.15384 8.55961 5.57186C7.9117 5.98989 7.39828 6.58583 7.08095 7.28817C6.76363 7.99051 6.65588 8.76942 6.77064 9.53143C6.8854 10.2934 7.2178 11.0062 7.72793 11.5841C6.08341 12.2478 4.70566 13.4378 3.81049 14.9676C3.09708 13.7535 2.72014 12.3714 2.71842 10.9635C2.71842 8.83954 3.56288 6.80261 5.06602 5.30076C6.56917 3.79892 8.60787 2.95519 10.7336 2.95519C12.8594 2.95519 14.8981 3.79892 16.4013 5.30076C17.9044 6.80261 18.7489 8.83954 18.7489 10.9635C18.7471 12.3714 18.3702 13.7535 17.6568 14.9676Z" fill="#78909C"/>
</svg>
