<svg width="21" height="21" viewBox="0 0 21 21" fill="none" xmlns="http://www.w3.org/2000/svg">
<rect width="21" height="21" fill="#E5E5E5"/>
<rect width="375" height="1277" transform="translate(-109 -630)" fill="#F5F6FA"/>
<g filter="url(#filter0_d_0_1)">
<rect x="-85" y="-30" width="155.5" height="208" rx="8" fill="white"/>
</g>
<path d="M-67.589 2V-9.118H-60.874V-7.452H-65.617V-4.307H-61.571V-2.641H-65.617V2H-67.589ZM-57.189 2.204C-57.8803 2.204 -58.3733 1.99433 -58.668 1.575C-58.9513 1.15567 -59.093 0.583333 -59.093 -0.142V-10.002H-57.138V-0.0400001C-57.138 0.198 -57.0927 0.368 -57.002 0.47C-56.9113 0.560667 -56.815 0.606 -56.713 0.606C-56.6677 0.606 -56.628 0.606 -56.594 0.606C-56.5487 0.594667 -56.4863 0.583333 -56.407 0.572L-56.152 2.034C-56.2653 2.07933 -56.4127 2.119 -56.594 2.153C-56.764 2.187 -56.9623 2.204 -57.189 2.204ZM-54.4777 2V-6.347H-52.5227V2H-54.4777ZM-53.4917 -7.809C-53.8431 -7.809 -54.1264 -7.911 -54.3417 -8.115C-54.5571 -8.319 -54.6647 -8.591 -54.6647 -8.931C-54.6647 -9.25967 -54.5571 -9.526 -54.3417 -9.73C-54.1264 -9.934 -53.8431 -10.036 -53.4917 -10.036C-53.1404 -10.036 -52.8571 -9.934 -52.6417 -9.73C-52.4264 -9.526 -52.3187 -9.25967 -52.3187 -8.931C-52.3187 -8.591 -52.4264 -8.319 -52.6417 -8.115C-52.8571 -7.911 -53.1404 -7.809 -53.4917 -7.809ZM-47.1215 5.689C-47.7789 5.689 -48.3739 5.60967 -48.9065 5.451C-49.4279 5.29233 -49.8415 5.04867 -50.1475 4.72C-50.4422 4.40267 -50.5895 4.00033 -50.5895 3.513C-50.5895 2.82167 -50.1929 2.22667 -49.3995 1.728V1.66C-49.6149 1.524 -49.7962 1.34267 -49.9435 1.116C-50.0795 0.889333 -50.1475 0.606 -50.1475 0.266C-50.1475 -0.0626668 -50.0569 -0.357334 -49.8755 -0.618C-49.6829 -0.89 -49.4675 -1.111 -49.2295 -1.281V-1.349C-49.5129 -1.56433 -49.7679 -1.86467 -49.9945 -2.25C-50.2099 -2.63533 -50.3175 -3.07167 -50.3175 -3.559C-50.3175 -4.205 -50.1645 -4.749 -49.8585 -5.191C-49.5525 -5.633 -49.1502 -5.96733 -48.6515 -6.194C-48.1415 -6.432 -47.5975 -6.551 -47.0195 -6.551C-46.7929 -6.551 -46.5775 -6.52833 -46.3735 -6.483C-46.1582 -6.449 -45.9655 -6.40367 -45.7955 -6.347H-42.8035V-4.902H-44.3335C-44.1975 -4.74333 -44.0842 -4.53933 -43.9935 -4.29C-43.9029 -4.052 -43.8575 -3.78567 -43.8575 -3.491C-43.8575 -2.879 -43.9992 -2.35767 -44.2825 -1.927C-44.5659 -1.50767 -44.9455 -1.19033 -45.4215 -0.975C-45.8975 -0.759667 -46.4302 -0.652 -47.0195 -0.652C-47.2009 -0.652 -47.3879 -0.669 -47.5805 -0.703C-47.7732 -0.737 -47.9659 -0.793667 -48.1585 -0.873C-48.2832 -0.759667 -48.3852 -0.646333 -48.4645 -0.533C-48.5325 -0.419667 -48.5665 -0.266667 -48.5665 -0.0740001C-48.5665 0.164 -48.4702 0.351 -48.2775 0.487C-48.0735 0.623 -47.7165 0.691 -47.2065 0.691H-45.7275C-44.7189 0.691 -43.9595 0.855333 -43.4495 1.184C-42.9282 1.50133 -42.6675 2.02267 -42.6675 2.748C-42.6675 3.292 -42.8489 3.785 -43.2115 4.227C-43.5742 4.68033 -44.0899 5.03733 -44.7585 5.298C-45.4272 5.55867 -46.2149 5.689 -47.1215 5.689ZM-47.0195 -1.876C-46.6229 -1.876 -46.2829 -2.02333 -45.9995 -2.318C-45.7162 -2.61267 -45.5745 -3.02633 -45.5745 -3.559C-45.5745 -4.08033 -45.7162 -4.48267 -45.9995 -4.766C-46.2715 -5.06067 -46.6115 -5.208 -47.0195 -5.208C-47.4275 -5.208 -47.7732 -5.06633 -48.0565 -4.783C-48.3399 -4.49967 -48.4815 -4.09167 -48.4815 -3.559C-48.4815 -3.02633 -48.3399 -2.61267 -48.0565 -2.318C-47.7732 -2.02333 -47.4275 -1.876 -47.0195 -1.876ZM-46.8155 4.414C-46.1469 4.414 -45.6029 4.278 -45.1835 4.006C-44.7642 3.734 -44.5545 3.42233 -44.5545 3.071C-44.5545 2.74233 -44.6849 2.52133 -44.9455 2.408C-45.1949 2.29467 -45.5575 2.238 -46.0335 2.238H-47.1725C-47.6259 2.238 -48.0055 2.19833 -48.3115 2.119C-48.7422 2.44767 -48.9575 2.816 -48.9575 3.224C-48.9575 3.598 -48.7649 3.887 -48.3795 4.091C-47.9942 4.30633 -47.4729 4.414 -46.8155 4.414ZM-41.1965 2V-10.002H-39.2415V-6.908L-39.3095 -5.293C-38.9582 -5.62167 -38.5672 -5.91067 -38.1365 -6.16C-37.7058 -6.42067 -37.2072 -6.551 -36.6405 -6.551C-35.7452 -6.551 -35.0935 -6.262 -34.6855 -5.684C-34.2775 -5.106 -34.0735 -4.29 -34.0735 -3.236V2H-36.0285V-2.981C-36.0285 -3.67233 -36.1305 -4.15967 -36.3345 -4.443C-36.5385 -4.72633 -36.8728 -4.868 -37.3375 -4.868C-37.7002 -4.868 -38.0232 -4.77733 -38.3065 -4.596C-38.5785 -4.426 -38.8902 -4.171 -39.2415 -3.831V2H-41.1965ZM-28.776 2.204C-29.7393 2.204 -30.425 1.92633 -30.833 1.371C-31.2297 0.804333 -31.428 0.0733332 -31.428 -0.822V-4.8H-32.618V-6.262L-31.326 -6.347L-31.088 -8.625H-29.456V-6.347H-27.331V-4.8H-29.456V-0.822C-29.456 0.152667 -29.065 0.64 -28.283 0.64C-28.1357 0.64 -27.9827 0.623 -27.824 0.589C-27.6653 0.543667 -27.5293 0.498333 -27.416 0.453L-27.076 1.898C-27.3027 1.97733 -27.5633 2.04533 -27.858 2.102C-28.1413 2.17 -28.4473 2.204 -28.776 2.204ZM-17.5641 2.204C-18.4934 2.204 -19.3378 1.983 -20.0971 1.541C-20.8564 1.099 -21.4628 0.453 -21.9161 -0.397C-22.3581 -1.25833 -22.5791 -2.301 -22.5791 -3.525C-22.5791 -4.73767 -22.3524 -5.77467 -21.8991 -6.636C-21.4344 -7.50867 -20.8168 -8.17167 -20.0461 -8.625C-19.2754 -9.08967 -18.4254 -9.322 -17.4961 -9.322C-16.7934 -9.322 -16.1701 -9.18033 -15.6261 -8.897C-15.0821 -8.61367 -14.6344 -8.285 -14.2831 -7.911L-15.3371 -6.636C-15.6204 -6.93067 -15.9378 -7.163 -16.2891 -7.333C-16.6291 -7.51433 -17.0144 -7.605 -17.4451 -7.605C-18.0458 -7.605 -18.5841 -7.44067 -19.0601 -7.112C-19.5248 -6.79467 -19.8931 -6.33567 -20.1651 -5.735C-20.4258 -5.13433 -20.5561 -4.41467 -20.5561 -3.576C-20.5561 -2.30667 -20.2784 -1.30933 -19.7231 -0.584C-19.1678 0.13 -18.4254 0.487 -17.4961 0.487C-16.9974 0.487 -16.5554 0.385 -16.1701 0.181C-15.7848 -0.0343334 -15.4334 -0.312 -15.1161 -0.652L-14.0621 0.589C-14.5154 1.11033 -15.0368 1.51267 -15.6261 1.796C-16.2041 2.068 -16.8501 2.204 -17.5641 2.204ZM-10.4722 2.204C-11.1635 2.204 -11.6565 1.99433 -11.9512 1.575C-12.2345 1.15567 -12.3762 0.583333 -12.3762 -0.142V-10.002H-10.4212V-0.0400001C-10.4212 0.198 -10.3759 0.368 -10.2852 0.47C-10.1945 0.560667 -10.0982 0.606 -9.99619 0.606C-9.95085 0.606 -9.91119 0.606 -9.87719 0.606C-9.83185 0.594667 -9.76952 0.583333 -9.69019 0.572L-9.43519 2.034C-9.54852 2.07933 -9.69585 2.119 -9.87719 2.153C-10.0472 2.187 -10.2455 2.204 -10.4722 2.204ZM-7.76095 2V-6.347H-5.80595V2H-7.76095ZM-6.77495 -7.809C-7.12629 -7.809 -7.40962 -7.911 -7.62495 -8.115C-7.84029 -8.319 -7.94795 -8.591 -7.94795 -8.931C-7.94795 -9.25967 -7.84029 -9.526 -7.62495 -9.73C-7.40962 -9.934 -7.12629 -10.036 -6.77495 -10.036C-6.42362 -10.036 -6.14029 -9.934 -5.92495 -9.73C-5.70962 -9.526 -5.60195 -9.25967 -5.60195 -8.931C-5.60195 -8.591 -5.70962 -8.319 -5.92495 -8.115C-6.14029 -7.911 -6.42362 -7.809 -6.77495 -7.809ZM-3.31173 2V-6.347H-1.69673L-1.56073 -5.208H-1.49273C-1.1414 -5.582 -0.761734 -5.89933 -0.353734 -6.16C0.0655991 -6.42067 0.535932 -6.551 1.05727 -6.551C1.66927 -6.551 2.1566 -6.415 2.51927 -6.143C2.89327 -5.88233 3.1766 -5.51967 3.36927 -5.055C3.76593 -5.48567 4.1796 -5.84267 4.61027 -6.126C5.05227 -6.40933 5.53393 -6.551 6.05527 -6.551C6.93927 -6.551 7.59093 -6.262 8.01027 -5.684C8.4296 -5.106 8.63927 -4.29 8.63927 -3.236V2H6.66727V-2.981C6.66727 -3.67233 6.5596 -4.15967 6.34427 -4.443C6.14027 -4.72633 5.82293 -4.868 5.39227 -4.868C4.87093 -4.868 4.28727 -4.52233 3.64127 -3.831V2H1.68627V-2.981C1.68627 -3.67233 1.5786 -4.15967 1.36327 -4.443C1.15927 -4.72633 0.836266 -4.868 0.394266 -4.868C-0.127068 -4.868 -0.710734 -4.52233 -1.35673 -3.831V2H-3.31173ZM15.0614 2.204C14.2681 2.204 13.5087 1.84133 12.7834 1.116H12.7324L12.5624 2H11.0154V-10.002H12.9704V-6.908L12.9194 -5.514C13.2707 -5.82 13.6561 -6.06933 14.0754 -6.262C14.4947 -6.45467 14.9141 -6.551 15.3334 -6.551C16.3761 -6.551 17.1864 -6.16567 17.7644 -5.395C18.3424 -4.62433 18.6314 -3.59867 18.6314 -2.318C18.6314 -1.366 18.4614 -0.55 18.1214 0.13C17.7814 0.798667 17.3394 1.31433 16.7954 1.677C16.2627 2.02833 15.6847 2.204 15.0614 2.204ZM14.6534 0.589C15.2087 0.589 15.6734 0.345333 16.0474 -0.142C16.4214 -0.629334 16.6084 -1.34333 16.6084 -2.284C16.6084 -3.12267 16.4667 -3.77433 16.1834 -4.239C15.9001 -4.70367 15.4411 -4.936 14.8064 -4.936C14.2171 -4.936 13.6051 -4.62433 12.9704 -4.001V-0.108C13.2651 0.141333 13.5541 0.322667 13.8374 0.436C14.1321 0.538 14.4041 0.589 14.6534 0.589ZM24.1645 2.204C23.3938 2.204 22.6968 2.034 22.0735 1.694C21.4502 1.34267 20.9572 0.844 20.5945 0.198C20.2318 -0.459333 20.0505 -1.247 20.0505 -2.165C20.0505 -3.07167 20.2318 -3.85367 20.5945 -4.511C20.9685 -5.16833 21.4502 -5.67267 22.0395 -6.024C22.6288 -6.37533 23.2465 -6.551 23.8925 -6.551C24.6518 -6.551 25.2865 -6.381 25.7965 -6.041C26.3065 -5.71233 26.6918 -5.24767 26.9525 -4.647C27.2132 -4.05767 27.3435 -3.372 27.3435 -2.59C27.3435 -2.182 27.3152 -1.86467 27.2585 -1.638H21.9545C22.0452 -0.901333 22.3115 -0.329 22.7535 0.0789999C23.1955 0.487 23.7508 0.691 24.4195 0.691C24.7822 0.691 25.1165 0.64 25.4225 0.538C25.7398 0.424667 26.0515 0.271667 26.3575 0.0789999L27.0205 1.303C26.6238 1.56367 26.1818 1.779 25.6945 1.949C25.2072 2.119 24.6972 2.204 24.1645 2.204ZM21.9375 -2.964H25.6435C25.6435 -3.61 25.5018 -4.11433 25.2185 -4.477C24.9352 -4.851 24.5102 -5.038 23.9435 -5.038C23.4562 -5.038 23.0198 -4.85667 22.6345 -4.494C22.2605 -4.14267 22.0282 -3.63267 21.9375 -2.964ZM32.1347 2.204C31.0921 2.204 30.2591 1.81867 29.6357 1.048C29.0124 0.277333 28.7007 -0.793667 28.7007 -2.165C28.7007 -3.07167 28.8651 -3.85367 29.1937 -4.511C29.5337 -5.16833 29.9757 -5.67267 30.5197 -6.024C31.0637 -6.37533 31.6361 -6.551 32.2367 -6.551C32.7127 -6.551 33.1151 -6.466 33.4437 -6.296C33.7837 -6.13733 34.1124 -5.91633 34.4297 -5.633L34.3617 -6.976V-10.002H36.3167V2H34.7017L34.5657 1.099H34.4977C34.1917 1.405 33.8347 1.66567 33.4267 1.881C33.0187 2.09633 32.5881 2.204 32.1347 2.204ZM32.6107 0.589C33.2341 0.589 33.8177 0.277333 34.3617 -0.346V-4.239C34.0784 -4.49967 33.7951 -4.681 33.5117 -4.783C33.2284 -4.885 32.9451 -4.936 32.6617 -4.936C32.1291 -4.936 31.6701 -4.69233 31.2847 -4.205C30.9107 -3.729 30.7237 -3.05467 30.7237 -2.182C30.7237 -1.28667 30.8881 -0.601 31.2167 -0.125C31.5454 0.351 32.0101 0.589 32.6107 0.589Z" fill="#90A4AE"/>
<rect x="5.66455" y="14" width="11.4983" height="90.9999" rx="2" fill="white"/>
<rect x="-109" y="-15" width="375" height="52" fill="white"/>
<rect x="-24.2463" y="-15" width="68" height="52" fill="white"/>
<path fill-rule="evenodd" clip-rule="evenodd" d="M1.23364 0.953125H19.2336C19.4989 0.953125 19.7532 1.05848 19.9408 1.24602C20.1283 1.43355 20.2336 1.68791 20.2336 1.95312V19.9531C20.2336 20.2183 20.1283 20.4727 19.9408 20.6602C19.7532 20.8478 19.4989 20.9531 19.2336 20.9531H13.2336H7.23364H1.23364C0.968426 20.9531 0.714072 20.8478 0.526536 20.6602C0.338999 20.4727 0.233643 20.2183 0.233643 19.9531V1.95312C0.233643 1.68791 0.338999 1.43355 0.526536 1.24602C0.714072 1.05848 0.968426 0.953125 1.23364 0.953125ZM8.23364 18.9531H12.2336V11.9531H8.23364V18.9531ZM6.23364 11.9531V18.9531H2.23364V11.9531H6.23364ZM7.23364 9.95312H12.2336V2.95312H2.23364V9.95312H7.23364ZM14.2336 10.8698V18.9531H18.2336V2.95312H14.2336V10.8698Z" fill="#78909C"/>
<defs>
<filter id="filter0_d_0_1" x="-117" y="-54" width="219.5" height="272" filterUnits="userSpaceOnUse" color-interpolation-filters="sRGB">
<feFlood flood-opacity="0" result="BackgroundImageFix"/>
<feColorMatrix in="SourceAlpha" type="matrix" values="0 0 0 0 0 0 0 0 0 0 0 0 0 0 0 0 0 0 127 0" result="hardAlpha"/>
<feOffset dy="8"/>
<feGaussianBlur stdDeviation="16"/>
<feComposite in2="hardAlpha" operator="out"/>
<feColorMatrix type="matrix" values="0 0 0 0 0 0 0 0 0 0 0 0 0 0 0 0 0 0 0.08 0"/>
<feBlend mode="normal" in2="BackgroundImageFix" result="effect1_dropShadow_0_1"/>
<feBlend mode="normal" in="SourceGraphic" in2="effect1_dropShadow_0_1" result="shape"/>
</filter>
</defs>
</svg>
