<svg width="24" height="24" viewBox="0 0 24 24" fill="none" xmlns="http://www.w3.org/2000/svg">
<path d="M20.6367 6.24219H19.9492V5.94141C19.9492 5.77043 19.8813 5.60651 19.7604 5.48568L15.4635 1.1888C15.3427 1.06789 15.1787 1 15.0078 1H4.69531C4.33936 1 4.05078 1.28858 4.05078 1.64453V5.38281H3.36328C2.06017 5.38281 1 6.44298 1 7.74609V20.6367C1 21.9398 2.06017 23 3.36328 23H20.6367C21.9398 23 23 21.9398 23 20.6367V8.60547C23 7.30236 21.9398 6.24219 20.6367 6.24219ZM20.6367 7.15225C21.229 7.15225 21.7109 7.63414 21.7109 8.22647V9.5C21.3884 9.33466 21.0234 9.24068 20.6367 9.24068H19.9492V7.15225H20.6367ZM15.5 2.5L18.6602 5.9047L15.7148 5.71484C15.5964 5.71484 15.5 5.61846 15.5 5.5V2.5ZM5.33984 2.28906H14.3633V5.08203C14.3633 5.91129 15.0379 6.58594 15.8672 6.58594H18.6602V8.82031H12.3984L11.3328 6.68919C10.9299 5.88336 10.1199 5.38281 9.21902 5.38281H5.33984V2.28906ZM21.7109 20.6367C21.7109 21.229 21.229 21.7109 20.6367 21.7109H3.36328C2.77096 21.7109 2.28906 21.229 2.28906 20.6367V7.74609C2.28906 7.15377 2.77096 6.67188 3.36328 6.67188H9.21902C9.62851 6.67188 9.99671 6.89939 10.1798 7.26566L11.4235 9.75308C11.5327 9.97145 11.7559 10.1094 12 10.1094H20.6367C21.229 10.1094 21.7109 10.5913 21.7109 11.1836V20.6367Z" fill="#78909C" stroke="#78909C" stroke-width="0.7"/>
<path d="M13.7336 13.9766V14.1766H13.9336H15.4375C15.683 14.1766 15.882 14.3756 15.882 14.6211V17.1992C15.882 17.4447 15.683 17.6438 15.4375 17.6438H13.9336H13.7336V17.8438V19.3477C13.7336 19.5932 13.5346 19.7922 13.2891 19.7922H10.7109C10.4654 19.7922 10.2664 19.5932 10.2664 19.3477V17.8438V17.6438H10.0664H8.5625C8.317 17.6438 8.11797 17.4447 8.11797 17.1992V14.6211C8.11797 14.3756 8.317 14.1766 8.5625 14.1766H10.0664H10.2664V13.9766V12.4727C10.2664 12.2272 10.4654 12.0281 10.7109 12.0281H13.2891C13.5346 12.0281 13.7336 12.2272 13.7336 12.4727V13.9766ZM14.793 16.7547H14.993V16.5547V15.2656V15.0656H14.793H13.2891C13.0436 15.0656 12.8445 14.8666 12.8445 14.6211V13.1172V12.9172H12.6445H11.3555H11.1555V13.1172V14.6211C11.1555 14.8666 10.9564 15.0656 10.7109 15.0656H9.20703H9.00703V15.2656V16.5547V16.7547H9.20703H10.7109C10.9564 16.7547 11.1555 16.9537 11.1555 17.1992V18.7031V18.9031H11.3555H12.6445H12.8445V18.7031V17.1992C12.8445 16.9537 13.0436 16.7547 13.2891 16.7547H14.793Z" fill="#78909C" stroke="#78909C" stroke-width="0.4"/>
</svg>
