<svg xmlns="http://www.w3.org/2000/svg" width="14" height="14" viewBox="0 0 14 14">
  <g id="icon_prescription" transform="translate(13033 16678)">
    <g id="Group_2095" data-name="Group 2095" transform="translate(-13789.149 -16962)">
      <path id="Path_624" data-name="Path 624" d="M766.1,294.725a.157.157,0,0,1,0-.232q1.214-1.618,2.419-3.242c.029-.039.057-.08.1-.137-.058,0-.1-.008-.143-.008-.634,0-1.267,0-1.9,0a.237.237,0,0,0-.214.108c-.482.64-.969,1.277-1.467,1.933l-1.778-2.31c.124-.03.229-.052.333-.081a3.128,3.128,0,0,0,2.323-2.811,3.772,3.772,0,0,0-.4-2.183,3.29,3.29,0,0,0-2.387-1.675c-.173-.034-.349-.056-.524-.083h-5.3c0,.5,0,.993,0,1.49q0,4.79,0,9.581v.16h1.968V291.06c.058,0,.1-.01.145-.01.574,0,1.148,0,1.722,0a.241.241,0,0,1,.169.076q1.292,1.7,2.575,3.415c.013.018.024.037.043.066L761.2,298h2.3l1.41-1.9,1.434,1.9h2.27c-.069-.1-.135-.2-.209-.3Q767.252,296.212,766.1,294.725Zm-4.281-5.418c-.856,0-1.712,0-2.569,0-.036,0-.072,0-.118-.005V285.75a.579.579,0,0,1,.085-.013c.938,0,1.877-.016,2.815.016a1.679,1.679,0,0,1,1.554.964,1.769,1.769,0,0,1-1.359,2.559A2.639,2.639,0,0,1,761.822,289.307Z" transform="translate(0)" />
    </g>
    <rect id="Rectangle_1942" data-name="Rectangle 1942" width="14" height="14" transform="translate(-13033 -16678)" fill="none"/>
  </g>
</svg>
