<svg width="19" height="30" viewBox="0 0 19 30" fill="none" xmlns="http://www.w3.org/2000/svg">
<path d="M16.8353 29.8528C16.0576 30.2232 15.2582 29.881 14.8032 28.9732C13.8132 26.9996 12.8296 25.026 11.8504 23.048C11.7226 22.7924 11.5622 22.5953 11.3283 22.4263C10.2537 21.6507 9.18784 20.8643 8.12413 20.0757C6.75928 19.0662 6.17868 17.736 6.47764 16.0462C6.72678 14.6445 6.97375 13.245 7.21423 11.8433C7.27056 11.5162 7.42437 11.2605 7.67351 11.0395C8.21512 10.5629 8.73939 10.0668 9.27233 9.57938C9.23984 9.53821 9.20517 9.49922 9.17051 9.45806C8.19562 10.0473 7.22506 10.6409 6.24367 11.2194C6.02486 11.3472 5.97937 11.553 5.91221 11.7523C5.47892 13.0413 5.05863 14.3347 4.62535 15.6237C4.38704 16.33 3.92559 16.6224 3.35149 16.4534C2.74489 16.2736 2.48709 15.758 2.64957 15.0431C2.9832 13.5808 3.31466 12.1184 3.65046 10.6561C3.80211 9.9975 4.13574 9.44722 4.67734 9.03994C5.86238 8.14954 7.04091 7.24614 8.25411 6.3969C9.88976 5.24869 12.028 5.95495 12.5848 7.80074C12.7863 8.46583 12.6606 9.13093 12.5285 9.79169C12.1363 11.748 11.7269 13.6999 11.3564 15.6605C11.2633 16.1566 11.116 16.278 10.6545 16.018C10.2516 15.7905 9.80744 15.6324 9.32649 15.5327C10.4574 16.7112 11.5644 17.9158 12.7256 19.0618C13.7265 20.0497 14.4848 21.1719 15.0415 22.4653C15.8041 24.2374 16.6338 25.9814 17.4311 27.7384C17.8492 28.6634 17.6109 29.491 16.8353 29.8593V29.8528Z" fill="#2962FF"/>
<path d="M8.61804 22.4372C8.59855 22.4697 8.58771 22.5087 8.57472 22.5455C7.29869 25.91 7.8208 25.2557 4.8333 27.2857C3.96673 27.8728 3.10016 28.4599 2.22925 29.0426C1.46017 29.5582 0.775581 29.4781 0.309799 28.8282C-0.188479 28.1327 -0.0844901 27.3268 0.613099 26.7852C2.00828 25.702 3.41429 24.6318 4.82463 23.5681C5.1041 23.3558 5.27958 23.1391 5.33591 22.7622C5.49406 21.6898 5.71503 20.6282 5.93817 19.415C6.57294 20.5286 7.52833 21.081 8.4014 21.7179C8.68737 21.9238 8.81735 22.1122 8.61588 22.435L8.61804 22.4372Z" fill="#2962FF"/>
<path d="M14.578 2.52396C14.5715 3.91697 13.445 5.00668 12.0476 5.02185C10.516 5.03918 9.40892 3.60284 9.48475 2.46763C9.57357 1.17211 10.5506 -0.0107583 12.0715 7.38227e-05C13.4796 0.00873953 14.5845 1.11578 14.578 2.52396V2.52396Z" fill="#2962FF"/>
<path d="M17.7496 16.7178C17.3856 17.1381 16.7877 17.1641 16.2634 16.7568C15.2972 16.005 14.3396 15.2403 13.3799 14.4799C13.0137 14.1896 12.8578 13.8646 12.9856 13.3512C13.2477 12.3113 13.421 11.2476 13.6593 10.0474C14.071 10.8749 14.4371 11.5682 14.7577 12.2809C14.9722 12.7619 15.2755 13.1475 15.6763 13.4876C16.324 14.0358 16.9501 14.612 17.5719 15.1905C18.081 15.6649 18.1395 16.265 17.7496 16.7156V16.7178Z" fill="#2962FF"/>
</svg>
