<svg width="21" height="20" viewBox="0 0 21 20" fill="none" xmlns="http://www.w3.org/2000/svg">
<path fill-rule="evenodd" clip-rule="evenodd" d="M19.5519 4.75937C19.8295 4.90224 20.004 5.18828 20.004 5.5005V13.8356C20.004 14.1478 19.8295 14.4338 19.5519 14.5767C19.2743 14.7195 18.9401 14.6953 18.686 14.5138L12.8515 10.3463C12.6324 10.1898 12.5024 9.93721 12.5024 9.66803C12.5024 9.39885 12.6324 9.14624 12.8515 8.98978L18.686 4.82225C18.9401 4.64077 19.2743 4.61651 19.5519 4.75937ZM14.77 9.66803L18.337 12.2159V7.12016L14.77 9.66803Z" fill="#2962FF"/>
<path fill-rule="evenodd" clip-rule="evenodd" d="M2.50052 4.66701C2.04018 4.66701 1.66701 5.04018 1.66701 5.50052V13.8356C1.66701 14.2959 2.04018 14.6691 2.50052 14.6691H11.6691C12.1294 14.6691 12.5026 14.2959 12.5026 13.8356V5.50052C12.5026 5.04018 12.1294 4.66701 11.6691 4.66701H2.50052ZM0 5.50052C0 4.11952 1.11952 3 2.50052 3H11.6691C13.0501 3 14.1696 4.11952 14.1696 5.50052V13.8356C14.1696 15.2166 13.0501 16.3361 11.6691 16.3361H2.50052C1.11952 16.3361 0 15.2166 0 13.8356V5.50052Z" fill="#2962FF"/>
</svg>
