<svg width="21" height="21" viewBox="0 0 21 21" fill="none" xmlns="http://www.w3.org/2000/svg">
<rect width="21" height="21" fill="#E5E5E5"/>
<g clip-path="url(#clip0_0_1)">
<rect width="375" height="667" transform="translate(-246 -630)" fill="#F7F8FA"/>
<rect x="-246" y="-15" width="375" height="52" fill="white"/>
<rect x="-23.7461" y="-15" width="68" height="52" fill="white"/>
<path d="M16.2683 12.1606V8.97277C16.2668 7.55242 15.7628 6.1784 14.8454 5.09404C13.928 4.00969 12.6565 3.28498 11.256 3.04826V1.95558C11.256 1.68971 11.1504 1.43473 10.9624 1.24674C10.7744 1.05874 10.5194 0.953125 10.2535 0.953125C9.98767 0.953125 9.73269 1.05874 9.54469 1.24674C9.35669 1.43473 9.25108 1.68971 9.25108 1.95558V3.04826C7.85059 3.28498 6.57906 4.00969 5.66167 5.09404C4.74428 6.1784 4.24024 7.55242 4.2388 8.97277V12.1606C3.65382 12.3674 3.14712 12.7501 2.78818 13.2562C2.42924 13.7623 2.23563 14.367 2.23389 14.9875V16.9924C2.23389 17.2583 2.3395 17.5133 2.5275 17.7013C2.7155 17.8893 2.97047 17.9949 3.23634 17.9949H6.38405C6.6149 18.8443 7.11886 19.5942 7.81816 20.1288C8.51747 20.6635 9.37327 20.9531 10.2535 20.9531C11.1338 20.9531 11.9896 20.6635 12.6889 20.1288C13.3882 19.5942 13.8922 18.8443 14.123 17.9949H17.2707C17.5366 17.9949 17.7916 17.8893 17.9796 17.7013C18.1676 17.5133 18.2732 17.2583 18.2732 16.9924V14.9875C18.2714 14.367 18.0778 13.7623 17.7189 13.2562C17.3599 12.7501 16.8533 12.3674 16.2683 12.1606ZM6.24371 8.97277C6.24371 7.9093 6.66617 6.88939 7.41816 6.1374C8.17015 5.38541 9.19006 4.96295 10.2535 4.96295C11.317 4.96295 12.3369 5.38541 13.0889 6.1374C13.8409 6.88939 14.2634 7.9093 14.2634 8.97277V11.9801H6.24371V8.97277ZM10.2535 18.9973C9.90365 18.9952 9.56041 18.9016 9.25793 18.7257C8.95544 18.5499 8.70425 18.2979 8.52931 17.9949H11.9778C11.8028 18.2979 11.5516 18.5499 11.2491 18.7257C10.9467 18.9016 10.6034 18.9952 10.2535 18.9973ZM16.2683 15.99H4.2388V14.9875C4.2388 14.7216 4.34441 14.4667 4.53241 14.2787C4.72041 14.0907 4.97539 13.9851 5.24125 13.9851H15.2658C15.5317 13.9851 15.7867 14.0907 15.9747 14.2787C16.1627 14.4667 16.2683 14.7216 16.2683 14.9875V15.99Z" fill="#2962FF"/>
</g>
<defs>
<clipPath id="clip0_0_1">
<rect width="375" height="667" fill="white" transform="translate(-246 -630)"/>
</clipPath>
</defs>
</svg>
