<svg width="21" height="21" viewBox="0 0 21 21" fill="none" xmlns="http://www.w3.org/2000/svg">
<rect width="21" height="21" fill="#E5E5E5"/>
<g clip-path="url(#clip0_0_1)">
<rect width="375" height="1120" transform="translate(-108 -630)" fill="#F7F8FA"/>
<rect x="-109" y="-302.5" width="376" height="671" fill="white" stroke="#E0E0E0"/>
<path d="M-43.15 22H-42.025V16.585C-42.025 15.715 -42.115 14.545 -42.175 13.675H-42.115L-41.335 15.91L-39.475 21.01H-38.65L-36.79 15.91L-36.01 13.675H-35.95C-36.01 14.545 -36.115 15.715 -36.115 16.585V22H-34.945V12.16H-36.46L-38.32 17.41C-38.56 18.085 -38.755 18.79 -38.995 19.465H-39.055C-39.295 18.79 -39.52 18.085 -39.76 17.41L-41.65 12.16H-43.15V22ZM-29.5366 22.18C-27.7516 22.18 -26.1616 20.785 -26.1616 18.37C-26.1616 15.925 -27.7516 14.53 -29.5366 14.53C-31.3216 14.53 -32.9116 15.925 -32.9116 18.37C-32.9116 20.785 -31.3216 22.18 -29.5366 22.18ZM-29.5366 21.16C-30.7816 21.16 -31.6366 20.035 -31.6366 18.37C-31.6366 16.69 -30.7816 15.55 -29.5366 15.55C-28.2766 15.55 -27.4366 16.69 -27.4366 18.37C-27.4366 20.035 -28.2766 21.16 -29.5366 21.16ZM-21.0167 22.18C-19.3517 22.18 -17.8667 20.725 -17.8667 18.235C-17.8667 15.985 -18.8717 14.53 -20.7617 14.53C-21.5717 14.53 -22.3817 14.965 -23.0417 15.55L-23.0117 14.23V11.32H-24.2417V22H-23.2517L-23.1467 21.25H-23.1017C-22.4567 21.835 -21.6917 22.18 -21.0167 22.18ZM-21.2267 21.145C-21.7067 21.145 -22.3667 20.935 -23.0117 20.38V16.555C-22.3217 15.91 -21.6767 15.565 -21.0617 15.565C-19.6817 15.565 -19.1417 16.645 -19.1417 18.25C-19.1417 20.05 -20.0267 21.145 -21.2267 21.145ZM-15.9507 22H-14.7207V14.71H-15.9507V22ZM-15.3207 13.21C-14.8407 13.21 -14.4657 12.88 -14.4657 12.415C-14.4657 11.935 -14.8407 11.62 -15.3207 11.62C-15.8007 11.62 -16.1757 11.935 -16.1757 12.415C-16.1757 12.88 -15.8007 13.21 -15.3207 13.21ZM-10.9543 22.18C-10.6243 22.18 -10.4143 22.135 -10.2493 22.06L-10.4143 21.13C-10.5493 21.16 -10.6093 21.16 -10.6843 21.16C-10.8643 21.16 -11.0293 21.01 -11.0293 20.62V11.32H-12.2593V20.53C-12.2593 21.595 -11.8843 22.18 -10.9543 22.18ZM-8.43602 22H-7.20602V14.71H-8.43602V22ZM-7.80602 13.21C-7.32602 13.21 -6.95102 12.88 -6.95102 12.415C-6.95102 11.935 -7.32602 11.62 -7.80602 11.62C-8.28602 11.62 -8.66102 11.935 -8.66102 12.415C-8.66102 12.88 -8.28602 13.21 -7.80602 13.21ZM-2.44961 22.18C-1.99961 22.18 -1.50461 22.045 -1.09961 21.91L-1.33961 20.98C-1.57961 21.07 -1.90961 21.175 -2.16461 21.175C-3.00461 21.175 -3.28961 20.665 -3.28961 19.765V15.715H-1.32461V14.71H-3.28961V12.67H-4.32461L-4.47461 14.71L-5.61461 14.785V15.715H-4.53461V19.75C-4.53461 21.19 -4.00961 22.18 -2.44961 22.18ZM0.44375 25.135C1.91375 25.135 2.66375 24.04 3.17375 22.6L5.91875 14.71H4.71875L3.41375 18.745C3.21875 19.39 3.00875 20.14 2.79875 20.8H2.73875C2.51375 20.125 2.25875 19.375 2.03375 18.745L0.54875 14.71H-0.72625L2.19875 22.015L2.03375 22.555C1.73375 23.455 1.20875 24.115 0.38375 24.115C0.20375 24.115 -0.0212499 24.055 -0.17125 24.01L-0.41125 24.985C-0.17125 25.075 0.11375 25.135 0.44375 25.135Z" fill="#263238"/>
<rect x="-108.5" y="-15" width="375" height="52" fill="white"/>
<rect x="-23.7461" y="-15" width="68" height="52" fill="white"/>
<path fill-rule="evenodd" clip-rule="evenodd" d="M1.73389 0.953125H19.7339C19.9991 0.953125 20.2535 1.05848 20.441 1.24602C20.6285 1.43355 20.7339 1.68791 20.7339 1.95312V19.9531C20.7339 20.2183 20.6285 20.4727 20.441 20.6602C20.2535 20.8478 19.9991 20.9531 19.7339 20.9531H13.7339H7.73389H1.73389C1.46867 20.9531 1.21432 20.8478 1.02678 20.6602C0.839244 20.4727 0.733887 20.2183 0.733887 19.9531V1.95312C0.733887 1.68791 0.839244 1.43355 1.02678 1.24602C1.21432 1.05848 1.46867 0.953125 1.73389 0.953125ZM8.73389 18.9531H12.7339V11.9531H8.73389V18.9531ZM6.73389 11.9531V18.9531H2.73389V11.9531H6.73389ZM7.73389 9.95312H12.7339V2.95312H2.73389V9.95312H7.73389ZM14.7339 10.8698V18.9531H18.7339V2.95312H14.7339V10.8698Z" fill="#2962FF"/>
</g>
<defs>
<clipPath id="clip0_0_1">
<rect width="375" height="1120" fill="white" transform="translate(-108 -630)"/>
</clipPath>
</defs>
</svg>
