<svg width="36" height="35" viewBox="0 0 36 35" fill="none" xmlns="http://www.w3.org/2000/svg">
<path d="M9.31687 0C4.52163 0 0.631836 3.8898 0.631836 8.6883V26.0584C0.631836 30.8569 4.52163 34.7434 9.31687 34.7434C14.1121 34.7434 18.0019 30.8536 18.0019 26.0584V8.6883C18.0052 3.8898 14.1154 0 9.31687 0ZM15.8315 26.0551C15.8315 29.654 12.9158 32.5697 9.31687 32.5697C5.71799 32.5697 2.80228 29.654 2.80228 26.0551V17.3701H15.8347V26.0551H15.8315ZM24.5165 13.0325C22.9704 13.0325 21.5027 13.3593 20.1691 13.9444V26.297C20.1691 26.297 20.1691 26.3199 20.1691 26.3329L31.1749 15.3271C29.3346 13.8954 27.0302 13.0325 24.5165 13.0325ZM32.7439 16.8177L19.4467 30.1149C19.1002 31.0105 18.6328 31.844 18.0673 32.6024C19.8716 33.9393 22.0976 34.7401 24.5132 34.7401C30.5081 34.7401 35.3687 29.8795 35.3687 23.8847C35.3687 21.1814 34.375 18.7168 32.7406 16.8177H32.7439Z" fill="url(#paint0_linear_3914_3280)"/>
<defs>
<linearGradient id="paint0_linear_3914_3280" x1="18.0019" y1="34.7434" x2="18.0019" y2="0" gradientUnits="userSpaceOnUse">
<stop stop-color="#2962FF"/>
<stop offset="1" stop-color="#BBDEFB"/>
</linearGradient>
</defs>
</svg>
