<svg width="26" height="22" viewBox="0 0 26 22" fill="none" xmlns="http://www.w3.org/2000/svg">
<path d="M12.6655 22L12.6738 20.95C12.519 20.9488 12.417 20.9983 12.386 21.0153C12.3702 21.0239 12.3623 21.0298 12.3623 21.0298C12.3623 21.0298 12.3692 21.0246 12.3833 21.0115C12.407 20.9893 12.4366 20.9582 12.4743 20.915L11.8977 21.4086M12.6655 22C12.3941 21.9955 12.1106 21.6602 11.9405 21.459C11.9253 21.441 11.911 21.4241 11.8977 21.4086M12.6655 22C12.9386 22.0022 13.2022 21.6841 13.3742 21.4765C13.3944 21.4521 13.4133 21.4292 13.4308 21.4086L12.6953 20.7257C12.7109 20.7439 12.7294 20.7658 12.7458 20.7852C12.7531 20.7938 12.76 20.8019 12.7659 20.809C12.7887 20.8358 12.81 20.8607 12.8314 20.8849C12.8448 20.9001 12.8576 20.9142 12.8696 20.9272C12.8765 20.9346 12.8831 20.9417 12.8895 20.9484C12.9087 20.9685 12.9259 20.9855 12.9414 20.9997C12.9609 21.0176 12.9704 21.0243 12.97 21.0241C12.9697 21.0239 12.965 21.0207 12.9559 21.0156C12.9358 21.0043 12.8385 20.9527 12.6827 20.9501L12.6655 22ZM11.8977 21.4086C10.634 19.9326 8.54776 18.1536 6.78814 16.6921L12.4772 20.9116L11.8977 21.4086ZM11.6926 4.52744L12.6655 6.92345L13.6383 4.52744C14.546 2.29195 16.452 1.05044 18.6752 1.05C21.7633 1.05058 24.2786 3.26749 24.2786 6.99724C24.2786 9.38194 23.2556 11.1359 21.9376 12.5341C21.2726 13.2396 20.5382 13.8475 19.8248 14.3951C19.5743 14.5874 19.3127 14.782 19.0558 14.9731C18.6214 15.2963 18.2005 15.6095 17.8696 15.8843L17.869 15.8848C16.1388 17.3238 14.0004 19.1421 12.6643 20.6896C11.33 19.1416 9.19159 17.3234 7.45901 15.8843L7.45888 15.8842C7.12835 15.6098 6.70769 15.297 6.27347 14.974C6.01665 14.7831 5.7551 14.5886 5.50465 14.3964C4.79138 13.8491 4.05692 13.2413 3.3918 12.5359C2.07354 11.1377 1.05 9.38313 1.05 6.99724C1.05 3.267 3.56591 1.05 6.65462 1.05C8.87829 1.05 10.7848 2.29156 11.6926 4.52744Z" stroke="#607D8B" stroke-width="2.1"/>
</svg>
