<svg width="20" height="20" viewBox="0 0 20 20" fill="none" xmlns="http://www.w3.org/2000/svg">
<path d="M9.99869 5.33301C9.07576 5.33325 8.17363 5.60716 7.40636 6.12009C6.63909 6.63302 6.04115 7.36194 5.68813 8.21469C5.33511 9.06743 5.24287 10.0057 5.42307 10.9109C5.60328 11.816 6.04784 12.6474 6.70053 13.3C7.35323 13.9525 8.18475 14.3968 9.08996 14.5768C9.99518 14.7567 10.9334 14.6643 11.7861 14.311C12.6387 13.9578 13.3675 13.3596 13.8802 12.5922C14.3929 11.8248 14.6666 10.9226 14.6666 9.99969C14.6653 8.76219 14.173 7.57578 13.2979 6.70086C12.4227 5.82594 11.2362 5.33399 9.99869 5.33301Z" fill="#FFC52F"/>
<path d="M9.9998 3.51801C9.74071 3.51801 9.49222 3.41513 9.30895 3.23199C9.12568 3.04885 9.02264 2.80043 9.02246 2.54134V0.977336C9.02246 0.71813 9.12543 0.469541 9.30872 0.286255C9.492 0.102969 9.74059 0 9.9998 0C10.259 0 10.5076 0.102969 10.6909 0.286255C10.8742 0.469541 10.9771 0.71813 10.9771 0.977336V2.54134C10.977 2.80043 10.8739 3.04885 10.6906 3.23199C10.5074 3.41513 10.2589 3.51801 9.9998 3.51801Z" fill="#FFC52F"/>
<path d="M9.9998 16.4814C9.74059 16.4814 9.492 16.5844 9.30872 16.7677C9.12543 16.951 9.02246 17.1996 9.02246 17.4588V19.0221C9.02246 19.2813 9.12543 19.5299 9.30872 19.7132C9.492 19.8965 9.74059 19.9995 9.9998 19.9995C10.259 19.9995 10.5076 19.8965 10.6909 19.7132C10.8742 19.5299 10.9771 19.2813 10.9771 19.0221V17.4588C10.9771 17.1996 10.8742 16.951 10.6909 16.7677C10.5076 16.5844 10.259 16.4814 9.9998 16.4814Z" fill="#FFC52F"/>
<path d="M14.5828 5.41674C14.3997 5.23337 14.2969 4.98485 14.2969 4.72574C14.2969 4.46662 14.3997 4.2181 14.5828 4.03473L15.6888 2.9314C15.8742 2.76032 16.1186 2.66757 16.3708 2.67255C16.623 2.67753 16.8636 2.77986 17.0421 2.95812C17.2206 3.13638 17.3233 3.37677 17.3286 3.62899C17.334 3.88122 17.2416 4.12574 17.0708 4.3114L15.9648 5.4174C15.7814 5.60055 15.5328 5.70337 15.2736 5.70325C15.0145 5.70312 14.766 5.60006 14.5828 5.41674Z" fill="#FFC52F"/>
<path d="M5.4165 14.5838C5.32579 14.493 5.21807 14.421 5.09951 14.3718C4.98094 14.3227 4.85385 14.2974 4.72549 14.2974C4.59714 14.2974 4.47005 14.3227 4.35148 14.3718C4.23292 14.421 4.1252 14.493 4.03449 14.5838L2.93116 15.6892C2.75245 15.8734 2.65336 16.1205 2.6553 16.3771C2.65724 16.6337 2.76005 16.8793 2.94153 17.0608C3.123 17.2423 3.36858 17.3451 3.62522 17.347C3.88186 17.349 4.12896 17.2499 4.31316 17.0712L5.41916 15.9652C5.50978 15.8743 5.5816 15.7665 5.63051 15.6479C5.67942 15.5293 5.70447 15.4022 5.70423 15.2739C5.70398 15.1456 5.67844 15.0186 5.62907 14.9002C5.57969 14.7818 5.50746 14.6743 5.4165 14.5838Z" fill="#FFC52F"/>
<path d="M16.4813 9.9998C16.4813 9.74059 16.5843 9.492 16.7676 9.30872C16.9509 9.12543 17.1995 9.02246 17.4587 9.02246H19.0227C19.2819 9.02246 19.5305 9.12543 19.7137 9.30872C19.897 9.492 20 9.74059 20 9.9998C20 10.259 19.897 10.5076 19.7137 10.6909C19.5305 10.8742 19.2819 10.9771 19.0227 10.9771H17.4587C17.3303 10.9772 17.2032 10.952 17.0845 10.9029C16.9659 10.8538 16.8582 10.7818 16.7674 10.6911C16.6766 10.6003 16.6046 10.4925 16.5555 10.3739C16.5065 10.2553 16.4812 10.1282 16.4813 9.9998Z" fill="#FFC52F"/>
<path d="M3.51801 9.9998C3.51801 9.74059 3.41504 9.492 3.23175 9.30872C3.04847 9.12543 2.79988 9.02246 2.54067 9.02246H0.977336C0.71813 9.02246 0.469541 9.12543 0.286255 9.30872C0.102969 9.492 0 9.74059 0 9.9998C0 10.259 0.102969 10.5076 0.286255 10.6909C0.469541 10.8742 0.71813 10.9771 0.977336 10.9771H2.54134C2.66965 10.9771 2.79671 10.9518 2.91525 10.9027C3.03379 10.8536 3.14148 10.7816 3.23218 10.6908C3.32289 10.6001 3.39481 10.4923 3.44386 10.3738C3.4929 10.2552 3.5181 10.1281 3.51801 9.9998Z" fill="#FFC52F"/>
<path d="M14.5827 14.5838C14.7661 14.4007 15.0146 14.2979 15.2737 14.2979C15.5328 14.2979 15.7814 14.4007 15.9647 14.5838L17.0707 15.6898C17.2494 15.874 17.3485 16.1211 17.3466 16.3777C17.3446 16.6343 17.2418 16.8799 17.0604 17.0614C16.8789 17.2429 16.6333 17.3457 16.3767 17.3476C16.12 17.3496 15.8729 17.2505 15.6887 17.0718L14.5827 15.9658C14.4919 15.875 14.4199 15.7673 14.3707 15.6488C14.3216 15.5302 14.2963 15.4031 14.2963 15.2748C14.2963 15.1464 14.3216 15.0193 14.3707 14.9007C14.4199 14.7822 14.4919 14.6745 14.5827 14.5838Z" fill="#FFC52F"/>
<path d="M5.41731 5.41578C5.60055 5.2325 5.70349 4.98394 5.70349 4.72478C5.70349 4.46561 5.60055 4.21706 5.41731 4.03378L4.31131 2.93044C4.12491 2.76526 3.88249 2.67748 3.63355 2.68502C3.38461 2.69256 3.14794 2.79484 2.97188 2.97099C2.79582 3.14714 2.69364 3.38386 2.68622 3.6328C2.67881 3.88174 2.76671 4.12413 2.93197 4.31044L4.03798 5.41645C4.22115 5.59894 4.46922 5.70136 4.72778 5.70123C4.98635 5.70111 5.23432 5.59845 5.41731 5.41578Z" fill="#FFC52F"/>
</svg>
