<svg width="18" height="17" viewBox="0 0 18 17" fill="none" xmlns="http://www.w3.org/2000/svg">
<path d="M16.7779 15.1511L13.8112 12.2067C14.9628 10.7699 15.5205 8.94635 15.3696 7.11085C15.2187 5.27535 14.3707 3.56745 13 2.33834C11.6293 1.10923 9.83997 0.452321 8.00005 0.502697C6.16014 0.553074 4.40943 1.3069 3.10793 2.60918C1.80642 3.91146 1.05304 5.6632 1.0027 7.50421C0.952349 9.34523 1.60886 11.1356 2.83725 12.5071C4.06563 13.8787 5.77251 14.7272 7.60692 14.8781C9.44133 15.0291 11.2638 14.4711 12.6997 13.3188L15.6424 16.2633C15.7168 16.3383 15.8052 16.3978 15.9027 16.4385C16.0001 16.4791 16.1046 16.5 16.2102 16.5C16.3158 16.5 16.4203 16.4791 16.5177 16.4385C16.6152 16.3978 16.7036 16.3383 16.7779 16.2633C16.9221 16.1141 17.0026 15.9147 17.0026 15.7072C17.0026 15.4997 16.9221 15.3003 16.7779 15.1511ZM8.21362 13.3188C7.10652 13.3188 6.02429 12.9903 5.10377 12.3749C4.18325 11.7595 3.46579 10.8847 3.04212 9.86129C2.61845 8.83786 2.5076 7.7117 2.72358 6.62523C2.93957 5.53875 3.47269 4.54076 4.25552 3.75746C5.03836 2.97416 6.03576 2.44072 7.12159 2.22461C8.20741 2.00849 9.3329 2.11941 10.3557 2.54333C11.3786 2.96725 12.2528 3.68514 12.8679 4.6062C13.4829 5.52727 13.8112 6.61015 13.8112 7.71791C13.8112 9.20337 13.2215 10.628 12.1717 11.6784C11.122 12.7287 9.6982 13.3188 8.21362 13.3188Z" fill="#607D8B" stroke="black"/>
</svg>
