<svg xmlns="http://www.w3.org/2000/svg" width="24" height="24" viewBox="0 0 24 24">
  <g id="icon_dashboard_medication" transform="translate(-101 -610)">
    <g id="Group_314" data-name="Group 314">
      <rect id="Rectangle_78" data-name="Rectangle 78" width="24" height="24" transform="translate(101 610)" fill="none"/>
      <g id="pill" transform="translate(101 610)">
        <g id="Group_2268" data-name="Group 2268" transform="translate(0)">
          <path id="Path_689" data-name="Path 689" d="M16.909,0A7.042,7.042,0,0,0,11.9,2.077L2.077,11.9A7.091,7.091,0,1,0,12.1,21.923l9.818-9.818A7.091,7.091,0,0,0,16.909,0ZM7.664,10.937,4.391,14.209a3.794,3.794,0,0,0-1.119,2.7.545.545,0,0,1-1.091,0A4.875,4.875,0,0,1,3.62,13.438l3.273-3.272a.545.545,0,0,1,.771.771Zm12.716-.374-4.523,4.523L8.915,8.143l4.524-4.524a4.909,4.909,0,0,1,6.942,6.943Z" transform="translate(0)"/>
        </g>
      </g>
    </g>
  </g>
</svg>
