<svg width="28" height="28" viewBox="0 0 28 28" fill="none" xmlns="http://www.w3.org/2000/svg">
<path d="M18.2002 27.9998H8.86686C8.16686 27.9998 7.7002 27.5332 7.7002 26.8332C7.7002 26.1332 8.16686 25.6665 8.86686 25.6665H18.2002C18.9002 25.6665 19.3669 26.1332 19.3669 26.8332C19.3669 27.5332 18.9002 27.9998 18.2002 27.9998Z" fill="#37474F"/>
<path d="M13.5334 28C12.8334 28 12.3667 27.5333 12.3667 26.8333V22.1667C12.3667 21.4667 12.8334 21 13.5334 21C14.2334 21 14.7 21.4667 14.7 22.1667V26.8333C14.7 27.5333 14.2334 28 13.5334 28Z" fill="#37474F"/>
<path d="M13.5334 18.6667C12.25 18.6667 11.0834 18.2 10.2667 17.2667C9.33337 16.45 8.8667 15.2833 8.8667 14V4.66667C8.8667 3.38333 9.33337 2.21667 10.2667 1.4C11.0834 0.466667 12.25 0 13.5334 0C14.8167 0 15.9834 0.466667 16.8 1.4C17.7334 2.21667 18.2 3.38333 18.2 4.66667V14C18.2 15.2833 17.7334 16.45 16.8 17.2667C15.8667 18.0833 14.8167 18.6667 13.5334 18.6667ZM13.5334 2.33333C12.95 2.33333 12.3667 2.56667 11.9 3.03333C11.4334 3.5 11.2 4.08333 11.2 4.66667V14C11.2 14.5833 11.4334 15.1667 11.9 15.6333C12.7167 16.45 14.35 16.45 15.1667 15.6333C15.6334 15.1667 15.8667 14.5833 15.8667 14V4.66667C15.8667 4.08333 15.6334 3.5 15.1667 3.03333C14.7 2.56667 14.1167 2.33333 13.5334 2.33333Z" fill="#37474F"/>
<path d="M13.5335 23.3333C11.0835 23.3333 8.7502 22.4 6.88353 20.65C5.13353 18.7833 4.2002 16.45 4.2002 14V11.6667C4.2002 10.9667 4.66686 10.5 5.36686 10.5C6.06686 10.5 6.53353 10.9667 6.53353 11.6667V14C6.53353 15.8667 7.23353 17.6167 8.63353 18.9C9.91686 20.3 11.6669 21 13.5335 21C15.4002 21 17.1502 20.3 18.4335 18.9C19.7169 17.6167 20.5335 15.8667 20.5335 14V11.6667C20.5335 10.9667 21.0002 10.5 21.7002 10.5C22.4002 10.5 22.8669 10.9667 22.8669 11.6667V14C22.8669 16.45 21.9335 18.7833 20.1835 20.65C18.3169 22.4 15.9835 23.3333 13.5335 23.3333Z" fill="#37474F"/>
</svg>
