<svg width="40" height="40" viewBox="0 0 40 40" fill="none" xmlns="http://www.w3.org/2000/svg">
<rect width="40" height="40" rx="20" fill="#E3F2FD"/>
<path d="M14.7275 19.9679C14.7275 21.0108 15.0368 22.0303 15.6162 22.8975C16.1956 23.7646 17.0192 24.4405 17.9827 24.8396C18.9462 25.2387 20.0065 25.3431 21.0293 25.1397C22.0522 24.9362 22.9918 24.434 23.7292 23.6965C24.4667 22.9591 24.9689 22.0195 25.1724 20.9966C25.3758 19.9738 25.2714 18.9135 24.8723 17.95C24.4732 16.9865 23.7973 16.1629 22.9302 15.5835C22.063 15.0041 21.0435 14.6948 20.0006 14.6948C18.6028 14.697 17.2628 15.2533 16.2744 16.2417C15.286 17.2301 14.7297 18.5701 14.7275 19.9679ZM22.7546 19.2063L19.4148 22.5578L17.2483 20.3779L18.0682 19.5579L19.4156 20.8912L21.9347 18.3838L22.7546 19.2063Z" fill="#2962FF"/>
<path d="M20.0005 29.9674C22.6497 29.9583 25.1879 28.9019 27.0613 27.0286C28.9346 25.1553 29.991 22.6171 30 19.9678H27.6568C27.6606 21.4781 27.2164 22.9556 26.3805 24.2135C25.5446 25.4713 24.3545 26.4531 22.9607 27.0346C21.5668 27.6161 20.0318 27.7712 18.5498 27.4803C17.0678 27.1895 15.7054 26.4657 14.6347 25.4005C13.564 24.3353 12.8333 22.9765 12.5348 21.4961C12.2363 20.0156 12.3836 18.4798 12.9579 17.083C13.5323 15.6862 14.5079 14.4911 15.7615 13.6487C17.015 12.8064 18.4902 12.3547 20.0005 12.3507C21.6457 12.3455 23.2471 12.8807 24.5586 13.874L23.667 14.7648L27.8034 15.5847L26.9835 11.4482L26.2335 12.1982C24.9885 11.1988 23.522 10.5125 21.9569 10.1969C20.3919 9.8814 18.774 9.94578 17.239 10.3847C15.704 10.8236 14.2966 11.6243 13.135 12.7195C11.9733 13.8147 11.0913 15.1725 10.5628 16.679C10.0343 18.1856 9.87488 19.7969 10.0978 21.3778C10.3207 22.9587 10.9196 24.463 11.844 25.7647C12.7685 27.0663 13.9916 28.1273 15.4108 28.8585C16.8301 29.5898 18.404 29.97 20.0005 29.9674Z" fill="#2962FF"/>
</svg>
