<svg width="25" height="25" viewBox="0 0 25 25" fill="none" xmlns="http://www.w3.org/2000/svg">
<mask id="path-1-outside-1_3605_7867" maskUnits="userSpaceOnUse" x="0" y="0" width="25" height="25" fill="black">
<rect fill="white" width="25" height="25"/>
<path d="M19.9569 11.2409V9.14829C19.9565 8.77082 19.8066 8.40886 19.5402 8.14151C19.2737 7.87416 18.9122 7.72316 18.5348 7.72152H17.4047V7.18726H9.6634C9.28643 7.18788 8.92507 7.3379 8.65851 7.60446C8.39195 7.87102 8.24192 8.23238 8.2413 8.60935V11.1498C7.45268 11.0196 6.72975 10.6308 6.18624 10.0447C5.64274 9.45866 5.30952 8.70851 5.23901 7.91232C6.08782 7.73919 6.84195 7.25668 7.35486 6.55856C7.86777 5.86043 8.10283 4.99656 8.01435 4.1348C7.92588 3.27305 7.52019 2.47496 6.87613 1.89562C6.23206 1.31628 5.39562 0.99707 4.52934 1.00002C3.66306 1.00297 2.82881 1.32787 2.1887 1.91158C1.5486 2.49529 1.14836 3.29613 1.06575 4.15846C0.983149 5.0208 1.22408 5.88306 1.74174 6.57767C2.25939 7.27228 3.01679 7.74965 3.86676 7.917C3.94344 9.07328 4.42174 10.1664 5.21896 11.0074C6.01618 11.8485 7.0822 12.3845 8.23274 12.5229V15.1357C8.23315 15.5132 8.38296 15.8752 8.64943 16.1425C8.9159 16.4099 9.27737 16.5609 9.65483 16.5625H17.3993V16.0282H18.5317C18.9086 16.0276 19.27 15.8776 19.5365 15.611C19.8031 15.3445 19.9531 14.9831 19.9538 14.6062V12.6264C20.7754 12.7853 21.5163 13.2251 22.0492 13.8703C22.5822 14.5155 22.8742 15.3261 22.875 16.163V16.2128C22.8734 17.1673 22.4934 18.0823 21.8184 18.7572C21.1434 19.432 20.2284 19.8118 19.2739 19.8132H10.3651C10.2049 18.963 9.75314 18.1952 9.08769 17.6422C8.42224 17.0892 7.58476 16.7856 6.71952 16.7837H4.75849C4.2675 16.7766 3.78 16.8671 3.32432 17.0501C2.86865 17.2331 2.45389 17.5048 2.10416 17.8495C1.75444 18.1942 1.47673 18.6049 1.28717 19.0579C1.09762 19.5109 1 19.997 1 20.4881C1 20.9791 1.09762 21.4653 1.28717 21.9182C1.47673 22.3712 1.75444 22.782 2.10416 23.1267C2.45389 23.4714 2.86865 23.7431 3.32432 23.9261C3.78 24.109 4.2675 24.1996 4.75849 24.1925H6.71952C7.58476 24.1906 8.42224 23.887 9.08769 23.334C9.75314 22.781 10.2049 22.0132 10.3651 21.1629H19.2777C20.5925 21.1617 21.853 20.6388 22.7827 19.7092C23.7123 18.7795 24.2352 17.519 24.2364 16.2043V16.1544C24.2345 14.9573 23.8005 13.8011 23.0143 12.8984C22.228 11.9957 21.1424 11.4072 19.9569 11.2409ZM2.40806 4.49259C2.40821 4.07165 2.53317 3.66021 2.76715 3.31029C3.00112 2.96036 3.3336 2.68767 3.72254 2.52669C4.11148 2.36571 4.53942 2.32368 4.95225 2.40589C5.36508 2.48811 5.74427 2.69089 6.04186 2.98859C6.33946 3.28629 6.5421 3.66555 6.62416 4.07841C6.70623 4.49128 6.66403 4.9192 6.50291 5.30808C6.34179 5.69697 6.06897 6.02934 5.71896 6.26319C5.36896 6.49703 4.95747 6.62185 4.53653 6.62185C3.97214 6.62102 3.43112 6.3964 3.03211 5.99724C2.6331 5.59809 2.40867 5.05698 2.40806 4.49259ZM9.59487 15.1303V8.6187C9.59526 8.60209 9.60204 8.58628 9.61378 8.57453C9.62553 8.56279 9.64134 8.55601 9.65795 8.55562H16.0442V15.1988H9.65795C9.64073 15.198 9.62453 15.1904 9.61287 15.1778C9.6012 15.1651 9.59501 15.1483 9.59565 15.1311L9.59487 15.1303ZM18.5979 14.596C18.5975 14.6126 18.5907 14.6285 18.5789 14.6402C18.5672 14.6519 18.5514 14.6587 18.5348 14.6591H17.4047V9.08521H18.5278C18.5444 9.0856 18.5602 9.09237 18.5719 9.10412C18.5837 9.11587 18.5904 9.13168 18.5908 9.14829V14.5999L18.5979 14.596ZM6.71952 22.8342H4.75849C4.13511 22.8342 3.53727 22.5866 3.09648 22.1458C2.65569 21.705 2.40806 21.1072 2.40806 20.4838C2.40806 19.8604 2.65569 19.2626 3.09648 18.8218C3.53727 18.381 4.13511 18.1334 4.75849 18.1334H6.71952C7.34289 18.1334 7.94073 18.381 8.38153 18.8218C8.82232 19.2626 9.06995 19.8604 9.06995 20.4838C9.06995 21.1072 8.82232 21.705 8.38153 22.1458C7.94073 22.5866 7.34289 22.8342 6.71952 22.8342Z"/>
</mask>
<path d="M19.9569 11.2409V9.14829C19.9565 8.77082 19.8066 8.40886 19.5402 8.14151C19.2737 7.87416 18.9122 7.72316 18.5348 7.72152H17.4047V7.18726H9.6634C9.28643 7.18788 8.92507 7.3379 8.65851 7.60446C8.39195 7.87102 8.24192 8.23238 8.2413 8.60935V11.1498C7.45268 11.0196 6.72975 10.6308 6.18624 10.0447C5.64274 9.45866 5.30952 8.70851 5.23901 7.91232C6.08782 7.73919 6.84195 7.25668 7.35486 6.55856C7.86777 5.86043 8.10283 4.99656 8.01435 4.1348C7.92588 3.27305 7.52019 2.47496 6.87613 1.89562C6.23206 1.31628 5.39562 0.99707 4.52934 1.00002C3.66306 1.00297 2.82881 1.32787 2.1887 1.91158C1.5486 2.49529 1.14836 3.29613 1.06575 4.15846C0.983149 5.0208 1.22408 5.88306 1.74174 6.57767C2.25939 7.27228 3.01679 7.74965 3.86676 7.917C3.94344 9.07328 4.42174 10.1664 5.21896 11.0074C6.01618 11.8485 7.0822 12.3845 8.23274 12.5229V15.1357C8.23315 15.5132 8.38296 15.8752 8.64943 16.1425C8.9159 16.4099 9.27737 16.5609 9.65483 16.5625H17.3993V16.0282H18.5317C18.9086 16.0276 19.27 15.8776 19.5365 15.611C19.8031 15.3445 19.9531 14.9831 19.9538 14.6062V12.6264C20.7754 12.7853 21.5163 13.2251 22.0492 13.8703C22.5822 14.5155 22.8742 15.3261 22.875 16.163V16.2128C22.8734 17.1673 22.4934 18.0823 21.8184 18.7572C21.1434 19.432 20.2284 19.8118 19.2739 19.8132H10.3651C10.2049 18.963 9.75314 18.1952 9.08769 17.6422C8.42224 17.0892 7.58476 16.7856 6.71952 16.7837H4.75849C4.2675 16.7766 3.78 16.8671 3.32432 17.0501C2.86865 17.2331 2.45389 17.5048 2.10416 17.8495C1.75444 18.1942 1.47673 18.6049 1.28717 19.0579C1.09762 19.5109 1 19.997 1 20.4881C1 20.9791 1.09762 21.4653 1.28717 21.9182C1.47673 22.3712 1.75444 22.782 2.10416 23.1267C2.45389 23.4714 2.86865 23.7431 3.32432 23.9261C3.78 24.109 4.2675 24.1996 4.75849 24.1925H6.71952C7.58476 24.1906 8.42224 23.887 9.08769 23.334C9.75314 22.781 10.2049 22.0132 10.3651 21.1629H19.2777C20.5925 21.1617 21.853 20.6388 22.7827 19.7092C23.7123 18.7795 24.2352 17.519 24.2364 16.2043V16.1544C24.2345 14.9573 23.8005 13.8011 23.0143 12.8984C22.228 11.9957 21.1424 11.4072 19.9569 11.2409ZM2.40806 4.49259C2.40821 4.07165 2.53317 3.66021 2.76715 3.31029C3.00112 2.96036 3.3336 2.68767 3.72254 2.52669C4.11148 2.36571 4.53942 2.32368 4.95225 2.40589C5.36508 2.48811 5.74427 2.69089 6.04186 2.98859C6.33946 3.28629 6.5421 3.66555 6.62416 4.07841C6.70623 4.49128 6.66403 4.9192 6.50291 5.30808C6.34179 5.69697 6.06897 6.02934 5.71896 6.26319C5.36896 6.49703 4.95747 6.62185 4.53653 6.62185C3.97214 6.62102 3.43112 6.3964 3.03211 5.99724C2.6331 5.59809 2.40867 5.05698 2.40806 4.49259ZM9.59487 15.1303V8.6187C9.59526 8.60209 9.60204 8.58628 9.61378 8.57453C9.62553 8.56279 9.64134 8.55601 9.65795 8.55562H16.0442V15.1988H9.65795C9.64073 15.198 9.62453 15.1904 9.61287 15.1778C9.6012 15.1651 9.59501 15.1483 9.59565 15.1311L9.59487 15.1303ZM18.5979 14.596C18.5975 14.6126 18.5907 14.6285 18.5789 14.6402C18.5672 14.6519 18.5514 14.6587 18.5348 14.6591H17.4047V9.08521H18.5278C18.5444 9.0856 18.5602 9.09237 18.5719 9.10412C18.5837 9.11587 18.5904 9.13168 18.5908 9.14829V14.5999L18.5979 14.596ZM6.71952 22.8342H4.75849C4.13511 22.8342 3.53727 22.5866 3.09648 22.1458C2.65569 21.705 2.40806 21.1072 2.40806 20.4838C2.40806 19.8604 2.65569 19.2626 3.09648 18.8218C3.53727 18.381 4.13511 18.1334 4.75849 18.1334H6.71952C7.34289 18.1334 7.94073 18.381 8.38153 18.8218C8.82232 19.2626 9.06995 19.8604 9.06995 20.4838C9.06995 21.1072 8.82232 21.705 8.38153 22.1458C7.94073 22.5866 7.34289 22.8342 6.71952 22.8342Z" fill="#78909C"/>
<path d="M19.9569 9.14829H20.2569V9.14796L19.9569 9.14829ZM18.5348 7.72152L18.5361 7.42152H18.5348V7.72152ZM17.4047 7.72152H17.1047V8.02152H17.4047V7.72152ZM17.4047 7.18726H17.7047V6.88726H17.4047V7.18726ZM9.6634 7.18726V6.88726L9.66291 6.88726L9.6634 7.18726ZM8.2413 8.60935L7.9413 8.60886V8.60935H8.2413ZM8.2413 11.1498L8.19242 11.4458L8.5413 11.5034V11.1498H8.2413ZM5.23901 7.91232L5.17905 7.61838L4.91655 7.67192L4.94018 7.93879L5.23901 7.91232ZM3.86676 7.917L4.1661 7.89714L4.15085 7.66717L3.92471 7.62265L3.86676 7.917ZM8.23274 12.5229H8.53274V12.2568L8.26856 12.225L8.23274 12.5229ZM8.23274 15.1357H7.93274L7.93274 15.1361L8.23274 15.1357ZM9.65483 16.5625L9.65353 16.8625H9.65483V16.5625ZM17.3993 16.5625V16.8625H17.6993V16.5625H17.3993ZM17.3993 16.0282V15.7282H17.0993V16.0282H17.3993ZM18.5317 16.0282V16.3282L18.5321 16.3282L18.5317 16.0282ZM19.9538 14.6062L20.2538 14.6066V14.6062H19.9538ZM19.9538 12.6264L20.0107 12.3319L19.6538 12.2629V12.6264H19.9538ZM22.875 16.163H23.175L23.175 16.1627L22.875 16.163ZM22.875 16.2128L23.175 16.2133V16.2128H22.875ZM19.2739 19.8132V20.1132L19.2743 20.1132L19.2739 19.8132ZM10.3651 19.8132L10.0703 19.8688L10.1164 20.1132H10.3651V19.8132ZM6.71952 16.7837L6.72018 16.4837H6.71952V16.7837ZM4.75849 16.7837L4.75414 17.0837H4.75849V16.7837ZM3.32432 17.0501L3.43611 17.3285L3.32432 17.0501ZM1 20.4881H1.3H1ZM4.75849 24.1925V23.8924L4.75414 23.8925L4.75849 24.1925ZM6.71952 24.1925V24.4925L6.72018 24.4925L6.71952 24.1925ZM10.3651 21.1629V20.8629H10.1164L10.0703 21.1074L10.3651 21.1629ZM19.2777 21.1629V21.4629L19.278 21.4629L19.2777 21.1629ZM24.2364 16.2043L24.5364 16.2045V16.2043H24.2364ZM24.2364 16.1544H24.5364V16.1539L24.2364 16.1544ZM4.53653 6.62185L4.53609 6.92185H4.53653V6.62185ZM9.59487 15.1303H9.29487V15.2546L9.38274 15.3424L9.59487 15.1303ZM9.59487 8.6187L9.29487 8.61155V8.6187H9.59487ZM9.65795 8.55562V8.25553L9.65081 8.2557L9.65795 8.55562ZM16.0442 8.55562H16.3441V8.25562H16.0442V8.55562ZM16.0442 15.1988V15.4988H16.3441V15.1988H16.0442ZM9.65795 15.1988L9.64385 15.4988H9.65795V15.1988ZM9.59565 15.1311L9.89544 15.1421L9.90026 15.0114L9.80778 14.9189L9.59565 15.1311ZM18.5979 14.596L18.8978 14.6032L18.9102 14.0793L18.4522 14.3338L18.5979 14.596ZM18.5348 14.6591V14.9592L18.5419 14.959L18.5348 14.6591ZM17.4047 14.6591H17.1047V14.9591H17.4047V14.6591ZM17.4047 9.08521V8.7852H17.1047V9.08521H17.4047ZM18.5278 9.08521L18.5349 8.7852H18.5278V9.08521ZM18.5908 9.14829H18.8909L18.8908 9.14114L18.5908 9.14829ZM18.5908 14.5999H18.2908V15.1098L18.7365 14.8622L18.5908 14.5999ZM2.40806 20.4838H2.10806H2.40806ZM20.2569 11.2409V9.14829H19.6569V11.2409H20.2569ZM20.2569 9.14796C20.2564 8.69121 20.0751 8.25323 19.7527 7.92973L19.3277 8.35329C19.5382 8.56449 19.6565 8.85043 19.6569 9.14861L20.2569 9.14796ZM19.7527 7.92973C19.4302 7.60622 18.9928 7.42351 18.5361 7.42152L18.5335 8.02151C18.8316 8.02282 19.1172 8.1421 19.3277 8.35329L19.7527 7.92973ZM18.5348 7.42152H17.4047V8.02152H18.5348V7.42152ZM17.7047 7.72152V7.18726H17.1047V7.72152H17.7047ZM17.4047 6.88726H9.6634V7.48726H17.4047V6.88726ZM9.66291 6.88726C9.20654 6.88801 8.76908 7.06963 8.44638 7.39233L8.87064 7.81659C9.08106 7.60617 9.36631 7.48774 9.66389 7.48726L9.66291 6.88726ZM8.44638 7.39233C8.12368 7.71503 7.94205 8.15249 7.9413 8.60886L8.5413 8.60985C8.54179 8.31227 8.66022 8.02702 8.87064 7.81659L8.44638 7.39233ZM7.9413 8.60935V11.1498H8.5413V8.60935H7.9413ZM8.29019 10.8538C7.56722 10.7344 6.90447 10.378 6.40622 9.84075L5.96627 10.2487C6.55502 10.8836 7.33814 11.3047 8.19242 11.4458L8.29019 10.8538ZM6.40622 9.84075C5.90796 9.30346 5.60248 8.61577 5.53784 7.88586L4.94018 7.93879C5.01656 8.80126 5.37752 9.61386 5.96627 10.2487L6.40622 9.84075ZM5.29897 8.20627C6.22071 8.01826 7.03964 7.49429 7.59663 6.73618L7.1131 6.38093C6.64426 7.01907 5.95493 7.46012 5.17905 7.61838L5.29897 8.20627ZM7.59663 6.73618C8.15361 5.97807 8.40886 5.03997 8.31278 4.10416L7.71592 4.16544C7.79679 4.95315 7.58194 5.7428 7.1131 6.38093L7.59663 6.73618ZM8.31278 4.10416C8.21671 3.16836 7.77616 2.30169 7.07675 1.67257L6.6755 2.11866C7.26422 2.64822 7.63505 3.37773 7.71592 4.16544L8.31278 4.10416ZM7.07675 1.67257C6.37735 1.04346 5.46903 0.696819 4.52832 0.700022L4.53036 1.30002C5.32221 1.29732 6.08678 1.5891 6.6755 2.11866L7.07675 1.67257ZM4.52832 0.700022C3.5876 0.703225 2.68167 1.05604 1.98656 1.68991L2.39085 2.13325C2.97595 1.5997 3.73851 1.30271 4.53036 1.30002L4.52832 0.700022ZM1.98656 1.68991C1.29146 2.32377 0.856822 3.19342 0.76712 4.12986L1.36439 4.18707C1.43989 3.39883 1.80574 2.66681 2.39085 2.13325L1.98656 1.68991ZM0.76712 4.12986C0.677419 5.0663 0.939055 6.00264 1.50119 6.75694L1.98228 6.3984C1.50911 5.76348 1.28888 4.97531 1.36439 4.18707L0.76712 4.12986ZM1.50119 6.75694C2.06332 7.51124 2.8858 8.02962 3.8088 8.21135L3.92471 7.62265C3.14778 7.46968 2.45546 7.03333 1.98228 6.3984L1.50119 6.75694ZM3.56741 7.93685C3.64873 9.16292 4.1559 10.322 5.00124 11.2138L5.43669 10.8011C4.68759 10.0108 4.23816 8.98363 4.1661 7.89714L3.56741 7.93685ZM5.00124 11.2138C5.84657 12.1056 6.97694 12.674 8.19692 12.8207L8.26856 12.225C7.18747 12.095 6.18579 11.5913 5.43669 10.8011L5.00124 11.2138ZM7.93274 12.5229V15.1357H8.53274V12.5229H7.93274ZM7.93274 15.1361C7.93323 15.5928 8.11451 16.0308 8.43695 16.3543L8.86191 15.9307C8.6514 15.7195 8.53306 15.4336 8.53274 15.1354L7.93274 15.1361ZM8.43695 16.3543C8.75939 16.6778 9.19678 16.8605 9.65353 16.8625L9.65614 16.2625C9.35796 16.2612 9.07241 16.1419 8.86191 15.9307L8.43695 16.3543ZM9.65483 16.8625H17.3993V16.2625H9.65483V16.8625ZM17.6993 16.5625V16.0282H17.0993V16.5625H17.6993ZM17.3993 16.3282H18.5317V15.7282H17.3993V16.3282ZM18.5321 16.3282C18.9885 16.3275 19.426 16.1459 19.7487 15.8232L19.3244 15.3989C19.114 15.6093 18.8287 15.7278 18.5312 15.7283L18.5321 16.3282ZM19.7487 15.8232C20.0714 15.5005 20.253 15.063 20.2537 14.6066L19.6538 14.6057C19.6533 14.9032 19.5348 15.1885 19.3244 15.3989L19.7487 15.8232ZM20.2538 14.6062V12.6264H19.6538V14.6062H20.2538ZM19.8968 12.921C20.6501 13.0666 21.3293 13.4698 21.818 14.0614L22.2805 13.6792C21.7032 12.9803 20.9007 12.504 20.0107 12.3319L19.8968 12.921ZM21.818 14.0614C22.3066 14.6529 22.5743 15.396 22.575 16.1633L23.175 16.1627C23.1741 15.2561 22.8579 14.3782 22.2805 13.6792L21.818 14.0614ZM22.575 16.163V16.2128H23.175V16.163H22.575ZM22.575 16.2123C22.5735 17.0874 22.2252 17.9263 21.6063 18.545L22.0305 18.9693C22.7617 18.2383 23.1733 17.2473 23.175 16.2133L22.575 16.2123ZM21.6063 18.545C20.9874 19.1637 20.1485 19.5119 19.2734 19.5132L19.2743 20.1132C20.3082 20.1117 21.2994 19.7003 22.0305 18.9693L21.6063 18.545ZM19.2739 19.5132H10.3651V20.1132H19.2739V19.5132ZM10.6599 19.7577C10.4868 18.8388 9.99858 18.0091 9.27943 17.4115L8.89595 17.8729C9.50771 18.3813 9.92301 19.0871 10.0703 19.8688L10.6599 19.7577ZM9.27943 17.4115C8.56029 16.8138 7.65523 16.4857 6.72018 16.4837L6.71886 17.0837C7.51429 17.0854 8.2842 17.3645 8.89595 17.8729L9.27943 17.4115ZM6.71952 16.4837H4.75849V17.0837H6.71952V16.4837ZM4.76284 16.4837C4.23209 16.476 3.70511 16.5739 3.21254 16.7717L3.43611 17.3285C3.85488 17.1603 4.30291 17.0771 4.75414 17.0837L4.76284 16.4837ZM3.21254 16.7717C2.71996 16.9695 2.27162 17.2632 1.89357 17.6358L2.31475 18.0631C2.63616 17.7464 3.01733 17.4966 3.43611 17.3285L3.21254 16.7717ZM1.89357 17.6358C1.51553 18.0084 1.21533 18.4525 1.01042 18.9421L1.56392 19.1737C1.73812 18.7574 1.99335 18.3799 2.31475 18.0631L1.89357 17.6358ZM1.01042 18.9421C0.80552 19.4318 0.7 19.9573 0.7 20.4881H1.3C1.3 20.0368 1.38971 19.59 1.56392 19.1737L1.01042 18.9421ZM0.7 20.4881C0.7 21.0189 0.80552 21.5444 1.01042 22.034L1.56392 21.8024C1.38971 21.3861 1.3 20.9394 1.3 20.4881H0.7ZM1.01042 22.034C1.21533 22.5237 1.51553 22.9677 1.89357 23.3403L2.31475 22.913C1.99335 22.5962 1.73812 22.2187 1.56392 21.8024L1.01042 22.034ZM1.89357 23.3403C2.27162 23.7129 2.71996 24.0067 3.21254 24.2045L3.43611 23.6477C3.01733 23.4795 2.63616 23.2298 2.31475 22.913L1.89357 23.3403ZM3.21254 24.2045C3.70511 24.4022 4.23209 24.5001 4.76284 24.4924L4.75414 23.8925C4.30291 23.899 3.85488 23.8158 3.43611 23.6477L3.21254 24.2045ZM4.75849 24.4925H6.71952V23.8925H4.75849V24.4925ZM6.72018 24.4925C7.65523 24.4904 8.56029 24.1623 9.27943 23.5647L8.89595 23.1032C8.2842 23.6116 7.51429 23.8907 6.71886 23.8925L6.72018 24.4925ZM9.27943 23.5647C9.99858 22.9671 10.4868 22.1373 10.6599 21.2185L10.0703 21.1074C9.92301 21.889 9.50771 22.5949 8.89595 23.1032L9.27943 23.5647ZM10.3651 21.4629H19.2777V20.8629H10.3651V21.4629ZM19.278 21.4629C20.6722 21.4616 22.009 20.9072 22.9948 19.9213L22.5705 19.4971C21.6971 20.3705 20.5127 20.8617 19.2775 20.8629L19.278 21.4629ZM22.9948 19.9213C23.9807 18.9355 24.5351 17.5987 24.5364 16.2045L23.9364 16.204C23.9352 17.4392 23.444 18.6236 22.5705 19.4971L22.9948 19.9213ZM24.5364 16.2043V16.1544H23.9364V16.2043H24.5364ZM24.5364 16.1539C24.5344 14.8846 24.0742 13.6586 23.2405 12.7014L22.7881 13.0955C23.5268 13.9437 23.9346 15.0301 23.9364 16.1549L24.5364 16.1539ZM23.2405 12.7014C22.4068 11.7442 21.2556 11.1201 19.9985 10.9438L19.9152 11.538C21.0292 11.6942 22.0493 12.2472 22.7881 13.0955L23.2405 12.7014ZM2.70806 4.4927C2.70819 4.13109 2.81554 3.77764 3.01653 3.47704L2.51776 3.14354C2.25081 3.54278 2.10823 4.01221 2.10806 4.49248L2.70806 4.4927ZM3.01653 3.47704C3.21753 3.17644 3.50314 2.94218 3.83727 2.80389L3.60781 2.2495C3.16405 2.43317 2.78471 2.74429 2.51776 3.14354L3.01653 3.47704ZM3.83727 2.80389C4.17139 2.6656 4.53901 2.62949 4.89366 2.70011L5.01085 2.11167C4.53983 2.01786 4.05157 2.06583 3.60781 2.2495L3.83727 2.80389ZM4.89366 2.70011C5.2483 2.77074 5.57404 2.94494 5.82969 3.20068L6.25403 2.7765C5.91449 2.43683 5.48186 2.20547 5.01085 2.11167L4.89366 2.70011ZM5.82969 3.20068C6.08534 3.45643 6.25942 3.78223 6.32992 4.1369L6.91841 4.01993C6.82477 3.54887 6.59357 3.11616 6.25403 2.7765L5.82969 3.20068ZM6.32992 4.1369C6.40042 4.49157 6.36417 4.85918 6.22575 5.19325L6.78006 5.42291C6.96389 4.97922 7.01204 4.49098 6.91841 4.01993L6.32992 4.1369ZM6.22575 5.19325C6.08734 5.52732 5.85298 5.81285 5.5523 6.01374L5.88562 6.51264C6.28497 6.24583 6.59623 5.86661 6.78006 5.42291L6.22575 5.19325ZM5.5523 6.01374C5.25163 6.21462 4.89814 6.32185 4.53653 6.32185L4.53653 6.92185C5.0168 6.92185 5.48628 6.77944 5.88562 6.51264L5.5523 6.01374ZM4.53697 6.32185C4.05201 6.32114 3.58713 6.12813 3.24428 5.78515L2.81994 6.20934C3.2751 6.66467 3.89227 6.9209 4.53609 6.92184L4.53697 6.32185ZM3.24428 5.78515C2.90142 5.44217 2.70859 4.97722 2.70806 4.49226L2.10806 4.49292C2.10876 5.13674 2.36477 5.754 2.81994 6.20934L3.24428 5.78515ZM9.89487 15.1303V8.6187H9.29487V15.1303H9.89487ZM9.89478 8.62584C9.89334 8.68631 9.86868 8.7439 9.82591 8.78666L9.40165 8.3624C9.33539 8.42866 9.29718 8.51788 9.29495 8.61156L9.89478 8.62584ZM9.82591 8.78666C9.78314 8.82943 9.72555 8.85409 9.66509 8.85553L9.65081 8.2557C9.55714 8.25793 9.46791 8.29614 9.40165 8.3624L9.82591 8.78666ZM9.65795 8.85562H16.0442V8.25562H9.65795V8.85562ZM15.7442 8.55562V15.1988H16.3441V8.55562H15.7442ZM16.0442 14.8988H9.65795V15.4988H16.0442V14.8988ZM9.67203 14.8992C9.73378 14.9021 9.79187 14.9292 9.8337 14.9747L9.39204 15.3808C9.45719 15.4517 9.54769 15.494 9.64387 15.4985L9.67203 14.8992ZM9.8337 14.9747C9.87553 15.0202 9.89772 15.0803 9.89544 15.1421L9.29585 15.12C9.2923 15.2162 9.32687 15.31 9.39204 15.3808L9.8337 14.9747ZM9.80778 14.9189L9.807 14.9182L9.38274 15.3424L9.38351 15.3432L9.80778 14.9189ZM18.2979 14.5889C18.2994 14.5284 18.324 14.4708 18.3668 14.4281L18.7911 14.8523C18.8573 14.7861 18.8955 14.6968 18.8978 14.6032L18.2979 14.5889ZM18.3668 14.4281C18.4096 14.3853 18.4672 14.3606 18.5276 14.3592L18.5419 14.959C18.6356 14.9568 18.7248 14.9186 18.7911 14.8523L18.3668 14.4281ZM18.5348 14.3591H17.4047V14.9591H18.5348V14.3591ZM17.7047 14.6591V9.08521H17.1047V14.6591H17.7047ZM17.4047 9.38521H18.5278V8.7852H17.4047V9.38521ZM18.5206 9.38512C18.4601 9.38368 18.4026 9.35901 18.3598 9.31625L18.7841 8.89199C18.7178 8.82573 18.6286 8.78752 18.5349 8.78529L18.5206 9.38512ZM18.3598 9.31625C18.317 9.2735 18.2924 9.21591 18.2909 9.15543L18.8908 9.14114C18.8885 9.04745 18.8503 8.95823 18.7841 8.89199L18.3598 9.31625ZM18.2908 9.14829V14.5999H18.8908V9.14829H18.2908ZM18.7365 14.8622L18.7435 14.8583L18.4522 14.3338L18.4452 14.3377L18.7365 14.8622ZM6.71952 22.5342H4.75849V23.1342H6.71952V22.5342ZM4.75849 22.5342C4.21468 22.5342 3.69314 22.3182 3.30861 21.9337L2.88435 22.3579C3.3814 22.855 4.05555 23.1342 4.75849 23.1342V22.5342ZM3.30861 21.9337C2.92408 21.5491 2.70806 21.0276 2.70806 20.4838H2.10806C2.10806 21.1867 2.3873 21.8609 2.88435 22.3579L3.30861 21.9337ZM2.70806 20.4838C2.70806 19.94 2.92408 19.4184 3.30861 19.0339L2.88435 18.6097C2.3873 19.1067 2.10806 19.7809 2.10806 20.4838H2.70806ZM3.30861 19.0339C3.69314 18.6494 4.21468 18.4334 4.75849 18.4334V17.8334C4.05555 17.8334 3.3814 18.1126 2.88435 18.6097L3.30861 19.0339ZM4.75849 18.4334H6.71952V17.8334H4.75849V18.4334ZM6.71952 18.4334C7.26333 18.4334 7.78486 18.6494 8.16939 19.0339L8.59366 18.6097C8.09661 18.1126 7.42246 17.8334 6.71952 17.8334V18.4334ZM8.16939 19.0339C8.55393 19.4184 8.76995 19.94 8.76995 20.4838H9.36995C9.36995 19.7809 9.09071 19.1067 8.59366 18.6097L8.16939 19.0339ZM8.76995 20.4838C8.76995 21.0276 8.55393 21.5491 8.16939 21.9337L8.59366 22.3579C9.09071 21.8609 9.36995 21.1867 9.36995 20.4838H8.76995ZM8.16939 21.9337C7.78486 22.3182 7.26333 22.5342 6.71952 22.5342V23.1342C7.42246 23.1342 8.09661 22.855 8.59366 22.3579L8.16939 21.9337Z" fill="#78909C" mask="url(#path-1-outside-1_3605_7867)"/>
</svg>
