<svg width="21" height="20" viewBox="0 0 21 20" fill="none" xmlns="http://www.w3.org/2000/svg">
<rect width="21" height="20" fill="#E5E5E5"/>
<rect width="375" height="667" transform="translate(-40 -631)" fill="#F5F6FA"/>
<rect x="-40" y="-16" width="375" height="52" fill="white"/>
<rect x="-23.9963" y="-16" width="68" height="52" fill="white"/>
<path fill-rule="evenodd" clip-rule="evenodd" d="M10.6527 0.191498C10.3244 -0.0638327 9.86473 -0.0638327 9.53644 0.191498L1.35463 6.55513C1.13318 6.72737 1.00366 6.99219 1.00366 7.27273V17.2727C1.00366 17.996 1.291 18.6897 1.80246 19.2012C2.31392 19.7127 3.00762 20 3.73093 20H7.3673H12.8218H16.4582C17.1815 20 17.8752 19.7127 18.3867 19.2012C18.8981 18.6897 19.1855 17.996 19.1855 17.2727V7.27273C19.1855 6.99219 19.056 6.72737 18.8345 6.55513L10.6527 0.191498ZM13.7309 18.1818H16.4582C16.6993 18.1818 16.9305 18.086 17.101 17.9156C17.2715 17.7451 17.3673 17.5138 17.3673 17.2727V7.71735L10.0946 2.06078L2.82184 7.71735V17.2727C2.82184 17.5138 2.91762 17.7451 3.08811 17.9156C3.2586 18.086 3.48983 18.1818 3.73093 18.1818H6.45821V10C6.45821 9.49792 6.86522 9.09091 7.3673 9.09091H12.8218C13.3239 9.09091 13.7309 9.49792 13.7309 10V18.1818ZM8.27639 18.1818V10.9091H11.9128V18.1818H8.27639Z" fill="#78909C"/>
</svg>
