<svg xmlns="http://www.w3.org/2000/svg" width="24" height="24" viewBox="0 0 24 24">
  <g id="icon_profile_profile_info" transform="translate(-48 -344)">
    <rect id="Rectangle_1895" data-name="Rectangle 1895" width="24" height="24" transform="translate(48 344)" fill="none"/>
    <path id="Path_696" data-name="Path 696" d="M12,2A10,10,0,1,0,22,12,10,10,0,0,0,12,2Zm0,3A3,3,0,1,1,9,8,3,3,0,0,1,12,5Zm0,14.2a7.2,7.2,0,0,1-6-3.22c.03-1.99,4-3.08,6-3.08s5.97,1.09,6,3.08A7.2,7.2,0,0,1,12,19.2Z" transform="translate(48 344)" />
  </g>
</svg>
