<svg xmlns="http://www.w3.org/2000/svg" width="24" height="24" viewBox="0 0 24 24">
  <g id="icon_his_Coverage" transform="translate(10606 1976)">
    <rect id="Rectangle_2034" data-name="Rectangle 2034" width="24" height="24" transform="translate(-10606 -1976)" fill="none"/>
    <g id="user" transform="translate(-10606 -1976)">
      <path id="Path_774" data-name="Path 774" d="M11.86,9.93h.01l4.9-1.67A1.184,1.184,0,0,0,16.79,8a.69.69,0,0,0-.04-.25,1.568,1.568,0,0,0-.44-.66V4.9a2.693,2.693,0,0,0-1.18-2.63C14.82,1.33,13.53,0,11,0A5.6,5.6,0,0,0,5.74,4.9c0,.8-.03,1.43-.06,1.91,0,.1-.01.19-.01.27a1.548,1.548,0,0,0-.44.73A1.108,1.108,0,0,0,5.21,8a6.612,6.612,0,0,0,.5,2.04.688.688,0,0,0,.36.39.882.882,0,0,1,.02.22A4.032,4.032,0,0,0,7.5,13.19c-.05,1.1-.36,1.86-.8,2.05l-3.92,1.3A3.406,3.406,0,0,0,.55,18.95L.02,21.07a.773.773,0,0,0,.14.64A.754.754,0,0,0,.75,22H11.96a10.475,10.475,0,0,1-.84-1.25A8.51,8.51,0,0,1,10,16.55V12.54a2.769,2.769,0,0,1,1.86-2.61Z" fill="#607d8b"/>
      <path id="Path_775" data-name="Path 775" d="M23.491,11.826l-5.25-1.786a.737.737,0,0,0-.482,0l-5.25,1.786a.748.748,0,0,0-.509.71v4.018c0,4.9,5.474,7.288,5.707,7.387a.754.754,0,0,0,.586,0c.233-.1,5.707-2.483,5.707-7.387V12.536a.748.748,0,0,0-.509-.71Zm-2.2,3.792-2.75,3.5a1,1,0,0,1-1.437.142l-1.75-1.5a1,1,0,0,1,1.3-1.518l.958.821,2.1-2.679a1,1,0,0,1,1.573,1.234Z" fill="#607d8b"/>
      <path id="Path_776" data-name="Path 776" fill="#607d8b"/>
    </g>
  </g>
</svg>
