<svg width="28" height="28" viewBox="0 0 28 28" fill="none" xmlns="http://www.w3.org/2000/svg">
<path fill-rule="evenodd" clip-rule="evenodd" d="M3.5 6.64995C3.19058 6.64995 2.89383 6.77901 2.67504 7.00875C2.45625 7.23848 2.33333 7.55006 2.33333 7.87495V20.125C2.33333 20.4498 2.45625 20.7614 2.67504 20.9912C2.89384 21.2209 3.19058 21.35 3.5 21.35H16.3333C16.6428 21.35 16.9395 21.2209 17.1583 20.9912C17.3771 20.7614 17.5 20.4498 17.5 20.125V19.4074L5.35008 6.64995H3.5ZM1.02513 5.27633C1.6815 4.58714 2.57174 4.19995 3.5 4.19995H5.83333C6.14275 4.19995 6.4395 4.32901 6.65829 4.55875L19.4916 18.0337C19.7104 18.2635 19.8333 18.5751 19.8333 18.9V20.125C19.8333 21.0996 19.4646 22.0344 18.8082 22.7236C18.1518 23.4128 17.2616 23.8 16.3333 23.8H3.5C2.57174 23.8 1.6815 23.4128 1.02513 22.7236C0.368749 22.0344 0 21.0996 0 20.125V7.87495C0 6.90028 0.368749 5.96553 1.02513 5.27633ZM16.3333 6.64995H12.4367C11.7923 6.64995 11.27 6.1015 11.27 5.42495C11.27 4.7484 11.7923 4.19995 12.4367 4.19995H16.3333C17.2616 4.19995 18.1518 4.58714 18.8082 5.27633C19.4646 5.96553 19.8333 6.90028 19.8333 7.87495V11.459L19.9552 11.587L26.1496 6.88239C26.5047 6.61269 26.9738 6.5747 27.3641 6.78405C27.7544 6.9934 28 7.41477 28 7.87495V20.125C28 20.8015 27.4777 21.35 26.8333 21.35C26.189 21.35 25.6667 20.8015 25.6667 20.125V10.2729L20.5171 14.184C20.0529 14.5366 19.4135 14.483 19.0084 14.0577L17.8417 12.8327C17.6229 12.6029 17.5 12.2913 17.5 11.9665V7.87495C17.5 7.55006 17.3771 7.23848 17.1583 7.00875C16.9395 6.77901 16.6428 6.64995 16.3333 6.64995Z" fill="white"/>
<path fill-rule="evenodd" clip-rule="evenodd" d="M0.341709 0.341709C0.79732 -0.113903 1.53601 -0.113903 1.99162 0.341709L27.6583 26.0084C28.1139 26.464 28.1139 27.2027 27.6583 27.6583C27.2027 28.1139 26.464 28.1139 26.0084 27.6583L0.341709 1.99162C-0.113903 1.53601 -0.113903 0.79732 0.341709 0.341709Z" fill="white"/>
</svg>
