<svg width="9" height="15" viewBox="0 0 9 15" fill="none" xmlns="http://www.w3.org/2000/svg">
<rect width="9" height="15" fill="#E5E5E5"/>
<g clip-path="url(#clip0_0_1)">
<rect width="375" height="667" transform="translate(-315 -306)" fill="white"/>
<g filter="url(#filter0_d_0_1)">
<rect x="-295" y="-19" width="327" height="53" rx="8" fill="white"/>
<path fill-rule="evenodd" clip-rule="evenodd" d="M1.09288 0.792893C1.48341 0.402369 2.11657 0.402369 2.50709 0.792893L8.50709 6.79289C8.89762 7.18342 8.89762 7.81658 8.50709 8.20711L2.50709 14.2071C2.11657 14.5976 1.48341 14.5976 1.09288 14.2071C0.702357 13.8166 0.702357 13.1834 1.09288 12.7929L6.38577 7.5L1.09288 2.20711C0.702357 1.81658 0.702357 1.18342 1.09288 0.792893Z" fill="#607D8B"/>
</g>
</g>
<defs>
<filter id="filter0_d_0_1" x="-327" y="-43" width="391" height="117" filterUnits="userSpaceOnUse" color-interpolation-filters="sRGB">
<feFlood flood-opacity="0" result="BackgroundImageFix"/>
<feColorMatrix in="SourceAlpha" type="matrix" values="0 0 0 0 0 0 0 0 0 0 0 0 0 0 0 0 0 0 127 0" result="hardAlpha"/>
<feOffset dy="8"/>
<feGaussianBlur stdDeviation="16"/>
<feComposite in2="hardAlpha" operator="out"/>
<feColorMatrix type="matrix" values="0 0 0 0 0 0 0 0 0 0 0 0 0 0 0 0 0 0 0.08 0"/>
<feBlend mode="normal" in2="BackgroundImageFix" result="effect1_dropShadow_0_1"/>
<feBlend mode="normal" in="SourceGraphic" in2="effect1_dropShadow_0_1" result="shape"/>
</filter>
<clipPath id="clip0_0_1">
<rect width="375" height="667" fill="white" transform="translate(-315 -306)"/>
</clipPath>
</defs>
</svg>
