<svg xmlns="http://www.w3.org/2000/svg" width="24" height="24" viewBox="0 0 24 24">
  <g id="icon_dashboard_discover" transform="translate(-101 -610)">
    <g id="Group_314" data-name="Group 314">
      <rect id="Rectangle_78" data-name="Rectangle 78" width="24" height="24" transform="translate(101 610)" fill="none"/>
      <g id="world-shape-public-symbol" transform="translate(101 610)">
        <g id="public">
          <path id="Path_618" data-name="Path 618" d="M12,0A12,12,0,1,0,24,12,12.035,12.035,0,0,0,12,0ZM10.8,21.48A9.683,9.683,0,0,1,2.4,12a13.223,13.223,0,0,1,.24-2.16L8.4,15.6v1.2a2.407,2.407,0,0,0,2.4,2.4Zm8.28-3A2.453,2.453,0,0,0,16.8,16.8H15.6V13.2A1.134,1.134,0,0,0,14.4,12H7.2V9.6H9.6a1.134,1.134,0,0,0,1.2-1.2V6h2.4a2.407,2.407,0,0,0,2.4-2.4V3.12a9.72,9.72,0,0,1,6,8.88A9.489,9.489,0,0,1,19.08,18.48Z" />
        </g>
      </g>
    </g>
  </g>
</svg>
