<svg width="20" height="17" viewBox="0 0 20 17" fill="none" xmlns="http://www.w3.org/2000/svg">
<rect width="20" height="17" fill="#E5E5E5"/>
<g clip-path="url(#clip0_0_1)">
<rect width="375" height="667" transform="translate(-32 -174)" fill="#F5F6FA"/>
<g filter="url(#filter0_d_0_1)">
<rect x="-16" y="-18" width="343" height="53" rx="8" fill="white"/>
<path d="M17 0.5H3C2.20435 0.5 1.44129 0.816071 0.87868 1.37868C0.316071 1.94129 0 2.70435 0 3.5V13.5C0 14.2956 0.316071 15.0587 0.87868 15.6213C1.44129 16.1839 2.20435 16.5 3 16.5H17C17.7956 16.5 18.5587 16.1839 19.1213 15.6213C19.6839 15.0587 20 14.2956 20 13.5V3.5C20 2.70435 19.6839 1.94129 19.1213 1.37868C18.5587 0.816071 17.7956 0.5 17 0.5ZM16.59 2.5L10.71 8.38C10.617 8.47373 10.5064 8.54812 10.3846 8.59889C10.2627 8.64966 10.132 8.6758 10 8.6758C9.86799 8.6758 9.73728 8.64966 9.61542 8.59889C9.49356 8.54812 9.38296 8.47373 9.29 8.38L3.41 2.5H16.59ZM18 13.5C18 13.7652 17.8946 14.0196 17.7071 14.2071C17.5196 14.3946 17.2652 14.5 17 14.5H3C2.73478 14.5 2.48043 14.3946 2.29289 14.2071C2.10536 14.0196 2 13.7652 2 13.5V3.91L7.88 9.79C8.4425 10.3518 9.205 10.6674 10 10.6674C10.795 10.6674 11.5575 10.3518 12.12 9.79L18 3.91V13.5Z" fill="#607D8B"/>
</g>
</g>
<defs>
<filter id="filter0_d_0_1" x="-48" y="-42" width="407" height="117" filterUnits="userSpaceOnUse" color-interpolation-filters="sRGB">
<feFlood flood-opacity="0" result="BackgroundImageFix"/>
<feColorMatrix in="SourceAlpha" type="matrix" values="0 0 0 0 0 0 0 0 0 0 0 0 0 0 0 0 0 0 127 0" result="hardAlpha"/>
<feOffset dy="8"/>
<feGaussianBlur stdDeviation="16"/>
<feComposite in2="hardAlpha" operator="out"/>
<feColorMatrix type="matrix" values="0 0 0 0 0 0 0 0 0 0 0 0 0 0 0 0 0 0 0.08 0"/>
<feBlend mode="normal" in2="BackgroundImageFix" result="effect1_dropShadow_0_1"/>
<feBlend mode="normal" in="SourceGraphic" in2="effect1_dropShadow_0_1" result="shape"/>
</filter>
<clipPath id="clip0_0_1">
<rect width="375" height="667" fill="white" transform="translate(-32 -174)"/>
</clipPath>
</defs>
</svg>
