<svg width="20" height="21" viewBox="0 0 20 21" fill="none" xmlns="http://www.w3.org/2000/svg">
<rect width="20" height="21" fill="#E5E5E5"/>
<g clip-path="url(#clip0_0_1)">
<rect width="375" height="667" transform="translate(-36 -371)" fill="#F5F6FA"/>
<g filter="url(#filter0_d_0_1)">
<rect x="-16" y="-16" width="327" height="53" rx="8" fill="white"/>
<path d="M17.5211 11.5318C17.3003 11.5318 17.0694 11.4614 16.8487 11.4111C16.4015 11.3122 15.9621 11.1811 15.5339 11.0185C15.0683 10.8486 14.5566 10.8575 14.0971 11.0433C13.6376 11.2291 13.2629 11.5788 13.045 12.025L12.8242 12.478C11.8467 11.9326 10.9485 11.2553 10.1546 10.4649C9.36656 9.66878 8.69119 8.76792 8.14742 7.78757L8.56893 7.50574C9.01389 7.28724 9.36256 6.91142 9.54784 6.45059C9.73312 5.98976 9.74191 5.4765 9.57253 5.00956C9.41318 4.57919 9.28243 4.13871 9.18113 3.69101C9.13095 3.46957 9.0908 3.23807 9.0607 3.00657C8.93882 2.29759 8.56855 1.65555 8.01657 1.19607C7.46458 0.736588 6.76716 0.48986 6.04989 0.500319H3.03908C2.60656 0.496246 2.17824 0.585686 1.78328 0.76255C1.38832 0.939414 1.036 1.19955 0.750291 1.52525C0.464586 1.85094 0.252207 2.23456 0.127613 2.64997C0.00301953 3.06539 -0.0308643 3.50285 0.0282687 3.93257C0.562926 8.1493 2.48311 12.0672 5.48551 15.0674C8.48792 18.0676 12.4014 19.9791 16.6078 20.5H16.9892C17.7292 20.5011 18.4438 20.2288 18.9964 19.735C19.3139 19.4502 19.5675 19.1011 19.7405 18.7107C19.9135 18.3203 20.0019 17.8976 20 17.4704V14.4508C19.9877 13.7516 19.7338 13.0784 19.2817 12.5461C18.8296 12.0138 18.2073 11.6553 17.5211 11.5318ZM18.0229 17.571C18.0227 17.7139 17.9922 17.8552 17.9333 17.9853C17.8745 18.1155 17.7887 18.2316 17.6816 18.3259C17.5695 18.423 17.4384 18.4955 17.2967 18.5389C17.1549 18.5822 17.0058 18.5954 16.8587 18.5775C13.1001 18.0942 9.6089 16.3697 6.93578 13.676C4.26267 10.9824 2.55977 7.47287 2.09569 3.70107C2.07972 3.55363 2.09372 3.40448 2.13684 3.26262C2.17996 3.12076 2.25132 2.98914 2.34659 2.87572C2.44064 2.76836 2.55641 2.68231 2.68619 2.6233C2.81597 2.5643 2.9568 2.53368 3.09929 2.5335H6.1101C6.34349 2.52829 6.57138 2.60484 6.75456 2.74998C6.93774 2.89511 7.06474 3.09974 7.11371 3.32866C7.15385 3.60378 7.20403 3.87554 7.26425 4.14394C7.38018 4.67453 7.53448 5.19594 7.7259 5.70406L6.32086 6.3583C6.20073 6.41358 6.09266 6.49212 6.00288 6.5894C5.91309 6.68668 5.84335 6.80079 5.79765 6.92517C5.75196 7.04956 5.73121 7.18177 5.73661 7.31422C5.74201 7.44667 5.77343 7.57675 5.82909 7.69698C7.27348 10.7999 9.76045 13.2941 12.8543 14.7427C13.0987 14.8433 13.3727 14.8433 13.6171 14.7427C13.7422 14.6978 13.8572 14.6284 13.9554 14.5385C14.0536 14.4487 14.1331 14.3402 14.1891 14.2193L14.8113 12.8101C15.3302 12.9962 15.8597 13.1508 16.397 13.2731C16.6647 13.3335 16.9356 13.3839 17.21 13.4241C17.4382 13.4732 17.6422 13.6006 17.787 13.7843C17.9317 13.968 18.008 14.1966 18.0028 14.4306L18.0229 17.571Z" fill="black"/>
</g>
<g filter="url(#filter1_d_0_1)">
<rect x="-16" y="-84" width="327" height="53" rx="8" fill="white"/>
</g>
</g>
<defs>
<filter id="filter0_d_0_1" x="-48" y="-40" width="391" height="117" filterUnits="userSpaceOnUse" color-interpolation-filters="sRGB">
<feFlood flood-opacity="0" result="BackgroundImageFix"/>
<feColorMatrix in="SourceAlpha" type="matrix" values="0 0 0 0 0 0 0 0 0 0 0 0 0 0 0 0 0 0 127 0" result="hardAlpha"/>
<feOffset dy="8"/>
<feGaussianBlur stdDeviation="16"/>
<feComposite in2="hardAlpha" operator="out"/>
<feColorMatrix type="matrix" values="0 0 0 0 0 0 0 0 0 0 0 0 0 0 0 0 0 0 0.08 0"/>
<feBlend mode="normal" in2="BackgroundImageFix" result="effect1_dropShadow_0_1"/>
<feBlend mode="normal" in="SourceGraphic" in2="effect1_dropShadow_0_1" result="shape"/>
</filter>
<filter id="filter1_d_0_1" x="-48" y="-108" width="391" height="117" filterUnits="userSpaceOnUse" color-interpolation-filters="sRGB">
<feFlood flood-opacity="0" result="BackgroundImageFix"/>
<feColorMatrix in="SourceAlpha" type="matrix" values="0 0 0 0 0 0 0 0 0 0 0 0 0 0 0 0 0 0 127 0" result="hardAlpha"/>
<feOffset dy="8"/>
<feGaussianBlur stdDeviation="16"/>
<feComposite in2="hardAlpha" operator="out"/>
<feColorMatrix type="matrix" values="0 0 0 0 0 0 0 0 0 0 0 0 0 0 0 0 0 0 0.08 0"/>
<feBlend mode="normal" in2="BackgroundImageFix" result="effect1_dropShadow_0_1"/>
<feBlend mode="normal" in="SourceGraphic" in2="effect1_dropShadow_0_1" result="shape"/>
</filter>
<clipPath id="clip0_0_1">
<rect width="375" height="667" fill="white" transform="translate(-36 -371)"/>
</clipPath>
</defs>
</svg>
