<svg xmlns="http://www.w3.org/2000/svg" width="24" height="24" viewBox="0 0 24 24">
  <g id="icon_his_Allergies" transform="translate(10606 1976)">
    <rect id="Rectangle_2034" data-name="Rectangle 2034" width="24" height="24" transform="translate(-10606 -1976)" fill="none"/>
    <path id="virus" d="M22.5,10.5a1.5,1.5,0,0,0-1.3.75H19.839a7.836,7.836,0,0,0-1.768-4.26l.966-.966a1.5,1.5,0,1,0-1.061-1.061l-.966.966a7.836,7.836,0,0,0-4.26-1.768V2.8a1.5,1.5,0,1,0-1.5,0V4.161A7.836,7.836,0,0,0,6.99,5.929l-.966-.966A1.5,1.5,0,1,0,4.963,6.024l.966.966a7.836,7.836,0,0,0-1.768,4.26H2.8a1.5,1.5,0,1,0,0,1.5H4.161a7.836,7.836,0,0,0,1.768,4.26l-.966.966a1.5,1.5,0,1,0,1.061,1.061l.966-.966a7.836,7.836,0,0,0,4.26,1.768V21.2a1.5,1.5,0,1,0,1.5,0V19.839a7.836,7.836,0,0,0,4.26-1.768l.966.966a1.5,1.5,0,1,0,1.061-1.061l-.966-.966a7.836,7.836,0,0,0,1.768-4.26H21.2a1.5,1.5,0,1,0,1.3-2.25ZM9.516,11.625a1.313,1.313,0,1,1,1.313-1.313A1.314,1.314,0,0,1,9.516,11.625Zm3.234,4.5a1.5,1.5,0,1,1,1.5-1.5A1.5,1.5,0,0,1,12.75,16.125Zm2.625-5.25A1.125,1.125,0,1,1,16.5,9.75,1.126,1.126,0,0,1,15.375,10.875Z" transform="translate(-10606 -1976)" fill="#607d8b"/>
  </g>
</svg>
