<svg width="23" height="25" viewBox="0 0 23 25" fill="none" xmlns="http://www.w3.org/2000/svg">
<path d="M17.4509 13.3393L10.5938 20.1964C10.5045 20.2768 10.4018 20.317 10.2857 20.317C10.1696 20.317 10.067 20.2768 9.97768 20.1964L6.12054 16.3393C6.04018 16.25 6 16.1473 6 16.0312C6 15.9152 6.04018 15.817 6.12054 15.7366L6.73661 15.1205C6.81696 15.0402 6.91518 15 7.03125 15C7.14732 15 7.25 15.0402 7.33929 15.1205L10.2857 18.067L16.2321 12.1205C16.3214 12.0402 16.4241 12 16.5402 12C16.6563 12 16.7545 12.0402 16.8348 12.1205L17.4509 12.7366C17.5313 12.817 17.5714 12.9152 17.5714 13.0312C17.5714 13.1473 17.5313 13.25 17.4509 13.3393ZM1.71429 22.7143H20.5714V9H1.71429V22.7143ZM6.85714 6.42857V2.57143C6.85714 2.44643 6.81696 2.34375 6.73661 2.26339C6.65625 2.18303 6.55357 2.14286 6.42857 2.14286H5.57143C5.44643 2.14286 5.34375 2.18303 5.26339 2.26339C5.18304 2.34375 5.14286 2.44643 5.14286 2.57143V6.42857C5.14286 6.55357 5.18304 6.65625 5.26339 6.73661C5.34375 6.81696 5.44643 6.85714 5.57143 6.85714H6.42857C6.55357 6.85714 6.65625 6.81696 6.73661 6.73661C6.81696 6.65625 6.85714 6.55357 6.85714 6.42857ZM17.1429 6.42857V2.57143C17.1429 2.44643 17.1027 2.34375 17.0223 2.26339C16.942 2.18303 16.8393 2.14286 16.7143 2.14286H15.8571C15.7321 2.14286 15.6295 2.18303 15.5491 2.26339C15.4688 2.34375 15.4286 2.44643 15.4286 2.57143V6.42857C15.4286 6.55357 15.4688 6.65625 15.5491 6.73661C15.6295 6.81696 15.7321 6.85714 15.8571 6.85714H16.7143C16.8393 6.85714 16.942 6.81696 17.0223 6.73661C17.1027 6.65625 17.1429 6.55357 17.1429 6.42857ZM22.2857 5.57143V22.7143C22.2857 23.1786 22.1161 23.5804 21.7768 23.9196C21.4375 24.2589 21.0357 24.4286 20.5714 24.4286H1.71429C1.25 24.4286 0.848214 24.2589 0.508929 23.9196C0.169643 23.5804 0 23.1786 0 22.7143V5.57143C0 5.10714 0.169643 4.70536 0.508929 4.36607C0.848214 4.02679 1.25 3.85714 1.71429 3.85714H3.42857V2.57143C3.42857 1.98214 3.63839 1.47768 4.05804 1.05803C4.47768 0.638391 4.98214 0.42857 5.57143 0.42857H6.42857C7.01786 0.42857 7.52232 0.638391 7.94196 1.05803C8.36161 1.47768 8.57143 1.98214 8.57143 2.57143V3.85714H13.7143V2.57143C13.7143 1.98214 13.9241 1.47768 14.3438 1.05803C14.7634 0.638391 15.2679 0.42857 15.8571 0.42857H16.7143C17.3036 0.42857 17.808 0.638391 18.2277 1.05803C18.6473 1.47768 18.8571 1.98214 18.8571 2.57143V3.85714H20.5714C21.0357 3.85714 21.4375 4.02679 21.7768 4.36607C22.1161 4.70536 22.2857 5.10714 22.2857 5.57143Z" fill="#78909C"/>
</svg>
