<svg width="40" height="40" viewBox="0 0 40 40" fill="none" xmlns="http://www.w3.org/2000/svg">
<rect width="40" height="40" rx="20" fill="#E3F2FD"/>
<path d="M14.0334 24.8208H8.99975C8.40099 23.4553 8.06194 21.99 8 20.5L8.02197 20.506L14.0295 22.2746L14.0334 24.8208Z" fill="#2962FF"/>
<path d="M25.2177 21.5958V26.2829C25.2164 26.4672 25.1539 26.6459 25.04 26.7909C24.9262 26.9358 24.7675 27.0388 24.5889 27.0836C21.5765 27.8473 18.4215 27.8473 15.4091 27.0836C15.2306 27.0387 15.072 26.9357 14.9583 26.7908C14.8447 26.6458 14.7824 26.4672 14.7812 26.2829V21.5958C14.7812 21.483 14.826 21.3748 14.9057 21.295C14.9854 21.2152 15.0935 21.1704 15.2062 21.1704H24.7928C24.9054 21.1707 25.0134 21.2156 25.093 21.2953C25.1726 21.375 25.2175 21.483 25.2177 21.5958Z" fill="#2962FF"/>
<path d="M25.9666 25.5735H30.6124C29.5961 27.5109 28.0705 29.1336 26.2002 30.2663C24.3298 31.3989 22.1859 31.9984 20 32.0001C17.8142 31.9984 15.6703 31.3989 13.7999 30.2663C11.9296 29.1336 10.4039 27.5109 9.3877 25.5735H14.0335V26.2871C14.0336 26.6386 14.1509 26.9801 14.3668 27.2573C14.5827 27.5345 14.8847 27.7316 15.2252 27.8174C16.7855 28.2151 18.3891 28.4168 19.9991 28.418C21.6094 28.4169 23.2133 28.2151 24.7739 27.8174C25.1143 27.7315 25.4163 27.5343 25.6322 27.2571C25.848 26.9799 25.9654 26.6386 25.9656 26.2871L25.9666 25.5735Z" fill="#2962FF"/>
<path d="M20.0006 8C16.8704 8.00329 13.8655 9.23116 11.6272 11.4216C9.38876 13.612 8.09413 16.5915 8.01953 19.7243L14.039 21.4968C14.0641 21.2037 14.198 20.9306 14.4144 20.7316C14.6308 20.5326 14.9139 20.4221 15.2078 20.4219H24.7944C25.0881 20.4223 25.3709 20.5329 25.5871 20.7319C25.8032 20.931 25.9371 21.2039 25.9621 21.4968L31.9816 19.7243C31.907 16.5915 30.6124 13.612 28.374 11.4216C26.1356 9.23116 23.1307 8.00329 20.0006 8ZM17.5462 16.9488C16.7464 18.7504 14.121 18.7704 14.009 18.7704C13.9098 18.7704 13.8148 18.731 13.7447 18.6608C13.6745 18.5906 13.6352 18.4954 13.6352 18.3961C13.6352 18.297 13.6744 18.2019 13.7443 18.1318C13.8142 18.0616 13.909 18.022 14.008 18.0218C14.03 18.0218 16.2604 17.9997 16.8623 16.6436C16.8822 16.5987 16.9108 16.5582 16.9464 16.5244C16.9819 16.4907 17.0239 16.4642 17.0696 16.4467C17.1154 16.4291 17.1642 16.4207 17.2132 16.4221C17.2622 16.4234 17.3105 16.4344 17.3552 16.4544C17.4002 16.4743 17.4408 16.5028 17.4748 16.5384C17.5088 16.574 17.5354 16.616 17.5532 16.6619C17.5709 16.7079 17.5794 16.7569 17.5782 16.8061C17.577 16.8553 17.5662 16.9038 17.5462 16.9488ZM25.9931 18.7704C25.8811 18.7704 23.2558 18.7494 22.456 16.9488C22.4159 16.8582 22.4134 16.7553 22.449 16.6628C22.4847 16.5703 22.5554 16.4957 22.6459 16.4554C22.7363 16.4152 22.839 16.4126 22.9313 16.448C23.0237 16.4835 23.0984 16.5542 23.1388 16.6446C23.7387 18.0008 25.9711 18.0228 25.9931 18.0228C26.0921 18.023 26.1869 18.0626 26.2568 18.1328C26.3267 18.2029 26.366 18.298 26.366 18.3971C26.3662 18.4462 26.3565 18.4949 26.3378 18.5403C26.3192 18.5857 26.2917 18.627 26.2571 18.6617C26.2224 18.6965 26.1813 18.7241 26.136 18.7429C26.0907 18.7617 26.0421 18.7714 25.9931 18.7714V18.7704Z" fill="#2962FF"/>
<path d="M31.9993 20.5C31.939 21.9896 31.602 23.4548 31.0055 24.8208H25.9668V22.2755L31.9743 20.507L31.9993 20.5Z" fill="#2962FF"/>
<path d="M31.9739 20.507C31.9129 21.9948 31.5738 23.4581 30.9741 24.8208H31.0061C31.6026 23.4548 31.9397 21.9896 31.9999 20.5L31.9739 20.507ZM8.02685 20.507L8.00488 20.501C8.06682 21.9909 8.40587 23.4563 9.00463 24.8218H9.0316C8.43008 23.4591 8.08926 21.9955 8.02685 20.507Z" fill="#2962FF"/>
<path d="M25.2187 21.596V26.2831C25.2174 26.4675 25.1549 26.6462 25.041 26.7911C24.9272 26.936 24.7685 27.039 24.5898 27.0838C21.5775 27.8476 18.4225 27.8476 15.4101 27.0838C15.2316 27.039 15.073 26.936 14.9593 26.791C14.8456 26.6461 14.7833 26.4674 14.7822 26.2831V21.596C14.7822 21.4832 14.827 21.375 14.9067 21.2952C14.9864 21.2155 15.0945 21.1707 15.2072 21.1707H24.7938C24.9064 21.1709 25.0144 21.2158 25.094 21.2955C25.1736 21.3752 25.2184 21.4833 25.2187 21.596Z" fill="#2962FF"/>
</svg>
