<svg width="40" height="40" viewBox="0 0 40 40" fill="none" xmlns="http://www.w3.org/2000/svg">
<path d="M21.4978 0.912851L21.359 1.93503L21.0183 4.444L20.8141 5.95551C20.8031 6.04501 20.7607 6.1277 20.6944 6.18892C20.6282 6.25013 20.5425 6.2859 20.4524 6.28987H19.5463C19.4562 6.2859 19.3704 6.25013 19.3042 6.18892C19.238 6.1277 19.1956 6.04501 19.1846 5.95551L18.9806 4.44351H18.9785L18.6399 1.93453L18.5011 0.912851C18.4043 0.203998 18.6272 0 19.0102 0H20.989C21.3716 0 21.5946 0.203998 21.4979 0.912851" fill="#3EAAAB"/>
<path d="M20.9897 40.0001H19.0109C18.6283 40.0001 18.4053 39.7961 18.502 39.0872L18.6408 38.0651L18.9794 35.5561H18.9815L19.1855 34.0441C19.1965 33.9546 19.2389 33.8719 19.3051 33.8107C19.3713 33.7495 19.4571 33.7137 19.5472 33.7097H20.4535C20.5436 33.7137 20.6294 33.7495 20.6956 33.8107C20.7618 33.8719 20.8042 33.9546 20.8152 34.0441L21.0192 35.5561L21.3599 38.0651L21.4986 39.0872C21.5954 39.7959 21.3725 40.0001 20.9897 40.0001" fill="#3EAAAB"/>
<path d="M39.9998 19.0109V20.9897C39.9998 21.3723 39.7958 21.5953 39.087 21.4986L38.0648 21.3598L35.5558 21.0191L34.0443 20.8148C33.9548 20.8037 33.8721 20.7613 33.8109 20.6951C33.7497 20.6289 33.7139 20.5431 33.71 20.4531V19.5469C33.7139 19.4568 33.7497 19.3711 33.8109 19.3049C33.8721 19.2386 33.9548 19.1963 34.0443 19.1852L35.5563 18.9792L38.0653 18.6406L39.0875 18.5018C39.7962 18.405 40.0003 18.628 40.0003 19.0107" fill="#3EAAAB"/>
<path d="M6.28987 19.5469V20.4533C6.2859 20.5434 6.25013 20.6291 6.18891 20.6954C6.1277 20.7616 6.04501 20.804 5.95551 20.815L4.44351 21.019L1.93453 21.3596L0.912359 21.4984C0.203998 21.5952 0 21.3723 0 20.9897V19.0109C0 18.6283 0.203998 18.4053 0.912851 18.502L1.93503 18.6408L4.444 18.9794V18.9815L5.956 19.1855C6.0455 19.1965 6.12819 19.2389 6.18941 19.3051C6.25062 19.3713 6.28639 19.4571 6.29037 19.5472" fill="#3EAAAB"/>
<path d="M19.9998 20.7449C19.8524 20.7449 19.7084 20.7012 19.5859 20.6193C19.4634 20.5375 19.368 20.4212 19.3116 20.2851C19.2552 20.1489 19.2405 19.9992 19.2692 19.8547C19.2979 19.7102 19.3689 19.5775 19.4731 19.4733C19.5772 19.3691 19.7099 19.2982 19.8544 19.2694C19.9989 19.2407 20.1487 19.2554 20.2848 19.3118C20.4209 19.3682 20.5373 19.4637 20.6191 19.5862C20.7009 19.7087 20.7446 19.8527 20.7446 20C20.7446 20.1976 20.6661 20.387 20.5264 20.5267C20.3868 20.6664 20.1973 20.7449 19.9998 20.7449Z" fill="white"/>
<path d="M12.2793 14.1016C13.1894 13.1682 14.3025 12.7014 15.6185 12.7014C16.9356 12.7014 18.0607 13.1682 18.9939 14.1017L19.9997 15.1431L21.0051 14.1377C21.9387 13.1804 23.0639 12.7016 24.3806 12.7014C25.6974 12.7012 26.8104 13.18 27.7199 14.1377L27.8275 14.2096C28.6893 15.0954 29.1442 16.1666 29.1921 17.4234C29.24 18.6801 28.869 19.7873 28.079 20.7448H24.4162L23.1235 17.6564C23.0282 17.4175 22.8546 17.2979 22.6028 17.2975C22.4888 17.2923 22.3757 17.32 22.2771 17.3772C22.1784 17.4345 22.0983 17.5189 22.0463 17.6205L19.9637 22.2886L18.2041 18.77C18.1601 18.6736 18.0893 18.5918 18.0002 18.5345C17.9111 18.4772 17.8073 18.4467 17.7014 18.4467C17.5954 18.4467 17.4917 18.4772 17.4026 18.5345C17.3134 18.5918 17.2427 18.6736 17.1987 18.77L16.1929 20.7448H11.9201C11.1302 19.7876 10.7591 18.6804 10.8068 17.4233C10.8554 16.1667 11.3103 15.0954 12.1716 14.2095L12.2793 14.1016ZM19.497 23.8688C19.5409 23.9652 19.6117 24.047 19.7008 24.1043C19.7899 24.1616 19.8936 24.1921 19.9996 24.1921C20.1056 24.1921 20.2093 24.1616 20.2984 24.1043C20.3875 24.047 20.4583 23.9652 20.5022 23.8688L22.5492 19.3084L23.6263 21.8939H27.0017L20.4662 28.573C20.4131 28.6411 20.3449 28.696 20.2671 28.7334C20.1892 28.7708 20.1038 28.7896 20.0174 28.7885C19.9262 28.7875 19.8362 28.7679 19.7528 28.7308C19.6694 28.6937 19.5945 28.64 19.5327 28.573L12.9972 21.8939H16.9114L17.7013 20.3142L19.497 23.8688Z" fill="#B31857"/>
<circle cx="32" cy="32" r="8" fill="#FFC9C5"/>
<path d="M32 31.4C31.8409 31.4 31.6883 31.4632 31.5757 31.5757C31.4632 31.6883 31.4 31.8409 31.4 32V34.4C31.4 34.5591 31.4632 34.7117 31.5757 34.8243C31.6883 34.9368 31.8409 35 32 35C32.1591 35 32.3117 34.9368 32.4243 34.8243C32.5368 34.7117 32.6 34.5591 32.6 34.4V32C32.6 31.8409 32.5368 31.6883 32.4243 31.5757C32.3117 31.4632 32.1591 31.4 32 31.4ZM32.228 29.048C32.0819 28.988 31.9181 28.988 31.772 29.048C31.6984 29.0766 31.6311 29.1194 31.574 29.174C31.521 29.2323 31.4784 29.2993 31.448 29.372C31.4144 29.4432 31.398 29.5213 31.4 29.6C31.3995 29.679 31.4147 29.7572 31.4445 29.8303C31.4744 29.9034 31.5184 29.9699 31.574 30.026C31.6323 30.079 31.6993 30.1216 31.772 30.152C31.8629 30.1893 31.9616 30.2038 32.0594 30.1941C32.1572 30.1843 32.2511 30.1508 32.3328 30.0962C32.4146 30.0417 32.4817 29.968 32.5283 29.8814C32.5749 29.7949 32.5995 29.6983 32.6 29.6C32.5978 29.4411 32.5356 29.289 32.426 29.174C32.3689 29.1194 32.3017 29.0766 32.228 29.048ZM32 26C30.8133 26 29.6533 26.3519 28.6666 27.0112C27.6799 27.6705 26.9109 28.6075 26.4567 29.7039C26.0026 30.8003 25.8838 32.0067 26.1153 33.1705C26.3468 34.3344 26.9182 35.4035 27.7574 36.2426C28.5965 37.0818 29.6656 37.6532 30.8295 37.8847C31.9933 38.1162 33.1997 37.9974 34.2961 37.5433C35.3925 37.0892 36.3295 36.3201 36.9888 35.3334C37.6481 34.3467 38 33.1867 38 32C38 31.2121 37.8448 30.4319 37.5433 29.7039C37.2418 28.9759 36.7998 28.3145 36.2426 27.7574C35.6855 27.2002 35.0241 26.7583 34.2961 26.4567C33.5682 26.1552 32.7879 26 32 26ZM32 36.8C31.0507 36.8 30.1226 36.5185 29.3333 35.9911C28.5439 35.4636 27.9287 34.714 27.5654 33.8369C27.2021 32.9598 27.107 31.9947 27.2922 31.0636C27.4774 30.1325 27.9346 29.2772 28.6059 28.6059C29.2772 27.9346 30.1325 27.4774 31.0636 27.2922C31.9947 27.107 32.9598 27.2021 33.8369 27.5654C34.714 27.9287 35.4636 28.5439 35.9911 29.3333C36.5185 30.1226 36.8 31.0507 36.8 32C36.8 33.273 36.2943 34.4939 35.3941 35.3941C34.4939 36.2943 33.273 36.8 32 36.8Z" fill="#F44336"/>
<path fill-rule="evenodd" clip-rule="evenodd" d="M22.2762 4.57596L22.6148 2.07349C30.5176 3.21958 36.7802 9.48425 37.9262 17.385L35.4237 17.7235C34.4311 10.9457 29.056 5.5708 22.2762 4.57596ZM2.07324 17.385C3.21934 9.48425 9.48401 3.21958 17.3847 2.07349L17.7233 4.57596C10.9434 5.56856 5.56832 10.9437 4.57571 17.7235L2.07324 17.385ZM35.1759 23.5764C35.2763 23.1495 35.3592 22.716 35.4237 22.2765L37.9262 22.615C37.8162 23.3738 37.6589 24.1174 37.4575 24.8429C36.7684 24.3166 36.001 23.8876 35.1759 23.5764ZM23.5765 35.1761C23.1495 35.2766 22.7158 35.3596 22.2761 35.424L22.6147 37.9265C23.3737 37.8165 24.1175 37.6592 24.8431 37.4578C24.3168 36.7687 23.8877 36.0013 23.5765 35.1761ZM2.07324 22.615L4.57571 22.2765C5.57045 29.0563 10.9456 34.4314 17.7233 35.424L17.3847 37.9265C9.48401 36.7804 3.21934 30.5158 2.07324 22.615Z" fill="#B31857"/>
</svg>
