<svg width="21" height="18" viewBox="0 0 21 18" fill="none" xmlns="http://www.w3.org/2000/svg">
<path d="M12.5219 7.95895H11.5219V6.95895C11.5219 6.69374 11.4165 6.43938 11.229 6.25185C11.0415 6.06431 10.7871 5.95895 10.5219 5.95895C10.2567 5.95895 10.0023 6.06431 9.81478 6.25185C9.62724 6.43938 9.52188 6.69374 9.52188 6.95895V7.95895H8.52188C8.25667 7.95895 8.00231 8.06431 7.81477 8.25185C7.62724 8.43938 7.52188 8.69374 7.52188 8.95895C7.52188 9.22417 7.62724 9.47852 7.81477 9.66606C8.00231 9.8536 8.25667 9.95895 8.52188 9.95895H9.52188V10.959C9.52188 11.2242 9.62724 11.4785 9.81478 11.6661C10.0023 11.8536 10.2567 11.959 10.5219 11.959C10.7871 11.959 11.0415 11.8536 11.229 11.6661C11.4165 11.4785 11.5219 11.2242 11.5219 10.959V9.95895H12.5219C12.7871 9.95895 13.0415 9.8536 13.229 9.66606C13.4165 9.47852 13.5219 9.22417 13.5219 8.95895C13.5219 8.69374 13.4165 8.43938 13.229 8.25185C13.0415 8.06431 12.7871 7.95895 12.5219 7.95895ZM18.6819 1.95895C17.6156 0.903658 16.2072 0.264225 14.7109 0.156036C13.2146 0.0478475 11.7289 0.478028 10.5219 1.36895C9.24954 0.422592 7.66587 -0.00653423 6.0898 0.167992C4.51373 0.342518 3.06232 1.10773 2.02786 2.30954C0.993389 3.51135 0.452704 5.06047 0.514683 6.64497C0.576662 8.22946 1.2367 9.73162 2.36188 10.849L8.36188 16.899C8.92438 17.4608 9.68688 17.7763 10.4819 17.7763C11.2769 17.7763 12.0394 17.4608 12.6019 16.899L18.6019 10.849C19.1928 10.2716 19.6638 9.58316 19.9878 8.82319C20.3118 8.06322 20.4825 7.24671 20.4899 6.42058C20.4973 5.59446 20.3414 4.77501 20.0311 4.00933C19.7209 3.24366 19.2623 2.54685 18.6819 1.95895ZM17.2719 9.41895L11.2719 15.419C11.1789 15.5127 11.0683 15.5871 10.9465 15.6378C10.8246 15.6886 10.6939 15.7148 10.5619 15.7148C10.4299 15.7148 10.2992 15.6886 10.1773 15.6378C10.0554 15.5871 9.94485 15.5127 9.85188 15.419L3.85188 9.41895C3.06764 8.6173 2.62849 7.54042 2.62849 6.41895C2.62849 5.29749 3.06764 4.22061 3.85188 3.41895C4.65104 2.62994 5.72885 2.18752 6.85188 2.18752C7.97491 2.18752 9.05273 2.62994 9.85188 3.41895C9.94485 3.51268 10.0554 3.58708 10.1773 3.63785C10.2992 3.68861 10.4299 3.71475 10.5619 3.71475C10.6939 3.71475 10.8246 3.68861 10.9465 3.63785C11.0683 3.58708 11.1789 3.51268 11.2719 3.41895C12.071 2.62994 13.1489 2.18752 14.2719 2.18752C15.3949 2.18752 16.4727 2.62994 17.2719 3.41895C18.0621 4.2215 18.5051 5.30264 18.5051 6.42895C18.5051 7.55527 18.0621 8.63641 17.2719 9.43895V9.41895Z" fill="#78909C"/>
</svg>
