<svg xmlns="http://www.w3.org/2000/svg" xmlns:xlink="http://www.w3.org/1999/xlink" width="191.799" height="167.445" viewBox="0 0 191.799 167.445">
  <defs>
    <linearGradient id="linear-gradient" y1="0.5" x2="1" y2="0.5" gradientUnits="objectBoundingBox">
      <stop offset="0.044" stop-color="#e29439"/>
      <stop offset="0.826" stop-color="#da7500"/>
    </linearGradient>
    <linearGradient id="linear-gradient-2" y1="0.5" x2="1" y2="0.5" gradientUnits="objectBoundingBox">
      <stop offset="0.028" stop-color="#da7500"/>
      <stop offset="0.854" stop-color="#bf6408"/>
    </linearGradient>
    <linearGradient id="linear-gradient-3" x1="0.405" y1="0.216" x2="0.595" y2="0.784" gradientUnits="objectBoundingBox">
      <stop offset="0.205" stop-color="#7fd8f7"/>
      <stop offset="0.97" stop-color="#7fbef7"/>
    </linearGradient>
  </defs>
  <g id="illustration_Prescription_mega" transform="translate(-91.601 -136.91)">
    <g id="Group_1699" data-name="Group 1699" transform="translate(167.68 136.911)">
      <ellipse id="Ellipse_50" data-name="Ellipse 50" cx="29.074" cy="21.321" rx="29.074" ry="21.321" transform="translate(10.797 59.538)" fill="#368ead" opacity="0.57" style="mix-blend-mode: multiply;isolation: isolate"/>
      <ellipse id="Ellipse_51" data-name="Ellipse 51" cx="26.841" cy="20.442" rx="26.841" ry="20.442" transform="translate(5.871 59.691)" fill="#aa5509"/>
      <ellipse id="Ellipse_52" data-name="Ellipse 52" cx="26.841" cy="20.442" rx="26.841" ry="20.442" transform="translate(5.871 5.635)" fill="#da7500"/>
      <ellipse id="Ellipse_53" data-name="Ellipse 53" cx="26.841" cy="20.442" rx="26.841" ry="20.442" transform="translate(5.871 5.635)" fill="#da7500"/>
      <rect id="Rectangle_1827" data-name="Rectangle 1827" width="53.682" height="50.936" transform="translate(5.871 26.077)" fill="url(#linear-gradient)"/>
      <path id="Path_333" data-name="Path 333" d="M551.973,826.746h-5.248c-.784-.806-42.4-.806-43.186,0h-5.247V838.89h0c0,5.232,2.621,10.463,7.862,14.455,10.482,7.983,27.477,7.984,37.959,0,5.241-3.992,7.861-9.223,7.861-14.455h0Z" transform="translate(-492.42 -761.877)" fill="url(#linear-gradient-2)"/>
      <ellipse id="Ellipse_54" data-name="Ellipse 54" cx="32.712" cy="20.442" rx="32.712" ry="20.442" transform="translate(0 10.697)" fill="#e9e8e6"/>
      <rect id="Rectangle_1828" data-name="Rectangle 1828" width="65.423" height="13.078" transform="translate(0 19.043)" fill="#e9e8e6"/>
      <ellipse id="Ellipse_55" data-name="Ellipse 55" cx="32.712" cy="20.442" rx="32.712" ry="20.442" transform="translate(0)" fill="#fff"/>
      <ellipse id="Ellipse_56" data-name="Ellipse 56" cx="23.925" cy="14.951" rx="23.925" ry="14.951" transform="translate(8.787 4.092)" fill="#e9e8e6"/>
      <path id="Rectangle_1829" data-name="Rectangle 1829" d="M3.786,0h8.49a3.786,3.786,0,0,1,3.786,3.786v0a3.786,3.786,0,0,1-3.786,3.786H3.786A3.786,3.786,0,0,1,0,3.786v0A3.786,3.786,0,0,1,3.786,0Z" transform="translate(38.672 87.102) rotate(-23.43)" fill="#ed8014"/>
      <rect id="Rectangle_1830" data-name="Rectangle 1830" width="16.061" height="7.572" rx="3.786" transform="translate(24.413 85.672) rotate(14.718)" fill="#ed8014"/>
      <path id="Rectangle_1831" data-name="Rectangle 1831" d="M3.786,0h8.49a3.786,3.786,0,0,1,3.786,3.786v0a3.786,3.786,0,0,1-3.786,3.786H3.786A3.786,3.786,0,0,1,0,3.786v0A3.786,3.786,0,0,1,3.786,0Z" transform="matrix(0.92, -0.393, 0.393, 0.92, 28.975, 81.394)" fill="#ed8014"/>
      <path id="Rectangle_1832" data-name="Rectangle 1832" d="M3.786,0h8.49a3.786,3.786,0,0,1,3.786,3.786v0a3.786,3.786,0,0,1-3.786,3.786H3.786A3.786,3.786,0,0,1,0,3.786v0A3.786,3.786,0,0,1,3.786,0Z" transform="translate(16.572 92.989) rotate(-114.833)" fill="#ed8014"/>
      <path id="Path_334" data-name="Path 334" d="M544.112,776.722c-10.482,5.077-27.477,5.076-37.959,0-5.241-2.538-7.861-5.865-7.862-9.192h0v22.7h0c0,3.327,2.621,6.653,7.862,9.192,10.482,5.077,27.477,5.077,37.959,0,5.241-2.538,7.861-5.865,7.861-9.192h0v-22.7h0C551.973,770.857,549.352,774.184,544.112,776.722Z" transform="translate(-492.42 -719.404)" fill="#e9e8e6"/>
      <path id="Path_335" data-name="Path 335" d="M526.844,799.417c10.482,5.077,27.477,5.077,37.959,0,5.241-2.538,7.861-5.865,7.861-9.192h0v-22.7h0C574.12,798.39,526.844,799.417,526.844,799.417Z" transform="translate(-513.112 -719.404)" fill="#dbdad9"/>
    </g>
    <g id="Group_2081" data-name="Group 2081" transform="translate(-48.038 10.354)">
      <path id="Path_348" data-name="Path 348" d="M808.171,889.952l-7.414-3.911a.706.706,0,0,1-.294-.951h0a.706.706,0,0,1,.951-.295l7.414,3.911a.706.706,0,0,1,.294.951h0A.706.706,0,0,1,808.171,889.952Z" transform="translate(-561.942 -620.809)" fill="#f3f3f3" opacity="0.61"/>
      <path id="Path_349" data-name="Path 349" d="M965.753,797.434l-7.414-3.911a.706.706,0,0,1-.295-.951h0a.706.706,0,0,1,.952-.295l7.414,3.911a.707.707,0,0,1,.295.951h0A.707.707,0,0,1,965.753,797.434Z" transform="translate(-676.136 -553.764)" fill="#f3f3f3" opacity="0.61"/>
      <path id="Path_364" data-name="Path 364" d="M859.818,797.782l-62.607,35.992a6.128,6.128,0,0,1-5.5.217l-34.831-20.11c-1.412-.815-1.238-2.235.389-3.17l62.607-35.992a6.128,6.128,0,0,1,5.5-.218l34.831,20.11C861.619,795.427,861.445,796.847,859.818,797.782Z" transform="translate(-529.724 -540.543)" fill="#368ead" opacity="0.57" style="mix-blend-mode: multiply;isolation: isolate"/>
      <path id="Path_365" data-name="Path 365" d="M848.334,790.77l-62.74,36.223a6.124,6.124,0,0,1-5.51.228l-34.831-20.109c-1.412-.815-1.235-2.24.4-3.181l62.74-36.223a6.124,6.124,0,0,1,5.51-.228l34.831,20.109C850.142,788.4,849.965,789.829,848.334,790.77Z" transform="translate(-521.302 -535.455)" fill="url(#linear-gradient-3)"/>
      <path id="Path_366" data-name="Path 366" d="M891.858,809.287l-57.478,33.185a1.618,1.618,0,0,1-1.455.06l-.1-.058c-.373-.215-.326-.591.1-.84l57.478-33.185a1.617,1.617,0,0,1,1.455-.06l.1.058C892.335,808.662,892.288,809.038,891.858,809.287Z" transform="translate(-585.269 -565.393)" fill="#fff"/>
      <path id="Path_373" data-name="Path 373" d="M808.76,888.934l-.148-.083h0l-1.059-.591-1.676-.934h0l-3.928-2.189a3.364,3.364,0,0,0-4.527,1.224,3.236,3.236,0,0,0,1.247,4.443l3.843,2.142h0l.984.548.147.082h0l.355.2,1.483.826a3.364,3.364,0,0,0,4.527-1.224h0A3.236,3.236,0,0,0,808.76,888.934Z" transform="translate(-559.484 -620.809)" fill="#44accc"/>
      <g id="Group_1718" data-name="Group 1718" transform="translate(237.074 262.218)">
        <path id="Path_374" data-name="Path 374" d="M797.173,885.062l6.953,3.95a3.476,3.476,0,0,0,4.725-1.3h0a3.476,3.476,0,0,0-1.3-4.725l-6.954-3.95a3.475,3.475,0,0,0-4.725,1.3h0A3.476,3.476,0,0,0,797.173,885.062Z" transform="translate(-795.422 -878.586)" fill="#e5e5e5"/>
        <g id="Group_1717" data-name="Group 1717" transform="translate(4.453 2.398)">
          <path id="Path_375" data-name="Path 375" d="M821.367,890.834l-1.917-1.089a3.476,3.476,0,0,0-4.725,1.3h0a3.476,3.476,0,0,0,1.3,4.725l.37.21,1.547.879a3.475,3.475,0,0,0,4.725-1.3h0A3.476,3.476,0,0,0,821.367,890.834Z" transform="translate(-813.537 -888.745)" fill="#1369aa"/>
          <path id="Path_376" data-name="Path 376" d="M818.9,889.088l-2.485-1.412c-1.657-.941-3.215-.033-4.157,1.624h0c-.942,1.657-1.012,3.411.645,4.352l1.026.583,1.548.879a3.475,3.475,0,0,0,4.725-1.3h0A3.476,3.476,0,0,0,818.9,889.088Z" transform="translate(-811.595 -887.296)" fill="#1369aa"/>
        </g>
      </g>
      <path id="Path_377" data-name="Path 377" d="M861.265,858.061l-.148-.083h0l-1.059-.591-1.676-.934h0l-3.928-2.19a3.365,3.365,0,0,0-4.527,1.224,3.235,3.235,0,0,0,1.247,4.443l3.843,2.142h0l.984.548.147.082h0l.354.2,1.483.827a3.365,3.365,0,0,0,4.527-1.224h0A3.236,3.236,0,0,0,861.265,858.061Z" transform="translate(-597.533 -598.438)" fill="#44accc"/>
      <g id="Group_1720" data-name="Group 1720" transform="translate(251.531 253.717)">
        <path id="Path_378" data-name="Path 378" d="M849.678,854.188l6.953,3.95a3.475,3.475,0,0,0,4.725-1.3h0a3.476,3.476,0,0,0-1.3-4.725l-6.953-3.95a3.476,3.476,0,0,0-4.725,1.3h0A3.476,3.476,0,0,0,849.678,854.188Z" transform="translate(-847.927 -847.712)" fill="#e5e5e5"/>
        <g id="Group_1719" data-name="Group 1719" transform="translate(4.453 2.398)">
          <path id="Path_379" data-name="Path 379" d="M873.872,859.961l-1.917-1.089a3.476,3.476,0,0,0-4.725,1.3h0a3.476,3.476,0,0,0,1.3,4.725l.37.21,1.548.879a3.475,3.475,0,0,0,4.725-1.3h0A3.476,3.476,0,0,0,873.872,859.961Z" transform="translate(-866.042 -857.872)" fill="#1369aa"/>
          <path id="Path_380" data-name="Path 380" d="M871.406,858.215l-2.485-1.412c-1.657-.941-3.215-.033-4.157,1.624h0c-.941,1.657-1.013,3.411.645,4.352l1.027.583,1.547.879a3.476,3.476,0,0,0,4.725-1.3h0A3.476,3.476,0,0,0,871.406,858.215Z" transform="translate(-864.1 -856.423)" fill="#1369aa"/>
        </g>
      </g>
      <path id="Path_381" data-name="Path 381" d="M860.676,859.079l-7.414-3.911a.706.706,0,0,1-.294-.951h0a.706.706,0,0,1,.952-.295l7.414,3.911a.707.707,0,0,1,.295.951h0A.706.706,0,0,1,860.676,859.079Z" transform="translate(-599.99 -598.438)" fill="#f3f3f3" opacity="0.61"/>
      <path id="Path_382" data-name="Path 382" d="M913.77,827.217l-.148-.083h0l-1.06-.591-1.676-.934h0l-3.927-2.19a3.365,3.365,0,0,0-4.527,1.224,3.235,3.235,0,0,0,1.247,4.443l3.843,2.142h0l.984.548.147.082h0l.354.2,1.483.827a3.365,3.365,0,0,0,4.527-1.224h0A3.236,3.236,0,0,0,913.77,827.217Z" transform="translate(-635.582 -576.086)" fill="#44accc"/>
      <g id="Group_1722" data-name="Group 1722" transform="translate(265.987 245.225)">
        <path id="Path_383" data-name="Path 383" d="M902.184,823.345l6.953,3.95a3.475,3.475,0,0,0,4.725-1.3h0a3.476,3.476,0,0,0-1.3-4.725l-6.954-3.95a3.476,3.476,0,0,0-4.725,1.3h0A3.475,3.475,0,0,0,902.184,823.345Z" transform="translate(-900.432 -816.869)" fill="#e5e5e5"/>
        <g id="Group_1721" data-name="Group 1721" transform="translate(4.453 2.398)">
          <path id="Path_384" data-name="Path 384" d="M926.378,829.118l-1.918-1.089a3.475,3.475,0,0,0-4.724,1.3h0a3.476,3.476,0,0,0,1.3,4.725l.37.21,1.548.879a3.476,3.476,0,0,0,4.725-1.3h0A3.476,3.476,0,0,0,926.378,829.118Z" transform="translate(-918.548 -827.029)" fill="#1369aa"/>
          <path id="Path_385" data-name="Path 385" d="M923.911,827.372l-2.486-1.412c-1.657-.941-3.215-.033-4.157,1.624h0c-.941,1.657-1.013,3.41.645,4.352l1.027.583,1.548.879a3.475,3.475,0,0,0,4.725-1.3h0A3.476,3.476,0,0,0,923.911,827.372Z" transform="translate(-916.605 -825.58)" fill="#1369aa"/>
        </g>
      </g>
      <path id="Path_386" data-name="Path 386" d="M913.181,828.236l-7.414-3.911a.706.706,0,0,1-.295-.951h0a.706.706,0,0,1,.952-.295l7.414,3.911a.706.706,0,0,1,.295.951h0A.707.707,0,0,1,913.181,828.236Z" transform="translate(-638.039 -576.086)" fill="#f3f3f3" opacity="0.61"/>
      <path id="Path_387" data-name="Path 387" d="M966.342,796.415l-.148-.083h0l-1.06-.59-1.675-.934h0l-3.928-2.19A3.364,3.364,0,0,0,955,793.842a3.235,3.235,0,0,0,1.247,4.443l3.843,2.143h0l.984.548.147.082h0l.354.2,1.483.827a3.365,3.365,0,0,0,4.527-1.224h0A3.236,3.236,0,0,0,966.342,796.415Z" transform="translate(-673.679 -553.764)" fill="#44accc"/>
      <g id="Group_1724" data-name="Group 1724" transform="translate(280.462 236.744)">
        <path id="Path_388" data-name="Path 388" d="M954.756,792.543l6.953,3.95a3.476,3.476,0,0,0,4.725-1.3h0a3.476,3.476,0,0,0-1.3-4.725l-6.953-3.95a3.475,3.475,0,0,0-4.725,1.3h0A3.476,3.476,0,0,0,954.756,792.543Z" transform="translate(-953.005 -786.067)" fill="#e5e5e5"/>
        <g id="Group_1723" data-name="Group 1723" transform="translate(4.453 2.398)">
          <path id="Path_389" data-name="Path 389" d="M978.95,798.316l-1.918-1.09a3.475,3.475,0,0,0-4.724,1.3h0a3.476,3.476,0,0,0,1.3,4.725l.37.21,1.548.879a3.475,3.475,0,0,0,4.725-1.3h0A3.476,3.476,0,0,0,978.95,798.316Z" transform="translate(-971.12 -796.226)" fill="#1369aa"/>
          <path id="Path_390" data-name="Path 390" d="M976.483,796.57,974,795.158c-1.657-.941-3.215-.033-4.157,1.625h0c-.941,1.657-1.012,3.41.645,4.352l1.027.583,1.547.879a3.476,3.476,0,0,0,4.725-1.3h0A3.476,3.476,0,0,0,976.483,796.57Z" transform="translate(-969.177 -794.778)" fill="#1369aa"/>
        </g>
      </g>
      <path id="Path_391" data-name="Path 391" d="M930.157,902.781l-.148-.083h0l-1.059-.591-1.676-.934h0l-3.928-2.19a3.365,3.365,0,0,0-4.527,1.224,3.235,3.235,0,0,0,1.247,4.443l3.843,2.142h0l.984.549.147.082h0l.355.2,1.483.827a3.365,3.365,0,0,0,4.527-1.224h0A3.236,3.236,0,0,0,930.157,902.781Z" transform="translate(-647.457 -630.844)" fill="#44accc"/>
      <g id="Group_1726" data-name="Group 1726" transform="translate(270.499 266.03)">
        <path id="Path_392" data-name="Path 392" d="M918.57,898.909l6.954,3.95a3.475,3.475,0,0,0,4.725-1.3h0a3.476,3.476,0,0,0-1.3-4.725l-6.954-3.95a3.476,3.476,0,0,0-4.725,1.3h0A3.476,3.476,0,0,0,918.57,898.909Z" transform="translate(-916.819 -892.433)" fill="#e5e5e5"/>
        <g id="Group_1725" data-name="Group 1725" transform="translate(4.453 2.398)">
          <path id="Path_393" data-name="Path 393" d="M942.764,904.682l-1.917-1.089a3.476,3.476,0,0,0-4.725,1.3h0a3.476,3.476,0,0,0,1.3,4.725l.37.21,1.547.879a3.476,3.476,0,0,0,4.725-1.3h0A3.476,3.476,0,0,0,942.764,904.682Z" transform="translate(-934.934 -902.592)" fill="#1369aa"/>
          <path id="Path_394" data-name="Path 394" d="M940.3,902.936l-2.485-1.412c-1.657-.941-3.215-.033-4.157,1.624h0c-.942,1.657-1.012,3.411.645,4.352l1.026.583,1.548.879a3.475,3.475,0,0,0,4.725-1.3h0A3.476,3.476,0,0,0,940.3,902.936Z" transform="translate(-932.992 -901.144)" fill="#1369aa"/>
        </g>
      </g>
      <path id="Path_395" data-name="Path 395" d="M929.567,903.8l-7.414-3.911a.707.707,0,0,1-.295-.951h0a.706.706,0,0,1,.952-.294l7.414,3.911a.707.707,0,0,1,.294.952h0A.707.707,0,0,1,929.567,903.8Z" transform="translate(-649.914 -630.844)" fill="#f3f3f3" opacity="0.61"/>
      <path id="Path_401" data-name="Path 401" d="M877.665,933.66l-.148-.083h0l-1.059-.59-1.676-.934h0l-3.928-2.19a3.365,3.365,0,0,0-4.527,1.224,3.235,3.235,0,0,0,1.247,4.443l3.843,2.142h0l.984.548.147.082h0l.354.2,1.483.827a3.365,3.365,0,0,0,4.527-1.224h0A3.235,3.235,0,0,0,877.665,933.66Z" transform="translate(-609.417 -653.221)" fill="#44accc"/>
      <g id="Group_1729" data-name="Group 1729" transform="translate(256.046 274.532)">
        <path id="Path_402" data-name="Path 402" d="M866.078,929.787l6.954,3.95a3.476,3.476,0,0,0,4.725-1.3h0a3.476,3.476,0,0,0-1.3-4.725l-6.954-3.95a3.475,3.475,0,0,0-4.725,1.3h0A3.476,3.476,0,0,0,866.078,929.787Z" transform="translate(-864.327 -923.311)" fill="#e5e5e5"/>
        <g id="Group_1728" data-name="Group 1728" transform="translate(4.453 2.398)">
          <path id="Path_403" data-name="Path 403" d="M890.272,935.56l-1.917-1.089a3.475,3.475,0,0,0-4.725,1.3h0a3.476,3.476,0,0,0,1.3,4.725l.37.21,1.547.879a3.476,3.476,0,0,0,4.725-1.3h0A3.476,3.476,0,0,0,890.272,935.56Z" transform="translate(-882.442 -933.471)" fill="#1369aa"/>
          <path id="Path_404" data-name="Path 404" d="M887.806,933.814l-2.486-1.412c-1.657-.941-3.215-.033-4.157,1.624h0c-.942,1.657-1.013,3.411.645,4.352l1.026.583,1.548.879a3.476,3.476,0,0,0,4.725-1.3h0A3.476,3.476,0,0,0,887.806,933.814Z" transform="translate(-880.5 -932.022)" fill="#1369aa"/>
        </g>
      </g>
      <path id="Path_405" data-name="Path 405" d="M877.075,934.678l-7.414-3.911a.706.706,0,0,1-.294-.951h0a.706.706,0,0,1,.952-.294l7.414,3.911a.706.706,0,0,1,.294.951h0A.706.706,0,0,1,877.075,934.678Z" transform="translate(-611.875 -653.221)" fill="#f3f3f3" opacity="0.61"/>
      <path id="Path_406" data-name="Path 406" d="M982.662,871.979l-.148-.083h0l-1.059-.59-1.676-.934h0l-3.928-2.189a3.365,3.365,0,0,0-4.527,1.224,3.236,3.236,0,0,0,1.247,4.443l3.843,2.142h0l.984.548.147.082h0l.354.2,1.483.826a3.365,3.365,0,0,0,4.527-1.224h0A3.236,3.236,0,0,0,982.662,871.979Z" transform="translate(-685.505 -608.523)" fill="#44accc"/>
      <g id="Group_1731" data-name="Group 1731" transform="translate(284.956 257.549)">
        <path id="Path_407" data-name="Path 407" d="M971.075,868.107l6.954,3.95a3.475,3.475,0,0,0,4.725-1.3h0a3.476,3.476,0,0,0-1.3-4.725l-6.953-3.95a3.476,3.476,0,0,0-4.725,1.3h0A3.476,3.476,0,0,0,971.075,868.107Z" transform="translate(-969.324 -861.631)" fill="#e5e5e5"/>
        <g id="Group_1730" data-name="Group 1730" transform="translate(4.453 2.398)">
          <path id="Path_408" data-name="Path 408" d="M995.269,873.88l-1.917-1.089a3.476,3.476,0,0,0-4.725,1.3h0a3.476,3.476,0,0,0,1.3,4.725l.37.21,1.548.879a3.475,3.475,0,0,0,4.725-1.3h0A3.476,3.476,0,0,0,995.269,873.88Z" transform="translate(-987.439 -871.79)" fill="#1369aa"/>
          <path id="Path_409" data-name="Path 409" d="M992.8,872.133l-2.485-1.412c-1.657-.941-3.216-.033-4.157,1.624h0c-.941,1.658-1.012,3.411.645,4.352l1.027.583,1.547.879a3.475,3.475,0,0,0,4.725-1.3h0A3.476,3.476,0,0,0,992.8,872.133Z" transform="translate(-985.497 -870.342)" fill="#1369aa"/>
        </g>
      </g>
      <path id="Path_410" data-name="Path 410" d="M982.073,873l-7.414-3.911a.706.706,0,0,1-.294-.951h0a.706.706,0,0,1,.951-.294l7.414,3.911a.707.707,0,0,1,.295.952h0A.706.706,0,0,1,982.073,873Z" transform="translate(-687.962 -608.523)" fill="#f3f3f3" opacity="0.61"/>
      <path id="Path_411" data-name="Path 411" d="M1035.234,841.136l-.148-.083h0l-1.059-.591-1.676-.934h0l-3.928-2.19a3.365,3.365,0,0,0-4.527,1.224,3.235,3.235,0,0,0,1.247,4.443l3.843,2.142h0l.984.548.147.082h0l.354.2,1.483.827a3.365,3.365,0,0,0,4.527-1.224h0A3.236,3.236,0,0,0,1035.234,841.136Z" transform="translate(-723.602 -586.172)" fill="#44accc"/>
      <g id="Group_1733" data-name="Group 1733" transform="translate(299.431 249.057)">
        <path id="Path_412" data-name="Path 412" d="M1023.647,837.263l6.954,3.95a3.476,3.476,0,0,0,4.725-1.3h0a3.476,3.476,0,0,0-1.3-4.725l-6.953-3.95a3.476,3.476,0,0,0-4.725,1.3h0A3.476,3.476,0,0,0,1023.647,837.263Z" transform="translate(-1021.896 -830.787)" fill="#e5e5e5"/>
        <g id="Group_1732" data-name="Group 1732" transform="translate(4.453 2.398)">
          <path id="Path_413" data-name="Path 413" d="M1047.841,843.036l-1.917-1.089a3.476,3.476,0,0,0-4.725,1.3h0a3.476,3.476,0,0,0,1.3,4.725l.37.21,1.548.879a3.476,3.476,0,0,0,4.725-1.3h0A3.476,3.476,0,0,0,1047.841,843.036Z" transform="translate(-1040.011 -840.947)" fill="#1369aa"/>
          <path id="Path_414" data-name="Path 414" d="M1045.376,841.29l-2.486-1.412c-1.657-.941-3.215-.033-4.157,1.624h0c-.941,1.657-1.012,3.411.645,4.352l1.027.583,1.547.879a3.476,3.476,0,0,0,4.725-1.3h0A3.476,3.476,0,0,0,1045.376,841.29Z" transform="translate(-1038.069 -839.498)" fill="#1369aa"/>
        </g>
      </g>
      <path id="Path_415" data-name="Path 415" d="M1034.645,842.154l-7.414-3.911a.706.706,0,0,1-.294-.951h0a.706.706,0,0,1,.952-.295l7.414,3.911a.707.707,0,0,1,.295.951h0A.707.707,0,0,1,1034.645,842.154Z" transform="translate(-726.06 -586.172)" fill="#f3f3f3" opacity="0.61"/>
    </g>
    <g id="Group_1698" data-name="Group 1698" transform="translate(91.601 167.801)">
      <path id="Path_322" data-name="Path 322" d="M726.329,613.907l-68.5-40.065c-1-.583-.578-1.8.931-2.707l34.485-20.689c1.509-.906,3.56-1.169,4.558-.586l68.5,40.066c1,.583.578,1.8-.931,2.707l-34.484,20.689C729.377,614.226,727.326,614.49,726.329,613.907Z" transform="translate(-653.572 -508.926)" fill="#368ead" opacity="0.57" style="mix-blend-mode: multiply;isolation: isolate"/>
      <path id="Path_323" data-name="Path 323" d="M713.471,459.742l-68.726-39.679c-1-.577-.874-1.6.281-2.263l26.394-15.238a4.372,4.372,0,0,1,3.92-.163l68.726,39.679c1,.577.874,1.6-.281,2.263l-26.394,15.238A4.373,4.373,0,0,1,713.471,459.742Z" transform="translate(-643.995 -402.009)" fill="#f9f8f7"/>
      <path id="Path_324" data-name="Path 324" d="M926.1,596.9l-27.731,16.011c-1.136.656-2.079-.216-2.095-1.938l-.387-40.983a5.338,5.338,0,0,1,2.035-4.322l27.731-16.01c1.136-.656,2.078.216,2.094,1.937l.387,40.983A5.339,5.339,0,0,1,926.1,596.9Z" transform="translate(-826.478 -508.849)" fill="#c4c1bf"/>
      <path id="Path_325" data-name="Path 325" d="M897.678,566.925c15.763-3.178,30.081-15.39,30.081-15.39-.016-1.721-.959-2.593-2.094-1.938l-27.731,16.01a5.339,5.339,0,0,0-2.035,4.322l.038,4.035C896.119,572.435,896.687,567.5,897.678,566.925Z" transform="translate(-826.486 -508.803)" fill="#a8a7a7"/>
      <path id="Path_326" data-name="Path 326" d="M901.356,657.127a1.139,1.139,0,0,1-.691-1V611.49c0-.571.7-1.038,1.552-1.038h0c.853,0,1.551-.571,1.551,0v45.371A12.584,12.584,0,0,1,901.356,657.127Z" transform="translate(-829.94 -552.877)" fill="#a8a7a7"/>
      <g id="Group_1697" data-name="Group 1697" transform="translate(0 16.17)">
        <path id="Path_327" data-name="Path 327" d="M714.194,548.878l-68.766-39.7a3.9,3.9,0,0,1-1.631-3.116V462.167c0-1.2.73-1.753,1.631-1.233l68.766,39.7a3.9,3.9,0,0,1,1.63,3.115v43.894C715.824,548.846,715.095,549.4,714.194,548.878Z" transform="translate(-643.797 -460.739)" fill="#e2e1e0"/>
        <path id="Path_328" data-name="Path 328" d="M716.09,553.621l-51.814-29.915v-9.237l51.814,29.915Z" transform="translate(-658.637 -499.675)" fill="#2e7ec6"/>
        <path id="Path_329" data-name="Path 329" d="M697.374,578.491l-33.1-19.109v3.129l33.1,19.109Z" transform="translate(-658.637 -532.221)" fill="#3e597f"/>
        <path id="Path_330" data-name="Path 330" d="M691.461,603.765l-27.185-15.7V589.6l27.185,15.7Z" transform="translate(-658.637 -553.011)" fill="#3e597f"/>
        <path id="Path_331" data-name="Path 331" d="M675.67,501.091l-11.394-6.578v1.526l11.394,6.578Z" transform="translate(-658.637 -485.213)" fill="#3e597f"/>
        <path id="Path_332" data-name="Path 332" d="M684.962,617.164,664.276,605.22v1.526l20.687,11.943Z" transform="translate(-658.637 -565.439)" fill="#3e597f"/>
      </g>
    </g>
  </g>
</svg>
