<svg height="41.043" viewBox="0 0 63.679 41.043" width="63.679" xmlns="http://www.w3.org/2000/svg"><g fill="#00c853"><path d="m229.885 324.326-.725-1.467-.725 1.467a1.865 1.865 0 0 1 -1.4 1.02l-1.618.235 1.17 1.14a1.867 1.867 0 0 1 .539 1.651l-.277 1.611 1.447-.76a1.856 1.856 0 0 1 1.734 0l1.447.76-.277-1.611a1.867 1.867 0 0 1 .539-1.651l1.17-1.14-1.618-.235a1.864 1.864 0 0 1 -1.406-1.02z" transform="translate(-197.379 -305.34)"/><path d="m111.521 182a20.521 20.521 0 1 0 20.521 20.521 20.546 20.546 0 0 0 -20.521-20.521zm9 20.274-3.174 3.1.751 4.369a1.866 1.866 0 0 1 -2.707 1.966l-3.924-2.062-3.924 2.062a1.866 1.866 0 0 1 -2.707-1.966l.751-4.369-3.174-3.1a1.864 1.864 0 0 1 1.031-3.181l4.387-.638 1.964-3.975a1.941 1.941 0 0 1 3.345 0l1.964 3.975 4.387.638a1.864 1.864 0 0 1 1.032 3.181z" transform="translate(-79.682 -182)"/><path d="m431.328 425.731h-1.866v-1.866a1.866 1.866 0 0 0 -3.731 0v1.866h-1.866a1.866 1.866 0 0 0 0 3.731h1.866v1.866a1.866 1.866 0 0 0 3.731 0v-1.866h1.866a1.866 1.866 0 0 0 0-3.731z" transform="translate(-369.515 -392.151)"/><path d="m0 187.6a1.865 1.865 0 0 0 1.866 1.866h1.865v1.866a1.866 1.866 0 1 0 3.731 0v-1.866h1.866a1.866 1.866 0 1 0 0-3.731h-1.866v-1.866a1.866 1.866 0 1 0 -3.731 0v1.866h-1.865a1.865 1.865 0 0 0 -1.866 1.865z" transform="translate(0 -182)"/></g></svg>