<svg xmlns="http://www.w3.org/2000/svg" xmlns:xlink="http://www.w3.org/1999/xlink" width="180" height="180" viewBox="0 0 180 180">
  <defs>
    <linearGradient id="linear-gradient" y1="0.5" x2="1" y2="0.5" gradientUnits="objectBoundingBox">
      <stop offset="0" stop-color="#58cc02"/>
      <stop offset="1" stop-color="#89e219"/>
    </linearGradient>
    <linearGradient id="linear-gradient-2" x1="1.106" y1="1.529" x2="-0.495" y2="-1.182" gradientUnits="objectBoundingBox">
      <stop offset="0" stop-color="#fff"/>
      <stop offset="0.996" stop-color="#fff" stop-opacity="0"/>
    </linearGradient>
  </defs>
  <g id="illustration_welcome_vitals" transform="translate(-98 -163)">
    <g id="Group_2177" data-name="Group 2177" transform="translate(-992.36 -982.184)">
      <g id="Group_2176" data-name="Group 2176" transform="translate(1112.36 1172.183)">
        <path id="Path_646" data-name="Path 646" d="M1249.1,1181.406c-.006-6.04-3.19-9.206-9.278-9.206q-59.088-.036-118.169,0c-6.093,0-9.272,3.16-9.278,9.2q-.027,40.987,0,81.968c.006,6.07,3.155,9.182,9.248,9.194q19.6.036,39.194.006h15.27v16.167h-3.7c-9.87,0-19.747-.018-29.617.036-1.03.006-2.9.317-2.957.706a23.966,23.966,0,0,0-.18,7.009c.078.551,2.317,1.1,3.568,1.114,12.66.078,25.325.048,37.991.048,12.564,0,25.128-.036,37.692.03,2.382.012,3.622-.719,3.37-3.25a9.787,9.787,0,0,1,.006-2.089c.329-2.741-.832-3.687-3.585-3.651-8.973.131-17.951.048-26.924.048h-6.381v-16.143h3.909q25.131-.009,50.262-.024c6.53-.012,9.547-2.987,9.559-9.493Q1249.134,1222.241,1249.1,1181.406Zm-127.237.515c1.652-1.491,5.405-.8,8.248-.8q53.072-.054,106.156-.024c3.945,0,3.951.006,3.956,3.849v32.8c-1.365.066-2.424.155-3.483.155-10.463.012-20.932.06-31.395-.018-4.322-.03-7.153,1.73-8.709,5.83-1.473,3.891-3.238,7.668-5.178,12.2-.76-1.58-1.257-2.5-1.658-3.46q-6.276-14.859-12.534-29.737c-1.6-3.807-3.987-5.62-7.332-5.513-3.657.12-5.758,2.251-7.069,5.495-1.79,4.429-3.616,8.853-5.609,13.2a3.572,3.572,0,0,1-2.448,1.922c-10.762.126-21.53.072-32.292.054a7.65,7.65,0,0,1-1.263-.341c0-9.3-.03-18.46.012-27.618C1121.275,1187.147,1120.425,1183.22,1121.861,1181.922Zm115.439,81.842q-56.546-.081-113.1-.042c-1.5,0-2.993.263-2.975-2.137.078-11.073.042-22.141.06-33.214a11.114,11.114,0,0,1,.3-1.532c11.295,0,22.362-.18,33.418.084,5.243.12,8.511-1.736,10.247-6.722,1.269-3.633,2.963-7.117,4.819-11.486,2.011,4.693,3.7,8.578,5.351,12.486q4.48,10.6,8.907,21.231c1.3,3.155,3.514,5.046,7,5.16,3.262.1,5.674-1.706,7.183-5.291,1.861-4.411,3.633-8.859,5.6-13.216.413-.91,1.526-2.137,2.328-2.149,11.061-.138,22.129-.1,33.5-.1.1,1.006.269,1.849.269,2.694.018,10.475-.048,20.95.066,31.419C1240.293,1263.29,1239.426,1263.763,1237.3,1263.763Z" transform="translate(-1112.36 -1172.183)" fill="url(#linear-gradient)"/>
      </g>
      <path id="Path_647" data-name="Path 647" d="M1240.223,1196.229v-11.281c-.009-3.843-.015-3.848-3.958-3.848q-53.081,0-106.156.026c-2.842,0-6.6-.7-8.246.794-1.438,1.3-.587,5.226-.6,7.993-.04,9.158-.011,18.313-.011,27.615a7.633,7.633,0,0,0,1.263.342c10.763.017,21.532.072,32.292-.055a3.57,3.57,0,0,0,2.451-1.921c1.993-4.346,3.817-8.767,5.606-13.2,1.312-3.245,3.414-5.376,7.07-5.5,3.345-.106,5.73,1.706,7.332,5.514q4.906,11.636,9.808,23.272-3.836,2.282-7.688,4.619-1.98-4.7-3.969-9.408c-1.645-3.909-3.339-7.792-5.35-12.486-1.855,4.369-3.549,7.852-4.818,11.485-1.737,4.988-5,6.843-10.248,6.725-11.057-.265-22.122-.086-33.417-.086a11.2,11.2,0,0,0-.3,1.533c-.02,11.074.017,22.142-.06,33.216-.017,2.4,1.473,2.137,2.974,2.137h5.082q-5.725,4.189-11.14,8.41c-3.805-1.038-5.758-3.984-5.764-8.764q-.026-40.987,0-81.969c.006-6.037,3.184-9.2,9.279-9.2q59.078-.034,118.168,0c6.089,0,9.273,3.167,9.279,9.207q0,5.083.006,10.162Q1244.825,1193.8,1240.223,1196.229Z" transform="translate(0 0)" fill="url(#linear-gradient-2)"/>
    </g>
    <rect id="Rectangle_1951" data-name="Rectangle 1951" width="180" height="180" transform="translate(98 163)" fill="none"/>
  </g>
</svg>
