<svg xmlns="http://www.w3.org/2000/svg" width="30" height="30" viewBox="0 0 30 30">
  <g id="illustration_Night" transform="translate(10772 15333)">
    <rect id="Rectangle_1846" data-name="Rectangle 1846" width="30" height="30" transform="translate(-10772 -15333)" fill="none"/>
    <g id="night" transform="translate(-10787.646 -15333)">
      <g id="Group_1631" data-name="Group 1631" transform="translate(16.646)">
        <path id="Path_316" data-name="Path 316" d="M44.216,21.609a1,1,0,0,0-1.109-.309,10.531,10.531,0,0,1-3.566.6,10.945,10.945,0,0,1-6.152-20A1,1,0,0,0,32.974.09a9.664,9.664,0,0,0-1.4-.09A14.932,14.932,0,1,0,44.292,22.76,1,1,0,0,0,44.216,21.609Z" transform="translate(-16.646 0)" fill="#546e7a"/>
      </g>
    </g>
  </g>
</svg>
