<svg xmlns="http://www.w3.org/2000/svg" xmlns:xlink="http://www.w3.org/1999/xlink" width="287.439" height="182.78" viewBox="0 0 287.439 182.78">
  <defs>
    <linearGradient id="linear-gradient" y1="0.5" x2="1" y2="0.5" gradientUnits="objectBoundingBox">
      <stop offset="0.044" stop-color="#e29439"/>
      <stop offset="0.826" stop-color="#da7500"/>
    </linearGradient>
    <linearGradient id="linear-gradient-2" y1="0.5" x2="1" y2="0.5" gradientUnits="objectBoundingBox">
      <stop offset="0.028" stop-color="#da7500"/>
      <stop offset="0.854" stop-color="#bf6408"/>
    </linearGradient>
    <linearGradient id="linear-gradient-3" x1="0.373" y1="0.132" x2="0.742" y2="0.797" gradientUnits="objectBoundingBox">
      <stop offset="0.044" stop-color="#e29439"/>
      <stop offset="0.826" stop-color="#e17500"/>
    </linearGradient>
    <linearGradient id="linear-gradient-4" x1="0.405" y1="0.216" x2="0.595" y2="0.784" gradientUnits="objectBoundingBox">
      <stop offset="0.205" stop-color="#7fd8f7"/>
      <stop offset="0.97" stop-color="#7fbef7"/>
    </linearGradient>
  </defs>
  <g id="illustration_medication_mymeds" transform="translate(-94.188 -402.009)">
    <g id="Group_1698" data-name="Group 1698" transform="translate(245.515 402.009)">
      <path id="Path_322" data-name="Path 322" d="M726.329,613.907l-68.5-40.065c-1-.583-.578-1.8.931-2.707l34.485-20.689c1.509-.906,3.56-1.169,4.558-.586l68.5,40.066c1,.583.578,1.8-.931,2.707l-34.484,20.689C729.377,614.226,727.326,614.49,726.329,613.907Z" transform="translate(-653.572 -508.926)" fill="#368ead" opacity="0.57" style="mix-blend-mode: multiply;isolation: isolate"/>
      <path id="Path_323" data-name="Path 323" d="M713.471,459.742l-68.726-39.679c-1-.577-.874-1.6.281-2.263l26.394-15.238a4.372,4.372,0,0,1,3.92-.163l68.726,39.679c1,.577.874,1.6-.281,2.263l-26.394,15.238A4.373,4.373,0,0,1,713.471,459.742Z" transform="translate(-643.995 -402.009)" fill="#f9f8f7"/>
      <path id="Path_324" data-name="Path 324" d="M926.1,596.9l-27.731,16.011c-1.136.656-2.079-.216-2.095-1.938l-.387-40.983a5.338,5.338,0,0,1,2.035-4.322l27.731-16.01c1.136-.656,2.078.216,2.094,1.937l.387,40.983A5.339,5.339,0,0,1,926.1,596.9Z" transform="translate(-826.478 -508.849)" fill="#c4c1bf"/>
      <path id="Path_325" data-name="Path 325" d="M897.678,566.925c15.763-3.178,30.081-15.39,30.081-15.39-.016-1.721-.959-2.593-2.094-1.938l-27.731,16.01a5.339,5.339,0,0,0-2.035,4.322l.038,4.035C896.119,572.435,896.687,567.5,897.678,566.925Z" transform="translate(-826.486 -508.803)" fill="#a8a7a7"/>
      <path id="Path_326" data-name="Path 326" d="M901.356,657.127a1.139,1.139,0,0,1-.691-1V611.49c0-.571.7-1.038,1.552-1.038h0c.853,0,1.551-.571,1.551,0v45.371A12.584,12.584,0,0,1,901.356,657.127Z" transform="translate(-829.94 -552.877)" fill="#a8a7a7"/>
      <g id="Group_1697" data-name="Group 1697" transform="translate(0 16.17)">
        <path id="Path_327" data-name="Path 327" d="M714.194,548.878l-68.766-39.7a3.9,3.9,0,0,1-1.631-3.116V462.167c0-1.2.73-1.753,1.631-1.233l68.766,39.7a3.9,3.9,0,0,1,1.63,3.115v43.894C715.824,548.846,715.095,549.4,714.194,548.878Z" transform="translate(-643.797 -460.739)" fill="#e2e1e0"/>
        <path id="Path_328" data-name="Path 328" d="M716.09,553.621l-51.814-29.915v-9.237l51.814,29.915Z" transform="translate(-658.637 -499.675)" fill="#2e7ec6"/>
        <path id="Path_329" data-name="Path 329" d="M697.374,578.491l-33.1-19.109v3.129l33.1,19.109Z" transform="translate(-658.637 -532.221)" fill="#3e597f"/>
        <path id="Path_330" data-name="Path 330" d="M691.461,603.765l-27.185-15.7V589.6l27.185,15.7Z" transform="translate(-658.637 -553.011)" fill="#3e597f"/>
        <path id="Path_331" data-name="Path 331" d="M675.67,501.091l-11.394-6.578v1.526l11.394,6.578Z" transform="translate(-658.637 -485.213)" fill="#3e597f"/>
        <path id="Path_332" data-name="Path 332" d="M684.962,617.164,664.276,605.22v1.526l20.687,11.943Z" transform="translate(-658.637 -565.439)" fill="#3e597f"/>
      </g>
    </g>
    <g id="Group_1699" data-name="Group 1699" transform="translate(199.581 454.524)">
      <ellipse id="Ellipse_50" data-name="Ellipse 50" cx="29.074" cy="21.321" rx="29.074" ry="21.321" transform="translate(10.797 59.538)" fill="#368ead"/>
      <ellipse id="Ellipse_51" data-name="Ellipse 51" cx="26.841" cy="20.442" rx="26.841" ry="20.442" transform="translate(5.871 59.691)" fill="#aa5509"/>
      <ellipse id="Ellipse_52" data-name="Ellipse 52" cx="26.841" cy="20.442" rx="26.841" ry="20.442" transform="translate(5.871 5.635)" fill="#da7500"/>
      <ellipse id="Ellipse_53" data-name="Ellipse 53" cx="26.841" cy="20.442" rx="26.841" ry="20.442" transform="translate(5.871 5.635)" fill="#da7500"/>
      <rect id="Rectangle_1827" data-name="Rectangle 1827" width="53.682" height="50.936" transform="translate(5.871 26.077)" fill="url(#linear-gradient)"/>
      <path id="Path_333" data-name="Path 333" d="M551.973,826.746h-5.248c-.784-.806-42.4-.806-43.186,0h-5.247V838.89h0c0,5.232,2.621,10.463,7.862,14.455,10.482,7.983,27.477,7.984,37.959,0,5.241-3.992,7.861-9.223,7.861-14.455h0Z" transform="translate(-492.42 -761.877)" fill="url(#linear-gradient-2)"/>
      <ellipse id="Ellipse_54" data-name="Ellipse 54" cx="32.712" cy="20.442" rx="32.712" ry="20.442" transform="translate(0 10.697)" fill="#e9e8e6"/>
      <rect id="Rectangle_1828" data-name="Rectangle 1828" width="65.423" height="13.078" transform="translate(0 19.043)" fill="#e9e8e6"/>
      <ellipse id="Ellipse_55" data-name="Ellipse 55" cx="32.712" cy="20.442" rx="32.712" ry="20.442" transform="translate(0)" fill="#fff"/>
      <ellipse id="Ellipse_56" data-name="Ellipse 56" cx="23.925" cy="14.951" rx="23.925" ry="14.951" transform="translate(8.787 4.092)" fill="#e9e8e6"/>
      <path id="Rectangle_1829" data-name="Rectangle 1829" d="M3.786,0h8.49a3.786,3.786,0,0,1,3.786,3.786v0a3.786,3.786,0,0,1-3.786,3.786H3.786A3.786,3.786,0,0,1,0,3.786v0A3.786,3.786,0,0,1,3.786,0Z" transform="translate(38.672 87.102) rotate(-23.43)" fill="#ed8014"/>
      <rect id="Rectangle_1830" data-name="Rectangle 1830" width="16.061" height="7.572" rx="3.786" transform="translate(24.413 85.672) rotate(14.718)" fill="#ed8014"/>
      <path id="Rectangle_1831" data-name="Rectangle 1831" d="M3.786,0h8.49a3.786,3.786,0,0,1,3.786,3.786v0a3.786,3.786,0,0,1-3.786,3.786H3.786A3.786,3.786,0,0,1,0,3.786v0A3.786,3.786,0,0,1,3.786,0Z" transform="matrix(0.92, -0.393, 0.393, 0.92, 28.975, 81.394)" fill="#ed8014"/>
      <path id="Rectangle_1832" data-name="Rectangle 1832" d="M3.786,0h8.49a3.786,3.786,0,0,1,3.786,3.786v0a3.786,3.786,0,0,1-3.786,3.786H3.786A3.786,3.786,0,0,1,0,3.786v0A3.786,3.786,0,0,1,3.786,0Z" transform="translate(16.572 92.989) rotate(-114.833)" fill="#ed8014"/>
      <path id="Path_334" data-name="Path 334" d="M544.112,776.722c-10.482,5.077-27.477,5.076-37.959,0-5.241-2.538-7.861-5.865-7.862-9.192h0v22.7h0c0,3.327,2.621,6.653,7.862,9.192,10.482,5.077,27.477,5.077,37.959,0,5.241-2.538,7.861-5.865,7.861-9.192h0v-22.7h0C551.973,770.857,549.352,774.184,544.112,776.722Z" transform="translate(-492.42 -719.404)" fill="#e9e8e6"/>
      <path id="Path_335" data-name="Path 335" d="M526.844,799.417c10.482,5.077,27.477,5.077,37.959,0,5.241-2.538,7.861-5.865,7.861-9.192h0v-22.7h0C574.12,798.39,526.844,799.417,526.844,799.417Z" transform="translate(-513.112 -719.404)" fill="#dbdad9"/>
    </g>
    <g id="Group_1702" data-name="Group 1702" transform="translate(94.188 487.576)">
      <path id="Path_336" data-name="Path 336" d="M194.152,943.1l.006-.006-.144-.163h0l-1.569-1.777h0l-.205-.233-.014.013a4.063,4.063,0,0,0-3.492-.777,10.563,10.563,0,0,0-7.685,6.783,4.061,4.061,0,0,0,.337,3.561l-.014.013,1.918,2.173.006-.005a4.016,4.016,0,0,0,3.561.839,10.563,10.563,0,0,0,7.686-6.783A4.016,4.016,0,0,0,194.152,943.1Z" transform="translate(-156.955 -877.493)" fill="#368ead"/>
      <path id="Path_337" data-name="Path 337" d="M215.778,946.49s7.3,4.848,14.73,1.544.551-6.5.551-6.5l-15.281-1.945Z" transform="translate(-182.3 -877.142)" fill="#368ead"/>
      <path id="Path_338" data-name="Path 338" d="M244.933,891.122c5.5,2.817,10.315,2.317,13.313-.831l33.724-21.14a8.033,8.033,0,0,0,1.753-.961c3.085-2.231-.146-6.938-3.39-4.946Z" transform="translate(-203.428 -821.468)" fill="#368ead"/>
      <path id="Path_339" data-name="Path 339" d="M243.484,751.57c0-10.788-7.574-23.906-16.917-29.3-4.448-2.568-8.494-2.921-11.514-1.423h0a7.982,7.982,0,0,0-.941.548l-37.389,21.4,26.907,41.444,33.836-21.21h0C241.146,761.575,243.484,757.563,243.484,751.57Z" transform="translate(-153.999 -717.984)" fill="url(#linear-gradient-3)"/>
      <ellipse id="Ellipse_57" data-name="Ellipse 57" cx="14.321" cy="24.804" rx="14.321" ry="24.804" transform="matrix(0.866, -0.5, 0.5, 0.866, 10.627, 31.906)" fill="#ed9845"/>
      <ellipse id="Ellipse_58" data-name="Ellipse 58" cx="11.805" cy="20.41" rx="11.805" ry="20.41" transform="translate(11.931 36.341) rotate(-29.82)" fill="#aa5509"/>
      <ellipse id="Ellipse_59" data-name="Ellipse 59" cx="11.805" cy="20.41" rx="11.805" ry="20.41" transform="translate(51.854 11.741) rotate(-29.82)" fill="#aa5509" opacity="0.37"/>
      <path id="Path_340" data-name="Path 340" d="M188.575,818.331c-4.539-2.621-8.6-2.618-11.333-.5a13.623,13.623,0,0,1,6.514,2.031c8.226,4.749,14.894,16.3,14.894,25.8,0,4.257-1.342,7.375-3.561,9.1,4.961.074,8.38-3.83,8.38-10.63C203.469,834.63,196.8,823.08,188.575,818.331Z" transform="translate(-154.374 -787.797)" fill="#ffa664"/>
      <path id="Path_341" data-name="Path 341" d="M166.519,856.76c-8.226-4.749-14.894-16.3-14.894-25.8,0-4.257,1.343-7.375,3.561-9.1-4.961-.074-8.38,3.83-8.38,10.63,0,9.5,6.668,21.048,14.894,25.8,4.539,2.62,8.6,2.618,11.333.5A13.621,13.621,0,0,1,166.519,856.76Z" transform="translate(-132.319 -791.831)" fill="#d37b33"/>
      <path id="Path_342" data-name="Path 342" d="M249.732,745.2l-19.755,11.863a3.151,3.151,0,0,1-4.311-1.076h0a3.151,3.151,0,0,1,1.076-4.311L246.5,739.818a3.151,3.151,0,0,1,4.311,1.076h0A3.151,3.151,0,0,1,249.732,745.2Z" transform="translate(-189.143 -732.051)" fill="#f3f3f3" opacity="0.37"/>
      <ellipse id="Ellipse_60" data-name="Ellipse 60" cx="4.53" cy="7.248" rx="4.53" ry="7.248" transform="translate(28.453 66.432) rotate(-85.776)" fill="#e9e8e6"/>
      <rect id="Rectangle_1833" data-name="Rectangle 1833" width="14.497" height="2.898" transform="matrix(0.997, 0.074, -0.074, 0.997, 28.984, 59.241)" fill="#e9e8e6"/>
      <ellipse id="Ellipse_61" data-name="Ellipse 61" cx="4.53" cy="7.248" rx="4.53" ry="7.248" transform="translate(28.628 64.068) rotate(-85.776)" fill="#f3f3f3"/>
      <ellipse id="Ellipse_62" data-name="Ellipse 62" cx="3.313" cy="5.301" rx="3.313" ry="5.301" transform="translate(30.682 62.689) rotate(-85.776)" fill="#e9e8e6"/>
      <path id="Path_343" data-name="Path 343" d="M185.587,951.542a10.563,10.563,0,0,1-7.685,6.783c-3.293.547-5.191-1.6-4.239-4.8a10.564,10.564,0,0,1,7.686-6.783C184.641,946.193,186.539,948.343,185.587,951.542Z" transform="translate(-151.602 -882.261)" fill="#e9e8e6"/>
      <rect id="Rectangle_1834" data-name="Rectangle 1834" width="14.497" height="2.898" transform="matrix(0.75, -0.662, 0.662, 0.75, 20.814, 73.058)" fill="#e9e8e6"/>
      <ellipse id="Ellipse_63" data-name="Ellipse 63" cx="7.248" cy="4.53" rx="7.248" ry="4.53" transform="translate(18.022 69.894) rotate(-41.429)" fill="#f3f3f3"/>
      <ellipse id="Ellipse_64" data-name="Ellipse 64" cx="5.301" cy="3.313" rx="5.301" ry="3.313" transform="matrix(0.75, -0.662, 0.662, 0.75, 20.082, 69.285)" fill="#e9e8e6"/>
      <ellipse id="Ellipse_65" data-name="Ellipse 65" cx="4.53" cy="7.248" rx="4.53" ry="7.248" transform="matrix(0.673, -0.739, 0.739, 0.673, 20.626, 49.539)" fill="#e9e8e6"/>
      <rect id="Rectangle_1835" data-name="Rectangle 1835" width="14.497" height="2.898" transform="translate(25.481 44.208) rotate(42.319)" fill="#e9e8e6"/>
      <ellipse id="Ellipse_66" data-name="Ellipse 66" cx="4.53" cy="7.248" rx="4.53" ry="7.248" transform="translate(22.222 47.787) rotate(-47.679)" fill="#f3f3f3"/>
      <ellipse id="Ellipse_67" data-name="Ellipse 67" cx="3.313" cy="5.301" rx="3.313" ry="5.301" transform="translate(24.69 47.969) rotate(-47.68)" fill="#e9e8e6"/>
      <path id="Path_344" data-name="Path 344" d="M117.3,947.6l0-.217h0l-.047-2.37h0l-.006-.31h-.019a4.064,4.064,0,0,0-2.161-2.851,10.565,10.565,0,0,0-10.249.2,4.063,4.063,0,0,0-2.047,2.934h-.019l.053,2.68h0l0,.217h.008a4.017,4.017,0,0,0,2.173,2.943,10.564,10.564,0,0,0,10.249-.2,4.016,4.016,0,0,0,2.055-3.027Z" transform="translate(-100.391 -877.889)" fill="#368ead"/>
      <g id="Group_1701" data-name="Group 1701" transform="translate(0 62.683)">
        <g id="Group_1700" data-name="Group 1700" transform="translate(0 0)">
          <ellipse id="Ellipse_68" data-name="Ellipse 68" cx="7.248" cy="4.53" rx="7.248" ry="4.53" transform="translate(0.047 2.656) rotate(-1.13)" fill="#e9e8e6"/>
          <rect id="Rectangle_1836" data-name="Rectangle 1836" width="14.497" height="2.898" transform="translate(0.083 4.505) rotate(-1.132)" fill="#e9e8e6"/>
          <ellipse id="Ellipse_69" data-name="Ellipse 69" cx="7.248" cy="4.53" rx="7.248" ry="4.53" transform="translate(0 0.286) rotate(-1.13)" fill="#f3f3f3"/>
          <ellipse id="Ellipse_70" data-name="Ellipse 70" cx="5.301" cy="3.313" rx="5.301" ry="3.313" transform="translate(1.965 1.154) rotate(-1.13)" fill="#e9e8e6"/>
        </g>
        <path id="Path_345" data-name="Path 345" d="M111.979,953.852l-7.38.228a.716.716,0,0,1-.735-.691h0a.716.716,0,0,1,.691-.735l7.38-.228a.716.716,0,0,1,.735.691h0A.716.716,0,0,1,111.979,953.852Z" transform="translate(-101.2 -949.126)" fill="#dbdad9"/>
      </g>
    </g>
    <g id="Group_1705" data-name="Group 1705" transform="translate(268.754 504.58)">
      <path id="Path_346" data-name="Path 346" d="M751.31,781.695l0-.217h0l-.047-2.37h0l-.006-.31h-.019a4.062,4.062,0,0,0-2.161-2.851,10.564,10.564,0,0,0-10.249.2,4.063,4.063,0,0,0-2.047,2.934h-.019l.053,2.68h0l0,.217h.009A4.015,4.015,0,0,0,739,784.924a10.564,10.564,0,0,0,10.249-.2A4.016,4.016,0,0,0,751.3,781.7Z" transform="translate(-734.402 -774.67)" fill="#368ead"/>
      <g id="Group_1704" data-name="Group 1704" transform="translate(0 0)">
        <g id="Group_1703" data-name="Group 1703">
          <ellipse id="Ellipse_71" data-name="Ellipse 71" cx="7.248" cy="4.53" rx="7.248" ry="4.53" transform="matrix(1, -0.02, 0.02, 1, 0.047, 2.656)" fill="#e9e8e6"/>
          <rect id="Rectangle_1837" data-name="Rectangle 1837" width="14.497" height="2.898" transform="matrix(1, -0.02, 0.02, 1, 0.083, 4.505)" fill="#e9e8e6"/>
          <ellipse id="Ellipse_72" data-name="Ellipse 72" cx="7.248" cy="4.53" rx="7.248" ry="4.53" transform="translate(0 0.286) rotate(-1.13)" fill="#f3f3f3"/>
          <ellipse id="Ellipse_73" data-name="Ellipse 73" cx="5.301" cy="3.313" rx="5.301" ry="3.313" transform="translate(1.964 1.154) rotate(-1.13)" fill="#e9e8e6"/>
        </g>
        <path id="Path_347" data-name="Path 347" d="M747.4,785.706l-7.212,1.583a.716.716,0,0,1-.85-.544h0a.716.716,0,0,1,.544-.85l7.212-1.583a.716.716,0,0,1,.85.544h0A.716.716,0,0,1,747.4,785.706Z" transform="translate(-736.262 -781.61)" fill="#dbdad9"/>
      </g>
    </g>
    <path id="Path_348" data-name="Path 348" d="M808.171,889.952l-7.414-3.911a.706.706,0,0,1-.294-.951h0a.706.706,0,0,1,.951-.295l7.414,3.911a.706.706,0,0,1,.294.951h0A.706.706,0,0,1,808.171,889.952Z" transform="translate(-511.754 -349.799)" fill="#f3f3f3" opacity="0.61"/>
    <path id="Path_349" data-name="Path 349" d="M965.753,797.434l-7.414-3.911a.706.706,0,0,1-.295-.951h0a.706.706,0,0,1,.952-.295l7.414,3.911a.707.707,0,0,1,.295.951h0A.707.707,0,0,1,965.753,797.434Z" transform="translate(-625.948 -282.754)" fill="#f3f3f3" opacity="0.61"/>
    <g id="Group_1712" data-name="Group 1712" transform="translate(169.753 553.66)">
      <path id="Rectangle_1838" data-name="Rectangle 1838" d="M3.786,0h8.49a3.786,3.786,0,0,1,3.786,3.786v0a3.786,3.786,0,0,1-3.786,3.786H3.786A3.786,3.786,0,0,1,0,3.786v0A3.786,3.786,0,0,1,3.786,0Z" transform="translate(41.488 9.221) rotate(179.377)" fill="#368ead"/>
      <path id="Rectangle_1839" data-name="Rectangle 1839" d="M3.786,0h8.49a3.786,3.786,0,0,1,3.786,3.786v0a3.786,3.786,0,0,1-3.786,3.786H3.786A3.786,3.786,0,0,1,0,3.786v0A3.786,3.786,0,0,1,3.786,0Z" transform="matrix(-1, 0.011, -0.011, -1, 40.219, 8.673)" fill="#e5e5e5"/>
      <path id="Rectangle_1840" data-name="Rectangle 1840" d="M3.786,0h8.49a3.786,3.786,0,0,1,3.786,3.786v0a3.786,3.786,0,0,1-3.786,3.786H3.786A3.786,3.786,0,0,1,0,3.786v0A3.786,3.786,0,0,1,3.786,0Z" transform="translate(40.207 7.571) rotate(179.377)" fill="#f3f3f3"/>
      <path id="Path_350" data-name="Path 350" d="M620.067,1009.252l0-.217h0l-.047-2.369h0l-.006-.31h-.019a4.064,4.064,0,0,0-2.161-2.851,10.564,10.564,0,0,0-10.249.2,4.06,4.06,0,0,0-2.046,2.934h-.019l.053,2.68h0l0,.218h.008a4.015,4.015,0,0,0,2.173,2.943,10.563,10.563,0,0,0,10.249-.2,4.016,4.016,0,0,0,2.055-3.027Z" transform="translate(-540.295 -988.652)" fill="#368ead"/>
      <g id="Group_1707" data-name="Group 1707" transform="translate(62.912 13.716)">
        <g id="Group_1706" data-name="Group 1706" transform="translate(0)">
          <ellipse id="Ellipse_74" data-name="Ellipse 74" cx="7.248" cy="4.53" rx="7.248" ry="4.53" transform="translate(0 2.515) rotate(-1.13)" fill="#e9e8e6"/>
          <rect id="Rectangle_1841" data-name="Rectangle 1841" width="14.497" height="2.898" transform="translate(0.036 4.364) rotate(-1.132)" fill="#e9e8e6"/>
          <path id="Path_351" data-name="Path 351" d="M609.714,1010.24a10.563,10.563,0,0,1-10.249.2c-2.865-1.713-2.922-4.58-.127-6.4a10.562,10.562,0,0,1,10.249-.2C612.452,1005.548,612.509,1008.415,609.714,1010.24Z" transform="translate(-597.237 -1002.607)" fill="#f3f3f3"/>
          <path id="Path_352" data-name="Path 352" d="M613.422,1011.484a7.727,7.727,0,0,1-7.5.148c-2.1-1.253-2.137-3.35-.092-4.684a7.726,7.726,0,0,1,7.5-.148C615.425,1008.052,615.466,1010.15,613.422,1011.484Z" transform="translate(-602.344 -1004.995)" fill="#e9e8e6"/>
        </g>
        <path id="Path_353" data-name="Path 353" d="M614.747,1015.506l-7.38.228a.716.716,0,0,1-.735-.691h0a.716.716,0,0,1,.691-.735l7.38-.228a.716.716,0,0,1,.735.691h0A.716.716,0,0,1,614.747,1015.506Z" transform="translate(-604.015 -1010.92)" fill="#dbdad9"/>
      </g>
      <path id="Path_354" data-name="Path 354" d="M506.7,1005.253l.225-.125h0l1.606-.9,2.54-1.416h0l5.954-3.319a5.1,5.1,0,0,1,6.863,1.855,4.9,4.9,0,0,1-1.891,6.735l-5.826,3.247h0l-1.491.831-.223.124h0l-.538.3-2.248,1.253a5.1,5.1,0,0,1-6.863-1.855h0A4.905,4.905,0,0,1,506.7,1005.253Z" transform="translate(-466.846 -986.173)" fill="#368ead"/>
      <g id="Group_1709" data-name="Group 1709" transform="translate(34.989 11.404)">
        <path id="Path_355" data-name="Path 355" d="M514.952,1004.028l-10.541,5.988a5.268,5.268,0,0,1-7.162-1.973h0a5.269,5.269,0,0,1,1.973-7.163l10.541-5.988a5.269,5.269,0,0,1,7.163,1.973h0A5.269,5.269,0,0,1,514.952,1004.028Z" transform="translate(-496.332 -994.211)" fill="#e5e5e5"/>
        <g id="Group_1708" data-name="Group 1708" transform="translate(0 3.636)">
          <path id="Path_356" data-name="Path 356" d="M498.369,1012.779l2.907-1.651a5.269,5.269,0,0,1,7.162,1.973h0a5.269,5.269,0,0,1-1.973,7.163l-.561.319-2.346,1.333a5.268,5.268,0,0,1-7.162-1.973h0A5.269,5.269,0,0,1,498.369,1012.779Z" transform="translate(-495.714 -1009.612)" fill="#ef582b"/>
          <path id="Path_357" data-name="Path 357" d="M501.251,1010.132l3.768-2.14c2.512-1.427,4.874-.05,6.3,2.462h0c1.427,2.512,1.535,5.17-.977,6.6l-1.556.884-2.346,1.333a5.269,5.269,0,0,1-7.162-1.973h0A5.269,5.269,0,0,1,501.251,1010.132Z" transform="translate(-497.803 -1007.416)" fill="#ef582b"/>
        </g>
      </g>
      <path id="Path_358" data-name="Path 358" d="M518.459,1011.442l11.239-5.929a1.071,1.071,0,0,0,.446-1.442h0a1.071,1.071,0,0,0-1.443-.447l-11.239,5.929a1.071,1.071,0,0,0-.446,1.442h0A1.071,1.071,0,0,0,518.459,1011.442Z" transform="translate(-476.074 -989.54)" fill="#f3f3f3" opacity="0.61"/>
      <path id="Path_359" data-name="Path 359" d="M393.162,1018.147l-.236-.1h0l-1.69-.723-2.673-1.144h0l-6.267-2.682a5.1,5.1,0,0,0-6.633,2.558,4.9,4.9,0,0,0,2.581,6.5l6.131,2.624h0l1.569.672.235.1h0l.566.242,2.366,1.013a5.1,5.1,0,0,0,6.633-2.559h0A4.9,4.9,0,0,0,393.162,1018.147Z" transform="translate(-373.42 -996.487)" fill="#368ead"/>
      <g id="Group_1711" data-name="Group 1711" transform="translate(0 14.282)">
        <path id="Path_360" data-name="Path 360" d="M371.781,1014.728l11.107,4.86a5.269,5.269,0,0,0,6.918-2.707h0a5.269,5.269,0,0,0-2.707-6.919l-11.106-4.86a5.269,5.269,0,0,0-6.919,2.707h0A5.269,5.269,0,0,0,371.781,1014.728Z" transform="translate(-368.636 -1004.664)" fill="#ef582b"/>
        <g id="Group_1710" data-name="Group 1710" transform="translate(7.211 2.923)">
          <path id="Path_361" data-name="Path 361" d="M409.167,1019.618l-3.063-1.34a5.269,5.269,0,0,0-6.918,2.707h0a5.269,5.269,0,0,0,2.707,6.919l.591.258,2.472,1.082a5.269,5.269,0,0,0,6.918-2.707h0A5.269,5.269,0,0,0,409.167,1019.618Z" transform="translate(-397.668 -1017.135)" fill="#e5e5e5"/>
          <path id="Path_362" data-name="Path 362" d="M405.488,1017.4l-3.97-1.737c-2.647-1.158-4.853.457-6.011,3.1h0c-1.158,2.647-.989,5.3,1.658,6.46l1.64.717,2.472,1.081a5.268,5.268,0,0,0,6.918-2.707h0A5.269,5.269,0,0,0,405.488,1017.4Z" transform="translate(-394.825 -1015.279)" fill="#e5e5e5"/>
        </g>
      </g>
      <path id="Path_363" data-name="Path 363" d="M388.051,1021.575l-11.794-4.728a1.07,1.07,0,0,1-.594-1.388h0a1.071,1.071,0,0,1,1.388-.594l11.795,4.728a1.071,1.071,0,0,1,.594,1.388h0A1.071,1.071,0,0,1,388.051,1021.575Z" transform="translate(-373.673 -997.719)" fill="#f3f3f3" opacity="0.61"/>
    </g>
    <g id="Group_1736" data-name="Group 1736" transform="translate(108.968 439.904)">
      <path id="Path_350-2" data-name="Path 350" d="M620.067,1009.252l0-.217h0l-.047-2.369h0l-.006-.31h-.019a4.064,4.064,0,0,0-2.161-2.851,10.564,10.564,0,0,0-10.249.2,4.06,4.06,0,0,0-2.046,2.934h-.019l.053,2.68h0l0,.218h.008a4.015,4.015,0,0,0,2.173,2.943,10.563,10.563,0,0,0,10.249-.2,4.016,4.016,0,0,0,2.055-3.027Z" transform="translate(-542.208 -974.032)" fill="#368ead"/>
      <g id="Group_1707-2" data-name="Group 1707" transform="translate(60.998 28.335)">
        <g id="Group_1706-2" data-name="Group 1706" transform="translate(0)">
          <ellipse id="Ellipse_74-2" data-name="Ellipse 74" cx="7.248" cy="4.53" rx="7.248" ry="4.53" transform="translate(0 2.515) rotate(-1.13)" fill="#e9e8e6"/>
          <rect id="Rectangle_1841-2" data-name="Rectangle 1841" width="14.497" height="2.898" transform="translate(0.036 4.364) rotate(-1.132)" fill="#e9e8e6"/>
          <path id="Path_351-2" data-name="Path 351" d="M609.714,1010.24a10.563,10.563,0,0,1-10.249.2c-2.865-1.713-2.922-4.58-.127-6.4a10.562,10.562,0,0,1,10.249-.2C612.452,1005.548,612.509,1008.415,609.714,1010.24Z" transform="translate(-597.237 -1002.607)" fill="#f3f3f3"/>
          <path id="Path_352-2" data-name="Path 352" d="M613.422,1011.484a7.727,7.727,0,0,1-7.5.148c-2.1-1.253-2.137-3.35-.092-4.684a7.726,7.726,0,0,1,7.5-.148C615.425,1008.052,615.466,1010.15,613.422,1011.484Z" transform="translate(-602.344 -1004.995)" fill="#e9e8e6"/>
        </g>
        <path id="Path_353-2" data-name="Path 353" d="M614.747,1015.506l-7.38.228a.716.716,0,0,1-.735-.691h0a.716.716,0,0,1,.691-.735l7.38-.228a.716.716,0,0,1,.735.691h0A.716.716,0,0,1,614.747,1015.506Z" transform="translate(-604.015 -1010.92)" fill="#dbdad9"/>
      </g>
      <path id="Path_354-2" data-name="Path 354" d="M506.7,1005.253l.225-.125h0l1.606-.9,2.54-1.416h0l5.954-3.319a5.1,5.1,0,0,1,6.863,1.855,4.9,4.9,0,0,1-1.891,6.735l-5.826,3.247h0l-1.491.831-.223.124h0l-.538.3-2.248,1.253a5.1,5.1,0,0,1-6.863-1.855h0A4.905,4.905,0,0,1,506.7,1005.253Z" transform="translate(-468.759 -971.554)" fill="#368ead"/>
      <g id="Group_1709-2" data-name="Group 1709" transform="translate(33.075 26.023)">
        <path id="Path_355-2" data-name="Path 355" d="M514.952,1004.028l-10.541,5.988a5.268,5.268,0,0,1-7.162-1.973h0a5.269,5.269,0,0,1,1.973-7.163l10.541-5.988a5.269,5.269,0,0,1,7.163,1.973h0A5.269,5.269,0,0,1,514.952,1004.028Z" transform="translate(-496.332 -994.211)" fill="#e5e5e5"/>
        <g id="Group_1708-2" data-name="Group 1708" transform="translate(0 3.636)">
          <path id="Path_356-2" data-name="Path 356" d="M498.369,1012.779l2.907-1.651a5.269,5.269,0,0,1,7.162,1.973h0a5.269,5.269,0,0,1-1.973,7.163l-.561.319-2.346,1.333a5.268,5.268,0,0,1-7.162-1.973h0A5.269,5.269,0,0,1,498.369,1012.779Z" transform="translate(-495.714 -1009.612)" fill="#ef582b"/>
          <path id="Path_357-2" data-name="Path 357" d="M501.251,1010.132l3.768-2.14c2.512-1.427,4.874-.05,6.3,2.462h0c1.427,2.512,1.535,5.17-.977,6.6l-1.556.884-2.346,1.333a5.269,5.269,0,0,1-7.162-1.973h0A5.269,5.269,0,0,1,501.251,1010.132Z" transform="translate(-497.803 -1007.416)" fill="#ef582b"/>
        </g>
      </g>
      <path id="Path_358-2" data-name="Path 358" d="M518.459,1011.442l11.239-5.929a1.071,1.071,0,0,0,.446-1.442h0a1.071,1.071,0,0,0-1.443-.447l-11.239,5.929a1.071,1.071,0,0,0-.446,1.442h0A1.071,1.071,0,0,0,518.459,1011.442Z" transform="translate(-477.987 -974.92)" fill="#f3f3f3" opacity="0.61"/>
      <path id="Path_359-2" data-name="Path 359" d="M393.162,1018.147l-.236-.1h0l-1.69-.723-2.673-1.144h0l-6.267-2.682a5.1,5.1,0,0,0-6.633,2.558,4.9,4.9,0,0,0,2.581,6.5l6.131,2.624h0l1.569.672.235.1h0l.566.242,2.366,1.013a5.1,5.1,0,0,0,6.633-2.559h0A4.9,4.9,0,0,0,393.162,1018.147Z" transform="translate(-300.404 -1010.768)" fill="#368ead"/>
      <g id="Group_1711-2" data-name="Group 1711" transform="translate(73.016 0)">
        <path id="Path_360-2" data-name="Path 360" d="M371.781,1014.728l11.107,4.86a5.269,5.269,0,0,0,6.918-2.707h0a5.269,5.269,0,0,0-2.707-6.919l-11.106-4.86a5.269,5.269,0,0,0-6.919,2.707h0A5.269,5.269,0,0,0,371.781,1014.728Z" transform="translate(-368.636 -1004.664)" fill="#ef582b"/>
        <g id="Group_1710-2" data-name="Group 1710" transform="translate(7.211 2.923)">
          <path id="Path_361-2" data-name="Path 361" d="M409.167,1019.618l-3.063-1.34a5.269,5.269,0,0,0-6.918,2.707h0a5.269,5.269,0,0,0,2.707,6.919l.591.258,2.472,1.082a5.269,5.269,0,0,0,6.918-2.707h0A5.269,5.269,0,0,0,409.167,1019.618Z" transform="translate(-397.668 -1017.135)" fill="#e5e5e5"/>
          <path id="Path_362-2" data-name="Path 362" d="M405.488,1017.4l-3.97-1.737c-2.647-1.158-4.853.457-6.011,3.1h0c-1.158,2.647-.989,5.3,1.658,6.46l1.64.717,2.472,1.081a5.268,5.268,0,0,0,6.918-2.707h0A5.269,5.269,0,0,0,405.488,1017.4Z" transform="translate(-394.825 -1015.279)" fill="#e5e5e5"/>
        </g>
      </g>
      <path id="Path_363-2" data-name="Path 363" d="M388.051,1021.575l-11.794-4.728a1.07,1.07,0,0,1-.594-1.388h0a1.071,1.071,0,0,1,1.388-.594l11.795,4.728a1.071,1.071,0,0,1,.594,1.388h0A1.071,1.071,0,0,1,388.051,1021.575Z" transform="translate(-375.586 -983.1)" fill="#f3f3f3" opacity="0.61"/>
    </g>
    <g id="Group_1734" data-name="Group 1734" transform="translate(273.187 502.485)">
      <path id="Path_364" data-name="Path 364" d="M859.818,797.782l-62.607,35.992a6.128,6.128,0,0,1-5.5.217l-34.831-20.11c-1.412-.815-1.238-2.235.389-3.17l62.607-35.992a6.128,6.128,0,0,1,5.5-.218l34.831,20.11C861.619,795.427,861.445,796.847,859.818,797.782Z" transform="translate(-752.722 -772.017)" fill="#368ead"/>
      <path id="Path_365" data-name="Path 365" d="M848.334,790.77l-62.74,36.223a6.124,6.124,0,0,1-5.51.228l-34.831-20.109c-1.412-.815-1.235-2.24.4-3.181l62.74-36.223a6.124,6.124,0,0,1,5.51-.228l34.831,20.109C850.142,788.4,849.965,789.829,848.334,790.77Z" transform="translate(-744.3 -766.929)" fill="url(#linear-gradient-4)"/>
      <path id="Path_366" data-name="Path 366" d="M891.858,809.287l-57.478,33.185a1.618,1.618,0,0,1-1.455.06l-.1-.058c-.373-.215-.326-.591.1-.84l57.478-33.185a1.617,1.617,0,0,1,1.455-.06l.1.058C892.335,808.662,892.288,809.038,891.858,809.287Z" transform="translate(-808.268 -796.868)" fill="#fff"/>
      <path id="Path_367" data-name="Path 367" d="M1080.141,941.48l0-.217h0l-.047-2.369h0l-.006-.31h-.019a4.062,4.062,0,0,0-2.161-2.851,10.563,10.563,0,0,0-10.249.2,4.061,4.061,0,0,0-2.046,2.934h-.019l.053,2.68h0l0,.217h.008a4.017,4.017,0,0,0,2.174,2.943,10.564,10.564,0,0,0,10.249-.2,4.017,4.017,0,0,0,2.055-3.027Z" transform="translate(-977.128 -888.365)" fill="#368ead"/>
      <g id="Group_1714" data-name="Group 1714" transform="translate(86.106 46.09)">
        <g id="Group_1713" data-name="Group 1713" transform="translate(0 0)">
          <ellipse id="Ellipse_75" data-name="Ellipse 75" cx="7.248" cy="4.53" rx="7.248" ry="4.53" transform="matrix(1, -0.02, 0.02, 1, 0.047, 2.656)" fill="#e9e8e6"/>
          <rect id="Rectangle_1842" data-name="Rectangle 1842" width="14.497" height="2.898" transform="translate(0.083 4.505) rotate(-1.132)" fill="#e9e8e6"/>
          <ellipse id="Ellipse_76" data-name="Ellipse 76" cx="7.248" cy="4.53" rx="7.248" ry="4.53" transform="matrix(1, -0.02, 0.02, 1, 0, 0.286)" fill="#f3f3f3"/>
          <path id="Path_368" data-name="Path 368" d="M1073.5,943.712a7.727,7.727,0,0,1-7.5.148c-2.1-1.253-2.137-3.35-.092-4.684a7.725,7.725,0,0,1,7.5-.148C1075.5,940.281,1075.541,942.378,1073.5,943.712Z" transform="translate(-1062.372 -937.082)" fill="#e9e8e6"/>
        </g>
        <path id="Path_369" data-name="Path 369" d="M1075.419,943.453l-6.925,2.561a.715.715,0,0,1-.917-.422h0a.716.716,0,0,1,.422-.917l6.925-2.561a.716.716,0,0,1,.917.422h0A.716.716,0,0,1,1075.419,943.453Z" transform="translate(-1064.641 -939.937)" fill="#dbdad9"/>
      </g>
      <path id="Path_370" data-name="Path 370" d="M935.063,1030.028l0-.217h0l-.047-2.37h0l-.006-.31h-.019a4.062,4.062,0,0,0-2.161-2.851,10.563,10.563,0,0,0-10.248.2,4.062,4.062,0,0,0-2.047,2.934h-.019l.053,2.679h0l0,.217h.009a4.016,4.016,0,0,0,2.173,2.943,10.563,10.563,0,0,0,10.249-.2,4.016,4.016,0,0,0,2.055-3.027Z" transform="translate(-871.995 -952.533)" fill="#368ead"/>
      <g id="Group_1716" data-name="Group 1716" transform="translate(46.207 70.611)">
        <g id="Group_1715" data-name="Group 1715" transform="translate(0)">
          <ellipse id="Ellipse_77" data-name="Ellipse 77" cx="7.248" cy="4.53" rx="7.248" ry="4.53" transform="translate(0 2.515) rotate(-1.13)" fill="#e9e8e6"/>
          <rect id="Rectangle_1843" data-name="Rectangle 1843" width="14.497" height="2.898" transform="translate(0.036 4.364) rotate(-1.132)" fill="#e9e8e6"/>
          <path id="Path_371" data-name="Path 371" d="M924.71,1031.016a10.564,10.564,0,0,1-10.249.2c-2.865-1.713-2.922-4.58-.127-6.4a10.562,10.562,0,0,1,10.249-.2C927.448,1026.324,927.505,1029.192,924.71,1031.016Z" transform="translate(-912.233 -1023.384)" fill="#f3f3f3"/>
          <ellipse id="Ellipse_78" data-name="Ellipse 78" cx="5.301" cy="3.313" rx="5.301" ry="3.313" transform="matrix(1, -0.02, 0.02, 1, 1.918, 1.013)" fill="#e9e8e6"/>
        </g>
        <path id="Path_372" data-name="Path 372" d="M930.842,1035.72l-7.237-1.465a.716.716,0,0,1-.558-.841h0a.716.716,0,0,1,.841-.558l7.237,1.466a.715.715,0,0,1,.558.841h0A.716.716,0,0,1,930.842,1035.72Z" transform="translate(-920.029 -1030.238)" fill="#dbdad9"/>
      </g>
      <path id="Path_373" data-name="Path 373" d="M808.76,888.934l-.148-.083h0l-1.059-.591-1.676-.934h0l-3.928-2.189a3.364,3.364,0,0,0-4.527,1.224,3.236,3.236,0,0,0,1.247,4.443l3.843,2.142h0l.984.548.147.082h0l.355.2,1.483.826a3.364,3.364,0,0,0,4.527-1.224h0A3.236,3.236,0,0,0,808.76,888.934Z" transform="translate(-782.483 -852.284)" fill="#44accc"/>
      <g id="Group_1718" data-name="Group 1718" transform="translate(14.076 30.743)">
        <path id="Path_374" data-name="Path 374" d="M797.173,885.062l6.953,3.95a3.476,3.476,0,0,0,4.725-1.3h0a3.476,3.476,0,0,0-1.3-4.725l-6.954-3.95a3.475,3.475,0,0,0-4.725,1.3h0A3.476,3.476,0,0,0,797.173,885.062Z" transform="translate(-795.422 -878.586)" fill="#e5e5e5"/>
        <g id="Group_1717" data-name="Group 1717" transform="translate(4.453 2.398)">
          <path id="Path_375" data-name="Path 375" d="M821.367,890.834l-1.917-1.089a3.476,3.476,0,0,0-4.725,1.3h0a3.476,3.476,0,0,0,1.3,4.725l.37.21,1.547.879a3.475,3.475,0,0,0,4.725-1.3h0A3.476,3.476,0,0,0,821.367,890.834Z" transform="translate(-813.537 -888.745)" fill="#1369aa"/>
          <path id="Path_376" data-name="Path 376" d="M818.9,889.088l-2.485-1.412c-1.657-.941-3.215-.033-4.157,1.624h0c-.942,1.657-1.012,3.411.645,4.352l1.026.583,1.548.879a3.475,3.475,0,0,0,4.725-1.3h0A3.476,3.476,0,0,0,818.9,889.088Z" transform="translate(-811.595 -887.296)" fill="#1369aa"/>
        </g>
      </g>
      <path id="Path_377" data-name="Path 377" d="M861.265,858.061l-.148-.083h0l-1.059-.591-1.676-.934h0l-3.928-2.19a3.365,3.365,0,0,0-4.527,1.224,3.235,3.235,0,0,0,1.247,4.443l3.843,2.142h0l.984.548.147.082h0l.354.2,1.483.827a3.365,3.365,0,0,0,4.527-1.224h0A3.236,3.236,0,0,0,861.265,858.061Z" transform="translate(-820.532 -829.911)" fill="#44accc"/>
      <g id="Group_1720" data-name="Group 1720" transform="translate(28.532 22.242)">
        <path id="Path_378" data-name="Path 378" d="M849.678,854.188l6.953,3.95a3.475,3.475,0,0,0,4.725-1.3h0a3.476,3.476,0,0,0-1.3-4.725l-6.953-3.95a3.476,3.476,0,0,0-4.725,1.3h0A3.476,3.476,0,0,0,849.678,854.188Z" transform="translate(-847.927 -847.712)" fill="#e5e5e5"/>
        <g id="Group_1719" data-name="Group 1719" transform="translate(4.453 2.398)">
          <path id="Path_379" data-name="Path 379" d="M873.872,859.961l-1.917-1.089a3.476,3.476,0,0,0-4.725,1.3h0a3.476,3.476,0,0,0,1.3,4.725l.37.21,1.548.879a3.475,3.475,0,0,0,4.725-1.3h0A3.476,3.476,0,0,0,873.872,859.961Z" transform="translate(-866.042 -857.872)" fill="#1369aa"/>
          <path id="Path_380" data-name="Path 380" d="M871.406,858.215l-2.485-1.412c-1.657-.941-3.215-.033-4.157,1.624h0c-.941,1.657-1.013,3.411.645,4.352l1.027.583,1.547.879a3.476,3.476,0,0,0,4.725-1.3h0A3.476,3.476,0,0,0,871.406,858.215Z" transform="translate(-864.1 -856.423)" fill="#1369aa"/>
        </g>
      </g>
      <path id="Path_381" data-name="Path 381" d="M860.676,859.079l-7.414-3.911a.706.706,0,0,1-.294-.951h0a.706.706,0,0,1,.952-.295l7.414,3.911a.707.707,0,0,1,.295.951h0A.706.706,0,0,1,860.676,859.079Z" transform="translate(-822.989 -829.911)" fill="#f3f3f3" opacity="0.61"/>
      <path id="Path_382" data-name="Path 382" d="M913.77,827.217l-.148-.083h0l-1.06-.591-1.676-.934h0l-3.927-2.19a3.365,3.365,0,0,0-4.527,1.224,3.235,3.235,0,0,0,1.247,4.443l3.843,2.142h0l.984.548.147.082h0l.354.2,1.483.827a3.365,3.365,0,0,0,4.527-1.224h0A3.236,3.236,0,0,0,913.77,827.217Z" transform="translate(-858.58 -807.56)" fill="#44accc"/>
      <g id="Group_1722" data-name="Group 1722" transform="translate(42.989 13.75)">
        <path id="Path_383" data-name="Path 383" d="M902.184,823.345l6.953,3.95a3.475,3.475,0,0,0,4.725-1.3h0a3.476,3.476,0,0,0-1.3-4.725l-6.954-3.95a3.476,3.476,0,0,0-4.725,1.3h0A3.475,3.475,0,0,0,902.184,823.345Z" transform="translate(-900.432 -816.869)" fill="#e5e5e5"/>
        <g id="Group_1721" data-name="Group 1721" transform="translate(4.453 2.398)">
          <path id="Path_384" data-name="Path 384" d="M926.378,829.118l-1.918-1.089a3.475,3.475,0,0,0-4.724,1.3h0a3.476,3.476,0,0,0,1.3,4.725l.37.21,1.548.879a3.476,3.476,0,0,0,4.725-1.3h0A3.476,3.476,0,0,0,926.378,829.118Z" transform="translate(-918.548 -827.029)" fill="#1369aa"/>
          <path id="Path_385" data-name="Path 385" d="M923.911,827.372l-2.486-1.412c-1.657-.941-3.215-.033-4.157,1.624h0c-.941,1.657-1.013,3.41.645,4.352l1.027.583,1.548.879a3.475,3.475,0,0,0,4.725-1.3h0A3.476,3.476,0,0,0,923.911,827.372Z" transform="translate(-916.605 -825.58)" fill="#1369aa"/>
        </g>
      </g>
      <path id="Path_386" data-name="Path 386" d="M913.181,828.236l-7.414-3.911a.706.706,0,0,1-.295-.951h0a.706.706,0,0,1,.952-.295l7.414,3.911a.706.706,0,0,1,.295.951h0A.707.707,0,0,1,913.181,828.236Z" transform="translate(-861.037 -807.56)" fill="#f3f3f3" opacity="0.61"/>
      <path id="Path_387" data-name="Path 387" d="M966.342,796.415l-.148-.083h0l-1.06-.59-1.675-.934h0l-3.928-2.19A3.364,3.364,0,0,0,955,793.842a3.235,3.235,0,0,0,1.247,4.443l3.843,2.143h0l.984.548.147.082h0l.354.2,1.483.827a3.365,3.365,0,0,0,4.527-1.224h0A3.236,3.236,0,0,0,966.342,796.415Z" transform="translate(-896.677 -785.239)" fill="#44accc"/>
      <g id="Group_1724" data-name="Group 1724" transform="translate(57.464 5.269)">
        <path id="Path_388" data-name="Path 388" d="M954.756,792.543l6.953,3.95a3.476,3.476,0,0,0,4.725-1.3h0a3.476,3.476,0,0,0-1.3-4.725l-6.953-3.95a3.475,3.475,0,0,0-4.725,1.3h0A3.476,3.476,0,0,0,954.756,792.543Z" transform="translate(-953.005 -786.067)" fill="#e5e5e5"/>
        <g id="Group_1723" data-name="Group 1723" transform="translate(4.453 2.398)">
          <path id="Path_389" data-name="Path 389" d="M978.95,798.316l-1.918-1.09a3.475,3.475,0,0,0-4.724,1.3h0a3.476,3.476,0,0,0,1.3,4.725l.37.21,1.548.879a3.475,3.475,0,0,0,4.725-1.3h0A3.476,3.476,0,0,0,978.95,798.316Z" transform="translate(-971.12 -796.226)" fill="#1369aa"/>
          <path id="Path_390" data-name="Path 390" d="M976.483,796.57,974,795.158c-1.657-.941-3.215-.033-4.157,1.625h0c-.941,1.657-1.012,3.41.645,4.352l1.027.583,1.547.879a3.476,3.476,0,0,0,4.725-1.3h0A3.476,3.476,0,0,0,976.483,796.57Z" transform="translate(-969.177 -794.778)" fill="#1369aa"/>
        </g>
      </g>
      <path id="Path_391" data-name="Path 391" d="M930.157,902.781l-.148-.083h0l-1.059-.591-1.676-.934h0l-3.928-2.19a3.365,3.365,0,0,0-4.527,1.224,3.235,3.235,0,0,0,1.247,4.443l3.843,2.142h0l.984.549.147.082h0l.355.2,1.483.827a3.365,3.365,0,0,0,4.527-1.224h0A3.236,3.236,0,0,0,930.157,902.781Z" transform="translate(-870.455 -862.319)" fill="#44accc"/>
      <g id="Group_1726" data-name="Group 1726" transform="translate(47.5 34.556)">
        <path id="Path_392" data-name="Path 392" d="M918.57,898.909l6.954,3.95a3.475,3.475,0,0,0,4.725-1.3h0a3.476,3.476,0,0,0-1.3-4.725l-6.954-3.95a3.476,3.476,0,0,0-4.725,1.3h0A3.476,3.476,0,0,0,918.57,898.909Z" transform="translate(-916.819 -892.433)" fill="#e5e5e5"/>
        <g id="Group_1725" data-name="Group 1725" transform="translate(4.453 2.398)">
          <path id="Path_393" data-name="Path 393" d="M942.764,904.682l-1.917-1.089a3.476,3.476,0,0,0-4.725,1.3h0a3.476,3.476,0,0,0,1.3,4.725l.37.21,1.547.879a3.476,3.476,0,0,0,4.725-1.3h0A3.476,3.476,0,0,0,942.764,904.682Z" transform="translate(-934.934 -902.592)" fill="#1369aa"/>
          <path id="Path_394" data-name="Path 394" d="M940.3,902.936l-2.485-1.412c-1.657-.941-3.215-.033-4.157,1.624h0c-.942,1.657-1.012,3.411.645,4.352l1.026.583,1.548.879a3.475,3.475,0,0,0,4.725-1.3h0A3.476,3.476,0,0,0,940.3,902.936Z" transform="translate(-932.992 -901.144)" fill="#1369aa"/>
        </g>
      </g>
      <path id="Path_395" data-name="Path 395" d="M929.567,903.8l-7.414-3.911a.707.707,0,0,1-.295-.951h0a.706.706,0,0,1,.952-.294l7.414,3.911a.707.707,0,0,1,.294.952h0A.707.707,0,0,1,929.567,903.8Z" transform="translate(-872.912 -862.319)" fill="#f3f3f3" opacity="0.61"/>
      <path id="Path_396" data-name="Path 396" d="M1037.631,1000.788l-.225-.125h0l-1.605-.9-2.54-1.416h0l-5.954-3.319a5.1,5.1,0,0,0-6.863,1.855,4.905,4.905,0,0,0,1.891,6.735l5.825,3.247h0l1.491.831.223.124h0l.537.3,2.248,1.253a5.1,5.1,0,0,0,6.863-1.855h0A4.9,4.9,0,0,0,1037.631,1000.788Z" transform="translate(-943.938 -931.763)" fill="#368ead"/>
      <path id="Path_397" data-name="Path 397" d="M1012.173,1002.739l10.541,5.988a5.269,5.269,0,0,0,7.162-1.973h0a5.269,5.269,0,0,0-1.973-7.163l-10.541-5.988a5.269,5.269,0,0,0-7.162,1.973h0A5.269,5.269,0,0,0,1012.173,1002.739Z" transform="translate(-936.494 -930.698)" fill="#e5e5e5"/>
      <g id="Group_1727" data-name="Group 1727" transform="translate(79.774 65.86)">
        <path id="Path_398" data-name="Path 398" d="M1048.848,1011.49l-2.907-1.651a5.269,5.269,0,0,0-7.162,1.973h0a5.269,5.269,0,0,0,1.973,7.163l.561.318,2.346,1.333a5.268,5.268,0,0,0,7.162-1.973h0A5.268,5.268,0,0,0,1048.848,1011.49Z" transform="translate(-1036.979 -1008.323)" fill="#ef582b"/>
        <path id="Path_399" data-name="Path 399" d="M1045.11,1008.844l-3.768-2.14c-2.513-1.427-4.874-.05-6.3,2.462h0c-1.427,2.513-1.535,5.17.978,6.6l1.556.884,2.346,1.333a5.269,5.269,0,0,0,7.162-1.973h0A5.27,5.27,0,0,0,1045.11,1008.844Z" transform="translate(-1034.034 -1006.127)" fill="#ef582b"/>
      </g>
      <path id="Path_400" data-name="Path 400" d="M1028.844,1010.153l-11.239-5.928a1.071,1.071,0,0,1-.447-1.442h0a1.071,1.071,0,0,1,1.443-.447l11.239,5.929a1.07,1.07,0,0,1,.446,1.442h0A1.07,1.07,0,0,1,1028.844,1010.153Z" transform="translate(-941.942 -937.431)" fill="#f3f3f3" opacity="0.61"/>
      <path id="Path_401" data-name="Path 401" d="M877.665,933.66l-.148-.083h0l-1.059-.59-1.676-.934h0l-3.928-2.19a3.365,3.365,0,0,0-4.527,1.224,3.235,3.235,0,0,0,1.247,4.443l3.843,2.142h0l.984.548.147.082h0l.354.2,1.483.827a3.365,3.365,0,0,0,4.527-1.224h0A3.235,3.235,0,0,0,877.665,933.66Z" transform="translate(-832.416 -884.695)" fill="#44accc"/>
      <g id="Group_1729" data-name="Group 1729" transform="translate(33.048 43.057)">
        <path id="Path_402" data-name="Path 402" d="M866.078,929.787l6.954,3.95a3.476,3.476,0,0,0,4.725-1.3h0a3.476,3.476,0,0,0-1.3-4.725l-6.954-3.95a3.475,3.475,0,0,0-4.725,1.3h0A3.476,3.476,0,0,0,866.078,929.787Z" transform="translate(-864.327 -923.311)" fill="#e5e5e5"/>
        <g id="Group_1728" data-name="Group 1728" transform="translate(4.453 2.398)">
          <path id="Path_403" data-name="Path 403" d="M890.272,935.56l-1.917-1.089a3.475,3.475,0,0,0-4.725,1.3h0a3.476,3.476,0,0,0,1.3,4.725l.37.21,1.547.879a3.476,3.476,0,0,0,4.725-1.3h0A3.476,3.476,0,0,0,890.272,935.56Z" transform="translate(-882.442 -933.471)" fill="#1369aa"/>
          <path id="Path_404" data-name="Path 404" d="M887.806,933.814l-2.486-1.412c-1.657-.941-3.215-.033-4.157,1.624h0c-.942,1.657-1.013,3.411.645,4.352l1.026.583,1.548.879a3.476,3.476,0,0,0,4.725-1.3h0A3.476,3.476,0,0,0,887.806,933.814Z" transform="translate(-880.5 -932.022)" fill="#1369aa"/>
        </g>
      </g>
      <path id="Path_405" data-name="Path 405" d="M877.075,934.678l-7.414-3.911a.706.706,0,0,1-.294-.951h0a.706.706,0,0,1,.952-.294l7.414,3.911a.706.706,0,0,1,.294.951h0A.706.706,0,0,1,877.075,934.678Z" transform="translate(-834.873 -884.695)" fill="#f3f3f3" opacity="0.61"/>
      <path id="Path_406" data-name="Path 406" d="M982.662,871.979l-.148-.083h0l-1.059-.59-1.676-.934h0l-3.928-2.189a3.365,3.365,0,0,0-4.527,1.224,3.236,3.236,0,0,0,1.247,4.443l3.843,2.142h0l.984.548.147.082h0l.354.2,1.483.826a3.365,3.365,0,0,0,4.527-1.224h0A3.236,3.236,0,0,0,982.662,871.979Z" transform="translate(-908.504 -839.997)" fill="#44accc"/>
      <g id="Group_1731" data-name="Group 1731" transform="translate(61.957 26.075)">
        <path id="Path_407" data-name="Path 407" d="M971.075,868.107l6.954,3.95a3.475,3.475,0,0,0,4.725-1.3h0a3.476,3.476,0,0,0-1.3-4.725l-6.953-3.95a3.476,3.476,0,0,0-4.725,1.3h0A3.476,3.476,0,0,0,971.075,868.107Z" transform="translate(-969.324 -861.631)" fill="#e5e5e5"/>
        <g id="Group_1730" data-name="Group 1730" transform="translate(4.453 2.398)">
          <path id="Path_408" data-name="Path 408" d="M995.269,873.88l-1.917-1.089a3.476,3.476,0,0,0-4.725,1.3h0a3.476,3.476,0,0,0,1.3,4.725l.37.21,1.548.879a3.475,3.475,0,0,0,4.725-1.3h0A3.476,3.476,0,0,0,995.269,873.88Z" transform="translate(-987.439 -871.79)" fill="#1369aa"/>
          <path id="Path_409" data-name="Path 409" d="M992.8,872.133l-2.485-1.412c-1.657-.941-3.216-.033-4.157,1.624h0c-.941,1.658-1.012,3.411.645,4.352l1.027.583,1.547.879a3.475,3.475,0,0,0,4.725-1.3h0A3.476,3.476,0,0,0,992.8,872.133Z" transform="translate(-985.497 -870.342)" fill="#1369aa"/>
        </g>
      </g>
      <path id="Path_410" data-name="Path 410" d="M982.073,873l-7.414-3.911a.706.706,0,0,1-.294-.951h0a.706.706,0,0,1,.951-.294l7.414,3.911a.707.707,0,0,1,.295.952h0A.706.706,0,0,1,982.073,873Z" transform="translate(-910.961 -839.998)" fill="#f3f3f3" opacity="0.61"/>
      <path id="Path_411" data-name="Path 411" d="M1035.234,841.136l-.148-.083h0l-1.059-.591-1.676-.934h0l-3.928-2.19a3.365,3.365,0,0,0-4.527,1.224,3.235,3.235,0,0,0,1.247,4.443l3.843,2.142h0l.984.548.147.082h0l.354.2,1.483.827a3.365,3.365,0,0,0,4.527-1.224h0A3.236,3.236,0,0,0,1035.234,841.136Z" transform="translate(-946.601 -817.647)" fill="#44accc"/>
      <g id="Group_1733" data-name="Group 1733" transform="translate(76.432 17.582)">
        <path id="Path_412" data-name="Path 412" d="M1023.647,837.263l6.954,3.95a3.476,3.476,0,0,0,4.725-1.3h0a3.476,3.476,0,0,0-1.3-4.725l-6.953-3.95a3.476,3.476,0,0,0-4.725,1.3h0A3.476,3.476,0,0,0,1023.647,837.263Z" transform="translate(-1021.896 -830.787)" fill="#e5e5e5"/>
        <g id="Group_1732" data-name="Group 1732" transform="translate(4.453 2.398)">
          <path id="Path_413" data-name="Path 413" d="M1047.841,843.036l-1.917-1.089a3.476,3.476,0,0,0-4.725,1.3h0a3.476,3.476,0,0,0,1.3,4.725l.37.21,1.548.879a3.476,3.476,0,0,0,4.725-1.3h0A3.476,3.476,0,0,0,1047.841,843.036Z" transform="translate(-1040.011 -840.947)" fill="#1369aa"/>
          <path id="Path_414" data-name="Path 414" d="M1045.376,841.29l-2.486-1.412c-1.657-.941-3.215-.033-4.157,1.624h0c-.941,1.657-1.012,3.411.645,4.352l1.027.583,1.547.879a3.476,3.476,0,0,0,4.725-1.3h0A3.476,3.476,0,0,0,1045.376,841.29Z" transform="translate(-1038.069 -839.498)" fill="#1369aa"/>
        </g>
      </g>
      <path id="Path_415" data-name="Path 415" d="M1034.645,842.154l-7.414-3.911a.706.706,0,0,1-.294-.951h0a.706.706,0,0,1,.952-.295l7.414,3.911a.707.707,0,0,1,.295.951h0A.707.707,0,0,1,1034.645,842.154Z" transform="translate(-949.058 -817.646)" fill="#f3f3f3" opacity="0.61"/>
    </g>
  </g>
</svg>
