<svg xmlns="http://www.w3.org/2000/svg" width="50" height="50" viewBox="0 0 50 50">
  <g id="illustration_round_sleep" transform="translate(-16 -866)">
    <circle id="Ellipse_116" data-name="Ellipse 116" cx="25" cy="25" r="25" transform="translate(16 866)" fill="#58cc02"/>
    <g id="Group_2044" data-name="Group 2044" transform="translate(-20 -119)">
      <rect id="Rectangle_1913" data-name="Rectangle 1913" width="24" height="24" transform="translate(49 998)" fill="none"/>
      <g id="Group_2043" data-name="Group 2043" transform="translate(-149.031 753.366)">
        <path id="Path_614" data-name="Path 614" d="M222.028,327.754c0,.69-.323,1.1-.854,1.1s-.837-.412-.849-1.11c0-.18,0-.36,0-.595H199.736c0,.307.02.593,0,.877a.867.867,0,0,1-.85.825.837.837,0,0,1-.832-.838c-.012-2.1-.042-4.21.017-6.311a2.5,2.5,0,0,1,2.588-2.3c3.591-.011,7.184-.005,10.775-.005q3.891,0,7.781,0a2.579,2.579,0,0,1,2.815,2.8C222.034,324.054,222.03,325.9,222.028,327.754Z" transform="translate(0 -63.19)" fill="#fff"/>
        <path id="Path_615" data-name="Path 615" d="M240.4,254.014c0,.14-.023.281-.038.45H237.82c0-.278.009-.561,0-.843a1.683,1.683,0,0,0-1.668-1.666c-.853-.021-1.705-.015-2.558-.007a1.686,1.686,0,0,0-1.765,1.789c0,.231,0,.462,0,.718-.176.015-.3.034-.42.035-.415,0-.829,0-1.313,0,0-.276,0-.505,0-.734a1.689,1.689,0,0,0-1.8-1.81c-.781-.008-1.56,0-2.341,0a1.713,1.713,0,0,0-1.851,1.871c0,.2,0,.394,0,.673h-2.586v-.565c0-1.416,0-2.831,0-4.247,0-.911.287-1.191,1.214-1.191q8.275,0,16.549,0c.806,0,1.123.31,1.126,1.117C240.41,251.074,240.407,252.544,240.4,254.014Z" transform="translate(-20.926 0)" fill="#fff"/>
      </g>
    </g>
  </g>
</svg>
