<svg xmlns="http://www.w3.org/2000/svg" width="168.452" height="171" viewBox="0 0 168.452 171">
  <g id="illustration_health_mate" transform="translate(-1903.536 54.851)">
    <g id="Group_73" transform="translate(1903.536 -54.851)">
      <g id="Group_1" transform="translate(23.991 13.449)">
        <path id="Path_1" d="M2133.681,173.7q-1.01,0-2.013-.083l.085-1.02a23.33,23.33,0,0,0,3.86,0,26.444,26.444,0,0,0,20.18-12.342,24.054,24.054,0,0,0,1.957-18.989c-2.167-6.528-7.241-11.5-15.083-14.787-3.59-1.5-5.935.9-8.2,3.229-1.677,1.72-3.26,3.345-5.279,3.369h-.045a5.587,5.587,0,0,1-3.828-1.921c-5.476-5.354-2.728-13.092,1.29-18.091,1.429-1.776,2.9-3.562,4.32-5.288,3.62-4.4,7.362-8.947,10.732-13.676,4.865-6.827,15.866-24.682,12.975-42.984-1.418-8.947-7.358-18.911-17.047-19.643-3.992-.3-7.969.952-11.816,2.167-3.7,1.166-7.522,2.371-11.448,2.264a21.7,21.7,0,0,1-8.652-2.156,62.8,62.8,0,0,1-9.923-6.275c-4.07-2.942-8.279-5.985-12.961-7.454-14.775-4.636-37.164-4.948-51.639,9.43l-.055.054a1.494,1.494,0,0,0-.115.118l-.792-.648a2.428,2.428,0,0,1,.191-.2l.047-.047c6.319-6.277,14.931-10.4,24.908-11.922a62.9,62.9,0,0,1,27.76,2.24c4.841,1.518,9.118,4.61,13.255,7.6a62.036,62.036,0,0,0,9.754,6.177,20.7,20.7,0,0,0,8.248,2.061c3.757.1,7.5-1.077,11.113-2.217,3.939-1.243,8.012-2.528,12.2-2.211,4.77.361,9.05,2.82,12.376,7.114a29.768,29.768,0,0,1,5.6,13.39c2.95,18.675-8.215,36.809-13.152,43.739-3.391,4.759-7.146,9.321-10.776,13.733-1.419,1.725-2.887,3.508-4.313,5.279-3.749,4.665-6.358,11.843-1.371,16.718a4.65,4.65,0,0,0,3.112,1.63h.032c1.594-.019,3.034-1.5,4.558-3.06,2.389-2.452,5.1-5.232,9.33-3.459,8.127,3.4,13.4,8.587,15.66,15.408a25.121,25.121,0,0,1-2.046,19.832,27.5,27.5,0,0,1-20.977,12.843C2135.027,173.669,2134.354,173.7,2133.681,173.7Z" transform="translate(-2030.183 -16.145)" fill="#ccdde2"/>
      </g>
      <g id="Group_2" transform="translate(60.446 121.456)">
        <path id="Path_2" d="M2229.856,594.461c-.2-.212-.681-.659-1.291-1.224-3.853-3.576-5.94-5.721-5.94-6.812a.655.655,0,0,1,.01-.115.311.311,0,0,0,0,.054h1.023a.649.649,0,0,1,0,.081c.093.92,4.242,4.77,5.611,6.042.648.6,1.116,1.035,1.339,1.272Z" transform="translate(-2222.625 -586.309)" fill="#ccdde2"/>
      </g>
      <g id="Group_3" transform="translate(13.137 117.056)">
        <path id="Path_3" d="M1999.016,616.925c-.961,0-1.9-.019-2.82-.056l-.042,0c-5.184-.636-10.385-3.884-14.646-9.144a39.846,39.846,0,0,1-8.078-17.816,29.262,29.262,0,0,1,1.049-15.33,20.823,20.823,0,0,1,10.324-11.494l.468.911c-8.976,4.613-12.924,13.992-10.833,25.734,2.1,11.774,10.831,24.757,21.82,26.121,1.682.068,3.45.072,5.259.012l.033,1.023C2000.7,616.911,1999.848,616.925,1999.016,616.925Z" transform="translate(-1972.885 -563.082)" fill="#ccdde2"/>
      </g>
      <g id="Group_4" transform="translate(0 26.088)">
        <path id="Path_4" d="M1963.068,170.163h-54.735a4.8,4.8,0,0,1-4.8-4.788V87.66a4.8,4.8,0,0,1,4.8-4.8h54.735a4.8,4.8,0,0,1,4.8,4.8v39.193a.512.512,0,1,1-1.024,0V87.66a3.777,3.777,0,0,0-3.772-3.773h-54.735a3.777,3.777,0,0,0-3.772,3.773v77.715a3.772,3.772,0,0,0,3.772,3.764h54.735a3.517,3.517,0,0,0,1.354-.26.512.512,0,1,1,.392.946A4.539,4.539,0,0,1,1963.068,170.163Z" transform="translate(-1903.536 -82.864)"/>
      </g>
      <g id="Group_5" transform="translate(2.434 29.217)">
        <rect id="Rectangle_1" width="59.461" height="81.045" rx="3" transform="translate(0 0)" fill="#2196f3"/>
      </g>
      <g id="Group_6" transform="translate(5.934 35.49)">
        <rect id="Rectangle_2" width="53.11" height="15.174" rx="7.587" fill="#2196f3"/>
      </g>
      <g id="Group_9"  transform="translate(27.779 38.741)">
        <g id="Group_7"  transform="translate(2.816)">
          <circle id="Ellipse_1"  cx="1.57" cy="1.57" r="1.57" fill="#eee"/>
        </g>
        <g id="Group_8"  transform="translate(0 4.286)">
          <path id="Path_5"  d="M2050.179,176.671a4.385,4.385,0,0,1,8.771,0Z" transform="translate(-2050.179 -172.286)" fill="#eee"/>
        </g>
      </g>
      <g id="Group_10"  transform="translate(11.245 56.926)">
        <rect id="Rectangle_3"  width="41.296" height="1.024" fill="#fff"/>
      </g>
      <g id="Group_11"  transform="translate(11.245 60.991)">
        <rect id="Rectangle_4"  width="41.296" height="1.024" transform="translate(0 0)" fill="#fff"/>
      </g>
      <g id="Group_12"  transform="translate(11.245 87.166)">
        <rect id="Rectangle_5" width="41.296" height="1.024" fill="#fff"/>
      </g>
      <g id="Group_13"  transform="translate(20.838 91.01)">
        <rect id="Rectangle_6"  width="22.111" height="1.024" fill="#fff"/>
      </g>
      <g id="Group_14"  transform="translate(13.288 72.797)">
        <path id="Path_6"  d="M1982.106,333.51l-3.292,3.5a2.969,2.969,0,1,1-4.326-4.069l3.293-3.5Z" transform="translate(-1973.685 -329.441)" fill="#64b5f6"/>
      </g>
      <g id="Group_15"  transform="translate(17.384 68.362)">
        <path id="Path_7"  d="M2002.927,311.028l-3.3,3.5-4.325-4.069,3.3-3.5a2.969,2.969,0,0,1,4.326,4.069Z" transform="translate(-1995.305 -306.028)" fill="#eee"/>
      </g>
      <g id="Group_16"  transform="translate(30.692 68.362)">
        <path id="Path_8"  d="M2072.669,308.746c-.14-.678,1.249-1.8,1.714-2.043a4.15,4.15,0,0,1,5.222,1.475c2.127,3.883-3.85,9.42-6.935,10.786-.355-.284-8.8-6.6-6.811-10.643A3.59,3.59,0,0,1,2072.669,308.746Z" transform="translate(-2065.556 -306.028)" fill="#eee"/>
      </g>
      <g id="Group_19"  transform="translate(30.921 75.189)">
        <g id="Group_17" transform="translate(0 2.3)">
          <path id="Path_9"  d="M2071.882,355.237h-4.6a.512.512,0,1,1,0-1.024h4.6a.512.512,0,1,1,0,1.024Z" transform="translate(-2066.769 -354.213)" fill="#fff"/>
        </g>
        <g id="Group_18"  transform="translate(2.3)">
          <path id="Path_10"  d="M2079.425,347.694a.512.512,0,0,1-.512-.512v-4.6a.512.512,0,1,1,1.023,0v4.6A.512.512,0,0,1,2079.425,347.694Z" transform="translate(-2078.913 -342.069)" fill="#fff"/>
        </g>
      </g>
      <g id="Group_57"  transform="translate(19.547 13.268)">
        <g id="Group_20"  transform="translate(5.465 56.711)">
          <path id="Path_11"  d="M2133.161,323.625s-10.627-5.727-17.48-7.112a11.706,11.706,0,0,1-1.188,3.549c-1.14,2.532-4.5,9.986-4.5,9.986l-5.051-3.836.076,5.72-13.856,14.8-8.757-19.172,1.167-5.392-4.99,1.911-2.662-9.508a67.292,67.292,0,0,0-24.455,12.06c-11.316,9.112-14.559,23.3-15.61,35.471s.212,25.015,16.286,29.342c0,0,7.556,1.891,13.7-.641a50.4,50.4,0,0,1,7.624-2.177c-.034.014-.061.021-.095.034a14.083,14.083,0,0,1-5.168,7.105s6.73,5.119,18.231,7.344,35.8,3.563,48.051-7.064,12.75-28.148,12.75-28.148S2151.214,334.068,2133.161,323.625Zm-62.923,29.895a2.128,2.128,0,1,1,2.2-2.136A2.173,2.173,0,0,1,2070.239,353.52Zm46.692,19.5c-.321,1.638-2.048,11.992-6.314,13.207s-8.477-1.426-18.428-.4c0,0-2.143.082-5.119.348-6.2-7.269.041-17.63.041-17.63s14.1-4.293,20.824-1.195S2117.258,371.382,2116.931,373.02Z" transform="translate(-2035.577 -314.568)" fill="#ffc107"/>
        </g>
        <g id="Group_21"  transform="translate(26.813 133.927)">
          <path id="Path_12"  d="M2220.121,732.09v13.316c-21.5,0-50.59-.034-71.611-.061-.26-6.853-.669-22.619,1.071-22.728,2.225-.137,4.58-1.563,7.3,1.679s14.088,9.044,30.018,10.409,29.362-2.389,32.345-4.013C2219.24,730.691,2220.121,729.134,2220.121,732.09Z" transform="translate(-2148.273 -722.187)" fill="#2196f3"/>
        </g>
        <g id="Group_22" transform="translate(34.747 88.269)">
          <path id="Path_13"  d="M2195.524,482.524a3.9,3.9,0,1,1-4.006,3.9,3.96,3.96,0,0,1,4.006-3.9m0-1.365a5.269,5.269,0,1,0,5.371,5.268,5.32,5.32,0,0,0-5.371-5.268Z" transform="translate(-2190.154 -481.159)" fill="#fff"/>
        </g>
        <g id="Group_23"  transform="translate(59.833 59.196)">
          <path id="Path_14"  d="M2329.989,332.978l-3.449,3.871a1.07,1.07,0,0,1-1.536-.205l-2.423-5.214,4.727-3.747Z" transform="translate(-2322.58 -327.683)" fill="#2196f3"/>
        </g>
        <g id="Group_24"  transform="translate(59.073 66.382)">
          <path id="Path_15"  d="M2324.554,366.181l1.462,5.867-4.263,5.412-3.183-7.059,2.358-4.781" transform="translate(-2318.57 -365.62)" fill="#2196f3"/>
        </g>
        <g id="Group_26"  transform="translate(50.77 0.97)">
          <g id="Group_25">
            <path id="Path_16"  d="M2303.534,44.259a3.712,3.712,0,0,0-1.926,1.386,9.435,9.435,0,0,0-1.187,1.911s-1.6-6.825-2.28-12.736c-.225-1.925-.9-2.955-1.72-3.474-1.693-1.071-3.979.075-3.979.075l-7.6,4.136a12.356,12.356,0,0,1-4.716,1.474,10.193,10.193,0,0,1-2.327.007c-4.184-2.068-4.245-10.231.84-10.286a5.071,5.071,0,0,1,.43.457q-.112-.225-.2-.45a5.452,5.452,0,0,1,.846.1,2.279,2.279,0,0,1,1.065.812,5.091,5.091,0,0,1,2.75-6.928,9.246,9.246,0,0,1,5.119-.137c.266.055.532.116.8.184a19.952,19.952,0,0,1,10.676,7.194C2303.588,32.67,2304.455,38.6,2303.534,44.259Z" transform="translate(-2274.74 -20.31)" fill="#2e2e2e"/>
          </g>
        </g>
        <g id="Group_27"  transform="translate(30.067 95.658)">
          <path id="Path_17"  d="M2222.019,539.267c-2.624-2.155-9.723-6.991-18.951-5.37l-1.074.19c-7.656,1.35-14.887,2.625-20.735,2.865-6.606.272-10.831-.8-13.294-3.385-2.6-2.725-3.179-7.11-1.765-13.4l1,.224c-1.334,5.935-.84,10.015,1.507,12.473,4.948,5.184,18,2.882,33.111.218l1.074-.189c9.645-1.7,17.045,3.342,19.778,5.587Z" transform="translate(-2165.448 -520.163)"/>
        </g>
        <g id="Group_28"  transform="translate(4.963 56.213)">
          <path id="Path_18"  d="M2055.864,390.588a24.1,24.1,0,0,1-14.8-5.157,20.337,20.337,0,0,1-8.119-15.843c-.251-17.943,3.151-30.687,10.706-40.106,7.486-9.344,20.84-15.293,30-17.548l.245.994c-9.005,2.217-22.121,8.05-29.447,17.194-7.4,9.224-10.728,21.759-10.481,39.452a19.331,19.331,0,0,0,7.728,15.053,22.749,22.749,0,0,0,18.891,4.414l.227,1A22.338,22.338,0,0,1,2055.864,390.588Z" transform="translate(-2032.928 -311.934)"/>
        </g>
        <g id="Group_29"  transform="translate(51.245 51.141)">
          <path id="Path_19"  d="M2277.251,286.185l-.007-1.024h.007Z" transform="translate(-2277.244 -285.162)"/>
        </g>
        <g id="Group_30"  transform="translate(32.221 58.167)">
          <path id="Path_20"  d="M2216.658,411.443a70.975,70.975,0,0,1-21.755-3.186,48.558,48.558,0,0,1-17.913-9.977.512.512,0,0,1,.231-.878c.67-.152,1.346-.339,2.01-.557,9.359-3.1,23.746-6.495,39.12-5.051a44.639,44.639,0,0,0,5.124.2,4.879,4.879,0,0,0,4.181-2.544,37.193,37.193,0,0,0,3.4-11.09,97.787,97.787,0,0,0,1.129-17.727l1.023-.043a98.877,98.877,0,0,1-1.142,17.941,38.194,38.194,0,0,1-3.51,11.4,5.9,5.9,0,0,1-5.058,3.084,45.448,45.448,0,0,1-5.244-.208c-15.2-1.427-29.436,1.933-38.7,5q-.572.187-1.151.345c7.355,6.343,23.521,15.51,52.86,11.121,10.142-1.516,17.869-6.1,22.963-13.628,6.336-9.361,7.469-21.7,7.3-30.4a89.383,89.383,0,0,0-1.909-16.876c0-.007,0-.015-.005-.022-1.021-5.36-4.15-10.831-8.81-15.4-4.477-4.385-12.81-7.374-20.372-9.721l.3-.978c7.678,2.382,16.152,5.429,20.785,9.967,4.8,4.716,8.035,10.374,9.1,15.934a90.607,90.607,0,0,1,1.934,17.057c.17,8.858-.989,21.429-7.478,31.019-5.261,7.775-13.222,12.509-23.662,14.069A99.885,99.885,0,0,1,2216.658,411.443Z" transform="translate(-2176.821 -322.25)"/>
        </g>
        <g id="Group_36"  transform="translate(48.545)">
          <g id="Group_31"  transform="translate(3.347 17.442)">
            <path id="Path_21"  d="M2292.269,138.567a15.279,15.279,0,0,1-6.39-3.126c-2.809-2.313-5.966-6.747-5.059-14.732.648-5.716,1.879-10.239,3.658-13.445l.9.5c-1.713,3.088-2.9,7.483-3.536,13.064-.685,6.026.883,10.668,4.658,13.8a14.517,14.517,0,0,0,5.954,2.936Z" transform="translate(-2280.662 -107.264)"/>
          </g>
          <g id="Group_32" >
            <path id="Path_22"  d="M2290.527,59.757l-.42-.281-.517,0v-.007a.51.51,0,0,1,.087-.285,16.064,16.064,0,0,0,2.1-6.757,7.508,7.508,0,0,1,.618-2.581c.162-.259.387-.589.648-.971,1.427-2.088,4.4-6.432,2.434-7.9a1.629,1.629,0,0,0-1.361-.366c-1.294.289-2.425,2.266-2.75,3a.512.512,0,0,1-.967-.091c-.016-.068-1.612-6.922-2.29-12.794-.187-1.628-.731-2.7-1.614-3.175-1.416-.769-3.329.166-3.348.175l-7.581,4.128a12.784,12.784,0,0,1-4.912,1.534,10.912,10.912,0,0,1-2.724-.023,5.53,5.53,0,0,1-4.393-3.7,6.718,6.718,0,0,1,.652-6.556,4.282,4.282,0,0,1,4.387-1.369l.011,0a5.511,5.511,0,0,1,.31-2.835,5.6,5.6,0,0,1,3.22-3.259,9.6,9.6,0,0,1,5.4-.158c6.021,1.271,10.432,3.9,13.486,8.032,3.177,4.3,4.447,9.969,3.6,16.033a2.818,2.818,0,0,1,1.481.6c2.746,2.059-.473,6.77-2.2,9.3-.254.372-.474.694-.626.937a8,8,0,0,0-.472,2.183A16.9,16.9,0,0,1,2290.527,59.757ZM2285.2,26.226a3.722,3.722,0,0,1,1.786.424c1.2.647,1.919,1.979,2.148,3.961.494,4.284,1.484,9.1,1.977,11.366a5.572,5.572,0,0,1,2.451-2.266c.89-5.908-.3-11.428-3.368-15.576-2.9-3.923-7.11-6.422-12.874-7.639a8.631,8.631,0,0,0-4.833.115,4.581,4.581,0,0,0-2.625,2.668,4.288,4.288,0,0,0,.149,3.546.512.512,0,0,1-.842.569c-.14-.162-.512-.593-.776-.645a3.357,3.357,0,0,0-3.405,1.015,5.763,5.763,0,0,0-.489,5.529,4.539,4.539,0,0,0,3.574,3.06,9.955,9.955,0,0,0,2.482.02,11.789,11.789,0,0,0,4.532-1.416l7.6-4.136A6.176,6.176,0,0,1,2285.2,26.226Z" transform="translate(-2262.995 -15.191)"/>
          </g>
          <g id="Group_33" transform="translate(10.211 23.169)">
            <path id="Path_23"  d="M2320.142,148.975h-2.73a.512.512,0,0,1-.51-.554l.177-2.163.73-8.758,1.021.085-.862,10.366h2.175Z" transform="translate(-2316.9 -137.5)"/>
          </g>
          <g id="Group_34"  transform="translate(0.881 22.7)">
            <path id="Path_24"  d="M2290.274,144.8h-7.436a2.52,2.52,0,0,1-2.517-2.517v-6.24H2268.67v6.24a1.5,1.5,0,0,0,1.493,1.493h7.5V144.8h-7.5a2.52,2.52,0,0,1-2.517-2.517v-6.752a.512.512,0,0,1,.512-.512h24.121a.512.512,0,0,1,.512.512v6.752A2.52,2.52,0,0,1,2290.274,144.8Zm-8.929-8.757v6.24a1.5,1.5,0,0,0,1.493,1.493h7.436a1.5,1.5,0,0,0,1.493-1.493v-6.24Z" transform="translate(-2267.646 -135.022)"/>
          </g>
          <g id="Group_35"  transform="translate(13.283 33.852)">
            <path id="Path_25"  d="M2333.736,197.357a1.981,1.981,0,0,1-.62-.085l.341-.965-.171.483.16-.486c.065.02,1.626.459,3.506-2.411l.857.561C2336.168,196.959,2334.58,197.357,2333.736,197.357Z" transform="translate(-2333.115 -193.892)"/>
          </g>
        </g>
        <g id="Group_37"  transform="translate(60.59 50.494)">
          <path id="Path_26"  d="M2327.337,321.13l-.76-.685,13.976-15.51-.249-5.3a.512.512,0,0,1,.846-.412l4.363,3.759,5.821-12.9a25.257,25.257,0,0,1-3.962-3.014,25.723,25.723,0,0,1-3.552-4.11l-.43-.624.843-.581.43.623a24.688,24.688,0,0,0,3.407,3.943,24.157,24.157,0,0,0,4.178,3.118.512.512,0,0,1,.208.651l-.016.036-6.273,13.906a.512.512,0,0,1-.8.177l-3.981-3.43.2,4.327a.512.512,0,0,1-.131.367Z" transform="translate(-2326.576 -281.746)"/>
        </g>
        <g id="Group_38"  transform="translate(61.909 50.272)">
          <path id="Path_27"  d="M2334.336,308.848l-.8-.642,2.61-3.245a.547.547,0,0,1,.035-.05l5.164-6.628-2.808-3.867-3.093-4.075a.512.512,0,0,1,.142-.747l6.492-3.928,7.076-4.993a.511.511,0,0,1,.7.108l2.938,3.856a.511.511,0,0,1,0,.625l-1.793,2.3-13.971,17.933a.528.528,0,0,1-.043.062Zm2.269-18.673,2.755,3.631,2.642,3.637,9.741-12.5-2.4-3.149-6.689,4.719-.03.02Z" transform="translate(-2333.538 -280.577)"/>
        </g>
        <g id="Group_40"  transform="translate(45.055 49.911)">
          <g id="Group_39" >
            <path id="Path_28"  d="M2260.485,318.8a.512.512,0,0,1-.469-.307l-8.679-19.838a.513.513,0,0,1-.031-.313l.962-4.468-4.106,1.574a.512.512,0,0,1-.672-.327l-2.9-9.409a.512.512,0,0,1,.3-.628,24.286,24.286,0,0,0,6.606-3.851l2.577-2.43a.512.512,0,0,1,.713.01l9.308,9.3a.511.511,0,0,1-.051.769l-7.261,5.558,5.5,12.325a.517.517,0,0,1,.041.268l-1.334,11.312a.512.512,0,0,1-.433.447A.535.535,0,0,1,2260.485,318.8Zm-8.143-20.4,7.856,17.958,1.1-9.3-10.654-23.887a25.263,25.263,0,0,1-4.93,2.693l2.6,8.434,4.479-1.716a.512.512,0,0,1,.684.586Zm-.823-15.772,4.842,10.857,6.6-5.054-8.526-8.523-.166.171A24.846,24.846,0,0,1,2252.18,282Z" transform="translate(-2244.57 -278.666)"/>
          </g>
        </g>
        <g id="Group_41"  transform="translate(59.451 62.727)">
          <path id="Path_29"  d="M2324.323,352.708a1.623,1.623,0,0,1-.214-.014,1.569,1.569,0,0,1-1.071-.638.555.555,0,0,1-.05-.085l-2.424-5.214.928-.432,2.4,5.162a.558.558,0,0,0,.746.1l3.417-3.834.765.681-3.449,3.871a.545.545,0,0,1-.062.058A1.564,1.564,0,0,1,2324.323,352.708Z" transform="translate(-2320.565 -346.325)"/>
        </g>
        <g id="Group_42"  transform="translate(64.643 66.819)">
          <rect id="Rectangle_7"  width="1.024" height="6.046" transform="translate(0 0.248) rotate(-13.994)"/>
        </g>
        <g id="Group_43"  transform="translate(58.697 66.156)">
          <rect id="Rectangle_8"  width="5.331" height="1.024" transform="translate(0 4.781) rotate(-63.75)"/>
        </g>
        <g id="Group_44"  transform="translate(73.183 43.77)">
          <path id="Path_30"  d="M2397.21,253.425l-1.875-5.621a7.116,7.116,0,0,1-1.791,1.426l-.488-.9a6.6,6.6,0,0,0,2.045-1.857.512.512,0,0,1,.91.124l2.17,6.5Z" transform="translate(-2393.057 -246.248)"/>
        </g>
        <g id="Group_45"  transform="translate(54.419 44.161)">
          <rect id="Rectangle_9"  width="6.318" height="1.024" transform="matrix(0.235, -0.972, 0.972, 0.235, 0, 6.141)"/>
        </g>
        <g id="Group_46"  transform="translate(65.689 26.679)">
          <circle id="Ellipse_2"  cx="0.996" cy="0.996" r="0.996"/>
        </g>
        <g id="Group_47"  transform="translate(56.999 26.679)">
          <circle id="Ellipse_3"  cx="0.996" cy="0.996" r="0.996"/>
        </g>
        <g id="Group_48"  transform="translate(82.589 58.233)">
          <path id="Path_31"  d="M2443.636,342.575l-.925-.44c.624-1.312,1.79-3.444,3.466-6.337,2.23-3.853,2.94-7.012,2.11-9.391a4.809,4.809,0,0,0-2.536-2.85l.369-.955a5.844,5.844,0,0,1,3.124,3.443c.946,2.676.212,6.13-2.183,10.267C2445.4,339.18,2444.248,341.287,2443.636,342.575Z" transform="translate(-2442.711 -322.602)"/>
        </g>
        <g id="Group_49"  transform="translate(68.542 77.214)">
          <path id="Path_32"  d="M2378.941,448.582a.509.509,0,0,1-.166-.028l-2.57-.879.331-.969,2.16.738c1.115-2.076,6.431-12.114,7.368-16.512.979-4.6-2.194-6.374-2.226-6.392a.505.505,0,0,1-.082-.055c-.084-.067-2.133-1.652-5.412.347s-8.459,18.254-8.76,19.768a6.9,6.9,0,0,0,2.232,1.411l-.419.935c-1.35-.605-2.94-1.515-2.839-2.417.079-.708,5.3-18.163,9.252-20.57,3.726-2.272,6.224-.548,6.56-.292.435.263,3.763,2.461,2.694,7.479-1.074,5.04-7.407,16.676-7.676,17.168A.513.513,0,0,1,2378.941,448.582Zm-9.369-4.007" transform="translate(-2368.555 -422.801)"/>
        </g>
        <g id="Group_50"  transform="translate(39.616 57.282)">
          <path id="Path_33"  d="M2215.962,348.871c-.769-18.49,3.016-31.166,3.054-31.292l.979.3c-.037.124-3.771,12.648-3.01,30.951Z" transform="translate(-2215.859 -317.579)"/>
        </g>
        <g id="Group_51"  transform="translate(33.918 87.548)">
          <path id="Path_34"  d="M2191.973,489.331a6.269,6.269,0,0,1-4.353-1.726,5.845,5.845,0,0,1-.042-8.482,6.271,6.271,0,0,1,4.369-1.769h.032a6.1,6.1,0,0,1,6.2,5.958,5.849,5.849,0,0,1-1.8,4.25,6.273,6.273,0,0,1-4.369,1.769Zm-5.172-5.963a4.834,4.834,0,0,0,1.526,3.5,5.333,5.333,0,0,0,7.334-.036,4.832,4.832,0,0,0,1.491-3.511,5.078,5.078,0,0,0-5.173-4.939h-.027a5.251,5.251,0,0,0-3.659,1.479A4.83,4.83,0,0,0,2186.8,483.368Z" transform="translate(-2185.777 -477.354)"/>
        </g>
        <g id="Group_52"  transform="translate(98.148 141.597)">
          <rect id="Rectangle_10"  width="1.024" height="15.548"/>
        </g>
        <g id="Group_53"  transform="translate(26.667 134.335)">
          <path id="Path_35"  d="M2148.522,747.095H2147.5V724.346l1.024-.007Z" transform="translate(-2147.498 -724.339)"/>
        </g>
        <g id="Group_54" transform="translate(0 156.532)">
          <path id="Path_36" d="M2105.387,842.643c-21.919,0-51.368-.035-71.612-.061-15.808-.02-27.049-.041-27.049-.041l0-1.024s11.242.02,27.049.041c20.244.026,49.692.062,71.611.062,18.63-.008,28.354-.04,28.9-.1l-.027,0,.2,1C2134.293,842.564,2133.947,842.632,2105.387,842.643Z" transform="translate(-2006.726 -841.517)"/>
        </g>
        <g id="Group_55"  transform="translate(71.041 99.713)">
          <circle id="Ellipse_4"  cx="1.385" cy="1.385" r="1.385" fill="#eee"/>
        </g>
        <g id="Group_56"  transform="translate(74.283 99.981)">
          <circle id="Ellipse_5"  cx="1.385" cy="1.385" r="1.385" fill="#eee"/>
        </g>
      </g>
      <g id="Group_58" transform="translate(116.463 6.369)">
        <circle id="Ellipse_6"  cx="22.848" cy="22.848" r="22.848" fill="#2196f3"/>
      </g>
      <g id="Group_59"  transform="translate(110.018 0)">
        <path id="Path_37"  d="M2513.534-54.851h0a29.218,29.218,0,0,0-25.3,14.609h0a29.219,29.219,0,0,0,0,29.217h0a29.218,29.218,0,0,0,25.3,14.609h0a29.217,29.217,0,0,0,25.3-14.609h0a29.219,29.219,0,0,0,0-29.217h0A29.217,29.217,0,0,0,2513.534-54.851Z" transform="translate(-2484.317 54.851)" fill="#2196f3"/>
      </g>
      <g id="Group_60"  transform="translate(140.508 64.609)">
        <circle id="Ellipse_7"  cx="8.188" cy="8.188" r="8.188" fill="#eee"/>
      </g>
      <g id="Group_61" transform="translate(143.425 67.993)">
        <circle id="Ellipse_8" cx="2.636" cy="2.636" r="2.636" fill="#fafafa"/>
      </g>
      <g id="Group_62" transform="translate(9.196 139.007)">
        <circle id="Ellipse_9"  cx="8.188" cy="8.188" r="8.188" fill="#eee"/>
      </g>
      <g id="Group_63"  transform="translate(119.253 61.502)">
        <circle id="Ellipse_10"  cx="4.094" cy="4.094" r="4.094" fill="#eee"/>
      </g>
      <g id="Group_64" transform="translate(12.683 142.235)">
        <circle id="Ellipse_11"  cx="2.636" cy="2.636" r="2.636" transform="translate(0 0)" fill="#fafafa"/>
      </g>
      <g id="Group_65" transform="translate(148.776 144.87)">
        <circle id="Ellipse_12" cx="4.094" cy="4.094" r="4.094" fill="#eee"/>
      </g>
      <g id="Group_66" transform="translate(120.431 63.15)">
        <circle id="Ellipse_13" cx="1.458" cy="1.458" r="1.458" fill="#eee"/>
      </g>
      <g id="Group_67" transform="translate(150.15 147.101)">
        <circle id="Ellipse_14"  cx="1.017" cy="1.017" r="1.017" fill="#fafafa"/>
      </g>
      <g id="Group_68"  transform="translate(52.281 10.048)">
        <circle id="Ellipse_15"  cx="4.094" cy="4.094" r="4.094" transform="translate(0 0)" fill="#eee"/>
      </g>
      <g id="Group_69"  transform="translate(54.294 12.321)">
        <circle id="Ellipse_16"  cx="1.458" cy="1.458" r="1.458" transform="translate(0 0)" fill="#eee"/>
      </g>
      <g id="Group_70"  transform="translate(125.345 97.819)">
        <circle id="Ellipse_17"  cx="15.162" cy="15.162" r="15.162" fill="#fff"/>
      </g>
      <g id="Group_71"  transform="translate(128.83 101.304)">
        <circle id="Ellipse_18"  cx="11.677" cy="11.677" r="11.677" fill="#ffc107"/>
      </g>
      <g id="Group_72"  transform="translate(133.26 107.898)">
        <path id="Path_38"  d="M2614.121,517.456c-.14-.678,1.25-1.8,1.713-2.043a4.151,4.151,0,0,1,5.222,1.475c2.126,3.883-3.85,9.42-6.935,10.786-.355-.284-8.8-6.6-6.812-10.643A3.59,3.59,0,0,1,2614.121,517.456Z" transform="translate(-2607.007 -514.738)" fill="#fff"/>
      </g>
    </g>
    <g id="Group_76"  transform="translate(2030.136 -38.979)">
      <g id="Group_74" transform="translate(8.053)">
        <circle id="Ellipse_19" cx="4.49" cy="4.49" r="4.49" fill="#fff"/>
      </g>
      <g id="Group_75"  transform="translate(0 12.258)">
        <path id="Path_39"  d="M2571.852,111.429a12.543,12.543,0,0,1,25.086,0Z" transform="translate(-2571.852 -98.886)" fill="#fff"/>
      </g>
    </g>
  </g>
</svg>
