<svg xmlns="http://www.w3.org/2000/svg" width="171" height="171" viewBox="0 0 171 171">
  <g id="illustration_OTP" transform="translate(4653.76 -6508.386)">
    <g id="Group_128" data-name="Group 128" transform="translate(-4636.083 6508.386)">
      <g id="Group_92" data-name="Group 92" transform="translate(47.21 23.117)">
        <path id="Path_40" data-name="Path 40" d="M-4263.021,6689.452c-12.709,7.561-28.212-1.348-27.483-1.5,24.024-5.224,26.147-20.38,26.147-20.38-4.8-11.72-17.87-7.954-17.87-7.954-.387,16.632-20.174,17.567-20.174,17.567-1.271-5.4-1.2-18-1.2-18-6-4.194-7.214-2.415-7.214-2.415,1.9-16.648,9.512-22.017,9.512-22.017,1.269-1.183,6.945-3.841,9.856-4.186l.1.463s-2.945,7.364,2.7,7.85c4.75.417,7.451-5.432,8.186-7.289a27.32,27.32,0,0,1,16,13.409C-4255.182,6662.055-4263.021,6689.452-4263.021,6689.452Z" transform="translate(4310.816 -6630.568)" fill="#ffc107"/>
      </g>
      <g id="Group_93" data-name="Group 93" transform="translate(54.801 74.498)">
        <path id="Path_41" data-name="Path 41" d="M-4244.345,6956.869c-.7,0-1.411-.034-2.114-.1a21.847,21.847,0,0,1-10.355-3.823l-13.879-9.7.457-.653,13.879,9.7a21.117,21.117,0,0,0,20.476,2l36.142-15.906a8.552,8.552,0,0,0,5.147-7.2,8.558,8.558,0,0,0-3.857-7.971l-30.915-20.449-.029-.03.295-.295.209-.316,30.88,20.426a9.344,9.344,0,0,1,4.211,8.7,9.339,9.339,0,0,1-5.62,7.861l-36.142,15.906A21.827,21.827,0,0,1-4244.345,6956.869Z" transform="translate(4270.694 -6902.128)"/>
      </g>
      <g id="Group_94" data-name="Group 94" transform="translate(51.036 80.394)">
        <path id="Path_42" data-name="Path 42" d="M-4260.479,6988.728q-1.058,0-2.114-.1a21.845,21.845,0,0,1-10.355-3.823l-17.644-12.568.463-.649,17.641,12.566a21.115,21.115,0,0,0,20.473,2l36.142-15.905a8.556,8.556,0,0,0,5.147-7.2,8.558,8.558,0,0,0-3.857-7.971l-30.885-20.432h0l-1.04-.687.44-.665,31.924,21.119a9.344,9.344,0,0,1,4.211,8.7,9.339,9.339,0,0,1-5.62,7.861l-36.142,15.906A21.836,21.836,0,0,1-4260.479,6988.728Z" transform="translate(4290.593 -6933.293)"/>
      </g>
      <g id="Group_95" data-name="Group 95" transform="translate(58.133 76.742)">
        <path id="Path_43" data-name="Path 43" d="M-4187.963,6947.249l-33.215,14.62a19.663,19.663,0,0,1-19.176-1.876l-12.727-8.942a19.931,19.931,0,0,1,5.811-3.083,123.025,123.025,0,0,0,15.316-6.39,28.524,28.524,0,0,0,15.114-19.021c.665-2.828,1.249-5.688,1.728-8.564l29.242,19.323C-4180.369,6936.956-4181.929,6944.6-4187.963,6947.249Z" transform="translate(4253.081 -6913.991)" fill="#bbdefb"/>
      </g>
      <g id="Group_96" data-name="Group 96" transform="translate(35.724 148.137)">
        <path id="Path_44" data-name="Path 44" d="M-4369.579,7295.568s5.825-2.415,6.94-4.234c0,0,.21,4.132-.88,5.543s-7.6,5.143-7.961,4.675S-4369.579,7295.568-4369.579,7295.568Z" transform="translate(4371.519 -7291.334)" fill="#3fbdf1"/>
      </g>
      <g id="Group_97" data-name="Group 97" transform="translate(11.99 155.482)">
        <path id="Path_45" data-name="Path 45" d="M-4489.213,7336.891s1.059,1.438,4.819,0,11.938-6.735,11.938-6.735-2.281,6.126-3.107,6.8-16.447,8.318-16.447,8.318-6.985.992-4.36-3.981Z" transform="translate(4496.961 -7330.156)" fill="#2196f3"/>
      </g>
      <g id="Group_98" data-name="Group 98" transform="translate(26.268 81.798)">
        <path id="Path_46" data-name="Path 46" d="M-4420.314,6979.822l-.729-5.663c-1.19-9.906-.05-17.875,3.391-23.687a22.863,22.863,0,0,1,11.958-9.761l.289.743c-12.063,4.694-16.92,15.359-14.847,32.606l.729,5.66Z" transform="translate(4421.5 -6940.711)"/>
      </g>
      <g id="Group_99" data-name="Group 99" transform="translate(42.609 68.126)">
        <path id="Path_47" data-name="Path 47" d="M-4335.132,6868.453" transform="translate(4335.132 -6868.453)" fill="none" stroke="#000" stroke-miterlimit="10" stroke-width="4.213"/>
      </g>
      <g id="Group_100" data-name="Group 100" transform="translate(41.873 22.622)">
        <path id="Path_48" data-name="Path 48" d="M-4338.37,6673.487l-.653-.457a24.913,24.913,0,0,0,3.407-6.417,23.732,23.732,0,0,0,.9-5.771c.036-.491.072-.982.116-1.472.57-6.5,1.477-12.1,4.049-18.312,2.085-5.03,8.741-12.366,15.815-13.058l.6-.053.07.794-.6.052c-6.76.662-13.145,7.725-15.153,12.569-2.533,6.114-3.428,11.648-3.992,18.077-.043.485-.079.973-.114,1.46a24.33,24.33,0,0,1-.942,5.964A25.681,25.681,0,0,1-4338.37,6673.487Z" transform="translate(4339.023 -6627.949)"/>
      </g>
      <g id="Group_101" data-name="Group 101" transform="translate(58.376 81.282)">
        <path id="Path_49" data-name="Path 49" d="M-4251.7,6938.521l-.1-.271.751-.265.1.271Z" transform="translate(4251.796 -6937.985)"/>
      </g>
      <g id="Group_102" data-name="Group 102" transform="translate(54.028 46.675)">
        <path id="Path_50" data-name="Path 50" d="M-4273.575,6777.8c-.318-1.87-.573-3.738-.757-5.554l-.011-.1a79.568,79.568,0,0,1,.013-17.069l.789.11a78.784,78.784,0,0,0-.011,16.856.814.814,0,0,1,.015.137c.182,1.792.434,3.638.748,5.484Z" transform="translate(4274.78 -6755.077)"/>
      </g>
      <g id="Group_103" data-name="Group 103" transform="translate(60.261 0.881)">
        <path id="Path_51" data-name="Path 51" d="M-4223.33,6521.859l-1.521.591c0,.046,0,.636-.064,1.463a16.873,16.873,0,0,1-.468,2.928,4.183,4.183,0,0,0-.526-3.292.509.509,0,0,0-.046-.063c-.573-.683-1.267-.411-1.828.058a5.289,5.289,0,0,0-1.006,1.146,7.45,7.45,0,0,0-.66-3.685V6521a8.8,8.8,0,0,0-1.359-2.17,6.654,6.654,0,0,1-.243,4.883,15.346,15.346,0,0,1-6.421.277c-1.267-1.18-.827-5.432-.827-5.432-1.273,1.041-.966,5.067-.966,5.067a9.2,9.2,0,0,1,.058-3.164,5.766,5.766,0,0,0-1.053,3.043l-.023-.012a2.281,2.281,0,0,1-.26-.081,4.476,4.476,0,0,1-.451-.272l-.839-.561c1.267-6.456,5.692-10.517,12.53-9.325a8.083,8.083,0,0,1,1.313.341C-4223.48,6515.93-4223.33,6521.859-4223.33,6521.859Z" transform="translate(4241.836 -6513.045)" fill="#2e2e2e"/>
      </g>
      <g id="Group_104" data-name="Group 104" transform="translate(36.339 66.874)">
        <path id="Path_52" data-name="Path 52" d="M-4364.863,6867.548l-1.723-5.186a.744.744,0,0,0-.526-.5c-.016-.005-.032-.005-.048-.011s-.022-.005-.033-.005a.985.985,0,0,0-.119-.011.753.753,0,0,0-.515.206,1.379,1.379,0,0,0-.445,1.014,1.369,1.369,0,0,0,.071.438c.374,1.095,1.051,3.073,1.371,3.979" transform="translate(4368.272 -6861.836)" fill="#3fbdf1"/>
      </g>
      <g id="Group_105" data-name="Group 105" transform="translate(31.597 65.948)">
        <path id="Path_53" data-name="Path 53" d="M-4385.575,6863.577l-1.857-5.685c-.017-.005-.033-.005-.049-.011s-.021-.005-.032-.005c-.325-.065-.65-.125-.976-.19-.52-.1-1.041-.2-1.561-.3-.624-.125-1.252-.228-1.875-.374a2.076,2.076,0,0,0-.45-.076.744.744,0,0,0-.515.206,1.373,1.373,0,0,0-.444,1.02,1.342,1.342,0,0,0,.07.433c.417,1.225,1.214,3.544,1.469,4.249Z" transform="translate(4393.334 -6856.939)" fill="#3fbdf1"/>
      </g>
      <g id="Group_106" data-name="Group 106" transform="translate(31.502 33.933)">
        <path id="Path_54" data-name="Path 54" d="M-4378.962,6736.523a35.993,35.993,0,0,1-10.409-1.285,6.3,6.3,0,0,1-4.287-4.888c-.441-2-.051-3.936.971-4.828a2.232,2.232,0,0,1,2.383-.346c3.012,1.108,4.861.921,5.883.567a4.235,4.235,0,0,1-.7-.251,3.083,3.083,0,0,1-1.774-2.074,2.132,2.132,0,0,1,.859-2.384,2.545,2.545,0,0,1,2.812.048c.629.459,1.875,1.344,3.153,2.1.108.064.219.132.333.2a5.178,5.178,0,0,0,3.573,1.119l12.258-2.77a20.446,20.446,0,0,0,9.444-4.707c2.882-2.567,4.468-5.637,4.468-8.646.071-3.474.18-5.905.355-7.894l.794.07c-.173,1.97-.282,4.385-.352,7.832,0,6.989-7.551,12.776-14.547,14.125l-12.259,2.77a5.864,5.864,0,0,1-4.15-1.219c-.112-.068-.221-.135-.327-.2-1.306-.778-2.575-1.679-3.215-2.146a1.747,1.747,0,0,0-1.9-.025,1.329,1.329,0,0,0-.52,1.542,2.285,2.285,0,0,0,1.325,1.523,4.528,4.528,0,0,0,.6.223.775.775,0,0,1,.57.735.8.8,0,0,1-.539.773c-1.144.4-3.186.616-6.418-.573a1.48,1.48,0,0,0-1.583.2c-.8.7-1.091,2.364-.717,4.057a5.51,5.51,0,0,0,3.715,4.29l.025.007c5.1,1.541,10.692,1.307,15.629,1.1a106.738,106.738,0,0,0,17.633-2.149,36.36,36.36,0,0,0,8.629-2.59,30.088,30.088,0,0,0,11.107-8.965c3.844-4.94,5.217-11.6,5.916-16.188.949-6.227-.226-11.568-3.809-17.319l-.127-.2.672-.429.132.208a25.046,25.046,0,0,1,3.921,17.861c-.711,4.672-2.116,11.471-6.075,16.558a30.827,30.827,0,0,1-11.383,9.19,36.953,36.953,0,0,1-8.817,2.655,107.6,107.6,0,0,1-17.765,2.167C-4375.239,6736.445-4377.083,6736.523-4378.962,6736.523Z" transform="translate(4393.838 -6687.733)"/>
      </g>
      <g id="Group_107" data-name="Group 107" transform="translate(35.94 66.476)">
        <path id="Path_55" data-name="Path 55" d="M-4366.949,6865.966l-1.723-5.186a.35.35,0,0,0-.24-.236h-.007l-.042-.01a.516.516,0,0,0-.059-.006.351.351,0,0,0-.244.1.984.984,0,0,0-.317.721.989.989,0,0,0,.05.313c.375,1.1,1.052,3.072,1.369,3.971l-.751.266c-.319-.9-1-2.882-1.373-3.981a1.8,1.8,0,0,1-.092-.568,1.784,1.784,0,0,1,.572-1.306,1.152,1.152,0,0,1,.786-.312,1.257,1.257,0,0,1,.154.012h0l.034,0h.027l.041.014a.427.427,0,0,1,.051.012,1.147,1.147,0,0,1,.8.759l1.723,5.184Zm-2.035-5.437.009,0Z" transform="translate(4370.378 -6859.73)"/>
      </g>
      <g id="Group_108" data-name="Group 108" transform="translate(31.198 65.549)">
        <path id="Path_56" data-name="Path 56" d="M-4393.878,6861.273c-.25-.693-1.026-2.949-1.471-4.255a1.737,1.737,0,0,1-.092-.562,1.773,1.773,0,0,1,.575-1.313,1.133,1.133,0,0,1,.783-.31,1.907,1.907,0,0,1,.457.067l.079.018c.409.1.826.174,1.229.25.213.04.425.08.637.122l.778.149.778.149c.166.033.328.064.489.095l.452.088.057.005.041.014a.525.525,0,0,1,.069.017l-.173.526v.24h-.041l-.07-.014-.485-.094-.491-.1c-.256-.048-.517-.1-.777-.148s-.519-.1-.778-.148c-.213-.043-.423-.082-.633-.122-.412-.078-.838-.157-1.26-.256l-.085-.02c-.222-.052-.382-.072-.517.054a.979.979,0,0,0-.317.727.951.951,0,0,0,.048.3c.445,1.306,1.218,3.556,1.467,4.244Zm4.574-4.716h0Zm.189-.775.008,0Z" transform="translate(4395.441 -6854.832)"/>
      </g>
      <g id="Group_109" data-name="Group 109" transform="translate(60.854 11.151)">
        <path id="Path_57" data-name="Path 57" d="M-4230.98,6578.972a5.207,5.207,0,0,1-1.452-.205c-1.764-.512-3.3-1.949-4.562-4.272a14.642,14.642,0,0,1-1.707-7.173h.8a13.863,13.863,0,0,0,1.61,6.792c1.158,2.129,2.532,3.438,4.084,3.887a4.392,4.392,0,0,0,1.229.173h.013c2.977-.014,3.482-3.515,3.5-3.664l.79.1c-.2,1.5-1.348,4.343-4.29,4.357Z" transform="translate(4238.701 -6567.322)"/>
      </g>
      <g id="Group_110" data-name="Group 110" transform="translate(11.631 12.537)">
        <path id="Path_58" data-name="Path 58" d="M-4494.933,6733.111a8.435,8.435,0,0,1-1.764-.188,2.685,2.685,0,0,1-2.126-2.229,2.7,2.7,0,0,1,1.3-2.805l6.41-3.811,8.989-45.825a29.116,29.116,0,0,1,13.465-20.322,11.824,11.824,0,0,1,1.518-.781l19.561-8.493.317.73-19.561,8.494a10.95,10.95,0,0,0-1.416.728,28.331,28.331,0,0,0-13.1,19.782l-9.06,46.19-6.716,3.993a1.916,1.916,0,0,0-.923,1.99,1.906,1.906,0,0,0,1.507,1.58,7.7,7.7,0,0,0,1.6.17,7.609,7.609,0,0,0,3.388-.8l12.843-6.449a5.158,5.158,0,0,0,2.526-2.808l13.408-35.66a21.733,21.733,0,0,1,13.529-12.957,132.245,132.245,0,0,0,16.614-6.933,30.551,30.551,0,0,0,16.237-20.436,116.92,116.92,0,0,0,3.22-22.117c.429-10.662-1.1-18.957-4.67-25.358a26.08,26.08,0,0,0-15.757-12.162,1.126,1.126,0,0,1-.8-.894l-.523-3.048a9.535,9.535,0,0,1,.323-4.521,19.5,19.5,0,0,0,.786-3.521l.357.046.437-.006,0,.062a20.27,20.27,0,0,1-.818,3.666,8.733,8.733,0,0,0-.294,4.14l.523,3.047a.333.333,0,0,0,.239.263,26.873,26.873,0,0,1,16.231,12.539c3.645,6.534,5.205,14.966,4.771,25.779a117.644,117.644,0,0,1-3.24,22.267,31.346,31.346,0,0,1-16.659,20.968,133.175,133.175,0,0,1-16.715,6.974,20.939,20.939,0,0,0-13.037,12.482l-13.407,35.66a5.952,5.952,0,0,1-2.916,3.24l-12.843,6.449A8.42,8.42,0,0,1-4494.933,6733.111Z" transform="translate(4498.862 -6574.648)"/>
      </g>
      <g id="Group_111" data-name="Group 111" transform="translate(68.332 0)">
        <path id="Path_59" data-name="Path 59" d="M-4195.811,6509.418h-.055l-.048-.013a8.408,8.408,0,0,0-3.037-.153l-.046,0a.619.619,0,0,0-.08.008l-.1-.79a1.5,1.5,0,0,1,.154-.014,9.191,9.191,0,0,1,3.306.174l-.1.376Z" transform="translate(4199.178 -6508.386)"/>
      </g>
      <g id="Group_112" data-name="Group 112" transform="translate(65.598 22.973)">
        <path id="Path_60" data-name="Path 60" d="M-4209.148,6638.7c-.136,0-.274,0-.415-.014A4.043,4.043,0,0,1-4213,6636.9c-1.57-2.574.291-6.911.371-7.094l.73.318c-.018.042-1.775,4.142-.42,6.362a3.3,3.3,0,0,0,2.808,1.411c5.171.334,7.162-6.816,7.181-6.888l.77.208C-4201.646,6631.527-4203.651,6638.7-4209.148,6638.7Z" transform="translate(4213.628 -6629.803)"/>
      </g>
      <g id="Group_113" data-name="Group 113" transform="translate(75.699 14.973)">
        <path id="Path_61" data-name="Path 61" d="M-4160.243,6587.522" transform="translate(4160.243 -6587.522)" fill="none" stroke="#000" stroke-miterlimit="10" stroke-width="4.213"/>
      </g>
      <g id="Group_114" data-name="Group 114" transform="translate(58.765 0.038)">
        <path id="Path_62" data-name="Path 62" d="M-4231.482,6523.631l-.769-.21,0-.012c.093-.353.51-2.169-.426-3.284a.591.591,0,0,0-.515-.267c-.571.034-1.318.875-1.68,1.431l-.876,1.345.146-1.6a7.31,7.31,0,0,0-.908-4.066,6.34,6.34,0,0,1-.611,3.324l-.086.151-.169.04a15.737,15.737,0,0,1-7.784.04c-.209-.045-.408-.088-.6-.125l-.271-.053-.045-.273a8.652,8.652,0,0,1-.1-.965,4.082,4.082,0,0,0-.1.774l0,.518-.528-.135a6.191,6.191,0,0,1-1.886-.858l-1.06-.709.051-.261c1.4-7.1,6.372-10.8,12.989-9.642,7.074,1.234,7.357,9.357,7.359,9.438l.007.28-1.533.595A19.268,19.268,0,0,1-4231.482,6523.631Zm-13.842-3.958.335.071a14.955,14.955,0,0,0,7.249.005,6.568,6.568,0,0,0,.138-4.426l-.472-1.629,1.148,1.249a8.986,8.986,0,0,1,2.13,4.991,2.592,2.592,0,0,1,1.56-.873,1.38,1.38,0,0,1,1.173.551,3.011,3.011,0,0,1,.347.512c.054-.756.054-1.278.054-1.29v-.274l1.508-.585c-.1-1.389-.886-7.385-6.684-8.4-6.156-1.075-10.631,2.2-12.017,8.751l.617.412a5.586,5.586,0,0,0,1.211.617,6.349,6.349,0,0,1,1.084-2.744l1.165-1.665-.45,1.982A8.95,8.95,0,0,0-4245.324,6519.673Z" transform="translate(4249.741 -6508.585)"/>
      </g>
      <g id="Group_115" data-name="Group 115" transform="translate(63.508 14.63)">
        <path id="Path_63" data-name="Path 63" d="M-4224.034,6589.489a.645.645,0,0,1-.382-.125.633.633,0,0,1-.26-.516v-3.139h.8v2.905a1.672,1.672,0,0,0,.321-.225l.525.6a2.244,2.244,0,0,1-.809.471A.656.656,0,0,1-4224.034,6589.489Z" transform="translate(4224.677 -6585.71)"/>
      </g>
      <g id="Group_116" data-name="Group 116" transform="translate(58.621 11.538)">
        <path id="Path_64" data-name="Path 64" d="M-4247.62,6575.343a2.3,2.3,0,0,1-1.245-.4,3.65,3.65,0,0,1-1.367-1.748c-.616-1.58-.146-3.243,1.047-3.708s2.666.441,3.281,2.021.146,3.243-1.048,3.708A1.84,1.84,0,0,1-4247.62,6575.343Zm-.9-5.18a1.01,1.01,0,0,0-.373.069c-.771.3-1.043,1.525-.595,2.676a2.856,2.856,0,0,0,1.058,1.368,1.308,1.308,0,0,0,1.191.2c.771-.3,1.043-1.526.595-2.676h0A2.335,2.335,0,0,0-4248.522,6570.164Z" transform="translate(4250.502 -6569.367)"/>
      </g>
      <g id="Group_117" data-name="Group 117" transform="translate(64.577 12.432)">
        <path id="Path_65" data-name="Path 65" d="M-4216.139,6580.072a2.3,2.3,0,0,1-1.246-.4,3.657,3.657,0,0,1-1.367-1.747,3.658,3.658,0,0,1-.177-2.212,2.083,2.083,0,0,1,1.225-1.5,2.083,2.083,0,0,1,1.914.273,3.653,3.653,0,0,1,1.367,1.748,3.654,3.654,0,0,1,.177,2.211,2.082,2.082,0,0,1-1.225,1.5A1.839,1.839,0,0,1-4216.139,6580.072Zm-.9-5.181a1.035,1.035,0,0,0-.377.069,1.309,1.309,0,0,0-.742.952,2.858,2.858,0,0,0,.147,1.724,2.852,2.852,0,0,0,1.058,1.369,1.307,1.307,0,0,0,1.191.2,1.309,1.309,0,0,0,.742-.952,2.854,2.854,0,0,0-.147-1.724,2.852,2.852,0,0,0-1.058-1.369A1.511,1.511,0,0,0-4217.036,6574.892Z" transform="translate(4219.025 -6574.093)"/>
      </g>
      <g id="Group_118" data-name="Group 118" transform="translate(62.773 14.126)">
        <path id="Path_66" data-name="Path 66" d="M-4226.657,6584.164c-.9-.574-1.292-.2-1.309-.18l-.592-.535c.034-.037.831-.915,2.33.044Z" transform="translate(4228.557 -6583.046)"/>
      </g>
      <g id="Group_119" data-name="Group 119" transform="translate(66.301 21.902)">
        <path id="Path_67" data-name="Path 67" d="M-4208.238,6630.478c-1.236-4.612-1.672-6.091-1.676-6.1l.764-.226c0,.014.442,1.5,1.682,6.125Z" transform="translate(4209.914 -6624.147)"/>
      </g>
      <g id="Group_120" data-name="Group 120" transform="translate(35.135 132.636)">
        <path id="Path_68" data-name="Path 68" d="M-4374.256,7235.711l-.379-.7,7.372-3.983a2.549,2.549,0,0,0,1.323-1.987,145.622,145.622,0,0,0,.851-19.6l.8-.04a146.442,146.442,0,0,1-.854,19.717,3.346,3.346,0,0,1-1.737,2.607Z" transform="translate(4374.635 -7209.404)"/>
      </g>
      <g id="Group_121" data-name="Group 121" transform="translate(0 76.66)">
        <rect id="Rectangle_46" data-name="Rectangle 46" width="0.797" height="34.645" transform="translate(0 0.653) rotate(-55.052)"/>
      </g>
      <g id="Group_122" data-name="Group 122" transform="translate(0 83.25)">
        <rect id="Rectangle_47" data-name="Rectangle 47" width="0.797" height="32.685" transform="translate(0 0.653) rotate(-55.052)"/>
      </g>
      <g id="Group_127" data-name="Group 127" transform="translate(98.322 61.423)">
        <g id="Group_123" data-name="Group 123">
          <path id="Path_69" data-name="Path 69" d="M-4003.346,6836.183v16.246a3.847,3.847,0,0,1-2.289,3.517l-20.15,8.924-6.161,9.36a1.317,1.317,0,0,1-2.417-.725v-4.835l-2.067.914a3.018,3.018,0,0,1-4.238-2.76v-13.566a8.677,8.677,0,0,1,5.227-7.962l27.693-12.006A3.151,3.151,0,0,1-4003.346,6836.183Z" transform="translate(4040.67 -6833.028)" fill="#f44336"/>
        </g>
        <g id="Group_124" data-name="Group 124" transform="translate(6.008 18.425)">
          <ellipse id="Ellipse_26" data-name="Ellipse 26" cx="3.905" cy="2.7" rx="3.905" ry="2.7" transform="translate(0 6.934) rotate(-62.605)" fill="#fff"/>
        </g>
        <g id="Group_125" data-name="Group 125" transform="translate(14.613 14.742)">
          <ellipse id="Ellipse_27" data-name="Ellipse 27" cx="3.905" cy="2.7" rx="3.905" ry="2.7" transform="translate(0 6.934) rotate(-62.605)" fill="#fff"/>
        </g>
        <g id="Group_126" data-name="Group 126" transform="translate(22.929 10.765)">
          <ellipse id="Ellipse_28" data-name="Ellipse 28" cx="3.905" cy="2.7" rx="3.905" ry="2.7" transform="translate(0 6.934) rotate(-62.605)" fill="#fff"/>
        </g>
      </g>
    </g>
    <rect id="Rectangle_48" data-name="Rectangle 48" width="171" height="171" transform="translate(-4653.76 6508.386)" fill="none"/>
  </g>
</svg>
