<svg xmlns="http://www.w3.org/2000/svg" xmlns:xlink="http://www.w3.org/1999/xlink" width="180" height="180" viewBox="0 0 180 180">
  <defs>
    <linearGradient id="linear-gradient" y1="0.5" x2="1" y2="0.5" gradientUnits="objectBoundingBox">
      <stop offset="0" stop-color="#58cc02"/>
      <stop offset="1" stop-color="#89e219"/>
    </linearGradient>
    <linearGradient id="linear-gradient-2" x1="0.376" y1="1.534" x2="0.533" y2="0.287" gradientUnits="objectBoundingBox">
      <stop offset="0" stop-color="#fff"/>
      <stop offset="0.996" stop-color="#fff" stop-opacity="0"/>
    </linearGradient>
  </defs>
  <g id="illustration_welcome_medication" transform="translate(-98 -154)">
    <g id="Group_2173" data-name="Group 2173" transform="translate(-1800.25 -192.246)">
      <g id="Group_2170" data-name="Group 2170" transform="translate(1920.251 368.246)">
        <g id="Group_2169" data-name="Group 2169" transform="translate(0)">
          <path id="Path_641" data-name="Path 641" d="M1932.837,492.425c15.384,15.391,38.851,16.865,52.411,3.305l36.931-36.935,25.554-25.55c13.56-13.564,12.082-37.027-3.3-52.423s-38.855-16.857-52.414-3.3l-25.549,25.554-36.935,36.931C1915.968,453.57,1917.45,477.037,1932.837,492.425Zm65.766-108.31c9.908-9.908,27.507-8.422,39.235,3.3s13.209,29.323,3.3,39.235l-25.55,25.55-42.536-42.536Z" transform="translate(-1920.254 -368.246)" fill="url(#linear-gradient)"/>
        </g>
      </g>
      <g id="Group_2172" data-name="Group 2172" transform="translate(1920.25 368.246)">
        <g id="Group_2171" data-name="Group 2171">
          <path id="Path_642" data-name="Path 642" d="M2047.426,413.813c1.274-8.814-2.026-18.827-9.593-26.4-11.726-11.723-29.326-13.209-39.235-3.3l-25.55,25.55,26.62,26.618c-24.624,13.767-49.619,31.75-68.374,54.525-13.934-15.375-14.865-37.7-1.767-50.8l36.935-36.932,25.55-25.552c13.56-13.558,37.027-12.084,52.414,3.3A41.741,41.741,0,0,1,2057,410.169C2053.95,411.289,2050.749,412.5,2047.426,413.813Z" transform="translate(-1920.25 -368.246)" fill="url(#linear-gradient-2)"/>
        </g>
      </g>
    </g>
    <rect id="Rectangle_1951" data-name="Rectangle 1951" width="180" height="180" transform="translate(98 154)" fill="none"/>
  </g>
</svg>
