<svg xmlns="http://www.w3.org/2000/svg" width="50" height="50" viewBox="0 0 50 50">
  <g id="illustration_round_weight" transform="translate(-16 -1049)">
    <circle id="Ellipse_116" data-name="Ellipse 116" cx="25" cy="25" r="25" transform="translate(16 1049)" fill="#58cc02"/>
    <g id="Group_2044" data-name="Group 2044" transform="translate(-20 64)">
      <rect id="Rectangle_1913" data-name="Rectangle 1913" width="24" height="24" transform="translate(49 998)" fill="none"/>
      <g id="weighing-scale" transform="translate(32.166 998)">
        <path id="Path_616" data-name="Path 616" d="M35.434,0H22.562a4.725,4.725,0,0,0-4.7,5.211l1.514,14.554A4.726,4.726,0,0,0,24.076,24H28.3V18.35a.7.7,0,0,1,1.406,0V24H33.92a4.726,4.726,0,0,0,4.7-4.235L40.136,5.211A4.725,4.725,0,0,0,35.434,0Zm1.54,7.7-3.831,4.4a.7.7,0,0,1-.53.241H25.384a.7.7,0,0,1-.53-.241L21.022,7.7a.7.7,0,0,1,0-.922,10.3,10.3,0,0,1,15.953,0,.7.7,0,0,1,0,.922Z" transform="translate(0)" fill="#fff"/>
        <path id="Path_617" data-name="Path 617" d="M129.017,96.117l-.61.722a.7.7,0,0,1-1.08-.9l.474-.579a8.7,8.7,0,0,0-3.316-.963v.865a.7.7,0,0,1-1.406,0V94.4a8.7,8.7,0,0,0-3.316.963l.474.579a.7.7,0,0,1-1.08.9l-.612-.72a10.156,10.156,0,0,0-1.265,1.1l3.208,3.684h1.872l1.1-2.389a.35.35,0,0,1,.635,0l1.1,2.389h1.872l3.208-3.684A10.143,10.143,0,0,0,129.017,96.117Z" transform="translate(-94.783 -89.972)" fill="#fff"/>
      </g>
    </g>
  </g>
</svg>
