<svg xmlns="http://www.w3.org/2000/svg" width="97.544" height="76.833" viewBox="0 0 97.544 76.833">
  <g id="illustration_profileComplete" transform="translate(591.524 -207.41)">
    <g id="Group_2865" data-name="Group 2865" transform="translate(-578.157 207.836)">
      <path id="Path_809" data-name="Path 809" d="M-500.38,246.083a38.074,38.074,0,0,1-13.814,29.4,37.987,37.987,0,0,1-24.39,8.808,38.058,38.058,0,0,1-24.381-8.788,38.143,38.143,0,0,1-13.823-29.416,38.206,38.206,0,0,1,38.2-38.2A38.205,38.205,0,0,1-500.38,246.083Z" transform="translate(576.787 -207.88)" fill="#ffc800"/>
      <path id="Path_810" data-name="Path 810" d="M-512.777,280.786a37.987,37.987,0,0,1-24.39,8.808,38.058,38.058,0,0,1-24.381-8.788,26.646,26.646,0,0,1,15.936-14.486,25.174,25.174,0,0,1,2.594-.727,26.581,26.581,0,0,1,5.85-.643,26.266,26.266,0,0,1,5.6.59,24.459,24.459,0,0,1,2.848.779A26.688,26.688,0,0,1-512.777,280.786Z" transform="translate(575.37 -213.187)" fill="#263238"/>
      <g id="Group_2864" data-name="Group 2864" transform="translate(21.094 18.546)">
        <path id="Path_811" data-name="Path 811" d="M-519.844,245.667a16.511,16.511,0,0,1-16.516,16.515,16.51,16.51,0,0,1-16.515-16.515,15.733,15.733,0,0,1,.147-2.193,16.511,16.511,0,0,1,12.746-13.918,16.386,16.386,0,0,1,3.622-.4,16.376,16.376,0,0,1,3.467.366,16.516,16.516,0,0,1,12.9,13.92A17.429,17.429,0,0,1-519.844,245.667Z" transform="translate(553.469 -228.404)" fill="#fff"/>
        <path id="Path_812" data-name="Path 812" d="M-532.8,228.708A17.12,17.12,0,0,1-536.5,237.3a17.208,17.208,0,0,1-13.4,6.385,17.061,17.061,0,0,1-3.624-.383,17.26,17.26,0,0,1,13.323-14.549,17.09,17.09,0,0,1,3.786-.422A17.177,17.177,0,0,1-532.8,228.708Z" transform="translate(553.53 -228.327)" fill="#263238"/>
        <path id="Path_813" data-name="Path 813" d="M-517.946,243.259a17.189,17.189,0,0,1-3.785.422,17.212,17.212,0,0,1-13.406-6.385,17.219,17.219,0,0,1-3.7-8.548,17.09,17.09,0,0,1,3.786-.422,17.177,17.177,0,0,1,3.624.381A17.268,17.268,0,0,1-517.946,243.259Z" transform="translate(552.164 -228.327)" fill="#263238"/>
      </g>
    </g>
    <path id="Path_814" data-name="Path 814" d="M-489.4,223.556a13.492,13.492,0,0,1-13.5,13.487,13.5,13.5,0,0,1-13.5-13.487,13.5,13.5,0,0,1,13.5-13.5A13.494,13.494,0,0,1-489.4,223.556Z" transform="translate(-6.986 -0.246)" fill="#1cb0f6"/>
    <path id="Path_815" data-name="Path 815" d="M-503.14,207.41a15.919,15.919,0,0,0-15.9,15.9,15.925,15.925,0,0,0,15.9,15.9,15.919,15.919,0,0,0,15.9-15.9A15.913,15.913,0,0,0-503.14,207.41Zm0,29.387a13.5,13.5,0,0,1-13.5-13.487,13.5,13.5,0,0,1,13.5-13.5,13.494,13.494,0,0,1,13.5,13.5A13.492,13.492,0,0,1-503.14,236.8Z" transform="translate(-6.74 0)" fill="#fafafa"/>
    <path id="Path_816" data-name="Path 816" d="M-502.469,229.658l5.79,3.044-1.106-6.448,4.684-4.566-6.473-.941-2.9-5.866-2.9,5.866-6.473.941,4.684,4.566-1.106,6.448Z" transform="translate(-7.41 -0.695)" fill="#fafafa"/>
    <g id="Group_2868" data-name="Group 2868" transform="translate(-591.524 238.885)">
      <g id="Group_2866" data-name="Group 2866">
        <path id="Path_817" data-name="Path 817" d="M-561.531,258.608a13.492,13.492,0,0,1-13.5,13.487,13.5,13.5,0,0,1-13.5-13.487,13.5,13.5,0,0,1,13.5-13.5A13.494,13.494,0,0,1-561.531,258.608Z" transform="translate(591.245 -242.391)" fill="#89e219"/>
        <path id="Path_818" data-name="Path 818" d="M-575.306,242.112a16.235,16.235,0,0,0-16.217,16.217,16.233,16.233,0,0,0,16.217,16.208,16.233,16.233,0,0,0,16.217-16.208A16.235,16.235,0,0,0-575.306,242.112Zm0,29.7a13.5,13.5,0,0,1-13.5-13.487,13.5,13.5,0,0,1,13.5-13.5,13.494,13.494,0,0,1,13.5,13.5A13.492,13.492,0,0,1-575.306,271.817Z" transform="translate(591.524 -242.112)" fill="#fafafa"/>
      </g>
      <g id="Group_2867" data-name="Group 2867" transform="translate(10.775 10.77)">
        <path id="Path_819" data-name="Path 819" d="M-570.743,258.689l-5.909,5.909-2.426.268a.51.51,0,0,1-.563-.563l.269-2.428,5.908-5.906Zm1.683-1.683-1.2,1.2-2.722-2.721,1.2-1.2a1.021,1.021,0,0,1,1.443,0l1.278,1.277A1.02,1.02,0,0,1-569.059,257.005Z" transform="translate(579.644 -253.986)" fill="#fff"/>
      </g>
    </g>
  </g>
</svg>
