<svg xmlns="http://www.w3.org/2000/svg" width="216" height="124.5" viewBox="0 0 216 124.5">
  <defs>
    <style>
      .cls-1 {
        fill: #fafafa;
      }

      .cls-2 {
        fill: #58cc02;
      }

      .cls-3 {
        fill: #fff;
      }
    </style>
  </defs>
  <g id="illustration_empty_1" transform="translate(-80 -198.25)">
    <path id="Background" class="cls-1" d="M202,63a7,7,0,1,1,7,7A7,7,0,0,1,202,63Zm-62,7a7.037,7.037,0,0,1-1.5-.161A7.043,7.043,0,0,1,137,70H46a7,7,0,1,1,0-14H7A7,7,0,1,1,7,42H47a7,7,0,0,0,0-14H22a7,7,0,0,1,0-14H62A7,7,0,1,1,62,0h57a7,7,0,0,1,0,14h64a7,7,0,1,1,0,14h22a7,7,0,1,1,0,14H186a7,7,0,1,0,0,14h6a7,7,0,0,1,0,14Z" transform="translate(80 226.5)"/>
    <path id="Rectangle" class="cls-1" d="M2,0H69L63,9l8,6H0L9,9Z" transform="translate(151 228.5)"/>
    <path id="line" class="cls-2" d="M.128-.75H7a1.25,1.25,0,1,1,0,2.5H.128a1.25,1.25,0,1,1,0-2.5ZM13-.75H34.454a1.25,1.25,0,0,1,0,2.5H13a1.25,1.25,0,1,1,0-2.5Zm103,0h22.428a1.25,1.25,0,1,1,0,2.5H116a1.25,1.25,0,0,1,0-2.5Zm27.128,0H146a1.25,1.25,0,1,1,0,2.5h-2.872a1.25,1.25,0,0,1,0-2.5Z" transform="translate(114 307.5)"/>
    <path id="bag" class="cls-3" d="M71.045,79H4.461A3.983,3.983,0,0,1,.506,75V3A3.022,3.022,0,0,1,3.543,0H73.022A1.991,1.991,0,0,1,75,2V75A3.982,3.982,0,0,1,71.045,79Z" transform="translate(149.994 242.5)"/>
    <path id="bag_-_Outline" data-name="bag - Outline" class="cls-2" d="M71.045,80.25H4.461A5.234,5.234,0,0,1-.744,75V3A4.274,4.274,0,0,1,3.543-1.25H73.022A3.242,3.242,0,0,1,76.25,2V75A5.234,5.234,0,0,1,71.045,80.25Zm-67.5-79A1.771,1.771,0,0,0,1.756,3V75A2.731,2.731,0,0,0,4.461,77.75H71.045A2.731,2.731,0,0,0,73.75,75V2a.74.74,0,0,0-.727-.75Z" transform="translate(149.994 242.5)"/>
    <path id="Rectangle-2" data-name="Rectangle" class="cls-2" d="M68.205,15.25H1.795A3.156,3.156,0,0,1-1.25,12V0h2.5V12c0,.4.255.75.545.75h66.41c.29,0,.545-.35.545-.75V0h2.5V12A3.156,3.156,0,0,1,68.205,15.25Z" transform="translate(222 242.5) rotate(180)"/>
    <path id="Oval" class="cls-2" d="M11.453,1.25A9.908,9.908,0,0,1,6.359-.181,13.318,13.318,0,0,1,2.338-3.959,20.789,20.789,0,0,1-1.25-16,1.25,1.25,0,0,1,0-17.25,1.25,1.25,0,0,1,1.25-16,18.279,18.279,0,0,0,4.371-5.414C6.293-2.729,8.808-1.25,11.453-1.25s5.16-1.479,7.082-4.164A18.279,18.279,0,0,0,21.656-16a1.25,1.25,0,0,1,1.25-1.25A1.25,1.25,0,0,1,24.156-16,20.789,20.789,0,0,1,20.568-3.959,13.318,13.318,0,0,1,16.547-.181,9.908,9.908,0,0,1,11.453,1.25Z" transform="translate(175.5 279.5)"/>
    <path id="Path_3" data-name="Path 3" class="cls-2" d="M0,14.253a1.25,1.25,0,0,1-1.095-.645,1.25,1.25,0,0,1,.488-1.7L7.052,7.67.183.89A1.25,1.25,0,0,1,.171-.878,1.25,1.25,0,0,1,1.939-.89L9.046,6.126A2.25,2.25,0,0,1,8.555,9.7L.605,14.1A1.245,1.245,0,0,1,0,14.253Z" transform="translate(152 229.497)"/>
    <path id="Path_3-2" data-name="Path 3" class="cls-2" d="M0,14.181a1.244,1.244,0,0,1-.6-.153L-8.693,9.613A2.232,2.232,0,0,1-9.841,7.969a2.232,2.232,0,0,1,.619-1.907l6.8-6.937A1.25,1.25,0,0,1-.652-.893,1.25,1.25,0,0,1-.635.875l-6.57,6.7L.6,11.833a1.25,1.25,0,0,1,.5,1.7A1.25,1.25,0,0,1,0,14.181Z" transform="translate(222.636 229.569)"/>
    <path id="lines" class="cls-2" d="M26-1.25A1.25,1.25,0,0,1,27.25,0V16.756a1.25,1.25,0,1,1-2.5,0V0A1.25,1.25,0,0,1,26-1.25Zm26.1,4.3a1.25,1.25,0,0,1,.933,2.082l-11.1,12.453a1.25,1.25,0,1,1-1.866-1.663l11.1-12.453A1.247,1.247,0,0,1,52.1,3.053ZM0,3.053a1.247,1.247,0,0,1,.934.418l11.1,12.453a1.25,1.25,0,1,1-1.866,1.663L-.933,5.135A1.245,1.245,0,0,1-1.25,4.3,1.247,1.247,0,0,1-.832,3.37,1.245,1.245,0,0,1,0,3.053Z" transform="translate(161 199.5)"/>
  </g>
</svg>
