<svg xmlns="http://www.w3.org/2000/svg" width="108.763" height="66.025">
    <defs>
        <style>
            .cls-2{fill:#fff}.cls-3{fill:#b0bec5}
        </style>
    </defs>
    <g id="illustration_medication_history">
        <g id="Layer_2" data-name="Layer 2">
            <g id="Group_1" data-name="Group 1">
                <path id="Background" d="M29.89 55.23a4.55 4.55 0 1 1 0-9.09H4.55a4.55 4.55 0 1 1 0-9.1h26a4.55 4.55 0 0 0 0-9.1H14.3a4.55 4.55 0 1 1 0-9.1h26a4.55 4.55 0 1 1 0-9.09H104a4.55 4.55 0 1 1 0 9.09H78a4.55 4.55 0 1 1 0 9.1h14.27a4.55 4.55 0 1 1 0 9.1h-6.61c-3.17 0-5.73 2-5.73 4.55s3.9 4.55 3.9 4.55a4.55 4.55 0 1 1 0 9.09zm69.53-22.74A4.55 4.55 0 1 1 104 37a4.55 4.55 0 0 1-4.58-4.51z" style="fill:#fafafa"/>
                <path id="Shape" class="cls-2" d="m73.64 60.5-38 4.67a2.59 2.59 0 0 1-2.9-2.26L26.83 15.2A1.3 1.3 0 0 1 28 13.75l3.15-.36 2.56-.28 1.83-.21 33.8-3.8 6 44.08.54 4.43a2.58 2.58 0 0 1-2.24 2.89z"/>
                <path id="Shape_-_Outline" data-name="Shape - Outline" class="cls-3" d="M73.74 61.31 35.69 66a3.41 3.41 0 0 1-3.8-3L26 15.3a2.12 2.12 0 0 1 1.84-2.36l7.54-.85L70 8.2l6.16 44.88.54 4.43a3.41 3.41 0 0 1-2.96 3.8zM28.06 14.56a.49.49 0 0 0-.42.54l5.86 47.71a1.79 1.79 0 0 0 2 1.56l38.04-4.67a1.8 1.8 0 0 0 1.56-2l-.54-4.41L68.62 10z"/>
                <path id="Rectangle" d="m67.67 11.87 5.47 40 .49 4a2.33 2.33 0 0 1-2 2.62l-34.1 4.15a2.34 2.34 0 0 1-2.59-2l-5.3-43.13A1.3 1.3 0 0 1 30.77 16l4.23-.51" style="fill:#eceff1"/>
                <path id="Rectangle-2" class="cls-2" d="M38.78 2.6a2.59 2.59 0 0 1 2.6-2.6H71a2.6 2.6 0 0 1 1.84.76l8.73 8.73a2.6 2.6 0 0 1 .76 1.84V52a2.59 2.59 0 0 1-2.6 2.59H41.38a2.59 2.59 0 0 1-2.6-2.59z"/>
                <path id="Rectangle_-_Outline" data-name="Rectangle - Outline" class="cls-3" d="M41.38 1.62a1 1 0 0 0-1 1V52a1 1 0 0 0 1 1h38.33a1 1 0 0 0 1-1V11.33a.94.94 0 0 0-.29-.69l-8.75-8.73a1 1 0 0 0-.67-.29H41.38m0-1.62H71a2.6 2.6 0 0 1 1.84.76l8.73 8.73a2.6 2.6 0 0 1 .76 1.84V52a2.59 2.59 0 0 1-2.6 2.59H41.38a2.59 2.59 0 0 1-2.6-2.59V2.6a2.59 2.59 0 0 1 2.6-2.6z"/>
                <path id="Shape-2" class="cls-3" d="M78.37 11.86h-5.15a2.77 2.77 0 0 1-2.77-2.76V1.56a.82.82 0 0 1 .82-.81.81.81 0 0 1 .81.81V9.1a1.13 1.13 0 0 0 1.14 1.13h5.15a.82.82 0 0 1 .81.82.81.81 0 0 1-.81.81z"/>
                <path id="Path_1529" data-name="Path 1529" class="cls-3" d="M63.47 44.36h-16.9a.81.81 0 1 0 0 1.62h16.9a.81.81 0 0 0 0-1.62z"/>
                <path id="Path_1530" data-name="Path 1530" class="cls-3" d="M74.52 33.2H46.57a.81.81 0 1 0 0 1.62h27.95a.81.81 0 0 0 0-1.62z"/>
                <path id="Path_1531" data-name="Path 1531" class="cls-3" d="M74.52 38.74H46.57a.82.82 0 0 0 0 1.63h27.95a.82.82 0 0 0 0-1.63z"/>
            </g>
            <rect id="Rectangle_2071" data-name="Rectangle 2071" class="cls-3" width="18.28" height="18.28" rx="9.14" transform="translate(45.76 9.83)"/>
            <path id="Path_1532" data-name="Path 1532" class="cls-2" d="M58.91 18v2a.34.34 0 0 1-.33.34h-2.34v2.33a.34.34 0 0 1-.34.33h-2a.33.33 0 0 1-.34-.33v-2.36h-2.33a.34.34 0 0 1-.34-.34V18a.34.34 0 0 1 .34-.33h2.33v-2.38a.34.34 0 0 1 .34-.29h2a.34.34 0 0 1 .34.33v2.34h2.34a.33.33 0 0 1 .33.33z"/>
        </g>
    </g>
</svg>
