<svg fill="none" height="20" viewBox="0 0 20 20" width="20" xmlns="http://www.w3.org/2000/svg"><path d="m0 0h20v20h-20z" fill="#e5e5e5"/><path d="m-339-16h375v1277h-375z" fill="#f5f6fa"/><path d="m-339-16h375v52h-375z" fill="#fff"/><path d="m15 5h-10c-.26522 0-.51957.10536-.70711.29289-.18753.18754-.29289.44189-.29289.70711s.10536.51957.29289.70711c.18754.18753.44189.29289.70711.29289h10c.2652 0 .5196-.10536.7071-.29289.1875-.18754.2929-.44189.2929-.70711s-.1054-.51957-.2929-.70711c-.1875-.18753-.4419-.29289-.7071-.29289zm0 4h-10c-.26522 0-.51957.10536-.70711.29289-.18753.18754-.29289.44189-.29289.70711 0 .2652.10536.5196.29289.7071.18754.1875.44189.2929.70711.2929h10c.2652 0 .5196-.1054.7071-.2929s.2929-.4419.2929-.7071c0-.26522-.1054-.51957-.2929-.70711-.1875-.18753-.4419-.29289-.7071-.29289zm2-9h-14c-.79565 0-1.55871.316071-2.12132.87868-.562609.56261-.87868 1.32567-.87868 2.12132v10c0 .7956.316071 1.5587.87868 2.1213.56261.5626 1.32567.8787 2.12132.8787h11.59l3.7 3.71c.0934.0927.2043.166.3261.2158.1218.0497.2523.075.3839.0742.1312.0034.2613-.024.38-.08.1826-.075.3389-.2024.4493-.3661.1103-.1638.1697-.3565.1707-.5539v-16c0-.79565-.3161-1.55871-.8787-2.12132-.5626-.562609-1.3257-.87868-2.1213-.87868zm1 16.59-2.29-2.3c-.0934-.0927-.2043-.166-.3261-.2158-.1218-.0497-.2523-.075-.3839-.0742h-12c-.26522 0-.51957-.1054-.70711-.2929-.18753-.1875-.29289-.4419-.29289-.7071v-10c0-.26522.10536-.51957.29289-.70711.18754-.18753.44189-.29289.70711-.29289h14c.2652 0 .5196.10536.7071.29289.1875.18754.2929.44189.2929.70711z" fill="#263238"/></svg>