<svg width="40" height="40" viewBox="0 0 40 40" fill="none" xmlns="http://www.w3.org/2000/svg">
<rect width="40" height="40" rx="20" fill="#FFEBEE"/>
<path d="M20 15C19.7348 15 19.4804 15.1054 19.2929 15.2929C19.1054 15.4804 19 15.7348 19 16V20C19 20.2652 19.1054 20.5196 19.2929 20.7071C19.4804 20.8946 19.7348 21 20 21C20.2652 21 20.5196 20.8946 20.7071 20.7071C20.8946 20.5196 21 20.2652 21 20V16C21 15.7348 20.8946 15.4804 20.7071 15.2929C20.5196 15.1054 20.2652 15 20 15ZM20.92 23.62C20.8981 23.5563 20.8678 23.4957 20.83 23.44L20.71 23.29C20.5694 23.1512 20.3908 23.0572 20.1968 23.0199C20.0028 22.9825 19.8021 23.0034 19.62 23.08C19.4988 23.1306 19.3872 23.2017 19.29 23.29C19.1973 23.3834 19.124 23.4943 19.0742 23.6161C19.0245 23.7379 18.9992 23.8684 19 24C19.0016 24.1307 19.0288 24.2598 19.08 24.38C19.1249 24.5041 19.1966 24.6168 19.2899 24.7101C19.3832 24.8034 19.4959 24.8751 19.62 24.92C19.7397 24.9729 19.8691 25.0002 20 25.0002C20.1309 25.0002 20.2603 24.9729 20.38 24.92C20.5041 24.8751 20.6168 24.8034 20.7101 24.7101C20.8034 24.6168 20.8751 24.5041 20.92 24.38C20.9712 24.2598 20.9984 24.1307 21 24C21.0049 23.9334 21.0049 23.8666 21 23.8C20.9828 23.7362 20.9558 23.6755 20.92 23.62ZM20 10C18.0222 10 16.0888 10.5865 14.4443 11.6853C12.7998 12.7841 11.5181 14.3459 10.7612 16.1732C10.0043 18.0004 9.8063 20.0111 10.1922 21.9509C10.578 23.8907 11.5304 25.6725 12.9289 27.0711C14.3275 28.4696 16.1093 29.422 18.0491 29.8078C19.9889 30.1937 21.9996 29.9957 23.8268 29.2388C25.6541 28.4819 27.2159 27.2002 28.3147 25.5557C29.4135 23.9112 30 21.9778 30 20C30 18.6868 29.7413 17.3864 29.2388 16.1732C28.7362 14.9599 27.9997 13.8575 27.0711 12.9289C26.1425 12.0003 25.0401 11.2638 23.8268 10.7612C22.6136 10.2587 21.3132 10 20 10ZM20 28C18.4178 28 16.871 27.5308 15.5554 26.6518C14.2398 25.7727 13.2145 24.5233 12.609 23.0615C12.0035 21.5997 11.845 19.9911 12.1537 18.4393C12.4624 16.8874 13.2243 15.462 14.3431 14.3431C15.462 13.2243 16.8874 12.4624 18.4393 12.1537C19.9911 11.845 21.5997 12.0035 23.0615 12.609C24.5233 13.2145 25.7727 14.2398 26.6518 15.5554C27.5308 16.871 28 18.4177 28 20C28 22.1217 27.1571 24.1566 25.6569 25.6568C24.1566 27.1571 22.1217 28 20 28Z" fill="#F44336"/>
</svg>
