<svg fill="none" height="20" viewBox="0 0 20 20" width="20" xmlns="http://www.w3.org/2000/svg" xmlns:xlink="http://www.w3.org/1999/xlink"><filter id="a" color-interpolation-filters="sRGB" filterUnits="userSpaceOnUse" height="117" width="391" x="-48" y="-41"><feFlood flood-opacity="0" result="BackgroundImageFix"/><feColorMatrix in="SourceAlpha" result="hardAlpha" type="matrix" values="0 0 0 0 0 0 0 0 0 0 0 0 0 0 0 0 0 0 127 0"/><feOffset dy="8"/><feGaussianBlur stdDeviation="16"/><feComposite in2="hardAlpha" operator="out"/><feColorMatrix type="matrix" values="0 0 0 0 0 0 0 0 0 0 0 0 0 0 0 0 0 0 0.08 0"/><feBlend in2="BackgroundImageFix" mode="normal" result="effect1_dropShadow_0_1"/><feBlend in="SourceGraphic" in2="effect1_dropShadow_0_1" mode="normal" result="shape"/></filter><clipPath id="b"><path d="m-36-304h375v667h-375z"/></clipPath><path d="m0 0h20v20h-20z" fill="#e5e5e5"/><g clip-path="url(#b)"><path d="m0 0h375v667h-375z" fill="#fff" transform="translate(-36 -304)"/><g filter="url(#a)"><rect fill="#fff" height="53" rx="8" width="327" x="-16" y="-17"/><path d="m10 0c-1.94321.00368884-3.84342.571902-5.46916 1.63543-1.62574 1.06353-2.90685 2.57646-3.687291 4.35453-.7804367 1.77807-1.026514 3.74452-.70826 5.65984.318255 1.9153 1.187101 3.6968 2.500721 5.1275.93821 1.0161 2.07689 1.8271 3.34429 2.3817 1.2674.5547 2.63605.841 4.0197.841 1.3836 0 2.7523-.2863 4.0197-.841 1.2674-.5546 2.4061-1.3656 3.3443-2.3817 1.3136-1.4307 2.1825-3.2122 2.5007-5.1275.3183-1.91532.0722-3.88177-.7082-5.65984-.7805-1.77807-2.0616-3.291-3.6873-4.35453-1.6258-1.063528-3.526-1.63174116-5.4692-1.63543zm0 18.0186c-2.07548-.0031-4.06881-.8105-5.56056-2.2523.4529-1.1016 1.22336-2.0438 2.21346-2.7069s2.15514-1.0172 3.3471-1.0172c1.192 0 2.357.3541 3.3471 1.0172s1.7606 1.6053 2.2135 2.7069c-1.4918 1.4418-3.4851 2.2492-5.5606 2.2523zm-2.00381-10.01032c0-.39597.11752-.78305.33771-1.11229.22018-.32924.53313-.58585.89928-.73738.36614-.15154.76902-.19118 1.15772-.11393s.7458.26793 1.026.54792.4711.63673.5484 1.02509c.0773.38837.0376.79091-.114 1.15675-.1517.36583-.4085.67851-.738.8985-.3296.21999-.717.33736-1.1133.33736-.53144 0-1.04112-.21089-1.41691-.58635-.37578-.37546-.5869-.88469-.5869-1.41567zm8.92691 6.00622c-.8951-1.5298-2.2729-2.7198-3.9174-3.3835.5101-.578.8425-1.29069.9573-2.0527.1148-.762.007-1.54091-.3103-2.24326-.3173-.70234-.8308-1.29828-1.4787-1.7163-.6479-.41803-1.4027-.64038-2.174-.64038-.77126 0-1.52613.22235-2.17404.64038-.64791.41802-1.16133 1.01396-1.47865 1.7163-.31732.70235-.42507 1.48126-.31031 2.24326.11476.76201.44715 1.4747.95729 2.0527-1.64452.6637-3.02227 1.8537-3.91744 3.3835-.71341-1.2142-1.09035-2.5962-1.09207-4.0042 0-2.12388.84445-4.16082 2.3476-5.66266s3.54185-2.34557 5.66762-2.34557c2.1258 0 4.1645.84373 5.6676 2.34557 1.5032 1.50184 2.3476 3.53878 2.3476 5.66266-.0017 1.408-.3786 2.79-1.0921 4.0042z" fill="#000"/></g></g></svg>