<svg width="40" height="40" viewBox="0 0 40 40" fill="none" xmlns="http://www.w3.org/2000/svg">
<rect width="40" height="40" rx="20" fill="#ECEFF1"/>
<path d="M24.4 18.5971C24.2143 18.5971 24.0363 18.6708 23.905 18.8021C23.7737 18.9334 23.7 19.1114 23.7 19.2971V21.6701L22.664 20.6341C22.4838 20.4527 22.2695 20.3087 22.0334 20.2105C21.7973 20.1123 21.5442 20.0617 21.2885 20.0617C21.0328 20.0617 20.7797 20.1123 20.5436 20.2105C20.3075 20.3087 20.0932 20.4527 19.913 20.6341L19.423 21.1241L17.687 19.3811C17.3212 19.0181 16.8268 18.8145 16.3115 18.8145C15.7962 18.8145 15.3018 19.0181 14.936 19.3811L13.9 20.4171V16.4971C13.9 16.3114 13.9737 16.1334 14.105 16.0021C14.2363 15.8708 14.4143 15.7971 14.6 15.7971H20.2C20.3857 15.7971 20.5637 15.7233 20.695 15.592C20.8262 15.4608 20.9 15.2827 20.9 15.0971C20.9 14.9114 20.8262 14.7334 20.695 14.6021C20.5637 14.4708 20.3857 14.3971 20.2 14.3971H14.6C14.043 14.3971 13.5089 14.6183 13.1151 15.0121C12.7212 15.406 12.5 15.9401 12.5 16.4971V24.8971C12.5 25.454 12.7212 25.9882 13.1151 26.382C13.5089 26.7758 14.043 26.9971 14.6 26.9971H23C23.557 26.9971 24.0911 26.7758 24.4849 26.382C24.8788 25.9882 25.1 25.454 25.1 24.8971V19.2971C25.1 19.1114 25.0263 18.9334 24.895 18.8021C24.7637 18.6708 24.5857 18.5971 24.4 18.5971ZM14.6 25.5971C14.4143 25.5971 14.2363 25.5233 14.105 25.392C13.9737 25.2608 13.9 25.0827 13.9 24.8971V22.3981L15.93 20.3681C16.0328 20.2701 16.1694 20.2154 16.3115 20.2154C16.4536 20.2154 16.5902 20.2701 16.693 20.3681L18.912 22.5871L21.915 25.5971H14.6ZM23.7 24.8971C23.699 25.0311 23.6548 25.1612 23.574 25.2681L20.417 22.0971L20.907 21.6071C21.0093 21.5053 21.1477 21.4482 21.292 21.4482C21.4363 21.4482 21.5747 21.5053 21.677 21.6071L23.7 23.6511V24.8971ZM25.387 15.0971L26.297 14.1941C26.4274 14.0629 26.5006 13.8855 26.5006 13.7006C26.5006 13.5156 26.4274 13.3382 26.297 13.2071C26.2319 13.1414 26.1545 13.0894 26.0692 13.0538C25.9839 13.0183 25.8924 13 25.8 13C25.7076 13 25.6161 13.0183 25.5308 13.0538C25.4455 13.0894 25.3681 13.1414 25.303 13.2071L24.4 14.1101L23.497 13.2071C23.4319 13.1414 23.3545 13.0894 23.2692 13.0538C23.1839 13.0183 23.0924 13 23 13C22.9076 13 22.8161 13.0183 22.7308 13.0538C22.6455 13.0894 22.5681 13.1414 22.503 13.2071C22.3726 13.3382 22.2994 13.5156 22.2994 13.7006C22.2994 13.8855 22.3726 14.0629 22.503 14.1941L23.413 15.0971L22.503 16.0071C22.3726 16.1382 22.2994 16.3156 22.2994 16.5006C22.2994 16.6855 22.3726 16.8629 22.503 16.9941C22.5681 17.0597 22.6455 17.1117 22.7308 17.1473C22.8161 17.1828 22.9076 17.2011 23 17.2011C23.0924 17.2011 23.1839 17.1828 23.2692 17.1473C23.3545 17.1117 23.4319 17.0597 23.497 16.9941L24.4 16.0911L25.303 16.9941C25.3681 17.0597 25.4455 17.1117 25.5308 17.1473C25.6161 17.1828 25.7076 17.2011 25.8 17.2011C25.8924 17.2011 25.9839 17.1828 26.0692 17.1473C26.1545 17.1117 26.2319 17.0597 26.297 16.9941C26.4274 16.8629 26.5006 16.6855 26.5006 16.5006C26.5006 16.3156 26.4274 16.1382 26.297 16.0071L25.387 15.0971Z" fill="#B0BEC5"/>
</svg>
