<svg width="40" height="30" viewBox="0 0 40 30" fill="none" xmlns="http://www.w3.org/2000/svg">
<path d="M34.1604 2.987C33.3118 2.13726 32.304 1.46314 31.1947 1.0032C30.0854 0.543259 28.8962 0.306519 27.6954 0.306519C26.4945 0.306519 25.3053 0.543259 24.196 1.0032C23.0867 1.46314 22.0789 2.13726 21.2304 2.987L20.5078 3.70955L19.7853 2.987C18.0648 1.29134 15.7438 0.34446 13.3281 0.352713C10.9125 0.360966 8.59804 1.32369 6.88917 3.03106C5.18029 4.73843 4.21554 7.05205 4.20516 9.46768C4.19479 11.8833 5.13963 14.2051 6.83378 15.9271L19.8168 28.9077C19.9985 29.0876 20.2439 29.1886 20.4996 29.1886C20.7553 29.1886 21.0007 29.0876 21.1824 28.9077L34.1604 15.9271C35.0101 15.0775 35.6842 14.0688 36.1441 12.9587C36.604 11.8485 36.8407 10.6587 36.8407 9.45706C36.8407 8.25543 36.604 7.06557 36.1441 5.95543C35.6842 4.84529 35.0101 3.83661 34.1604 2.987ZM32.7949 14.5616L20.4964 26.86L8.1955 14.5616C7.52491 13.8904 6.9931 13.0936 6.63044 12.2168C6.26777 11.34 6.08135 10.4004 6.08182 9.45159C6.08229 8.50277 6.26964 7.56333 6.63317 6.68691C6.99671 5.81049 7.5293 5.01426 8.20055 4.34367C8.8718 3.67308 9.66857 3.14127 10.5453 2.77861C11.4221 2.41594 12.3617 2.22952 13.3106 2.22999C14.2594 2.23046 15.1988 2.41781 16.0753 2.78134C16.9517 3.14487 17.7479 3.67747 18.4185 4.34872L19.8244 5.75465C19.9135 5.84528 20.0198 5.91727 20.137 5.9664C20.2542 6.01554 20.3801 6.04084 20.5072 6.04084C20.6343 6.04084 20.7601 6.01554 20.8773 5.9664C20.9946 5.91727 21.1008 5.84528 21.1899 5.75465L22.5959 4.34872C23.2663 3.67896 24.0621 3.14781 24.9377 2.78559C25.8134 2.42338 26.7519 2.23719 27.6996 2.23766C28.6472 2.23813 29.5855 2.42525 30.4608 2.78833C31.3362 3.15141 32.1314 3.68335 32.8012 4.35377C33.4709 5.02419 34.0021 5.81997 34.3643 6.69567C34.7265 7.57136 34.9127 8.50982 34.9122 9.45747C34.9118 10.4051 34.7246 11.3434 34.3616 12.2187C33.9985 13.0941 33.4665 13.8893 32.7961 14.5591L32.7949 14.5616Z" fill="#F44336"/>
<path d="M5.34559 12.4834H1.81245C1.55683 12.4834 1.31168 12.5849 1.13093 12.7657C0.950177 12.9464 0.848633 13.1916 0.848633 13.4472C0.848633 13.7028 0.950177 13.9479 1.13093 14.1287C1.31168 14.3094 1.55683 14.411 1.81245 14.411H5.34938C5.605 14.411 5.85015 14.3094 6.0309 14.1287C6.21165 13.9479 6.31319 13.7028 6.31319 13.4472C6.31319 13.1916 6.21165 12.9464 6.0309 12.7657C5.85015 12.5849 5.605 12.4834 5.34938 12.4834H5.34559Z" fill="#F44336"/>
<path d="M35.5431 12.5138H26.3218L24.8868 9.3558C24.8343 9.23913 24.7476 9.14117 24.6382 9.07485C24.5288 9.00853 24.4019 8.97699 24.2742 8.98442C24.1451 8.99017 24.0207 9.03438 23.9169 9.11136C23.8132 9.18833 23.7348 9.29458 23.6918 9.41644L20.76 17.6688L17.1965 7.79071C17.1535 7.67172 17.0762 7.56816 16.9743 7.49307C16.8725 7.41798 16.7507 7.37474 16.6243 7.3688C16.4963 7.35992 16.3688 7.39084 16.2591 7.45733C16.1494 7.52382 16.063 7.62262 16.0116 7.74018L13.6116 12.8296H5.66738C5.49716 12.8306 5.3342 12.8986 5.21384 13.019C5.09347 13.1394 5.02541 13.3023 5.02441 13.4725C5.02441 13.8237 5.44632 14.0852 5.79749 14.0852H14.1497C14.4023 14.0852 14.4908 13.9753 14.5918 13.7441L16.4992 9.68802L20.1536 19.7935C20.1985 19.9172 20.2805 20.0241 20.3883 20.0996C20.4961 20.1751 20.6246 20.2155 20.7562 20.2154C20.8893 20.2161 21.0193 20.1747 21.1275 20.0971C21.2357 20.0196 21.3166 19.9098 21.3587 19.7834L24.3601 11.3201L25.3037 13.4081C25.3857 13.5212 25.4949 13.6117 25.6212 13.6713C25.7475 13.7309 25.8868 13.7577 26.0262 13.7492H35.6643C36.0155 13.7492 36.1696 13.4877 36.1696 13.1365C36.1718 13.0537 36.1573 12.9713 36.1269 12.8943C36.0965 12.8172 36.0509 12.7471 35.9927 12.6881C35.9346 12.6292 35.8651 12.5825 35.7885 12.551C35.7119 12.5196 35.6297 12.5039 35.5469 12.5049L35.5431 12.5138Z" fill="#F44336"/>
<path d="M38.7566 12.1627H35.8652C35.6096 12.1627 35.3644 12.2642 35.1837 12.445C35.0029 12.6257 34.9014 12.8709 34.9014 13.1265C34.9014 13.3821 35.0029 13.6272 35.1837 13.808C35.3644 13.9887 35.6096 14.0903 35.8652 14.0903H38.7566C39.0122 14.0903 39.2574 13.9887 39.4381 13.808C39.6189 13.6272 39.7204 13.3821 39.7204 13.1265C39.7204 12.8709 39.6189 12.6257 39.4381 12.445C39.2574 12.2642 39.0122 12.1627 38.7566 12.1627Z" fill="#F44336"/>
</svg>
