<svg width="72" height="72" viewBox="0 0 72 72" fill="none" xmlns="http://www.w3.org/2000/svg">
<circle cx="36" cy="36" r="36" fill="#FFC9C5"/>
<path fill-rule="evenodd" clip-rule="evenodd" d="M33.943 22.1526C34.5709 21.7902 35.2794 21.5999 36 21.5999C36.7206 21.5999 37.4291 21.7902 38.057 22.1526C38.6849 22.515 39.2112 23.0372 39.5849 23.6687L39.5889 23.6755L51.4268 43.933L51.4381 43.9528C51.8042 44.6027 51.9979 45.3395 52 46.09C52.002 46.8405 51.8124 47.5784 51.4498 48.2304C51.0873 48.8823 50.5645 49.4257 49.9335 49.8062C49.3025 50.1868 48.5853 50.3914 47.8532 50.3997L47.8379 50.3999L24.1468 50.3998C23.4147 50.3915 22.6975 50.1868 22.0665 49.8062C21.4355 49.4257 20.9127 48.8823 20.5502 48.2304C20.1877 47.5784 19.998 46.8405 20 46.09C20.0021 45.3395 20.1958 44.6027 20.5619 43.9528L20.5732 43.933L32.4111 23.6756L33.61 24.4117L32.4151 23.6687C32.7888 23.0372 33.3151 22.515 33.943 22.1526ZM34.8067 25.1519L22.9779 45.3939C22.8589 45.6085 22.7959 45.851 22.7952 46.098C22.7946 46.3482 22.8578 46.5941 22.9786 46.8115C23.0995 47.0288 23.2738 47.2099 23.4841 47.3368C23.6926 47.4625 23.9293 47.5306 24.1711 47.5345H47.8289C48.0707 47.5306 48.3074 47.4625 48.5159 47.3368C48.7262 47.2099 48.9005 47.0288 49.0214 46.8115C49.1422 46.5941 49.2054 46.3482 49.2048 46.098C49.2041 45.8511 49.1411 45.6085 49.0221 45.394L37.195 25.1548C37.1944 25.1538 37.1938 25.1529 37.1933 25.1519C37.0688 24.9427 36.894 24.7696 36.6857 24.6494C36.4764 24.5286 36.2402 24.4651 36 24.4651C35.7598 24.4651 35.5236 24.5286 35.3143 24.6494C35.106 24.7696 34.9312 24.9427 34.8067 25.1519Z" fill="#F44336"/>
<path d="M35.2006 23.1997H36.8006L49.6006 43.9997L50.4006 45.5997V47.9997L48.8006 48.7997H23.2006L22.4006 47.9997L21.6006 47.1997V45.5997L34.4006 23.9997L35.2006 23.1997Z" fill="#F44336"/>
<path fill-rule="evenodd" clip-rule="evenodd" d="M36.0002 30.3433C36.772 30.3433 37.3978 30.9847 37.3978 31.7759V37.5064C37.3978 38.2977 36.772 38.9391 36.0002 38.9391C35.2283 38.9391 34.6025 38.2977 34.6025 37.5064V31.7759C34.6025 30.9847 35.2283 30.3433 36.0002 30.3433Z" fill="white"/>
<path fill-rule="evenodd" clip-rule="evenodd" d="M34.6025 43.2368C34.6025 42.4456 35.2283 41.8042 36.0002 41.8042H36.0141C36.786 41.8042 37.4118 42.4456 37.4118 43.2368C37.4118 44.0281 36.786 44.6695 36.0141 44.6695H36.0002C35.2283 44.6695 34.6025 44.0281 34.6025 43.2368Z" fill="white"/>
</svg>
