<svg width="73" height="72" viewBox="0 0 73 72" fill="none" xmlns="http://www.w3.org/2000/svg">
<ellipse cx="36.384" cy="36" rx="36.384" ry="36" fill="#E3F2FD"/>
<path fill-rule="evenodd" clip-rule="evenodd" d="M45.982 44.1818C44.1745 44.1818 42.7093 45.6471 42.7093 47.4546C42.7093 49.262 44.1745 50.7273 45.982 50.7273C47.7895 50.7273 49.2547 49.262 49.2547 47.4546C49.2547 45.6471 47.7895 44.1818 45.982 44.1818ZM39.4365 47.4546C39.4365 43.8396 42.367 40.9091 45.982 40.9091C49.5969 40.9091 52.5274 43.8396 52.5274 47.4546C52.5274 51.0695 49.5969 54 45.982 54C42.367 54 39.4365 51.0695 39.4365 47.4546Z" fill="#2962FF"/>
<path fill-rule="evenodd" clip-rule="evenodd" d="M26.3453 32.7273C24.5378 32.7273 23.0725 34.1925 23.0725 36C23.0725 37.8075 24.5378 39.2727 26.3453 39.2727C28.1527 39.2727 29.618 37.8075 29.618 36C29.618 34.1925 28.1527 32.7273 26.3453 32.7273ZM19.7998 36C19.7998 32.385 22.7303 29.4545 26.3453 29.4545C29.9602 29.4545 32.8907 32.385 32.8907 36C32.8907 39.615 29.9602 42.5455 26.3453 42.5455C22.7303 42.5455 19.7998 39.615 19.7998 36Z" fill="#2962FF"/>
<path fill-rule="evenodd" clip-rule="evenodd" d="M29.1696 37.647C29.6246 36.8662 30.6264 36.6021 31.4073 37.0571L42.5836 43.5698C43.3645 44.0248 43.6286 45.0267 43.1736 45.8075C42.7186 46.5883 41.7167 46.8525 40.9359 46.3975L29.7595 39.8847C28.9787 39.4297 28.7146 38.4279 29.1696 37.647Z" fill="#2962FF"/>
<path fill-rule="evenodd" clip-rule="evenodd" d="M45.982 21.2727C44.1745 21.2727 42.7093 22.738 42.7093 24.5455C42.7093 26.3529 44.1745 27.8182 45.982 27.8182C47.7895 27.8182 49.2547 26.3529 49.2547 24.5455C49.2547 22.738 47.7895 21.2727 45.982 21.2727ZM39.4365 24.5455C39.4365 20.9305 42.367 18 45.982 18C49.5969 18 52.5274 20.9305 52.5274 24.5455C52.5274 28.1604 49.5969 31.0909 45.982 31.0909C42.367 31.0909 39.4365 28.1604 39.4365 24.5455Z" fill="#2962FF"/>
<path fill-rule="evenodd" clip-rule="evenodd" d="M43.1567 26.1916C43.6122 26.9721 43.3487 27.9742 42.5682 28.4297L31.4082 34.9424C30.6276 35.3979 29.6256 35.1344 29.1701 34.3539C28.7146 33.5733 28.9781 32.5713 29.7586 32.1158L40.9186 25.6031C41.6992 25.1475 42.7012 25.411 43.1567 26.1916Z" fill="#2962FF"/>
</svg>
