<svg width="19" height="20" viewBox="0 0 19 20" fill="none" xmlns="http://www.w3.org/2000/svg">
<path fill-rule="evenodd" clip-rule="evenodd" d="M14.5455 14.5454C13.5413 14.5454 12.7273 15.3595 12.7273 16.3636C12.7273 17.3678 13.5413 18.1818 14.5455 18.1818C15.5496 18.1818 16.3637 17.3678 16.3637 16.3636C16.3637 15.3595 15.5496 14.5454 14.5455 14.5454ZM10.9091 16.3636C10.9091 14.3553 12.5372 12.7273 14.5455 12.7273C16.5538 12.7273 18.1818 14.3553 18.1818 16.3636C18.1818 18.3719 16.5538 20 14.5455 20C12.5372 20 10.9091 18.3719 10.9091 16.3636Z" fill="#90A4AE"/>
<path fill-rule="evenodd" clip-rule="evenodd" d="M3.63636 8.18183C2.63221 8.18183 1.81818 8.99586 1.81818 10C1.81818 11.0042 2.63221 11.8182 3.63636 11.8182C4.64052 11.8182 5.45455 11.0042 5.45455 10C5.45455 8.99586 4.64052 8.18183 3.63636 8.18183ZM0 10C0 7.9917 1.62806 6.36365 3.63636 6.36365C5.64467 6.36365 7.27273 7.9917 7.27273 10C7.27273 12.0083 5.64467 13.6364 3.63636 13.6364C1.62806 13.6364 0 12.0083 0 10Z" fill="#90A4AE"/>
<path fill-rule="evenodd" clip-rule="evenodd" d="M5.20544 10.915C5.45823 10.4812 6.01481 10.3345 6.44861 10.5873L12.6577 14.2055C13.0915 14.4582 13.2382 15.0148 12.9855 15.4486C12.7327 15.8824 12.1761 16.0292 11.7423 15.7764L5.5332 12.1582C5.0994 11.9054 4.95266 11.3488 5.20544 10.915Z" fill="#90A4AE"/>
<path fill-rule="evenodd" clip-rule="evenodd" d="M14.5455 1.81818C13.5413 1.81818 12.7273 2.63221 12.7273 3.63636C12.7273 4.64052 13.5413 5.45455 14.5455 5.45455C15.5496 5.45455 16.3637 4.64052 16.3637 3.63636C16.3637 2.63221 15.5496 1.81818 14.5455 1.81818ZM10.9091 3.63636C10.9091 1.62806 12.5372 0 14.5455 0C16.5538 0 18.1818 1.62806 18.1818 3.63636C18.1818 5.64467 16.5538 7.27273 14.5455 7.27273C12.5372 7.27273 10.9091 5.64467 10.9091 3.63636Z" fill="#90A4AE"/>
<path fill-rule="evenodd" clip-rule="evenodd" d="M12.9761 4.55088C13.2291 4.98452 13.0827 5.5412 12.6491 5.79426L6.44911 9.41244C6.01547 9.6655 5.45879 9.51912 5.20573 9.08548C4.95267 8.65184 5.09906 8.09516 5.5327 7.8421L11.7327 4.22392C12.1663 3.97086 12.723 4.11725 12.9761 4.55088Z" fill="#90A4AE"/>
</svg>
