<svg width="73" height="72" viewBox="0 0 73 72" fill="none" xmlns="http://www.w3.org/2000/svg">
<ellipse cx="36.384" cy="36" rx="36.384" ry="36" fill="#E3F2FD"/>
<path d="M51.2925 28.7266C51.6571 29.0911 51.8394 29.5339 51.8394 30.0547C51.8394 30.5755 51.6571 31.0182 51.2925 31.3828L37.1519 45.5234L34.4956 48.1797C34.131 48.5443 33.6883 48.7266 33.1675 48.7266C32.6466 48.7266 32.2039 48.5443 31.8394 48.1797L29.1831 45.5234L22.1128 38.4531C21.7482 38.0885 21.5659 37.6458 21.5659 37.125C21.5659 36.6042 21.7482 36.1615 22.1128 35.7969L24.769 33.1406C25.1336 32.776 25.5763 32.5937 26.0972 32.5937C26.618 32.5937 27.0607 32.776 27.4253 33.1406L33.1675 38.9023L45.98 26.0703C46.3446 25.7057 46.7873 25.5234 47.3081 25.5234C47.8289 25.5234 48.2716 25.7057 48.6362 26.0703L51.2925 28.7266Z" fill="#2962FF"/>
</svg>
