<svg xmlns="http://www.w3.org/2000/svg" xmlns:xlink="http://www.w3.org/1999/xlink" viewBox="0 0 1080 594.49"><defs><style>.cls-1{fill:url(#linear-gradient);}.cls-2{opacity:0.2;}.cls-3{fill:#fff;}.cls-4{opacity:0.8;}.cls-5{opacity:0.7;}.cls-6{opacity:0.6;}</style><linearGradient id="linear-gradient" x1="276.29" y1="754.01" x2="803.71" y2="-159.52" gradientUnits="userSpaceOnUse"><stop offset="0" stop-color="#58cc02"/><stop offset="1" stop-color="#89e219"/></linearGradient></defs><g id="Layer_2" data-name="Layer 2"><g id="Layer_6" data-name="Layer 6"><rect class="cls-1" width="1080" height="594.49"/><g class="cls-2"><path class="cls-3" d="M540,338.05c-141.41,0-256.46,115-256.46,256.44h57.6c0-109.64,89.22-198.84,198.86-198.84s198.84,89.2,198.84,198.84h57.6C796.44,453.08,681.38,338.05,540,338.05Z"/><g class="cls-4"><path class="cls-3" d="M540,181.07c-228,0-413.42,185.47-413.42,413.42h57.6c0-196.21,159.61-355.82,355.82-355.82S895.8,398.28,895.8,594.49h57.6C953.4,366.54,768,181.07,540,181.07Z"/></g><g class="cls-5"><path class="cls-3" d="M540,24.11C289.79,24.11,76.69,186,0,410.57V594.49H27.19C27.19,311.73,257.24,81.71,540,81.71s512.78,230,512.78,512.78H1080V410.66C1003.33,186.08,790.21,24.11,540,24.11Z"/></g><g class="cls-6"><path class="cls-3" d="M1054.31,80.15A736,736,0,0,0,959.41,0H848.28A674,674,0,0,1,1080,198.75V107.19Q1067.57,93.42,1054.31,80.15ZM120.56,0a736.63,736.63,0,0,0-94.9,80.15Q12.45,93.36,0,107.16v91.56A674.06,674.06,0,0,1,231.7,0Z"/></g></g></g></g></svg>