<svg xmlns="http://www.w3.org/2000/svg" xmlns:xlink="http://www.w3.org/1999/xlink" viewBox="0 0 375 667"><defs><style>.cls-1{fill:#fff;}.cls-2{fill:url(#linear-gradient);}.cls-3{opacity:0.2;}.cls-4{opacity:0.8;}.cls-5{opacity:0.7;}.cls-6{opacity:0.6;}.cls-7{opacity:0.5;}.cls-8{opacity:0.4;}.cls-9{opacity:0.3;}</style><linearGradient id="linear-gradient" x1="95.94" y1="261.81" x2="279.07" y2="-55.38" gradientUnits="userSpaceOnUse"><stop offset="0" stop-color="#58cc02"/><stop offset="1" stop-color="#89e219"/></linearGradient></defs><g id="Layer_2" data-name="Layer 2"><g id="Layer_6" data-name="Layer 6"><rect class="cls-1" y="206.42" width="375" height="460.58"/><rect class="cls-2" width="375" height="206.42"/><g class="cls-3"><path class="cls-1" d="M187.5,117.38a89,89,0,1,0,89,89A89.15,89.15,0,0,0,187.5,117.38Zm0,158.08a69,69,0,1,1,69-69A69.13,69.13,0,0,1,187.5,275.46Z"/><g class="cls-4"><path class="cls-1" d="M187.5,62.87C108.34,62.87,44,127.27,44,206.42S108.34,350,187.5,350,331,285.57,331,206.42,266.65,62.87,187.5,62.87Zm0,267.1A123.55,123.55,0,1,1,311,206.42,123.69,123.69,0,0,1,187.5,330Z"/></g><g class="cls-5"><path class="cls-1" d="M187.5,8.37C100.62,8.37,26.63,64.59,0,142.56V270.28c26.63,78,100.62,134.19,187.5,134.19S348.38,348.23,375,270.25V142.59C348.38,64.61,274.38,8.37,187.5,8.37Zm0,376.1C89.32,384.47,9.44,304.6,9.44,206.42s79.88-178,178.06-178,178.05,79.87,178.05,178S285.67,384.47,187.5,384.47Z"/></g><g class="cls-6"><path class="cls-1" d="M187.5,439A232.35,232.35,0,0,1,0,343.84v31.78q4.31,4.78,8.91,9.38a252.54,252.54,0,0,0,357.17,0q4.6-4.61,8.92-9.39V343.83A232.33,232.33,0,0,1,187.5,439ZM41.86,0A255.67,255.67,0,0,0,8.91,27.83Q4.32,32.42,0,37.21V69A234.06,234.06,0,0,1,80.45,0ZM366.08,27.83A255.67,255.67,0,0,0,333.13,0H294.54A234,234,0,0,1,375,69V37.22Q370.68,32.44,366.08,27.83Z"/></g><g class="cls-7"><path class="cls-1" d="M187.5,493.48A285.82,285.82,0,0,1,0,423.62v26a307.29,307.29,0,0,0,375,0v-26A285.86,285.86,0,0,1,187.5,493.48Z"/></g><g class="cls-8"><path class="cls-1" d="M187.5,548A339.63,339.63,0,0,1,0,491.81v23.85a361.34,361.34,0,0,0,375,0V491.81A339.63,339.63,0,0,1,187.5,548Z"/></g><g class="cls-9"><path class="cls-1" d="M187.5,602.49A393.52,393.52,0,0,1,0,555.22V578q12.52,6.34,25.54,11.84a417.41,417.41,0,0,0,323.91,0q13-5.5,25.55-11.84V555.22A393.55,393.55,0,0,1,187.5,602.49Z"/></g><g class="cls-3"><path class="cls-1" d="M187.5,657A447.88,447.88,0,0,1,0,616.11v22L4.32,640a466.28,466.28,0,0,0,86.1,27H284.57a466.28,466.28,0,0,0,86.1-27q2.18-.91,4.33-1.86v-22A447.73,447.73,0,0,1,187.5,657Z"/></g></g></g></g></svg>