<svg fill="none" height="75" viewBox="0 0 77 75" width="77" xmlns="http://www.w3.org/2000/svg" xmlns:xlink="http://www.w3.org/1999/xlink"><filter id="a" color-interpolation-filters="sRGB" filterUnits="userSpaceOnUse" height="272" width="219.5" x="-71" y="-76"><feFlood flood-opacity="0" result="BackgroundImageFix"/><feColorMatrix in="SourceAlpha" result="hardAlpha" type="matrix" values="0 0 0 0 0 0 0 0 0 0 0 0 0 0 0 0 0 0 127 0"/><feOffset dy="8"/><feGaussianBlur stdDeviation="16"/><feComposite in2="hardAlpha" operator="out"/><feColorMatrix type="matrix" values="0 0 0 0 0 0 0 0 0 0 0 0 0 0 0 0 0 0 0.08 0"/><feBlend in2="BackgroundImageFix" mode="normal" result="effect1_dropShadow_0_1"/><feBlend in="SourceGraphic" in2="effect1_dropShadow_0_1" mode="normal" result="shape"/></filter><path d="m0 0h77v75h-77z" fill="#e5e5e5"/><path d="m-63-204h375v1277h-375z" fill="#f5f6fa"/><g filter="url(#a)"><rect fill="#fff" height="208" rx="8" width="155.5" x="-39" y="-52"/></g><path d="m75.9589 37.5c0 20.7107-16.7894 37.5-37.5 37.5-20.7107 0-37.500038-16.7893-37.500038-37.5s16.789338-37.5 37.500038-37.5c20.7106 0 37.5 16.7893 37.5 37.5zm-67.50004 0c0 16.5685 13.43144 30 30.00004 30 16.5685 0 30-13.4315 30-30s-13.4315-30-30-30c-16.5686 0-30.00004 13.4315-30.00004 30z" fill="#bbdefb"/><g fill="#263238"><path d="m45.7578 51.8182c-.7777.3705-1.5771.0282-2.0321-.8795-.9901-1.9736-1.9736-3.9473-2.9528-5.9252-.1279-.2556-.2882-.4528-.5221-.6218-1.0746-.7755-2.1405-1.562-3.2042-2.3505-1.3648-1.0096-1.9454-2.3398-1.6465-4.0296.2492-1.4017.4961-2.8012.7366-4.2029.0563-.3271.2102-.5827.4593-.8037.5416-.4766 1.0659-.9727 1.5988-1.4602-.0325-.0411-.0671-.0801-.1018-.1213-.9749.5893-1.9455 1.1829-2.9268 1.7613-.2189.1278-.2643.3336-.3315.533-.4333 1.289-.8536 2.5823-1.2869 3.8714-.2383.7062-.6997.9987-1.2738.8297-.6066-.1798-.8644-.6954-.7019-1.4103.3336-1.4624.665-2.9247 1.0008-4.3871.1517-.6585.4853-1.2088 1.0269-1.6161 1.1851-.8904 2.3636-1.7938 3.5768-2.643 1.6356-1.1483 3.7739-.442 4.3307 1.4038.2015.6651.0758 1.3302-.0563 1.9909-.3922 1.9563-.8016 3.9083-1.1721 5.8689-.0931.4961-.2405.6174-.7019.3574-.403-.2274-.8471-.3856-1.328-.4852 1.1309 1.1785 2.2379 2.383 3.3991 3.5291 1.0009.9879 1.7591 2.1101 2.3159 3.4034.7626 1.7722 1.5923 3.5161 2.3896 5.2731.4181.9251.1798 1.7526-.5958 2.1209z"/><path d="m37.5407 44.4028c-.0195.0325-.0304.0715-.0434.1083-1.276 3.3645-.7539 2.7102-3.7414 4.7401-.8666.5871-1.7331 1.1742-2.604 1.757-.7691.5156-1.4537.4355-1.9195-.2145-.4983-.6954-.3943-1.5013.3033-2.0429 1.3952-1.0832 2.8012-2.1534 4.2115-3.2171.2795-.2124.455-.429.5113-.806.1582-1.0723.3791-2.1339.6023-3.3471.6347 1.1136 1.5901 1.666 2.4632 2.3029.286.2058.416.3943.2145.7171z"/><path d="m43.5005 24.4893c-.0065 1.393-1.133 2.4827-2.5304 2.4979-1.5316.0173-2.6387-1.419-2.5629-2.5542.0889-1.2956 1.0659-2.4784 2.5867-2.4676 1.4082.0087 2.5131 1.1157 2.5066 2.5239z"/><path d="m46.6723 38.6834c-.364.4203-.9619.4462-1.4862.039-.9662-.7518-1.9238-1.5165-2.8835-2.277-.3661-.2903-.5221-.6152-.3943-1.1287.2622-1.0398.4355-2.1036.6738-3.3038.4116.8276.7777 1.5209 1.0984 2.2336.2144.481.5177.8666.9185 1.2067.6478.5481 1.2739 1.1244 1.8956 1.7028.5091.4745.5676 1.0746.1777 1.5252z"/></g><path d="m39.041 71.25c0 2.0711 1.6831 3.7694 3.7438 3.5626 3.6403-.3652 7.2144-1.2619 10.6068-2.6671 4.5498-1.8846 8.6837-4.6468 12.1659-8.129s6.2444-7.6162 8.129-12.1659c1.8845-4.5497 2.8545-9.426 2.8545-14.3506s-.97-9.8009-2.8545-14.3506c-1.8846-4.5497-4.6468-8.6837-8.129-12.1659s-7.6161-6.24443-12.1659-8.12898c-3.3924-1.40522-6.9665-2.301927-10.6068-2.667177-2.0607-.2067646-3.7438 1.491587-3.7438 3.562657s1.6854 3.72586 3.7403 3.98407c2.6545.33356 5.2581 1.02142 7.7402 2.04954 3.6398 1.50769 6.947 3.71739 9.7327 6.50319 2.7858 2.7857 4.9956 6.0929 6.5032 9.7327s2.2836 7.5408 2.2836 11.4805-.776 7.8407-2.2836 11.4805-3.7174 6.9469-6.5032 9.7327c-2.7857 2.7858-6.0929 4.9955-9.7327 6.5032-2.4821 1.0281-5.0857 1.716-7.7402 2.0495-2.0549.2582-3.7403 1.913-3.7403 3.9841z" fill="#2962ff"/></svg>