<svg width="16" height="13" viewBox="0 0 16 13" fill="none" xmlns="http://www.w3.org/2000/svg">
<path d="M11.1833 8.98339L14.6333 5.53339L14.9833 5.88339C15.0833 5.98339 15.1333 6.10006 15.1333 6.23339C15.1333 6.36673 15.0833 6.48339 14.9833 6.58339L12.2333 9.33339C12.1333 9.43339 12.0167 9.48339 11.8833 9.48339C11.75 9.48339 11.6333 9.43339 11.5333 9.33339L11.1833 8.98339ZM0.5 10.2501C0.5 10.0056 0.569444 9.78339 0.708333 9.58339C0.847222 9.38339 1.03333 9.23895 1.26667 9.15006C1.55556 9.03895 1.83333 8.90839 2.1 8.75839C2.36667 8.60839 2.62222 8.43339 2.86667 8.23339L3.65 9.01673C3.68333 9.07228 3.73889 9.10006 3.81667 9.10006C3.89444 9.10006 3.96111 9.07228 4.01667 9.01673C4.06111 8.97228 4.08056 8.91395 4.075 8.84173C4.06944 8.7695 4.05 8.70562 4.01667 8.65006L3.3 7.91673C3.41111 7.82784 3.51667 7.73062 3.61667 7.62506C3.71667 7.51951 3.81667 7.40562 3.91667 7.28339L4.63333 8.00006C4.66667 8.05562 4.72222 8.08339 4.8 8.08339C4.87778 8.08339 4.94444 8.05562 5 8.00006C5.04444 7.95562 5.06389 7.89728 5.05833 7.82506C5.05278 7.75284 5.03333 7.68895 5 7.63339L4.25 6.88339L4.51667 6.51673C4.60556 6.39451 4.67778 6.25562 4.73333 6.10006L5.6 7.00006C5.63333 7.06673 5.68889 7.09728 5.76667 7.09173C5.84444 7.08617 5.91111 7.05562 5.96667 7.00006C6.01111 6.95562 6.03333 6.89728 6.03333 6.82506C6.03333 6.75284 6.01667 6.68895 5.98333 6.63339L4.95 5.61673L5.91667 3.90006C5.93889 3.85562 5.96389 3.81673 5.99167 3.78339C6.01944 3.75006 6.05 3.71673 6.08333 3.68339L8.73333 1.03339C8.92222 0.844505 9.15556 0.750061 9.43333 0.750061C9.71111 0.750061 9.94444 0.844505 10.1333 1.03339L14.1667 5.06673L7.36667 11.8667C7.27778 11.9556 7.16944 12.0278 7.04167 12.0834C6.91389 12.1389 6.78333 12.1667 6.65 12.1667H1.5C1.22222 12.1667 0.986111 12.0695 0.791667 11.8751C0.597222 11.6806 0.5 11.4445 0.5 11.1667V10.2501ZM6.65 11.1667L12.7667 5.06673L6.65 11.1667ZM1.53333 11.1667H6.65L12.7667 5.06673L9.43333 1.73339L6.78333 4.40006L6.21667 5.45006L6.61667 5.86673C6.86111 6.13339 6.99444 6.43895 7.01667 6.78339C7.03889 7.12784 6.92778 7.42228 6.68333 7.66673L4.65 9.70006C4.40556 9.9445 4.11389 10.0667 3.775 10.0667C3.43611 10.0667 3.15 9.9445 2.91667 9.70006L2.75 9.53339C2.55 9.65562 2.35 9.76117 2.15 9.85006C1.95 9.93895 1.74444 10.0278 1.53333 10.1167V11.1667Z" fill="#F77353"/>
</svg>
