<svg width="40" height="40" viewBox="0 0 40 40" fill="none" xmlns="http://www.w3.org/2000/svg">
<rect width="40" height="40" rx="20" fill="#E3F2FD"/>
<path d="M22.72 16.79L18.43 21.09L16.78 19.44C16.6904 19.3353 16.58 19.2503 16.456 19.1903C16.3319 19.1303 16.1968 19.0965 16.0591 19.0912C15.9213 19.0859 15.784 19.1091 15.6557 19.1594C15.5274 19.2096 15.4108 19.2859 15.3134 19.3833C15.2159 19.4808 15.1396 19.5974 15.0894 19.7257C15.0391 19.854 15.0159 19.9913 15.0212 20.1291C15.0265 20.2668 15.0603 20.4019 15.1203 20.526C15.1803 20.65 15.2653 20.7604 15.37 20.85L17.72 23.21C17.8134 23.3027 17.9243 23.376 18.0461 23.4258C18.1679 23.4755 18.2984 23.5008 18.43 23.5C18.6923 23.4989 18.9437 23.3947 19.13 23.21L24.13 18.21C24.2237 18.117 24.2981 18.0064 24.3489 17.8846C24.3997 17.7627 24.4258 17.632 24.4258 17.5C24.4258 17.368 24.3997 17.2373 24.3489 17.1154C24.2981 16.9936 24.2237 16.883 24.13 16.79C23.9426 16.6037 23.6892 16.4992 23.425 16.4992C23.1608 16.4992 22.9074 16.6037 22.72 16.79ZM20 10C18.0222 10 16.0888 10.5865 14.4443 11.6853C12.7998 12.7841 11.5181 14.3459 10.7612 16.1732C10.0043 18.0004 9.8063 20.0111 10.1922 21.9509C10.578 23.8907 11.5304 25.6725 12.9289 27.0711C14.3275 28.4696 16.1093 29.422 18.0491 29.8079C19.9889 30.1937 21.9996 29.9957 23.8268 29.2388C25.6541 28.4819 27.2159 27.2002 28.3147 25.5557C29.4135 23.9112 30 21.9778 30 20C30 18.6868 29.7413 17.3864 29.2388 16.1732C28.7363 14.9599 27.9997 13.8575 27.0711 12.9289C26.1425 12.0003 25.0401 11.2638 23.8268 10.7612C22.6136 10.2587 21.3132 10 20 10ZM20 28C18.4178 28 16.871 27.5308 15.5554 26.6518C14.2398 25.7727 13.2145 24.5233 12.609 23.0615C12.0035 21.5997 11.845 19.9911 12.1537 18.4393C12.4624 16.8874 13.2243 15.462 14.3432 14.3431C15.462 13.2243 16.8874 12.4624 18.4393 12.1537C19.9911 11.845 21.5997 12.0035 23.0615 12.609C24.5233 13.2145 25.7727 14.2398 26.6518 15.5554C27.5308 16.871 28 18.4177 28 20C28 22.1217 27.1572 24.1566 25.6569 25.6569C24.1566 27.1571 22.1217 28 20 28Z" fill="#2962FF"/>
</svg>
