<svg width="52" height="52" viewBox="0 0 52 52" fill="none" xmlns="http://www.w3.org/2000/svg">
<rect width="52" height="52" rx="8" fill="#E3F2FD"/>
<path d="M29 29H23C16.875 29 12 33.9375 12 40C12 41.125 12.875 42 14 42H38C39.0625 42 40 41.125 40 40C40 33.9375 35.0625 29 29 29ZM15 39C15.5 35.0625 18.875 32 23 32H29C33.0625 32 36.4375 35.0625 36.9375 39H15ZM26 26C30.375 26 34 22.4375 34 18C34 13.625 30.375 10 26 10C21.5625 10 18 13.625 18 18C18 22.4375 21.5625 26 26 26ZM26 13C28.75 13 31 15.25 31 18C31 20.8125 28.75 23 26 23C23.1875 23 21 20.8125 21 18C21 15.25 23.1875 13 26 13Z" fill="#2962FF"/>
</svg>
