<svg width="101" height="31" viewBox="0 0 101 31" fill="none" xmlns="http://www.w3.org/2000/svg">
<rect width="101" height="31" fill="#E5E5E5"/>
<g clip-path="url(#clip0_0_1)">
<rect width="375" height="667" transform="translate(-137 -573)" fill="white"/>
<path d="M41.4115 12.9934L42.9479 16.5198L44.5469 12.9934H45.9709L47.5699 16.6259L49.1814 12.9934H51.6923L48.3444 19.6965H46.833L45.234 16.0247L43.7098 19.6965H42.1731L38.8881 12.9934H41.4115Z" fill="#414544"/>
<path d="M52.6297 10.4197C52.6286 10.2423 52.6625 10.0666 52.7295 9.90354C52.8607 9.58367 53.1044 9.32877 53.4102 9.19155C53.5664 9.12249 53.7342 9.08691 53.9037 9.08691C54.0733 9.08691 54.2411 9.12249 54.3972 9.19155C54.7031 9.32874 54.9468 9.58365 55.0779 9.90354C55.1439 10.0669 55.1778 10.2424 55.1778 10.4197C55.1778 10.5971 55.1439 10.7726 55.0779 10.9359C54.9468 11.2558 54.7031 11.5107 54.3972 11.6479C54.2411 11.7169 54.0733 11.7525 53.9037 11.7525C53.7342 11.7525 53.5664 11.7169 53.4102 11.6479C53.1044 11.5107 52.8607 11.2558 52.7295 10.9359C52.6625 10.7729 52.6285 10.5972 52.6297 10.4197ZM55.0407 12.9937V19.6971H52.7796V12.9937H55.0407Z" fill="#414544"/>
<path d="M61.1496 14.7186C60.7739 14.5032 60.3537 14.3865 59.9253 14.3787C59.7482 14.3704 59.5726 14.4158 59.4196 14.5094C59.3603 14.5449 59.3112 14.5964 59.2774 14.6584C59.2435 14.7205 59.2261 14.7909 59.227 14.8623C59.2249 14.9271 59.2359 14.9916 59.2591 15.0517C59.2906 15.1109 59.3385 15.1586 59.3965 15.1888C59.4947 15.2431 59.5998 15.2826 59.7086 15.3063C59.8462 15.3412 60.0274 15.3848 60.2522 15.437C60.7757 15.5155 61.2638 15.7593 61.6512 16.1359C61.8059 16.3077 61.9264 16.5099 62.0058 16.7308C62.0851 16.9517 62.1218 17.187 62.1135 17.4228C62.1191 17.7891 62.0421 18.1517 61.8888 18.4811C61.7416 18.7914 61.5279 19.062 61.2642 19.2716C60.9747 19.4971 60.6483 19.6654 60.301 19.7684C59.8991 19.8898 59.4824 19.9492 59.0642 19.9447C58.1596 19.9331 57.2748 19.6662 56.5032 19.1722L57.3277 17.4997C57.8475 17.9114 58.4745 18.1483 59.1258 18.1791C59.3066 18.1872 59.4853 18.137 59.6379 18.0354C59.6985 17.9974 59.7486 17.9438 59.7836 17.8797C59.8186 17.8156 59.8372 17.7431 59.8377 17.6693C59.8393 17.596 59.8285 17.523 59.8056 17.4537C59.7779 17.3888 59.7321 17.3341 59.6742 17.2969C59.5834 17.2379 59.4844 17.1938 59.3808 17.1662C59.2523 17.127 59.0836 17.0856 58.8747 17.042C58.336 16.9703 57.8274 16.7416 57.407 16.382C57.2629 16.2205 57.1516 16.0301 57.0798 15.8223C57.0081 15.6144 56.9774 15.3936 56.9896 15.173C56.9844 14.8242 57.0526 14.4785 57.1893 14.1604C57.3208 13.8619 57.5177 13.6 57.7641 13.396C58.0338 13.1761 58.3411 13.012 58.6695 12.9124C59.0528 12.7949 59.4505 12.7376 59.8499 12.7425C60.5575 12.7424 61.2581 12.889 61.9112 13.1737L61.1496 14.7186Z" fill="#414544"/>
<path d="M65.6092 16.7436C65.6092 17.7628 66.0673 18.2724 66.9835 18.2724C67.2058 18.2831 67.4267 18.2304 67.6225 18.1198C67.8184 18.0093 67.9818 17.8452 68.0954 17.645H70.2807C69.8391 19.1785 68.7356 19.9451 66.9703 19.9449C66.4644 19.951 65.9613 19.8647 65.4837 19.69C65.055 19.5334 64.6615 19.2865 64.3278 18.9645C64.0063 18.6496 63.7529 18.2665 63.5844 17.8408C63.4045 17.3763 63.3154 16.8787 63.3224 16.3775C63.3152 15.8626 63.3999 15.3507 63.5722 14.8682C63.7277 14.4381 63.9707 14.0485 64.2844 13.7264C64.6041 13.4052 64.985 13.1581 65.4021 13.0013C65.8772 12.8247 66.3785 12.7383 66.8826 12.7464C67.3805 12.7386 67.8757 12.825 68.3442 13.0013C68.7587 13.1589 69.1343 13.4114 69.4436 13.7401C69.7522 14.0773 69.9867 14.4809 70.1307 14.9226C70.2951 15.4295 70.3754 15.962 70.368 16.4971V16.7453L65.6092 16.7436ZM68.2575 15.3717C68.1934 15.0593 68.0306 14.7786 67.7955 14.5747C67.55 14.3818 67.2519 14.2765 66.9449 14.2741C66.6379 14.2718 66.3383 14.3725 66.0902 14.5616C65.8613 14.7695 65.7129 15.0577 65.6728 15.372L68.2575 15.3717Z" fill="#414544"/>
<path d="M71.9677 12.9935H74.2288V13.8166C74.4985 13.5261 74.8208 13.2945 75.1768 13.1353C75.5328 12.9761 75.9155 12.8924 76.3026 12.889C76.7397 12.8724 77.1728 12.9803 77.5557 13.2012C77.9385 13.4222 78.2568 13.7479 78.4764 14.1434C78.6953 13.7464 79.013 13.4189 79.3957 13.1957C79.7785 12.9725 80.2119 12.862 80.6498 12.8759C80.9382 12.8741 81.225 12.9205 81.4994 13.0133C81.7573 13.0994 81.9925 13.247 82.1866 13.4445C82.3905 13.6611 82.5462 13.9221 82.6425 14.2089C82.763 14.5743 82.8202 14.9593 82.8114 15.3457V19.697H80.5503V16.3912C80.5553 16.1107 80.5323 15.8305 80.4816 15.555C80.4498 15.3724 80.3818 15.1988 80.2819 15.0455C80.2057 14.9328 80.0992 14.8464 79.9759 14.7973C79.8555 14.753 79.7287 14.7308 79.6012 14.7318C78.8766 14.7318 78.5143 15.285 78.5143 16.3912V19.697H76.2532V16.3912C76.2576 16.1089 76.2368 15.8268 76.1909 15.5486C76.1616 15.3622 76.1003 15.1828 76.0098 15.0193C75.9398 14.8962 75.8319 14.8015 75.7038 14.7506C75.5632 14.7001 75.4152 14.6758 75.2665 14.6788C75.1306 14.6778 74.9955 14.6999 74.8664 14.7442C74.7346 14.7932 74.6195 14.8819 74.5357 14.9991C74.4267 15.155 74.3502 15.333 74.3109 15.5217C74.2504 15.8068 74.2231 16.0986 74.2297 16.3906V19.6963H71.9686L71.9677 12.9935Z" fill="#414544"/>
<path d="M89.6187 12.9935H91.8926V19.697H89.6187V18.9521C89.3875 19.2623 89.089 19.5105 88.748 19.6764C88.407 19.8422 88.0332 19.9209 87.6575 19.9059C87.2154 19.9107 86.7772 19.8192 86.3709 19.6372C85.9841 19.4622 85.6356 19.2066 85.3466 18.8859C85.051 18.5572 84.8198 18.1711 84.6659 17.7494C84.5001 17.2948 84.4174 16.8116 84.4222 16.3251C84.4199 15.8585 84.5004 15.3955 84.6595 14.9595C84.8095 14.5422 85.0342 14.1587 85.3216 13.8294C85.6062 13.5059 85.9505 13.2459 86.3336 13.065C86.7421 12.8739 87.1853 12.778 87.6327 12.7839C88.0043 12.7735 88.3737 12.8463 88.7162 12.9973C89.0587 13.1483 89.3664 13.374 89.6187 13.6595V12.9935ZM86.7706 16.3254C86.7671 16.7343 86.9169 17.1284 87.188 17.423C87.319 17.5638 87.4763 17.675 87.6501 17.7497C87.8342 17.8292 88.0318 17.8692 88.2309 17.8673C88.4261 17.8683 88.6195 17.8283 88.7996 17.7497C88.9734 17.6749 89.1307 17.5637 89.2619 17.423C89.3919 17.282 89.4975 17.1185 89.574 16.9397C89.6536 16.7549 89.6941 16.5543 89.6928 16.3516C89.6936 16.1469 89.6531 15.9444 89.574 15.7572C89.4986 15.5758 89.3929 15.4099 89.2619 15.2672C89.1307 15.1264 88.9734 15.0152 88.7996 14.9404C88.6195 14.8618 88.4261 14.8218 88.2309 14.8229C88.0317 14.821 87.8342 14.8609 87.6501 14.9404C87.4763 15.0151 87.3191 15.1264 87.188 15.2672C87.0593 15.4056 86.9556 15.5671 86.8817 15.7441C86.8063 15.9277 86.7684 16.1259 86.7706 16.3258V16.3254Z" fill="#414544"/>
<path d="M93.7415 12.9936H96.0022V13.843C96.2477 13.5029 96.5695 13.2313 96.9391 13.0524C97.2937 12.9106 97.6712 12.8421 98.0508 12.8509C98.4473 12.8399 98.8414 12.9179 99.2067 13.0796C99.5224 13.2282 99.8022 13.4493 100.025 13.7264C100.204 13.9453 100.333 14.2046 100.4 14.4841C100.47 14.7966 100.504 15.1169 100.5 15.4379V19.6984H98.2386V16.3124C98.2441 16.0427 98.221 15.7732 98.1699 15.5087C98.1344 15.3247 98.0501 15.1549 97.9265 15.0187C97.8322 14.9181 97.7166 14.842 97.589 14.7968C97.46 14.7525 97.325 14.7304 97.1893 14.7313C97.0263 14.7202 96.863 14.7467 96.7108 14.8088C96.5587 14.8709 96.4213 14.9671 96.3085 15.0906C96.0882 15.3809 95.979 15.7465 96.0022 16.1163V19.6984H93.7415V12.9936Z" fill="#414544"/>
<path d="M42.1259 23.0523C42.1279 22.8672 42.1994 22.6903 42.325 22.5598C42.4506 22.4294 42.6203 22.3559 42.7973 22.3551C42.8862 22.3535 42.9745 22.371 43.0568 22.4066C43.139 22.4421 43.2134 22.4949 43.2754 22.5616C43.3394 22.6253 43.3901 22.7022 43.4242 22.7875C43.4582 22.8728 43.4749 22.9646 43.4732 23.057C43.4746 23.1501 43.4579 23.2426 43.4238 23.3286C43.3898 23.4147 43.3393 23.4926 43.2754 23.5574C43.2145 23.6243 43.141 23.6772 43.0595 23.7127C42.978 23.7483 42.8903 23.7657 42.8021 23.764C42.7129 23.7642 42.6245 23.746 42.542 23.7102C42.4596 23.6745 42.3848 23.622 42.3219 23.5558C42.259 23.4896 42.2093 23.4111 42.1756 23.3246C42.142 23.2382 42.1251 23.1456 42.1259 23.0523ZM43.3168 25.0002V29.6842H42.2823V24.9999L43.3168 25.0002Z" fill="#8C8C8C"/>
<path d="M44.8622 24.9999H45.9012V25.4328C46.058 25.2573 46.2472 25.1169 46.4574 25.0202C46.6675 24.9235 46.8943 24.8725 47.1239 24.8703C47.351 24.8568 47.578 24.896 47.789 24.9849C47.9999 25.0738 48.1894 25.2104 48.344 25.3848C48.6308 25.7975 48.7648 26.305 48.721 26.8131V29.6839H47.682V27.0677C47.7106 26.7368 47.6468 26.4043 47.4983 26.1105C47.4191 26.0129 47.318 25.9373 47.204 25.8904C47.0901 25.8435 46.9668 25.8268 46.8452 25.8419C46.7042 25.828 46.5621 25.8537 46.4337 25.9162C46.3052 25.9788 46.1951 26.076 46.1144 26.1979C45.9439 26.5806 45.871 27.0031 45.9028 27.424V29.6843H44.8638L44.8622 24.9999Z" fill="#8C8C8C"/>
<path d="M50.2606 24.9998H51.2996V25.4327C51.4564 25.2572 51.6456 25.1168 51.8558 25.0201C52.066 24.9234 52.2927 24.8724 52.5224 24.8702C52.7491 24.857 52.9759 24.8962 53.1865 24.9852C53.3971 25.0741 53.5864 25.2105 53.7409 25.3847C54.0277 25.7974 54.1616 26.3049 54.1178 26.813V29.6838H53.0788V27.0676C53.1074 26.7367 53.0436 26.4042 52.8951 26.1104C52.8159 26.0128 52.7148 25.9372 52.6008 25.8903C52.4869 25.8435 52.3636 25.8268 52.242 25.8418C52.101 25.8279 51.9589 25.8535 51.8305 25.9161C51.702 25.9787 51.5918 26.0759 51.5112 26.1978C51.3406 26.5805 51.2678 27.003 51.2996 27.4239V29.6842H50.2606V24.9998Z" fill="#8C8C8C"/>
<path d="M55.4458 27.3083C55.4409 26.986 55.5001 26.6661 55.6196 26.3689C55.7391 26.0718 55.9163 25.8038 56.14 25.582C56.5967 25.1245 57.205 24.8695 57.8374 24.8704C58.4698 24.8712 59.0774 25.1279 59.5329 25.5868C59.9761 26.0568 60.2242 26.6907 60.2233 27.3509C60.2225 28.0111 59.9728 28.6443 59.5284 29.1131C59.302 29.3444 59.0336 29.5259 58.7391 29.647C58.4446 29.7681 58.1299 29.8264 57.8135 29.8184C57.4999 29.8263 57.1881 29.7663 56.8978 29.6421C56.6074 29.518 56.3447 29.3324 56.1262 29.097C55.9021 28.8632 55.7261 28.5839 55.6091 28.2763C55.4921 27.9686 55.4365 27.6392 55.4458 27.3083ZM56.5032 27.3274C56.482 27.7321 56.6104 28.1297 56.8618 28.4381C57.1212 28.7024 57.4688 28.8508 57.8309 28.8517C58.193 28.8525 58.5413 28.7059 58.8018 28.4428C59.0371 28.1322 59.1651 27.7476 59.1651 27.3513C59.1651 26.955 59.0371 26.5704 58.8018 26.2598C58.5443 25.9948 58.1976 25.8464 57.8365 25.8464C57.4753 25.8464 57.1286 25.9948 56.8711 26.2598C56.621 26.5519 56.4898 26.9346 56.5054 27.3264L56.5032 27.3274Z" fill="#8C8C8C"/>
<path d="M61.9212 25.0005L63.0797 27.6308L64.2336 25.0005H65.3969L63.0707 30.0046L60.7627 25.0005H61.9212Z" fill="#8C8C8C"/>
<path d="M69.4711 24.9998H70.5102V29.6835H69.4711V29.1928C69.2802 29.3972 69.051 29.5582 68.7979 29.6658C68.5448 29.7733 68.2732 29.8251 68.0001 29.8178C67.727 29.8106 67.4583 29.7446 67.2107 29.6238C66.9631 29.503 66.742 29.3301 66.5611 29.1159C66.153 28.6197 65.938 27.9811 65.9588 27.3269C65.9386 26.683 66.1541 26.0553 66.5611 25.5718C66.7478 25.3459 66.9799 25.1658 67.2407 25.0445C67.5016 24.9232 67.7848 24.8635 68.0702 24.8698C68.3358 24.8734 68.5978 24.9349 68.8392 25.0506C69.0807 25.1663 69.2964 25.3335 69.4724 25.5415L69.4711 24.9998ZM67.0158 27.3272C66.9993 27.7245 67.122 28.1144 67.361 28.4238C67.4693 28.5606 67.6058 28.6702 67.7602 28.7443C67.9147 28.8183 68.0831 28.855 68.2529 28.8516C68.4273 28.8582 68.6008 28.8245 68.7613 28.753C68.9218 28.6815 69.0653 28.5739 69.1815 28.4379C69.411 28.1264 69.5355 27.7443 69.5355 27.3511C69.5355 26.9578 69.411 26.5757 69.1815 26.2643C69.0675 26.1276 68.9259 26.0192 68.7669 25.9468C68.6079 25.8745 68.4355 25.84 68.2622 25.8458C68.0929 25.8428 67.925 25.8792 67.7707 25.9524C67.6165 26.0256 67.4797 26.1337 67.3703 26.269C67.131 26.5633 67.0047 26.94 67.0158 27.3262V27.3272Z" fill="#8C8C8C"/>
<path d="M73.1178 26.0097V29.6835H72.0833V26.0097H71.6421V24.9998H72.0833V23.283H73.1178V24.9998H73.9221V26.0097H73.1178Z" fill="#8C8C8C"/>
<path d="M74.7046 23.0523C74.7066 22.8672 74.7782 22.6903 74.9038 22.5598C75.0294 22.4294 75.199 22.3559 75.376 22.3551C75.465 22.3535 75.5533 22.3711 75.6355 22.4066C75.7177 22.4421 75.7921 22.4949 75.8541 22.5616C75.9182 22.6253 75.9688 22.7022 76.0029 22.7875C76.0369 22.8728 76.0536 22.9646 76.0519 23.057C76.0534 23.1501 76.0366 23.2426 76.0026 23.3286C75.9685 23.4147 75.918 23.4926 75.8541 23.5574C75.7932 23.6243 75.7196 23.6773 75.6381 23.7128C75.5565 23.7484 75.4688 23.7658 75.3805 23.7639C75.2913 23.7642 75.2029 23.7459 75.1206 23.7101C75.0382 23.6744 74.9634 23.6219 74.9005 23.5557C74.8377 23.4895 74.788 23.411 74.7543 23.3245C74.7207 23.2381 74.7038 23.1456 74.7046 23.0523ZM75.8955 25.0002V29.6842H74.8623V24.9999L75.8955 25.0002Z" fill="#8C8C8C"/>
<path d="M77.2299 27.3083C77.225 26.986 77.2842 26.6661 77.4037 26.3689C77.5232 26.0718 77.7004 25.8038 77.9241 25.582C78.3808 25.1245 78.989 24.8695 79.6214 24.8704C80.2539 24.8712 80.8614 25.1279 81.317 25.5868C81.7601 26.0569 82.0081 26.6908 82.0072 27.351C82.0063 28.0112 81.7566 28.6443 81.3122 29.1131C81.0857 29.3444 80.8174 29.5259 80.5228 29.647C80.2283 29.7682 79.9136 29.8264 79.5973 29.8184C79.2837 29.8263 78.9719 29.7663 78.6815 29.6422C78.3912 29.518 78.1285 29.3324 77.9099 29.097C77.6859 28.8632 77.51 28.5839 77.393 28.2762C77.276 27.9686 77.2205 27.6392 77.2299 27.3083ZM78.2872 27.3274C78.266 27.7321 78.3945 28.1297 78.6459 28.4381C78.9052 28.7024 79.2528 28.8508 79.615 28.8517C79.9771 28.8525 80.3253 28.7059 80.5859 28.4428C80.8212 28.1322 80.9492 27.7476 80.9492 27.3513C80.9492 26.955 80.8212 26.5704 80.5859 26.2598C80.3284 25.9948 79.9816 25.8463 79.6204 25.8463C79.2592 25.8463 78.9124 25.9948 78.6549 26.2598C78.4041 26.5517 78.2722 26.9344 78.2872 27.3264V27.3274Z" fill="#8C8C8C"/>
<path d="M83.3359 24.9998H84.375V25.4327C84.5318 25.2572 84.721 25.1168 84.9313 25.0201C85.1415 24.9234 85.3683 24.8724 85.598 24.8702C85.8248 24.857 86.0515 24.8962 86.2621 24.9852C86.4728 25.0741 86.6621 25.2105 86.8165 25.3847C87.1033 25.7974 87.2373 26.3049 87.1935 26.813V29.6838H86.1551V27.0676C86.1837 26.7367 86.1199 26.4042 85.9714 26.1104C85.8922 26.0128 85.7911 25.9372 85.6771 25.8903C85.5632 25.8434 85.4399 25.8267 85.3183 25.8418C85.1773 25.8279 85.0352 25.8536 84.9068 25.9161C84.7783 25.9787 84.6682 26.0759 84.5875 26.1978C84.417 26.5805 84.3441 27.003 84.3759 27.4239V29.6842H83.3369L83.3359 24.9998Z" fill="#8C8C8C"/>
<path d="M91.3361 25.7981L90.4811 26.2744C90.3462 25.9858 90.1792 25.8416 89.9799 25.8418C89.8894 25.84 89.8018 25.8753 89.7358 25.9402C89.7028 25.9723 89.6767 26.0115 89.6593 26.0551C89.6419 26.0986 89.6336 26.1456 89.635 26.1928C89.635 26.3719 89.8342 26.5498 90.2326 26.7264C90.6384 26.882 91.0138 27.1134 91.3406 27.4092C91.5382 27.6393 91.6406 27.9419 91.6254 28.2508C91.6294 28.465 91.5886 28.6774 91.5061 28.8734C91.4235 29.0694 91.3011 29.2442 91.1473 29.3857C90.939 29.5728 90.6908 29.7049 90.4234 29.7708C90.1561 29.8367 89.8776 29.8344 89.6113 29.7642C89.345 29.694 89.0987 29.5579 88.8932 29.3673C88.6877 29.1768 88.5289 28.9374 88.4303 28.6693L89.313 28.2414C89.3884 28.3961 89.4826 28.5399 89.5933 28.6693C89.7146 28.7892 89.8759 28.8547 90.0428 28.852C90.3922 28.852 90.5668 28.6853 90.5668 28.3519C90.5668 28.1596 90.432 27.9805 90.1622 27.8146C90.0582 27.7599 89.954 27.707 89.8495 27.6557C89.7451 27.6044 89.6394 27.5515 89.5326 27.4969C89.2936 27.389 89.0779 27.232 88.8981 27.0351C88.7358 26.821 88.6526 26.553 88.6637 26.2801C88.6586 26.0918 88.6916 25.9044 88.7605 25.7304C88.8295 25.5563 88.9328 25.3995 89.0638 25.2702C89.3319 25.006 89.6886 24.8627 90.0569 24.8712C90.3354 24.8695 90.6076 24.9576 90.8364 25.1234C91.0653 25.2893 91.2398 25.5249 91.3361 25.7981Z" fill="#8C8C8C"/>
<path d="M21.3446 13.7695H18.7948L17.1663 16.645L18.8359 19.5712L21.3446 13.7695Z" fill="#359C9D"/>
<path d="M12.4955 25.1097L5.00387 11.9822H0.5L10.6498 29.5385H14.667L17.129 23.8439L15.1505 20.4213L12.4955 25.1097Z" fill="#359C9D"/>
<path d="M27.0775 0.567038L26.4996 0.25L18.7444 13.9448H21.2954L27.0775 0.567038Z" fill="#0078B7"/>
<path d="M22.0302 25.1096L18.7955 19.4399L17.1259 16.5136L14.5389 11.9797H10.0341L14.9146 20.4192L16.8931 23.8418L20.1855 29.5364H24.2026L31.0761 13.6375H28.5254L22.0302 25.1096Z" fill="#F98730"/>
<path d="M36.1402 0.25L28.385 13.9448H30.936L36.7198 0.567038L36.1402 0.25Z" fill="#B31857"/>
</g>
<defs>
<clipPath id="clip0_0_1">
<rect width="375" height="667" fill="white" transform="translate(-137 -573)"/>
</clipPath>
</defs>
</svg>
