<svg width="117" height="343" viewBox="0 0 117 343" fill="none" xmlns="http://www.w3.org/2000/svg">
<path d="M95.0959 37.3853V234.647C95.0959 237.658 96.3436 240.513 98.4925 242.608C109.245 253.09 115.921 267.732 115.921 283.933C115.921 316.268 89.3274 342.393 56.8185 341.628L56.8067 342.127L56.8184 341.628C54.5945 341.575 52.4004 341.395 50.2435 341.094C22.3262 337.198 0.665217 313.069 0.500963 284.271C0.407674 267.933 7.10216 253.16 17.9308 242.605L17.5818 242.247L17.9309 242.605C20.0785 240.511 21.3247 237.656 21.3247 234.648V37.3853C21.3247 19.728 33.7322 4.96759 50.3042 1.34899C52.851 0.793365 55.4962 0.5 58.2107 0.5C78.5817 0.5 95.0959 17.0142 95.0959 37.3853Z" stroke="url(#paint0_linear_452_10638)"/>
<path d="M70.773 251.649V35.112C70.773 28.1741 65.1491 22.5502 58.2112 22.5502C51.2734 22.5502 45.6495 28.1741 45.6495 35.112V251.649C32.4065 256.806 23.119 269.874 23.5957 285.048C24.1623 303.088 38.8071 317.845 56.8421 318.54C76.5933 319.302 92.8452 303.516 92.8452 283.933C92.8445 269.237 83.69 256.679 70.773 251.649Z" fill="#E3F2FD"/>
<path d="M92.8419 283.935C92.8419 303.514 76.59 319.302 56.8436 318.542C38.8066 317.843 24.1583 303.089 23.5958 285.051C23.1171 269.871 32.4094 256.802 45.6523 251.651V69.6494H70.7704V251.652C83.6942 256.681 92.8419 269.24 92.8419 283.935Z" fill="url(#paint1_linear_452_10638)"/>
<defs>
<linearGradient id="paint0_linear_452_10638" x1="58.2105" y1="0" x2="58.2105" y2="342.144" gradientUnits="userSpaceOnUse">
<stop stop-color="#F44336"/>
<stop offset="1" stop-color="#2196F3"/>
</linearGradient>
<linearGradient id="paint1_linear_452_10638" x1="58.21" y1="69.8581" x2="58.21" y2="318.569" gradientUnits="userSpaceOnUse">
<stop stop-color="#FF2738"/>
<stop offset="1" stop-color="#2962FF"/>
</linearGradient>
</defs>
</svg>
